<svg width="360" height="247" viewBox="0 0 360 247" fill="none" xmlns="http://www.w3.org/2000/svg">
<g filter="url(#filter0_d)">
<rect x="6" y="7" width="339.621" height="229.837" rx="9" fill="white"/>
<rect x="7" y="8" width="337.621" height="227.837" rx="8" stroke="#3F98BB" stroke-width="2"/>
</g>
<path d="M73.8453 45.8955H60.8487C59.0552 45.8955 57.5996 44.6635 57.5996 43.1454V32.1446C57.5996 30.6265 59.0552 29.3944 60.8487 29.3944H73.8453C75.6388 29.3944 77.0944 30.6265 77.0944 32.1446V43.1454C77.0944 44.6635 75.6388 45.8955 73.8453 45.8955ZM64.0979 40.3952H70.5961V34.8948H64.0979V40.3952Z" fill="white" stroke="#3F98BB" stroke-width="3"/>
<path d="M120.348 45.8955H108.164C106.483 45.8955 105.118 44.6635 105.118 43.1454V32.1446C105.118 30.6265 106.483 29.3944 108.164 29.3944H120.348C122.03 29.3944 123.395 30.6265 123.395 32.1446V43.1454C123.395 44.6635 122.03 45.8955 120.348 45.8955ZM111.21 40.3952H117.302V34.8948H111.21V40.3952Z" fill="white" stroke="#3F98BB" stroke-width="3"/>
<path d="M166.649 45.8955H154.465C152.783 45.8955 151.418 44.6635 151.418 43.1454V32.1446C151.418 30.6265 152.783 29.3944 154.465 29.3944H166.649C168.33 29.3944 169.695 30.6265 169.695 32.1446V43.1454C169.695 44.6635 168.33 45.8955 166.649 45.8955ZM157.511 40.3952H163.603V34.8948H157.511V40.3952Z" fill="white" stroke="#3F98BB" stroke-width="3"/>
<path d="M209.239 56.5034H26.6786C24.9411 56.5034 23.531 55.2965 23.531 53.8093V30.9098C23.531 24.2258 29.886 18.7865 37.6952 18.7865H198.223C206.032 18.7865 212.387 24.2258 212.387 30.9098V53.8093C212.387 55.2965 210.977 56.5034 209.239 56.5034ZM29.8262 51.1153H206.092V30.9098C206.092 27.1974 202.56 24.1747 198.223 24.1747H37.6952C33.3578 24.1747 29.8262 27.1974 29.8262 30.9098V51.1153Z" fill="white" stroke="#3F98BB" stroke-width="3"/>
<path d="M212.598 77.2191H143.283C142.118 77.2191 141.082 77.09 140.351 76.8913C139.983 76.791 139.72 76.6804 139.562 76.5785C139.54 76.5645 139.522 76.5518 139.507 76.5405C139.522 76.5292 139.54 76.5165 139.562 76.5024C139.72 76.4006 139.983 76.29 140.351 76.1896C141.082 75.9909 142.118 75.8618 143.283 75.8618H212.598C213.762 75.8618 214.799 75.9909 215.529 76.1896C215.898 76.29 216.16 76.4006 216.319 76.5024C216.341 76.5165 216.359 76.5292 216.374 76.5405C216.359 76.5518 216.341 76.5645 216.319 76.5785C216.16 76.6804 215.898 76.791 215.529 76.8913C214.799 77.09 213.762 77.2191 212.598 77.2191ZM139.437 76.4756C139.437 76.4756 139.438 76.4765 139.439 76.4784C139.438 76.4765 139.437 76.4756 139.437 76.4756ZM139.439 76.6025C139.438 76.6045 139.437 76.6054 139.437 76.6054C139.437 76.6054 139.438 76.6044 139.439 76.6025ZM216.443 76.6054C216.443 76.6054 216.443 76.6045 216.442 76.6025C216.443 76.6044 216.443 76.6054 216.443 76.6054ZM216.442 76.4784C216.443 76.4765 216.443 76.4756 216.443 76.4756C216.443 76.4756 216.443 76.4765 216.442 76.4784Z" fill="black" stroke="black"/>
<path d="M237.791 77.2191H229.262C228.116 77.2191 227.097 77.0901 226.38 76.8919C226.018 76.7917 225.761 76.6816 225.606 76.5805C225.583 76.5656 225.564 76.5523 225.549 76.5405C225.564 76.5287 225.583 76.5154 225.606 76.5005C225.761 76.3994 226.018 76.2892 226.38 76.1891C227.097 75.9908 228.116 75.8618 229.262 75.8618H237.791C238.936 75.8618 239.955 75.9908 240.672 76.1891C241.035 76.2892 241.292 76.3994 241.446 76.5005C241.469 76.5154 241.488 76.5287 241.503 76.5405C241.488 76.5523 241.469 76.5656 241.446 76.5805C241.292 76.6816 241.035 76.7917 240.672 76.8919C239.955 77.0901 238.936 77.2191 237.791 77.2191ZM225.484 76.4784C225.485 76.4784 225.485 76.4794 225.486 76.4813C225.485 76.4794 225.484 76.4785 225.484 76.4784ZM225.486 76.5996C225.485 76.6016 225.485 76.6025 225.484 76.6025C225.484 76.6025 225.485 76.6015 225.486 76.5996ZM241.568 76.6025C241.568 76.6025 241.567 76.6016 241.566 76.5996C241.567 76.6015 241.568 76.6025 241.568 76.6025ZM241.566 76.4813C241.567 76.4794 241.568 76.4784 241.568 76.4784C241.568 76.4785 241.567 76.4794 241.566 76.4813Z" fill="black" stroke="black"/>
<path d="M212.597 106.685H143.282C142.118 106.685 141.081 106.556 140.351 106.358C139.982 106.257 139.72 106.147 139.561 106.045C139.539 106.031 139.521 106.018 139.506 106.007C139.521 105.995 139.539 105.983 139.561 105.969C139.72 105.867 139.982 105.756 140.351 105.656C141.081 105.457 142.118 105.328 143.282 105.328H212.597C213.762 105.328 214.798 105.457 215.529 105.656C215.898 105.756 216.16 105.867 216.318 105.969C216.34 105.983 216.358 105.995 216.374 106.007C216.358 106.018 216.34 106.031 216.318 106.045C216.16 106.147 215.898 106.257 215.529 106.358C214.798 106.556 213.762 106.685 212.597 106.685ZM139.437 105.942C139.437 105.942 139.438 105.943 139.439 105.945C139.437 105.943 139.437 105.942 139.437 105.942ZM139.439 106.069C139.438 106.071 139.437 106.072 139.437 106.072C139.437 106.072 139.437 106.071 139.439 106.069ZM216.443 106.072C216.443 106.072 216.442 106.071 216.441 106.069C216.442 106.071 216.443 106.072 216.443 106.072ZM216.441 105.945C216.442 105.943 216.443 105.942 216.443 105.942C216.443 105.942 216.442 105.943 216.441 105.945Z" fill="black" stroke="black"/>
<path d="M238.252 106.685H229.723C228.578 106.685 227.559 106.556 226.841 106.358C226.479 106.258 226.222 106.148 226.067 106.047C226.044 106.032 226.026 106.019 226.01 106.007C226.026 105.995 226.044 105.982 226.067 105.967C226.222 105.866 226.479 105.756 226.841 105.655C227.559 105.457 228.578 105.328 229.723 105.328H238.252C239.397 105.328 240.416 105.457 241.134 105.655C241.496 105.756 241.753 105.866 241.908 105.967C241.931 105.982 241.949 105.995 241.965 106.007C241.949 106.019 241.931 106.032 241.908 106.047C241.753 106.148 241.496 106.258 241.134 106.358C240.416 106.556 239.397 106.685 238.252 106.685ZM225.946 105.945C225.946 105.945 225.947 105.946 225.948 105.948C225.946 105.946 225.946 105.945 225.946 105.945ZM225.948 106.066C225.947 106.068 225.946 106.069 225.946 106.069C225.946 106.069 225.946 106.068 225.948 106.066ZM242.029 106.069C242.029 106.069 242.028 106.068 242.027 106.066C242.029 106.068 242.029 106.069 242.029 106.069ZM242.027 105.948C242.028 105.946 242.029 105.945 242.029 105.945C242.029 105.945 242.029 105.946 242.027 105.948Z" fill="black" stroke="black"/>
<path d="M238.252 92.5416H170.02C168.875 92.5416 167.855 92.4126 167.138 92.2143C166.776 92.1142 166.519 92.0041 166.364 91.903C166.341 91.8881 166.323 91.8747 166.307 91.863C166.323 91.8512 166.341 91.8378 166.364 91.8229C166.519 91.7219 166.776 91.6117 167.138 91.5116C167.855 91.3133 168.875 91.1843 170.02 91.1843H238.252C239.397 91.1843 240.416 91.3133 241.133 91.5116C241.496 91.6117 241.753 91.7219 241.907 91.8229C241.93 91.8378 241.949 91.8512 241.964 91.863C241.949 91.8747 241.93 91.8881 241.907 91.903C241.753 92.0041 241.496 92.1142 241.133 92.2143C240.416 92.4126 239.397 92.5416 238.252 92.5416ZM166.243 91.8009C166.243 91.8009 166.244 91.8019 166.245 91.8038C166.243 91.8019 166.243 91.8009 166.243 91.8009ZM166.245 91.9221C166.244 91.9241 166.243 91.925 166.243 91.925C166.243 91.925 166.243 91.924 166.245 91.9221ZM242.029 91.925C242.029 91.925 242.028 91.9241 242.027 91.9221C242.028 91.924 242.029 91.925 242.029 91.925ZM242.027 91.8038C242.028 91.8019 242.029 91.8009 242.029 91.8009C242.029 91.8009 242.028 91.8019 242.027 91.8038Z" fill="black" stroke="black"/>
<path d="M95.1992 166.118H23.3713C20.8933 166.118 18.8821 165.59 18.8821 164.939C18.8821 164.289 20.8933 163.761 23.3713 163.761H95.1992C97.6773 163.761 99.6885 164.289 99.6885 164.939C99.6885 165.59 97.6773 166.118 95.1992 166.118Z" fill="black"/>
<path d="M95.1992 166.118H23.3713C20.8933 166.118 18.8821 165.59 18.8821 164.939C18.8821 164.289 20.8933 163.761 23.3713 163.761H95.1992C97.6773 163.761 99.6885 164.289 99.6885 164.939C99.6885 165.59 97.6773 166.118 95.1992 166.118Z" stroke="black"/>
<path d="M122.233 166.118H113.449C111.025 166.118 109.058 165.59 109.058 164.939C109.058 164.289 111.025 163.761 113.449 163.761H122.233C124.657 163.761 126.624 164.289 126.624 164.939C126.624 165.59 124.657 166.118 122.233 166.118Z" fill="black"/>
<path d="M122.233 166.118H113.449C111.025 166.118 109.058 165.59 109.058 164.939C109.058 164.289 111.025 163.761 113.449 163.761H122.233C124.657 163.761 126.624 164.289 126.624 164.939C126.624 165.59 124.657 166.118 122.233 166.118Z" stroke="black"/>
<path d="M95.1992 215.621H23.3713C20.8933 215.621 18.8821 215.093 18.8821 214.443C18.8821 213.792 20.8933 213.264 23.3713 213.264H95.1992C97.6773 213.264 99.6885 213.792 99.6885 214.443C99.6885 215.093 97.6773 215.621 95.1992 215.621Z" fill="black"/>
<path d="M95.1992 215.621H23.3713C20.8933 215.621 18.8821 215.093 18.8821 214.443C18.8821 213.792 20.8933 213.264 23.3713 213.264H95.1992C97.6773 213.264 99.6885 213.792 99.6885 214.443C99.6885 215.093 97.6773 215.621 95.1992 215.621Z" stroke="black"/>
<path d="M122.233 215.621H113.449C111.025 215.621 109.058 215.093 109.058 214.443C109.058 213.792 111.025 213.264 113.449 213.264H122.233C124.657 213.264 126.624 213.792 126.624 214.443C126.624 215.093 124.657 215.621 122.233 215.621Z" fill="black"/>
<path d="M122.233 215.621H113.449C111.025 215.621 109.058 215.093 109.058 214.443C109.058 213.792 111.025 213.264 113.449 213.264H122.233C124.657 213.264 126.624 213.792 126.624 214.443C126.624 215.093 124.657 215.621 122.233 215.621Z" stroke="black"/>
<path d="M122.07 190.87H49.2008C46.6868 190.87 44.6465 190.342 44.6465 189.691C44.6465 189.04 46.6868 188.512 49.2008 188.512H122.07C124.584 188.512 126.624 189.04 126.624 189.691C126.624 190.342 124.584 190.87 122.07 190.87Z" fill="black"/>
<path d="M122.07 190.87H49.2008C46.6868 190.87 44.6465 190.342 44.6465 189.691C44.6465 189.04 46.6868 188.512 49.2008 188.512H122.07C124.584 188.512 126.624 189.04 126.624 189.691C126.624 190.342 124.584 190.87 122.07 190.87Z" stroke="black"/>
<path d="M32.057 190.87H23.2737C20.8495 190.87 18.8821 190.342 18.8821 189.691C18.8821 189.04 20.8495 188.512 23.2737 188.512H32.057C34.4812 188.512 36.4487 189.04 36.4487 189.691C36.4487 190.342 34.4812 190.87 32.057 190.87Z" fill="black"/>
<path d="M32.057 190.87H23.2737C20.8495 190.87 18.8821 190.342 18.8821 189.691C18.8821 189.04 20.8495 188.512 23.2737 188.512H32.057C34.4812 188.512 36.4487 189.04 36.4487 189.691C36.4487 190.342 34.4812 190.87 32.057 190.87Z" stroke="black"/>
<path d="M286.82 57.1047C281.55 57.1045 277.573 63.4071 274.661 76.3727C272.191 87.3761 270.83 101.954 270.83 117.42C270.83 133.218 272.246 142.44 274.873 152.784C272.38 154.644 270.83 157.632 270.83 160.982C270.83 165.032 273.129 168.528 276.431 170.119L270.953 190.133C270.695 191.079 270.846 192.097 271.366 192.916L284.159 213.021C285.423 215.008 288.216 215.009 289.481 213.021L302.273 192.915C302.794 192.096 302.946 191.079 302.687 190.133L297.21 170.118C300.526 168.521 302.811 165.021 302.81 160.982C302.81 157.62 301.226 154.641 298.8 152.815C298.944 152.312 299.083 151.831 299.217 151.368C300.558 146.73 301.407 143.797 302.016 137.206C306.148 136.085 309.207 132.145 309.206 127.473L309.206 93.9642C309.207 87.1909 305.277 81.1153 299.437 78.5269C297.85 70.7019 294.386 57.1047 286.82 57.1047ZM296.13 190.489L290.018 200.095L290.018 191.057C290.018 189.206 288.586 187.706 286.82 187.706C285.054 187.706 283.622 189.206 283.622 191.057L283.622 200.095L277.51 190.489L282.834 171.034L290.806 171.034L296.13 190.489ZM296.415 160.982C296.414 162.829 294.98 164.333 293.216 164.333L280.424 164.333C278.661 164.333 277.226 162.829 277.226 160.982C277.226 159.13 278.656 157.631 280.424 157.631L293.216 157.631C294.98 157.631 296.415 159.134 296.415 160.982ZM295.806 84.2814C299.93 85.4889 302.811 89.4707 302.811 93.9643L302.811 127.473C302.811 129.321 301.376 130.824 299.612 130.824C297.845 130.824 296.415 129.326 296.414 127.473L296.414 93.9643C296.414 92.1138 294.982 90.6134 293.216 90.6134C291.45 90.6132 290.018 92.1138 290.018 93.9643L290.018 127.473C290.018 131.551 292.328 135.049 295.644 136.628C295.089 142.594 294.268 145.41 293.131 149.311C292.98 149.828 292.824 150.364 292.662 150.929L281.016 150.929C278.827 142.375 277.226 133.755 277.226 117.42C277.226 102.885 278.463 89.141 280.709 78.719C283.252 66.9216 286.147 63.9772 286.82 63.8084C287.593 63.9982 290.883 67.5088 293.528 81.6963C293.53 81.7095 293.535 81.7222 293.537 81.7353C293.789 83.0013 294.703 83.9604 295.806 84.2814Z" fill="#3F98BB"/>
<path d="M286.82 57.1047C281.55 57.1045 277.573 63.4071 274.661 76.3727C272.191 87.3761 270.83 101.954 270.83 117.42C270.83 133.218 272.246 142.44 274.873 152.784C272.38 154.644 270.83 157.632 270.83 160.982C270.83 165.032 273.129 168.528 276.431 170.119L270.953 190.133C270.695 191.079 270.846 192.097 271.366 192.916L284.159 213.021C285.423 215.008 288.216 215.009 289.481 213.021L302.273 192.915C302.794 192.096 302.946 191.079 302.687 190.133L297.21 170.118C300.526 168.521 302.811 165.021 302.81 160.982C302.81 157.62 301.226 154.641 298.8 152.815C298.944 152.312 299.083 151.831 299.217 151.368C300.558 146.73 301.407 143.797 302.016 137.206C306.148 136.085 309.207 132.145 309.206 127.473L309.206 93.9642C309.207 87.1909 305.277 81.1153 299.437 78.5269C297.85 70.7019 294.386 57.1047 286.82 57.1047ZM296.13 190.489L290.018 200.095L290.018 191.057C290.018 189.206 288.586 187.706 286.82 187.706C285.054 187.706 283.622 189.206 283.622 191.057L283.622 200.095L277.51 190.489L282.834 171.034L290.806 171.034L296.13 190.489ZM296.415 160.982C296.414 162.829 294.98 164.333 293.216 164.333L280.424 164.333C278.661 164.333 277.226 162.829 277.226 160.982C277.226 159.13 278.656 157.631 280.424 157.631L293.216 157.631C294.98 157.631 296.415 159.134 296.415 160.982ZM295.806 84.2814C299.93 85.4889 302.811 89.4707 302.811 93.9643L302.811 127.473C302.811 129.321 301.376 130.824 299.612 130.824C297.845 130.824 296.415 129.326 296.414 127.473L296.414 93.9643C296.414 92.1138 294.982 90.6134 293.216 90.6134C291.45 90.6132 290.018 92.1138 290.018 93.9643L290.018 127.473C290.018 131.551 292.328 135.049 295.644 136.628C295.089 142.594 294.268 145.41 293.131 149.311C292.98 149.828 292.824 150.364 292.662 150.929L281.016 150.929C278.827 142.375 277.226 133.755 277.226 117.42C277.226 102.885 278.463 89.141 280.709 78.719C283.252 66.9216 286.147 63.9772 286.82 63.8084C287.593 63.9982 290.883 67.5088 293.528 81.6963C293.53 81.7095 293.535 81.7222 293.537 81.7353C293.789 83.0013 294.703 83.9604 295.806 84.2814Z" stroke="black"/>
<rect x="25.9089" y="65.9326" width="92.5175" height="80.1484" fill="white" stroke="#FCC91D" stroke-opacity="0.7"/>
<rect x="143.02" y="129.58" width="91.3464" height="80.1484" fill="white" stroke="#FCC91D" stroke-opacity="0.7"/>
<path d="M27.0801 144.902L46.9889 124.865L66.8977 144.902" stroke="#3F98BB"/>
<path d="M144.191 208.55L163.514 188.512L182.837 208.55" stroke="#3F98BB"/>
<path d="M55.1865 133.741L83.0826 110.721L117.255 144.902" stroke="#3F98BB"/>
<path d="M171.126 197.388L199.022 174.369L233.195 208.55" stroke="#3F98BB"/>
<rect x="25.9089" y="65.9326" width="92.5175" height="80.1484" fill="white" stroke="#3F98BB" stroke-width="3"/>
<path d="M27.0801 144.902L46.9889 124.865L66.8977 144.902" stroke="#3F98BB" stroke-width="3"/>
<path d="M55.1865 133.741L83.0826 110.721L117.255 144.902" stroke="#3F98BB" stroke-width="3"/>
<path d="M65.3978 90.095C65.3978 98.1175 59.1914 104.507 51.6734 104.507C44.1553 104.507 37.949 98.1175 37.949 90.095C37.949 82.0725 44.1553 75.6832 51.6734 75.6832C59.1914 75.6832 65.3978 82.0725 65.3978 90.095Z" fill="#FFC850" fill-opacity="0.8" stroke="#FCC91D" stroke-width="3"/>
<rect x="143.02" y="129.58" width="91.3464" height="80.1484" fill="white" stroke="#3F98BB" stroke-width="3"/>
<path d="M144.191 208.55L163.514 188.512L182.837 208.55" stroke="#3F98BB" stroke-width="3"/>
<path d="M171.126 197.388L199.022 174.369L233.195 208.55" stroke="#3F98BB" stroke-width="3"/>
<path d="M182.837 153.742C182.837 162.53 176.021 169.654 167.613 169.654C159.205 169.654 152.388 162.53 152.388 153.742C152.388 144.954 159.205 137.83 167.613 137.83C176.021 137.83 182.837 144.954 182.837 153.742Z" fill="#FFC850" fill-opacity="0.8"/>
<path d="M182.837 153.742C182.837 162.53 176.021 169.654 167.613 169.654C159.205 169.654 152.388 162.53 152.388 153.742C152.388 144.954 159.205 137.83 167.613 137.83C176.021 137.83 182.837 144.954 182.837 153.742Z" stroke="#3F98BB"/>
<g filter="url(#filter1_d)">
<path d="M283.552 210.161C288.98 205.529 290.716 212.355 290.716 212.355C297.229 220.399 301.914 216.742 303.307 214.305C310.688 201.386 313.076 224.461 314.378 220.399C323.062 224.542 322.627 216.255 328.055 210.161" stroke="#3F98BB" stroke-width="2"/>
</g>
<defs>
<filter id="filter0_d" x="6" y="7" width="347.621" height="237.837" filterUnits="userSpaceOnUse" color-interpolation-filters="sRGB">
<feFlood flood-opacity="0" result="BackgroundImageFix"/>
<feColorMatrix in="SourceAlpha" type="matrix" values="0 0 0 0 0 0 0 0 0 0 0 0 0 0 0 0 0 0 127 0"/>
<feOffset dx="4" dy="4"/>
<feGaussianBlur stdDeviation="2"/>
<feColorMatrix type="matrix" values="0 0 0 0 0 0 0 0 0 0 0 0 0 0 0 0 0 0 0.25 0"/>
<feBlend mode="normal" in2="BackgroundImageFix" result="effect1_dropShadow"/>
<feBlend mode="normal" in="SourceGraphic" in2="effect1_dropShadow" result="shape"/>
</filter>
<filter id="filter1_d" x="282.903" y="207.55" width="45.898" height="14.9653" filterUnits="userSpaceOnUse" color-interpolation-filters="sRGB">
<feFlood flood-opacity="0" result="BackgroundImageFix"/>
<feColorMatrix in="SourceAlpha" type="matrix" values="0 0 0 0 0 0 0 0 0 0 0 0 0 0 0 0 0 0 127 0"/>
<feOffset/>
<feColorMatrix type="matrix" values="0 0 0 0 0 0 0 0 0 0 0 0 0 0 0 0 0 0 0.25 0"/>
<feBlend mode="normal" in2="BackgroundImageFix" result="effect1_dropShadow"/>
<feBlend mode="normal" in="SourceGraphic" in2="effect1_dropShadow" result="shape"/>
</filter>
</defs>
</svg>
