<svg width="364" height="247" viewBox="0 0 364 247" fill="none" xmlns="http://www.w3.org/2000/svg">
<rect width="364" height="247" fill="white"/>
<rect x="7.11621" y="11.5" width="345.768" height="220" rx="7.5" fill="white" stroke="#3F98BB" stroke-width="3"/>
<line x1="22.5262" y1="66.628" x2="215.934" y2="66.628" stroke="#3F98BB" stroke-width="3"/>
<line x1="22.5262" y1="30.6943" x2="67.9717" y2="30.6943" stroke="#3F98BB" stroke-width="3"/>
<line x1="91.2228" y1="30.6943" x2="136.668" y2="30.6943" stroke="#3F98BB" stroke-width="3"/>
<line x1="170.488" y1="30.6943" x2="215.934" y2="30.6943" stroke="#3F98BB" stroke-width="3"/>
<path d="M256.103 55.3128C254.72 54.9221 253.677 54.2776 252.974 53.3792C252.279 52.4885 251.931 51.3089 251.931 49.8401V47.5081C251.931 45.6096 251.103 44.6604 249.447 44.6604V42.9612C251.103 42.9612 251.931 42.0159 251.931 40.1253V37.6878C251.947 36.2581 252.294 35.1057 252.974 34.2307C253.662 33.3479 254.705 32.7073 256.103 32.3089L256.548 33.6565C254.916 34.1799 254.099 35.5432 254.099 37.7464V40.1135C254.099 41.887 253.447 43.1214 252.142 43.8167C253.447 44.5198 254.099 45.7659 254.099 47.5549V49.969C254.123 52.1174 254.939 53.4495 256.548 53.9651L256.103 55.3128Z" fill="white"/>
<path d="M256.103 55.3128L255.831 56.2751L256.752 56.5353L257.053 55.6265L256.103 55.3128ZM252.974 53.3792L252.186 53.9945L252.187 53.9955L252.974 53.3792ZM249.447 44.6604H248.447V45.6604H249.447V44.6604ZM249.447 42.9612V41.9612H248.447V42.9612H249.447ZM251.931 37.6878L250.931 37.6768V37.6878H251.931ZM252.974 34.2307L252.185 33.6163L252.184 33.6173L252.974 34.2307ZM256.103 32.3089L257.053 31.9951L256.752 31.0843L255.829 31.3471L256.103 32.3089ZM256.548 33.6565L256.854 34.6088L257.814 34.3008L257.498 33.3428L256.548 33.6565ZM252.142 43.8167L251.672 42.9342L250.025 43.8117L251.668 44.697L252.142 43.8167ZM254.099 49.969L253.099 49.969L253.099 49.9799L254.099 49.969ZM256.548 53.9651L257.498 54.2789L257.814 53.3207L256.853 53.0128L256.548 53.9651ZM256.375 54.3504C255.143 54.0024 254.303 53.4551 253.762 52.7629L252.187 53.9955C253.051 55.1001 254.298 55.8419 255.831 56.2751L256.375 54.3504ZM253.762 52.7638C253.241 52.0955 252.931 51.1532 252.931 49.8401H250.931C250.931 51.4645 251.317 52.8816 252.186 53.9945L253.762 52.7638ZM252.931 49.8401V47.5081H250.931V49.8401H252.931ZM252.931 47.5081C252.931 46.4357 252.7 45.4446 252.064 44.7149C251.404 43.9592 250.467 43.6604 249.447 43.6604V45.6604C250.083 45.6604 250.388 45.8363 250.557 46.0297C250.748 46.2493 250.931 46.682 250.931 47.5081H252.931ZM250.447 44.6604V42.9612H248.447V44.6604H250.447ZM249.447 43.9612C250.466 43.9612 251.403 43.6642 252.062 42.9112C252.7 42.1834 252.931 41.1946 252.931 40.1253H250.931C250.931 40.9465 250.748 41.3757 250.558 41.5933C250.389 41.7855 250.084 41.9612 249.447 41.9612V43.9612ZM252.931 40.1253V37.6878H250.931V40.1253H252.931ZM252.931 37.6987C252.945 36.4236 253.253 35.5023 253.764 34.8442L252.184 33.6173C251.336 34.7092 250.949 36.0925 250.931 37.6768L252.931 37.6987ZM253.763 34.8452C254.286 34.1738 255.122 33.6283 256.377 33.2706L255.829 31.3471C254.288 31.7863 253.037 32.522 252.185 33.6163L253.763 34.8452ZM255.154 32.6226L255.599 33.9703L257.498 33.3428L257.053 31.9951L255.154 32.6226ZM256.243 32.7042C255.215 33.0338 254.397 33.6505 253.853 34.5578C253.323 35.4435 253.099 36.5307 253.099 37.7464H255.099C255.099 36.7589 255.283 36.0629 255.569 35.5853C255.842 35.1293 256.249 34.8027 256.854 34.6088L256.243 32.7042ZM253.099 37.7464V40.1135H255.099V37.7464H253.099ZM253.099 40.1135C253.099 41.6059 252.579 42.4506 251.672 42.9342L252.612 44.6992C254.314 43.7921 255.099 42.168 255.099 40.1135H253.099ZM251.668 44.697C252.576 45.1863 253.099 46.0427 253.099 47.5549H255.099C255.099 45.4891 254.318 43.8532 252.617 42.9364L251.668 44.697ZM253.099 47.5549V49.969H255.099V47.5549H253.099ZM253.099 49.9799C253.112 51.1698 253.345 52.2345 253.876 53.1019C254.42 53.9894 255.231 54.593 256.243 54.9174L256.853 53.0128C256.257 52.8216 255.854 52.5013 255.582 52.0568C255.297 51.5922 255.11 50.9166 255.099 49.9581L253.099 49.9799ZM255.599 53.6514L255.154 54.999L257.053 55.6265L257.498 54.2789L255.599 53.6514Z" fill="#3F98BB"/>
<path d="M258.431 210.382C260.017 209.874 260.838 208.581 260.892 206.503V203.925C260.892 202.12 261.599 200.89 263.013 200.234C261.599 199.593 260.892 198.363 260.892 196.542V194.163C260.892 191.96 260.076 190.597 258.443 190.074L258.888 188.726C260.271 189.117 261.31 189.753 262.005 190.636C262.701 191.511 263.052 192.671 263.06 194.117V196.577C263.06 198.445 263.888 199.378 265.545 199.378V201.077C263.888 201.077 263.06 202.027 263.06 203.925V206.292C263.06 207.761 262.705 208.937 261.994 209.82C261.291 210.702 260.255 211.339 258.888 211.73L258.431 210.382Z" fill="#3F98BB"/>
<path d="M258.431 210.382L258.126 209.43L257.158 209.74L257.484 210.703L258.431 210.382ZM260.892 206.503L261.892 206.53L261.892 206.516V206.503H260.892ZM263.013 200.234L263.434 201.141L265.412 200.223L263.426 199.323L263.013 200.234ZM258.443 190.074L257.493 189.76L257.177 190.718L258.138 191.026L258.443 190.074ZM258.888 188.726L259.16 187.764L258.239 187.503L257.939 188.412L258.888 188.726ZM262.005 190.636L261.22 191.255L261.223 191.258L262.005 190.636ZM263.06 194.117L264.06 194.117L264.06 194.111L263.06 194.117ZM265.545 199.378H266.545V198.378H265.545V199.378ZM265.545 201.077V202.077H266.545V201.077H265.545ZM261.994 209.82L261.215 209.192L261.212 209.197L261.994 209.82ZM258.888 211.73L257.941 212.051L258.247 212.953L259.163 212.691L258.888 211.73ZM258.736 211.335C259.731 211.016 260.533 210.429 261.08 209.567C261.616 208.723 261.861 207.687 261.892 206.53L259.893 206.477C259.868 207.398 259.676 208.047 259.392 208.496C259.118 208.927 258.717 209.241 258.126 209.43L258.736 211.335ZM261.892 206.503V203.925H259.892V206.503H261.892ZM261.892 203.925C261.892 203.151 262.044 202.575 262.29 202.147C262.53 201.728 262.895 201.391 263.434 201.141L262.592 199.327C261.717 199.733 261.022 200.339 260.555 201.151C260.094 201.953 259.892 202.895 259.892 203.925H261.892ZM263.426 199.323C262.891 199.081 262.529 198.748 262.29 198.332C262.044 197.906 261.892 197.326 261.892 196.542H259.892C259.892 197.579 260.094 198.525 260.555 199.329C261.023 200.143 261.721 200.746 262.601 201.145L263.426 199.323ZM261.892 196.542V194.163H259.892V196.542H261.892ZM261.892 194.163C261.892 192.948 261.668 191.861 261.138 190.975C260.595 190.068 259.776 189.451 258.748 189.121L258.138 191.026C258.743 191.22 259.149 191.546 259.422 192.002C259.708 192.48 259.892 193.176 259.892 194.163H261.892ZM259.392 190.387L259.838 189.04L257.939 188.412L257.493 189.76L259.392 190.387ZM258.616 189.688C259.853 190.038 260.688 190.579 261.22 191.255L262.791 190.017C261.933 188.928 260.689 188.196 259.16 187.764L258.616 189.688ZM261.223 191.258C261.742 191.912 262.053 192.834 262.06 194.122L264.06 194.111C264.052 192.508 263.659 191.11 262.788 190.014L261.223 191.258ZM262.06 194.117V196.577H264.06V194.117H262.06ZM262.06 196.577C262.06 197.638 262.293 198.62 262.933 199.342C263.594 200.087 264.529 200.378 265.545 200.378V198.378C264.904 198.378 264.597 198.203 264.429 198.014C264.242 197.803 264.06 197.384 264.06 196.577H262.06ZM264.545 199.378V201.077H266.545V199.378H264.545ZM265.545 200.077C264.524 200.077 263.587 200.376 262.928 201.132C262.291 201.862 262.06 202.853 262.06 203.925H264.06C264.06 203.099 264.243 202.666 264.435 202.447C264.604 202.253 264.909 202.077 265.545 202.077V200.077ZM262.06 203.925V206.292H264.06V203.925H262.06ZM262.06 206.292C262.06 207.601 261.745 208.534 261.215 209.192L262.773 210.447C263.664 209.34 264.06 207.921 264.06 206.292H262.06ZM261.212 209.197C260.668 209.879 259.833 210.42 258.614 210.768L259.163 212.691C260.678 212.258 261.913 211.526 262.776 210.443L261.212 209.197ZM259.835 211.409L259.378 210.061L257.484 210.703L257.941 212.051L259.835 211.409Z" fill="#3F98BB"/>
<path d="M259.05 86.5648C259.05 86.1429 259.173 85.7914 259.419 85.5101C259.674 85.2289 260.052 85.0882 260.553 85.0882C261.054 85.0882 261.432 85.2289 261.687 85.5101C261.951 85.7914 262.082 86.1429 262.082 86.5648C262.082 86.9691 261.951 87.3075 261.687 87.5799C261.432 87.8524 261.054 87.9886 260.553 87.9886C260.052 87.9886 259.674 87.8524 259.419 87.5799C259.173 87.3075 259.05 86.9691 259.05 86.5648ZM271.569 86.5648C271.569 86.1429 271.692 85.7914 271.938 85.5101C272.193 85.2289 272.571 85.0882 273.072 85.0882C273.573 85.0882 273.951 85.2289 274.206 85.5101C274.47 85.7914 274.602 86.1429 274.602 86.5648C274.602 86.9691 274.47 87.3075 274.206 87.5799C273.951 87.8524 273.573 87.9886 273.072 87.9886C272.571 87.9886 272.193 87.8524 271.938 87.5799C271.692 87.3075 271.569 86.9691 271.569 86.5648ZM284.088 86.5648C284.088 86.1429 284.211 85.7914 284.458 85.5101C284.712 85.2289 285.09 85.0882 285.591 85.0882C286.092 85.0882 286.47 85.2289 286.725 85.5101C286.989 85.7914 287.121 86.1429 287.121 86.5648C287.121 86.9691 286.989 87.3075 286.725 87.5799C286.47 87.8524 286.092 87.9886 285.591 87.9886C285.09 87.9886 284.712 87.8524 284.458 87.5799C284.211 87.3075 284.088 86.9691 284.088 86.5648ZM296.608 86.5648C296.608 86.1429 296.731 85.7914 296.977 85.5101C297.232 85.2289 297.61 85.0882 298.111 85.0882C298.611 85.0882 298.989 85.2289 299.244 85.5101C299.508 85.7914 299.64 86.1429 299.64 86.5648C299.64 86.9691 299.508 87.3075 299.244 87.5799C298.989 87.8524 298.611 87.9886 298.111 87.9886C297.61 87.9886 297.232 87.8524 296.977 87.5799C296.731 87.3075 296.608 86.9691 296.608 86.5648ZM309.127 86.5648C309.127 86.1429 309.25 85.7914 309.496 85.5101C309.751 85.2289 310.129 85.0882 310.63 85.0882C311.131 85.0882 311.509 85.2289 311.763 85.5101C312.027 85.7914 312.159 86.1429 312.159 86.5648C312.159 86.9691 312.027 87.3075 311.763 87.5799C311.509 87.8524 311.131 87.9886 310.63 87.9886C310.129 87.9886 309.751 87.8524 309.496 87.5799C309.25 87.3075 309.127 86.9691 309.127 86.5648ZM321.646 86.5648C321.646 86.1429 321.769 85.7914 322.015 85.5101C322.27 85.2289 322.648 85.0882 323.149 85.0882C323.65 85.0882 324.028 85.2289 324.283 85.5101C324.546 85.7914 324.678 86.1429 324.678 86.5648C324.678 86.9691 324.546 87.3075 324.283 87.5799C324.028 87.8524 323.65 87.9886 323.149 87.9886C322.648 87.9886 322.27 87.8524 322.015 87.5799C321.769 87.3075 321.646 86.9691 321.646 86.5648ZM334.165 86.5648C334.165 86.1429 334.288 85.7914 334.534 85.5101C334.789 85.2289 335.167 85.0882 335.668 85.0882C336.169 85.0882 336.547 85.2289 336.802 85.5101C337.065 85.7914 337.197 86.1429 337.197 86.5648C337.197 86.9691 337.065 87.3075 336.802 87.5799C336.547 87.8524 336.169 87.9886 335.668 87.9886C335.167 87.9886 334.789 87.8524 334.534 87.5799C334.288 87.3075 334.165 86.9691 334.165 86.5648ZM259.05 118.565C259.05 118.143 259.173 117.791 259.419 117.51C259.674 117.229 260.052 117.088 260.553 117.088C261.054 117.088 261.432 117.229 261.687 117.51C261.951 117.791 262.082 118.143 262.082 118.565C262.082 118.969 261.951 119.307 261.687 119.58C261.432 119.852 261.054 119.989 260.553 119.989C260.052 119.989 259.674 119.852 259.419 119.58C259.173 119.307 259.05 118.969 259.05 118.565ZM271.569 118.565C271.569 118.143 271.692 117.791 271.938 117.51C272.193 117.229 272.571 117.088 273.072 117.088C273.573 117.088 273.951 117.229 274.206 117.51C274.47 117.791 274.602 118.143 274.602 118.565C274.602 118.969 274.47 119.307 274.206 119.58C273.951 119.852 273.573 119.989 273.072 119.989C272.571 119.989 272.193 119.852 271.938 119.58C271.692 119.307 271.569 118.969 271.569 118.565ZM284.088 118.565C284.088 118.143 284.211 117.791 284.458 117.51C284.712 117.229 285.09 117.088 285.591 117.088C286.092 117.088 286.47 117.229 286.725 117.51C286.989 117.791 287.121 118.143 287.121 118.565C287.121 118.969 286.989 119.307 286.725 119.58C286.47 119.852 286.092 119.989 285.591 119.989C285.09 119.989 284.712 119.852 284.458 119.58C284.211 119.307 284.088 118.969 284.088 118.565ZM296.608 118.565C296.608 118.143 296.731 117.791 296.977 117.51C297.232 117.229 297.61 117.088 298.111 117.088C298.611 117.088 298.989 117.229 299.244 117.51C299.508 117.791 299.64 118.143 299.64 118.565C299.64 118.969 299.508 119.307 299.244 119.58C298.989 119.852 298.611 119.989 298.111 119.989C297.61 119.989 297.232 119.852 296.977 119.58C296.731 119.307 296.608 118.969 296.608 118.565ZM309.127 118.565C309.127 118.143 309.25 117.791 309.496 117.51C309.751 117.229 310.129 117.088 310.63 117.088C311.131 117.088 311.509 117.229 311.763 117.51C312.027 117.791 312.159 118.143 312.159 118.565C312.159 118.969 312.027 119.307 311.763 119.58C311.509 119.852 311.131 119.989 310.63 119.989C310.129 119.989 309.751 119.852 309.496 119.58C309.25 119.307 309.127 118.969 309.127 118.565ZM321.646 118.565C321.646 118.143 321.769 117.791 322.015 117.51C322.27 117.229 322.648 117.088 323.149 117.088C323.65 117.088 324.028 117.229 324.283 117.51C324.546 117.791 324.678 118.143 324.678 118.565C324.678 118.969 324.546 119.307 324.283 119.58C324.028 119.852 323.65 119.989 323.149 119.989C322.648 119.989 322.27 119.852 322.015 119.58C321.769 119.307 321.646 118.969 321.646 118.565ZM334.165 118.565C334.165 118.143 334.288 117.791 334.534 117.51C334.789 117.229 335.167 117.088 335.668 117.088C336.169 117.088 336.547 117.229 336.802 117.51C337.065 117.791 337.197 118.143 337.197 118.565C337.197 118.969 337.065 119.307 336.802 119.58C336.547 119.852 336.169 119.989 335.668 119.989C335.167 119.989 334.789 119.852 334.534 119.58C334.288 119.307 334.165 118.969 334.165 118.565ZM346.684 118.565C346.684 118.143 346.807 117.791 347.053 117.51C347.308 117.229 347.686 117.088 348.187 117.088C348.688 117.088 349.066 117.229 349.321 117.51C349.585 117.791 349.716 118.143 349.716 118.565C349.716 118.969 349.585 119.307 349.321 119.58C349.066 119.852 348.688 119.989 348.187 119.989C347.686 119.989 347.308 119.852 347.053 119.58C346.807 119.307 346.684 118.969 346.684 118.565ZM259.05 150.565C259.05 150.143 259.173 149.791 259.419 149.51C259.674 149.229 260.052 149.088 260.553 149.088C261.054 149.088 261.432 149.229 261.687 149.51C261.951 149.791 262.082 150.143 262.082 150.565C262.082 150.969 261.951 151.307 261.687 151.58C261.432 151.852 261.054 151.989 260.553 151.989C260.052 151.989 259.674 151.852 259.419 151.58C259.173 151.307 259.05 150.969 259.05 150.565ZM271.569 150.565C271.569 150.143 271.692 149.791 271.938 149.51C272.193 149.229 272.571 149.088 273.072 149.088C273.573 149.088 273.951 149.229 274.206 149.51C274.47 149.791 274.602 150.143 274.602 150.565C274.602 150.969 274.47 151.307 274.206 151.58C273.951 151.852 273.573 151.989 273.072 151.989C272.571 151.989 272.193 151.852 271.938 151.58C271.692 151.307 271.569 150.969 271.569 150.565ZM284.088 150.565C284.088 150.143 284.211 149.791 284.458 149.51C284.712 149.229 285.09 149.088 285.591 149.088C286.092 149.088 286.47 149.229 286.725 149.51C286.989 149.791 287.121 150.143 287.121 150.565C287.121 150.969 286.989 151.307 286.725 151.58C286.47 151.852 286.092 151.989 285.591 151.989C285.09 151.989 284.712 151.852 284.458 151.58C284.211 151.307 284.088 150.969 284.088 150.565ZM296.608 150.565C296.608 150.143 296.731 149.791 296.977 149.51C297.232 149.229 297.61 149.088 298.111 149.088C298.611 149.088 298.989 149.229 299.244 149.51C299.508 149.791 299.64 150.143 299.64 150.565C299.64 150.969 299.508 151.307 299.244 151.58C298.989 151.852 298.611 151.989 298.111 151.989C297.61 151.989 297.232 151.852 296.977 151.58C296.731 151.307 296.608 150.969 296.608 150.565ZM309.127 150.565C309.127 150.143 309.25 149.791 309.496 149.51C309.751 149.229 310.129 149.088 310.63 149.088C311.131 149.088 311.509 149.229 311.763 149.51C312.027 149.791 312.159 150.143 312.159 150.565C312.159 150.969 312.027 151.307 311.763 151.58C311.509 151.852 311.131 151.989 310.63 151.989C310.129 151.989 309.751 151.852 309.496 151.58C309.25 151.307 309.127 150.969 309.127 150.565ZM321.646 150.565C321.646 150.143 321.769 149.791 322.015 149.51C322.27 149.229 322.648 149.088 323.149 149.088C323.65 149.088 324.028 149.229 324.283 149.51C324.546 149.791 324.678 150.143 324.678 150.565C324.678 150.969 324.546 151.307 324.283 151.58C324.028 151.852 323.65 151.989 323.149 151.989C322.648 151.989 322.27 151.852 322.015 151.58C321.769 151.307 321.646 150.969 321.646 150.565Z" fill="white"/>
<path d="M259.419 85.5101L258.308 84.5028L258.299 84.5125L258.29 84.5223L259.419 85.5101ZM261.687 85.5101L260.575 86.5174L260.584 86.5268L260.593 86.536L261.687 85.5101ZM261.687 87.5799L260.609 86.5368L260.6 86.5459L260.591 86.5552L261.687 87.5799ZM259.419 87.5799L258.306 88.5854L258.315 88.5951L258.324 88.6047L259.419 87.5799ZM260.55 86.5648C260.55 86.5005 260.559 86.4771 260.558 86.4802C260.558 86.4812 260.556 86.485 260.553 86.49C260.552 86.4923 260.551 86.4943 260.55 86.4958C260.549 86.4973 260.548 86.498 260.548 86.4979L258.29 84.5223C257.774 85.1125 257.55 85.8296 257.55 86.5648H260.55ZM260.531 86.5174C260.511 86.5387 260.489 86.558 260.466 86.5736C260.443 86.589 260.425 86.5967 260.417 86.5995C260.404 86.6045 260.44 86.5882 260.553 86.5882V83.5882C259.771 83.5882 258.931 83.8157 258.308 84.5028L260.531 86.5174ZM260.553 86.5882C260.667 86.5882 260.703 86.6045 260.689 86.5995C260.681 86.5967 260.664 86.589 260.641 86.5736C260.617 86.558 260.595 86.5387 260.575 86.5174L262.798 84.5028C262.176 83.8157 261.335 83.5882 260.553 83.5882V86.5882ZM260.593 86.536C260.594 86.5377 260.592 86.5354 260.588 86.5292C260.584 86.523 260.581 86.5165 260.579 86.5114C260.577 86.5064 260.578 86.5064 260.579 86.5136C260.58 86.5211 260.582 86.5375 260.582 86.5648H263.582C263.582 85.801 263.331 85.0708 262.781 84.4842L260.593 86.536ZM260.582 86.5648C260.582 86.5842 260.581 86.5931 260.581 86.5935C260.581 86.5935 260.582 86.5874 260.586 86.5773C260.59 86.567 260.595 86.5568 260.601 86.548C260.606 86.5393 260.61 86.5357 260.609 86.5368L262.765 88.6231C263.318 88.051 263.582 87.3299 263.582 86.5648H260.582ZM260.591 86.5552C260.612 86.5328 260.636 86.5136 260.659 86.4987C260.682 86.484 260.698 86.4773 260.704 86.4753C260.712 86.4721 260.671 86.4886 260.553 86.4886V89.4886C261.321 89.4886 262.156 89.2738 262.782 88.6047L260.591 86.5552ZM260.553 86.4886C260.435 86.4886 260.394 86.4721 260.403 86.4753C260.408 86.4773 260.425 86.484 260.447 86.4987C260.47 86.5136 260.494 86.5328 260.515 86.5552L258.324 88.6047C258.95 89.2738 259.785 89.4886 260.553 89.4886V86.4886ZM260.532 86.5745C260.533 86.5753 260.537 86.5796 260.542 86.5874C260.546 86.5952 260.55 86.603 260.552 86.6092C260.554 86.6152 260.554 86.6163 260.553 86.6105C260.552 86.6044 260.55 86.5897 260.55 86.5648H257.55C257.55 87.2999 257.785 88.0085 258.306 88.5854L260.532 86.5745ZM271.938 85.5101L270.827 84.5028L270.818 84.5125L270.81 84.5223L271.938 85.5101ZM274.206 85.5101L273.095 86.5174L273.103 86.5268L273.112 86.536L274.206 85.5101ZM274.206 87.5799L273.128 86.5368L273.119 86.5459L273.111 86.5552L274.206 87.5799ZM271.938 87.5799L270.825 88.5854L270.834 88.5951L270.843 88.6047L271.938 87.5799ZM273.069 86.5648C273.069 86.5005 273.078 86.4771 273.077 86.4802C273.077 86.4812 273.076 86.485 273.073 86.49C273.071 86.4923 273.07 86.4943 273.069 86.4958C273.068 86.4973 273.067 86.498 273.067 86.4979L270.81 84.5223C270.293 85.1125 270.069 85.8296 270.069 86.5648H273.069ZM273.05 86.5174C273.031 86.5387 273.008 86.558 272.985 86.5736C272.962 86.589 272.944 86.5967 272.936 86.5995C272.923 86.6045 272.959 86.5882 273.072 86.5882V83.5882C272.291 83.5882 271.45 83.8157 270.827 84.5028L273.05 86.5174ZM273.072 86.5882C273.186 86.5882 273.222 86.6045 273.208 86.5995C273.201 86.5967 273.183 86.589 273.16 86.5736C273.136 86.558 273.114 86.5387 273.095 86.5174L275.318 84.5028C274.695 83.8157 273.854 83.5882 273.072 83.5882V86.5882ZM273.112 86.536C273.113 86.5377 273.111 86.5354 273.107 86.5292C273.103 86.523 273.1 86.5165 273.098 86.5114C273.096 86.5064 273.097 86.5064 273.098 86.5136C273.099 86.5211 273.102 86.5375 273.102 86.5648H276.102C276.102 85.801 275.85 85.0708 275.3 84.4842L273.112 86.536ZM273.102 86.5648C273.102 86.5842 273.1 86.5931 273.1 86.5935C273.1 86.5935 273.101 86.5874 273.105 86.5773C273.109 86.567 273.114 86.5568 273.12 86.548C273.126 86.5393 273.129 86.5357 273.128 86.5368L275.284 88.6231C275.838 88.051 276.102 87.3299 276.102 86.5648H273.102ZM273.111 86.5552C273.132 86.5328 273.155 86.5136 273.178 86.4987C273.201 86.484 273.217 86.4773 273.223 86.4753C273.232 86.4721 273.19 86.4886 273.072 86.4886V89.4886C273.84 89.4886 274.675 89.2738 275.301 88.6047L273.111 86.5552ZM273.072 86.4886C272.954 86.4886 272.913 86.4721 272.922 86.4753C272.927 86.4773 272.944 86.484 272.966 86.4987C272.99 86.5136 273.013 86.5328 273.034 86.5552L270.843 88.6047C271.469 89.2738 272.304 89.4886 273.072 89.4886V86.4886ZM273.052 86.5745C273.052 86.5753 273.056 86.5796 273.061 86.5874C273.065 86.5952 273.069 86.603 273.071 86.6092C273.073 86.6152 273.073 86.6163 273.072 86.6105C273.071 86.6044 273.069 86.5897 273.069 86.5648H270.069C270.069 87.2999 270.304 88.0085 270.825 88.5854L273.052 86.5745ZM284.458 85.5101L283.346 84.5028L283.337 84.5125L283.329 84.5223L284.458 85.5101ZM286.725 85.5101L285.614 86.5174L285.622 86.5268L285.631 86.536L286.725 85.5101ZM286.725 87.5799L285.647 86.5368L285.638 86.5459L285.63 86.5552L286.725 87.5799ZM284.458 87.5799L283.344 88.5854L283.353 88.5951L283.362 88.6047L284.458 87.5799ZM285.588 86.5648C285.588 86.5005 285.598 86.4771 285.597 86.4802C285.596 86.4812 285.595 86.485 285.592 86.49C285.59 86.4923 285.589 86.4943 285.588 86.4958C285.587 86.4973 285.586 86.498 285.586 86.4979L283.329 84.5223C282.812 85.1125 282.588 85.8296 282.588 86.5648H285.588ZM285.569 86.5174C285.55 86.5387 285.527 86.558 285.504 86.5736C285.481 86.589 285.463 86.5967 285.455 86.5995C285.442 86.6045 285.478 86.5882 285.591 86.5882V83.5882C284.81 83.5882 283.969 83.8157 283.346 84.5028L285.569 86.5174ZM285.591 86.5882C285.705 86.5882 285.741 86.6045 285.727 86.5995C285.72 86.5967 285.702 86.589 285.679 86.5736C285.655 86.558 285.633 86.5387 285.614 86.5174L287.837 84.5028C287.214 83.8157 286.373 83.5882 285.591 83.5882V86.5882ZM285.631 86.536C285.632 86.5377 285.63 86.5354 285.626 86.5292C285.622 86.523 285.619 86.5165 285.617 86.5114C285.615 86.5064 285.616 86.5064 285.617 86.5136C285.619 86.5211 285.621 86.5375 285.621 86.5648H288.621C288.621 85.801 288.369 85.0708 287.819 84.4842L285.631 86.536ZM285.621 86.5648C285.621 86.5842 285.619 86.5931 285.619 86.5935C285.619 86.5935 285.62 86.5874 285.624 86.5773C285.628 86.567 285.633 86.5568 285.639 86.548C285.645 86.5393 285.648 86.5357 285.647 86.5368L287.803 88.6231C288.357 88.051 288.621 87.3299 288.621 86.5648H285.621ZM285.63 86.5552C285.651 86.5328 285.674 86.5136 285.697 86.4987C285.72 86.484 285.736 86.4773 285.742 86.4753C285.751 86.4721 285.71 86.4886 285.591 86.4886V89.4886C286.359 89.4886 287.195 89.2738 287.821 88.6047L285.63 86.5552ZM285.591 86.4886C285.473 86.4886 285.432 86.4721 285.441 86.4753C285.446 86.4773 285.463 86.484 285.486 86.4987C285.509 86.5136 285.532 86.5328 285.553 86.5552L283.362 88.6047C283.988 89.2738 284.823 89.4886 285.591 89.4886V86.4886ZM285.571 86.5745C285.571 86.5753 285.575 86.5796 285.58 86.5874C285.585 86.5952 285.588 86.603 285.59 86.6092C285.593 86.6152 285.592 86.6163 285.591 86.6105C285.59 86.6044 285.588 86.5897 285.588 86.5648H282.588C282.588 87.2999 282.823 88.0085 283.344 88.5854L285.571 86.5745ZM296.977 85.5101L295.865 84.5028L295.856 84.5125L295.848 84.5223L296.977 85.5101ZM299.244 85.5101L298.133 86.5174L298.141 86.5268L298.15 86.536L299.244 85.5101ZM299.244 87.5799L298.166 86.5368L298.158 86.5459L298.149 86.5552L299.244 87.5799ZM296.977 87.5799L295.864 88.5854L295.872 88.5951L295.881 88.6047L296.977 87.5799ZM298.108 86.5648C298.108 86.5005 298.117 86.4771 298.116 86.4802C298.115 86.4812 298.114 86.485 298.111 86.49C298.11 86.4923 298.108 86.4943 298.107 86.4958C298.106 86.4973 298.105 86.498 298.106 86.4979L295.848 84.5223C295.331 85.1125 295.108 85.8296 295.108 86.5648H298.108ZM298.088 86.5174C298.069 86.5387 298.046 86.558 298.023 86.5736C298 86.589 297.982 86.5967 297.974 86.5995C297.961 86.6045 297.997 86.5882 298.111 86.5882V83.5882C297.329 83.5882 296.488 83.8157 295.865 84.5028L298.088 86.5174ZM298.111 86.5882C298.224 86.5882 298.26 86.6045 298.247 86.5995C298.239 86.5967 298.221 86.589 298.198 86.5736C298.175 86.558 298.152 86.5387 298.133 86.5174L300.356 84.5028C299.733 83.8157 298.892 83.5882 298.111 83.5882V86.5882ZM298.15 86.536C298.152 86.5377 298.149 86.5354 298.145 86.5292C298.141 86.523 298.138 86.5165 298.136 86.5114C298.135 86.5064 298.135 86.5064 298.136 86.5136C298.138 86.5211 298.14 86.5375 298.14 86.5648H301.14C301.14 85.801 300.889 85.0708 300.339 84.4842L298.15 86.536ZM298.14 86.5648C298.14 86.5842 298.138 86.5931 298.138 86.5935C298.138 86.5935 298.139 86.5874 298.143 86.5773C298.147 86.567 298.153 86.5568 298.158 86.548C298.164 86.5393 298.168 86.5357 298.166 86.5368L300.322 88.6231C300.876 88.051 301.14 87.3299 301.14 86.5648H298.14ZM298.149 86.5552C298.17 86.5328 298.193 86.5136 298.216 86.4987C298.239 86.484 298.255 86.4773 298.261 86.4753C298.27 86.4721 298.229 86.4886 298.111 86.4886V89.4886C298.878 89.4886 299.714 89.2738 300.34 88.6047L298.149 86.5552ZM298.111 86.4886C297.992 86.4886 297.951 86.4721 297.96 86.4753C297.966 86.4773 297.982 86.484 298.005 86.4987C298.028 86.5136 298.051 86.5328 298.072 86.5552L295.881 88.6047C296.507 89.2738 297.343 89.4886 298.111 89.4886V86.4886ZM298.09 86.5745C298.091 86.5753 298.094 86.5796 298.099 86.5874C298.104 86.5952 298.107 86.603 298.11 86.6092C298.112 86.6152 298.111 86.6163 298.11 86.6105C298.109 86.6044 298.108 86.5897 298.108 86.5648H295.108C295.108 87.2999 295.343 88.0085 295.864 88.5854L298.09 86.5745ZM309.496 85.5101L308.384 84.5028L308.376 84.5125L308.367 84.5223L309.496 85.5101ZM311.763 85.5101L310.652 86.5174L310.66 86.5268L310.669 86.536L311.763 85.5101ZM311.763 87.5799L310.686 86.5368L310.677 86.5459L310.668 86.5552L311.763 87.5799ZM309.496 87.5799L308.383 88.5854L308.392 88.5951L308.4 88.6047L309.496 87.5799ZM310.627 86.5648C310.627 86.5005 310.636 86.4771 310.635 86.4802C310.634 86.4812 310.633 86.485 310.63 86.49C310.629 86.4923 310.627 86.4943 310.626 86.4958C310.625 86.4973 310.625 86.498 310.625 86.4979L308.367 84.5223C307.851 85.1125 307.627 85.8296 307.627 86.5648H310.627ZM310.607 86.5174C310.588 86.5387 310.566 86.558 310.542 86.5736C310.519 86.589 310.501 86.5967 310.494 86.5995C310.48 86.6045 310.516 86.5882 310.63 86.5882V83.5882C309.848 83.5882 309.007 83.8157 308.384 84.5028L310.607 86.5174ZM310.63 86.5882C310.743 86.5882 310.779 86.6045 310.766 86.5995C310.758 86.5967 310.74 86.589 310.717 86.5736C310.694 86.558 310.671 86.5387 310.652 86.5174L312.875 84.5028C312.252 83.8157 311.411 83.5882 310.63 83.5882V86.5882ZM310.669 86.536C310.671 86.5377 310.668 86.5354 310.664 86.5292C310.661 86.523 310.658 86.5165 310.656 86.5114C310.654 86.5064 310.654 86.5064 310.656 86.5136C310.657 86.5211 310.659 86.5375 310.659 86.5648H313.659C313.659 85.801 313.408 85.0708 312.858 84.4842L310.669 86.536ZM310.659 86.5648C310.659 86.5842 310.657 86.5931 310.657 86.5935C310.657 86.5935 310.658 86.5874 310.662 86.5773C310.666 86.567 310.672 86.5568 310.677 86.548C310.683 86.5393 310.687 86.5357 310.686 86.5368L312.841 88.6231C313.395 88.051 313.659 87.3299 313.659 86.5648H310.659ZM310.668 86.5552C310.689 86.5328 310.712 86.5136 310.735 86.4987C310.758 86.484 310.775 86.4773 310.78 86.4753C310.789 86.4721 310.748 86.4886 310.63 86.4886V89.4886C311.398 89.4886 312.233 89.2738 312.859 88.6047L310.668 86.5552ZM310.63 86.4886C310.511 86.4886 310.47 86.4721 310.479 86.4753C310.485 86.4773 310.501 86.484 310.524 86.4987C310.547 86.5136 310.57 86.5328 310.591 86.5552L308.4 88.6047C309.026 89.2738 309.862 89.4886 310.63 89.4886V86.4886ZM310.609 86.5745C310.61 86.5753 310.613 86.5796 310.618 86.5874C310.623 86.5952 310.626 86.603 310.629 86.6092C310.631 86.6152 310.631 86.6163 310.63 86.6105C310.629 86.6044 310.627 86.5897 310.627 86.5648H307.627C307.627 87.2999 307.862 88.0085 308.383 88.5854L310.609 86.5745ZM322.015 85.5101L320.904 84.5028L320.895 84.5125L320.886 84.5223L322.015 85.5101ZM324.283 85.5101L323.171 86.5174L323.18 86.5268L323.188 86.536L324.283 85.5101ZM324.283 87.5799L323.205 86.5368L323.196 86.5459L323.187 86.5552L324.283 87.5799ZM322.015 87.5799L320.902 88.5854L320.911 88.5951L320.92 88.6047L322.015 87.5799ZM323.146 86.5648C323.146 86.5005 323.155 86.4771 323.154 86.4802C323.154 86.4812 323.152 86.485 323.149 86.49C323.148 86.4923 323.147 86.4943 323.145 86.4958C323.144 86.4973 323.144 86.498 323.144 86.4979L320.886 84.5223C320.37 85.1125 320.146 85.8296 320.146 86.5648H323.146ZM323.126 86.5174C323.107 86.5387 323.085 86.558 323.061 86.5736C323.038 86.589 323.02 86.5967 323.013 86.5995C322.999 86.6045 323.035 86.5882 323.149 86.5882V83.5882C322.367 83.5882 321.526 83.8157 320.904 84.5028L323.126 86.5174ZM323.149 86.5882C323.262 86.5882 323.298 86.6045 323.285 86.5995C323.277 86.5967 323.259 86.589 323.236 86.5736C323.213 86.558 323.19 86.5387 323.171 86.5174L325.394 84.5028C324.771 83.8157 323.931 83.5882 323.149 83.5882V86.5882ZM323.188 86.536C323.19 86.5377 323.187 86.5354 323.184 86.5292C323.18 86.523 323.177 86.5165 323.175 86.5114C323.173 86.5064 323.173 86.5064 323.175 86.5136C323.176 86.5211 323.178 86.5375 323.178 86.5648H326.178C326.178 85.801 325.927 85.0708 325.377 84.4842L323.188 86.536ZM323.178 86.5648C323.178 86.5842 323.177 86.5931 323.176 86.5935C323.176 86.5935 323.178 86.5874 323.182 86.5773C323.186 86.567 323.191 86.5568 323.197 86.548C323.202 86.5393 323.206 86.5357 323.205 86.5368L325.36 88.6231C325.914 88.051 326.178 87.3299 326.178 86.5648H323.178ZM323.187 86.5552C323.208 86.5328 323.232 86.5136 323.255 86.4987C323.277 86.484 323.294 86.4773 323.299 86.4753C323.308 86.4721 323.267 86.4886 323.149 86.4886V89.4886C323.917 89.4886 324.752 89.2738 325.378 88.6047L323.187 86.5552ZM323.149 86.4886C323.031 86.4886 322.989 86.4721 322.998 86.4753C323.004 86.4773 323.02 86.484 323.043 86.4987C323.066 86.5136 323.089 86.5328 323.11 86.5552L320.92 88.6047C321.546 89.2738 322.381 89.4886 323.149 89.4886V86.4886ZM323.128 86.5745C323.129 86.5753 323.133 86.5796 323.137 86.5874C323.142 86.5952 323.146 86.603 323.148 86.6092C323.15 86.6152 323.15 86.6163 323.149 86.6105C323.148 86.6044 323.146 86.5897 323.146 86.5648H320.146C320.146 87.2999 320.381 88.0085 320.902 88.5854L323.128 86.5745ZM334.534 85.5101L333.423 84.5028L333.414 84.5125L333.405 84.5223L334.534 85.5101ZM336.802 85.5101L335.69 86.5174L335.699 86.5268L335.707 86.536L336.802 85.5101ZM336.802 87.5799L335.724 86.5368L335.715 86.5459L335.706 86.5552L336.802 87.5799ZM334.534 87.5799L333.421 88.5854L333.43 88.5951L333.439 88.6047L334.534 87.5799ZM335.665 86.5648C335.665 86.5005 335.674 86.4771 335.673 86.4802C335.673 86.4812 335.671 86.485 335.668 86.49C335.667 86.4923 335.666 86.4943 335.665 86.4958C335.664 86.4973 335.663 86.498 335.663 86.4979L333.405 84.5223C332.889 85.1125 332.665 85.8296 332.665 86.5648H335.665ZM335.646 86.5174C335.626 86.5387 335.604 86.558 335.58 86.5736C335.557 86.589 335.54 86.5967 335.532 86.5995C335.518 86.6045 335.554 86.5882 335.668 86.5882V83.5882C334.886 83.5882 334.045 83.8157 333.423 84.5028L335.646 86.5174ZM335.668 86.5882C335.782 86.5882 335.817 86.6045 335.804 86.5995C335.796 86.5967 335.779 86.589 335.755 86.5736C335.732 86.558 335.71 86.5387 335.69 86.5174L337.913 84.5028C337.291 83.8157 336.45 83.5882 335.668 83.5882V86.5882ZM335.707 86.536C335.709 86.5377 335.707 86.5354 335.703 86.5292C335.699 86.523 335.696 86.5165 335.694 86.5114C335.692 86.5064 335.693 86.5064 335.694 86.5136C335.695 86.5211 335.697 86.5375 335.697 86.5648H338.697C338.697 85.801 338.446 85.0708 337.896 84.4842L335.707 86.536ZM335.697 86.5648C335.697 86.5842 335.696 86.5931 335.696 86.5935C335.696 86.5935 335.697 86.5874 335.701 86.5773C335.705 86.567 335.71 86.5568 335.716 86.548C335.721 86.5393 335.725 86.5357 335.724 86.5368L337.88 88.6231C338.433 88.051 338.697 87.3299 338.697 86.5648H335.697ZM335.706 86.5552C335.727 86.5328 335.751 86.5136 335.774 86.4987C335.796 86.484 335.813 86.4773 335.818 86.4753C335.827 86.4721 335.786 86.4886 335.668 86.4886V89.4886C336.436 89.4886 337.271 89.2738 337.897 88.6047L335.706 86.5552ZM335.668 86.4886C335.55 86.4886 335.509 86.4721 335.517 86.4753C335.523 86.4773 335.54 86.484 335.562 86.4987C335.585 86.5136 335.609 86.5328 335.63 86.5552L333.439 88.6047C334.065 89.2738 334.9 89.4886 335.668 89.4886V86.4886ZM335.647 86.5745C335.648 86.5753 335.652 86.5796 335.656 86.5874C335.661 86.5952 335.665 86.603 335.667 86.6092C335.669 86.6152 335.669 86.6163 335.668 86.6105C335.667 86.6044 335.665 86.5897 335.665 86.5648H332.665C332.665 87.2999 332.9 88.0085 333.421 88.5854L335.647 86.5745ZM259.419 117.51L258.308 116.503L258.299 116.513L258.29 116.522L259.419 117.51ZM261.687 117.51L260.575 118.517L260.584 118.527L260.593 118.536L261.687 117.51ZM261.687 119.58L260.609 118.537L260.6 118.546L260.591 118.555L261.687 119.58ZM259.419 119.58L258.306 120.585L258.315 120.595L258.324 120.605L259.419 119.58ZM260.55 118.565C260.55 118.5 260.559 118.477 260.558 118.48C260.558 118.481 260.556 118.485 260.553 118.49C260.552 118.492 260.551 118.494 260.55 118.496C260.549 118.497 260.548 118.498 260.548 118.498L258.29 116.522C257.774 117.112 257.55 117.83 257.55 118.565H260.55ZM260.531 118.517C260.511 118.539 260.489 118.558 260.466 118.574C260.443 118.589 260.425 118.597 260.417 118.6C260.404 118.605 260.44 118.588 260.553 118.588V115.588C259.771 115.588 258.931 115.816 258.308 116.503L260.531 118.517ZM260.553 118.588C260.667 118.588 260.703 118.605 260.689 118.6C260.681 118.597 260.664 118.589 260.641 118.574C260.617 118.558 260.595 118.539 260.575 118.517L262.798 116.503C262.176 115.816 261.335 115.588 260.553 115.588V118.588ZM260.593 118.536C260.594 118.538 260.592 118.535 260.588 118.529C260.584 118.523 260.581 118.517 260.579 118.511C260.577 118.506 260.578 118.506 260.579 118.514C260.58 118.521 260.582 118.538 260.582 118.565H263.582C263.582 117.801 263.331 117.071 262.781 116.484L260.593 118.536ZM260.582 118.565C260.582 118.584 260.581 118.593 260.581 118.593C260.581 118.594 260.582 118.587 260.586 118.577C260.59 118.567 260.595 118.557 260.601 118.548C260.606 118.539 260.61 118.536 260.609 118.537L262.765 120.623C263.318 120.051 263.582 119.33 263.582 118.565H260.582ZM260.591 118.555C260.612 118.533 260.636 118.514 260.659 118.499C260.682 118.484 260.698 118.477 260.704 118.475C260.712 118.472 260.671 118.489 260.553 118.489V121.489C261.321 121.489 262.156 121.274 262.782 120.605L260.591 118.555ZM260.553 118.489C260.435 118.489 260.394 118.472 260.403 118.475C260.408 118.477 260.425 118.484 260.447 118.499C260.47 118.514 260.494 118.533 260.515 118.555L258.324 120.605C258.95 121.274 259.785 121.489 260.553 121.489V118.489ZM260.532 118.574C260.533 118.575 260.537 118.58 260.542 118.587C260.546 118.595 260.55 118.603 260.552 118.609C260.554 118.615 260.554 118.616 260.553 118.61C260.552 118.604 260.55 118.59 260.55 118.565H257.55C257.55 119.3 257.785 120.008 258.306 120.585L260.532 118.574ZM271.938 117.51L270.827 116.503L270.818 116.513L270.81 116.522L271.938 117.51ZM274.206 117.51L273.095 118.517L273.103 118.527L273.112 118.536L274.206 117.51ZM274.206 119.58L273.128 118.537L273.119 118.546L273.111 118.555L274.206 119.58ZM271.938 119.58L270.825 120.585L270.834 120.595L270.843 120.605L271.938 119.58ZM273.069 118.565C273.069 118.5 273.078 118.477 273.077 118.48C273.077 118.481 273.076 118.485 273.073 118.49C273.071 118.492 273.07 118.494 273.069 118.496C273.068 118.497 273.067 118.498 273.067 118.498L270.81 116.522C270.293 117.112 270.069 117.83 270.069 118.565H273.069ZM273.05 118.517C273.031 118.539 273.008 118.558 272.985 118.574C272.962 118.589 272.944 118.597 272.936 118.6C272.923 118.605 272.959 118.588 273.072 118.588V115.588C272.291 115.588 271.45 115.816 270.827 116.503L273.05 118.517ZM273.072 118.588C273.186 118.588 273.222 118.605 273.208 118.6C273.201 118.597 273.183 118.589 273.16 118.574C273.136 118.558 273.114 118.539 273.095 118.517L275.318 116.503C274.695 115.816 273.854 115.588 273.072 115.588V118.588ZM273.112 118.536C273.113 118.538 273.111 118.535 273.107 118.529C273.103 118.523 273.1 118.517 273.098 118.511C273.096 118.506 273.097 118.506 273.098 118.514C273.099 118.521 273.102 118.538 273.102 118.565H276.102C276.102 117.801 275.85 117.071 275.3 116.484L273.112 118.536ZM273.102 118.565C273.102 118.584 273.1 118.593 273.1 118.593C273.1 118.594 273.101 118.587 273.105 118.577C273.109 118.567 273.114 118.557 273.12 118.548C273.126 118.539 273.129 118.536 273.128 118.537L275.284 120.623C275.838 120.051 276.102 119.33 276.102 118.565H273.102ZM273.111 118.555C273.132 118.533 273.155 118.514 273.178 118.499C273.201 118.484 273.217 118.477 273.223 118.475C273.232 118.472 273.19 118.489 273.072 118.489V121.489C273.84 121.489 274.675 121.274 275.301 120.605L273.111 118.555ZM273.072 118.489C272.954 118.489 272.913 118.472 272.922 118.475C272.927 118.477 272.944 118.484 272.966 118.499C272.99 118.514 273.013 118.533 273.034 118.555L270.843 120.605C271.469 121.274 272.304 121.489 273.072 121.489V118.489ZM273.052 118.574C273.052 118.575 273.056 118.58 273.061 118.587C273.065 118.595 273.069 118.603 273.071 118.609C273.073 118.615 273.073 118.616 273.072 118.61C273.071 118.604 273.069 118.59 273.069 118.565H270.069C270.069 119.3 270.304 120.008 270.825 120.585L273.052 118.574ZM284.458 117.51L283.346 116.503L283.337 116.513L283.329 116.522L284.458 117.51ZM286.725 117.51L285.614 118.517L285.622 118.527L285.631 118.536L286.725 117.51ZM286.725 119.58L285.647 118.537L285.638 118.546L285.63 118.555L286.725 119.58ZM284.458 119.58L283.344 120.585L283.353 120.595L283.362 120.605L284.458 119.58ZM285.588 118.565C285.588 118.5 285.598 118.477 285.597 118.48C285.596 118.481 285.595 118.485 285.592 118.49C285.59 118.492 285.589 118.494 285.588 118.496C285.587 118.497 285.586 118.498 285.586 118.498L283.329 116.522C282.812 117.112 282.588 117.83 282.588 118.565H285.588ZM285.569 118.517C285.55 118.539 285.527 118.558 285.504 118.574C285.481 118.589 285.463 118.597 285.455 118.6C285.442 118.605 285.478 118.588 285.591 118.588V115.588C284.81 115.588 283.969 115.816 283.346 116.503L285.569 118.517ZM285.591 118.588C285.705 118.588 285.741 118.605 285.727 118.6C285.72 118.597 285.702 118.589 285.679 118.574C285.655 118.558 285.633 118.539 285.614 118.517L287.837 116.503C287.214 115.816 286.373 115.588 285.591 115.588V118.588ZM285.631 118.536C285.632 118.538 285.63 118.535 285.626 118.529C285.622 118.523 285.619 118.517 285.617 118.511C285.615 118.506 285.616 118.506 285.617 118.514C285.619 118.521 285.621 118.538 285.621 118.565H288.621C288.621 117.801 288.369 117.071 287.819 116.484L285.631 118.536ZM285.621 118.565C285.621 118.584 285.619 118.593 285.619 118.593C285.619 118.594 285.62 118.587 285.624 118.577C285.628 118.567 285.633 118.557 285.639 118.548C285.645 118.539 285.648 118.536 285.647 118.537L287.803 120.623C288.357 120.051 288.621 119.33 288.621 118.565H285.621ZM285.63 118.555C285.651 118.533 285.674 118.514 285.697 118.499C285.72 118.484 285.736 118.477 285.742 118.475C285.751 118.472 285.71 118.489 285.591 118.489V121.489C286.359 121.489 287.195 121.274 287.821 120.605L285.63 118.555ZM285.591 118.489C285.473 118.489 285.432 118.472 285.441 118.475C285.446 118.477 285.463 118.484 285.486 118.499C285.509 118.514 285.532 118.533 285.553 118.555L283.362 120.605C283.988 121.274 284.823 121.489 285.591 121.489V118.489ZM285.571 118.574C285.571 118.575 285.575 118.58 285.58 118.587C285.585 118.595 285.588 118.603 285.59 118.609C285.593 118.615 285.592 118.616 285.591 118.61C285.59 118.604 285.588 118.59 285.588 118.565H282.588C282.588 119.3 282.823 120.008 283.344 120.585L285.571 118.574ZM296.977 117.51L295.865 116.503L295.856 116.513L295.848 116.522L296.977 117.51ZM299.244 117.51L298.133 118.517L298.141 118.527L298.15 118.536L299.244 117.51ZM299.244 119.58L298.166 118.537L298.158 118.546L298.149 118.555L299.244 119.58ZM296.977 119.58L295.864 120.585L295.872 120.595L295.881 120.605L296.977 119.58ZM298.108 118.565C298.108 118.5 298.117 118.477 298.116 118.48C298.115 118.481 298.114 118.485 298.111 118.49C298.11 118.492 298.108 118.494 298.107 118.496C298.106 118.497 298.105 118.498 298.106 118.498L295.848 116.522C295.331 117.112 295.108 117.83 295.108 118.565H298.108ZM298.088 118.517C298.069 118.539 298.046 118.558 298.023 118.574C298 118.589 297.982 118.597 297.974 118.6C297.961 118.605 297.997 118.588 298.111 118.588V115.588C297.329 115.588 296.488 115.816 295.865 116.503L298.088 118.517ZM298.111 118.588C298.224 118.588 298.26 118.605 298.247 118.6C298.239 118.597 298.221 118.589 298.198 118.574C298.175 118.558 298.152 118.539 298.133 118.517L300.356 116.503C299.733 115.816 298.892 115.588 298.111 115.588V118.588ZM298.15 118.536C298.152 118.538 298.149 118.535 298.145 118.529C298.141 118.523 298.138 118.517 298.136 118.511C298.135 118.506 298.135 118.506 298.136 118.514C298.138 118.521 298.14 118.538 298.14 118.565H301.14C301.14 117.801 300.889 117.071 300.339 116.484L298.15 118.536ZM298.14 118.565C298.14 118.584 298.138 118.593 298.138 118.593C298.138 118.594 298.139 118.587 298.143 118.577C298.147 118.567 298.153 118.557 298.158 118.548C298.164 118.539 298.168 118.536 298.166 118.537L300.322 120.623C300.876 120.051 301.14 119.33 301.14 118.565H298.14ZM298.149 118.555C298.17 118.533 298.193 118.514 298.216 118.499C298.239 118.484 298.255 118.477 298.261 118.475C298.27 118.472 298.229 118.489 298.111 118.489V121.489C298.878 121.489 299.714 121.274 300.34 120.605L298.149 118.555ZM298.111 118.489C297.992 118.489 297.951 118.472 297.96 118.475C297.966 118.477 297.982 118.484 298.005 118.499C298.028 118.514 298.051 118.533 298.072 118.555L295.881 120.605C296.507 121.274 297.343 121.489 298.111 121.489V118.489ZM298.09 118.574C298.091 118.575 298.094 118.58 298.099 118.587C298.104 118.595 298.107 118.603 298.11 118.609C298.112 118.615 298.111 118.616 298.11 118.61C298.109 118.604 298.108 118.59 298.108 118.565H295.108C295.108 119.3 295.343 120.008 295.864 120.585L298.09 118.574ZM309.496 117.51L308.384 116.503L308.376 116.513L308.367 116.522L309.496 117.51ZM311.763 117.51L310.652 118.517L310.66 118.527L310.669 118.536L311.763 117.51ZM311.763 119.58L310.686 118.537L310.677 118.546L310.668 118.555L311.763 119.58ZM309.496 119.58L308.383 120.585L308.392 120.595L308.4 120.605L309.496 119.58ZM310.627 118.565C310.627 118.5 310.636 118.477 310.635 118.48C310.634 118.481 310.633 118.485 310.63 118.49C310.629 118.492 310.627 118.494 310.626 118.496C310.625 118.497 310.625 118.498 310.625 118.498L308.367 116.522C307.851 117.112 307.627 117.83 307.627 118.565H310.627ZM310.607 118.517C310.588 118.539 310.566 118.558 310.542 118.574C310.519 118.589 310.501 118.597 310.494 118.6C310.48 118.605 310.516 118.588 310.63 118.588V115.588C309.848 115.588 309.007 115.816 308.384 116.503L310.607 118.517ZM310.63 118.588C310.743 118.588 310.779 118.605 310.766 118.6C310.758 118.597 310.74 118.589 310.717 118.574C310.694 118.558 310.671 118.539 310.652 118.517L312.875 116.503C312.252 115.816 311.411 115.588 310.63 115.588V118.588ZM310.669 118.536C310.671 118.538 310.668 118.535 310.664 118.529C310.661 118.523 310.658 118.517 310.656 118.511C310.654 118.506 310.654 118.506 310.656 118.514C310.657 118.521 310.659 118.538 310.659 118.565H313.659C313.659 117.801 313.408 117.071 312.858 116.484L310.669 118.536ZM310.659 118.565C310.659 118.584 310.657 118.593 310.657 118.593C310.657 118.594 310.658 118.587 310.662 118.577C310.666 118.567 310.672 118.557 310.677 118.548C310.683 118.539 310.687 118.536 310.686 118.537L312.841 120.623C313.395 120.051 313.659 119.33 313.659 118.565H310.659ZM310.668 118.555C310.689 118.533 310.712 118.514 310.735 118.499C310.758 118.484 310.775 118.477 310.78 118.475C310.789 118.472 310.748 118.489 310.63 118.489V121.489C311.398 121.489 312.233 121.274 312.859 120.605L310.668 118.555ZM310.63 118.489C310.511 118.489 310.47 118.472 310.479 118.475C310.485 118.477 310.501 118.484 310.524 118.499C310.547 118.514 310.57 118.533 310.591 118.555L308.4 120.605C309.026 121.274 309.862 121.489 310.63 121.489V118.489ZM310.609 118.574C310.61 118.575 310.613 118.58 310.618 118.587C310.623 118.595 310.626 118.603 310.629 118.609C310.631 118.615 310.631 118.616 310.63 118.61C310.629 118.604 310.627 118.59 310.627 118.565H307.627C307.627 119.3 307.862 120.008 308.383 120.585L310.609 118.574ZM322.015 117.51L320.904 116.503L320.895 116.513L320.886 116.522L322.015 117.51ZM324.283 117.51L323.171 118.517L323.18 118.527L323.188 118.536L324.283 117.51ZM324.283 119.58L323.205 118.537L323.196 118.546L323.187 118.555L324.283 119.58ZM322.015 119.58L320.902 120.585L320.911 120.595L320.92 120.605L322.015 119.58ZM323.146 118.565C323.146 118.5 323.155 118.477 323.154 118.48C323.154 118.481 323.152 118.485 323.149 118.49C323.148 118.492 323.147 118.494 323.145 118.496C323.144 118.497 323.144 118.498 323.144 118.498L320.886 116.522C320.37 117.112 320.146 117.83 320.146 118.565H323.146ZM323.126 118.517C323.107 118.539 323.085 118.558 323.061 118.574C323.038 118.589 323.02 118.597 323.013 118.6C322.999 118.605 323.035 118.588 323.149 118.588V115.588C322.367 115.588 321.526 115.816 320.904 116.503L323.126 118.517ZM323.149 118.588C323.262 118.588 323.298 118.605 323.285 118.6C323.277 118.597 323.259 118.589 323.236 118.574C323.213 118.558 323.19 118.539 323.171 118.517L325.394 116.503C324.771 115.816 323.931 115.588 323.149 115.588V118.588ZM323.188 118.536C323.19 118.538 323.187 118.535 323.184 118.529C323.18 118.523 323.177 118.517 323.175 118.511C323.173 118.506 323.173 118.506 323.175 118.514C323.176 118.521 323.178 118.538 323.178 118.565H326.178C326.178 117.801 325.927 117.071 325.377 116.484L323.188 118.536ZM323.178 118.565C323.178 118.584 323.177 118.593 323.176 118.593C323.176 118.594 323.178 118.587 323.182 118.577C323.186 118.567 323.191 118.557 323.197 118.548C323.202 118.539 323.206 118.536 323.205 118.537L325.36 120.623C325.914 120.051 326.178 119.33 326.178 118.565H323.178ZM323.187 118.555C323.208 118.533 323.232 118.514 323.255 118.499C323.277 118.484 323.294 118.477 323.299 118.475C323.308 118.472 323.267 118.489 323.149 118.489V121.489C323.917 121.489 324.752 121.274 325.378 120.605L323.187 118.555ZM323.149 118.489C323.031 118.489 322.989 118.472 322.998 118.475C323.004 118.477 323.02 118.484 323.043 118.499C323.066 118.514 323.089 118.533 323.11 118.555L320.92 120.605C321.546 121.274 322.381 121.489 323.149 121.489V118.489ZM323.128 118.574C323.129 118.575 323.133 118.58 323.137 118.587C323.142 118.595 323.146 118.603 323.148 118.609C323.15 118.615 323.15 118.616 323.149 118.61C323.148 118.604 323.146 118.59 323.146 118.565H320.146C320.146 119.3 320.381 120.008 320.902 120.585L323.128 118.574ZM334.534 117.51L333.423 116.503L333.414 116.513L333.405 116.522L334.534 117.51ZM336.802 117.51L335.69 118.517L335.699 118.527L335.707 118.536L336.802 117.51ZM336.802 119.58L335.724 118.537L335.715 118.546L335.706 118.555L336.802 119.58ZM334.534 119.58L333.421 120.585L333.43 120.595L333.439 120.605L334.534 119.58ZM335.665 118.565C335.665 118.5 335.674 118.477 335.673 118.48C335.673 118.481 335.671 118.485 335.668 118.49C335.667 118.492 335.666 118.494 335.665 118.496C335.664 118.497 335.663 118.498 335.663 118.498L333.405 116.522C332.889 117.112 332.665 117.83 332.665 118.565H335.665ZM335.646 118.517C335.626 118.539 335.604 118.558 335.58 118.574C335.557 118.589 335.54 118.597 335.532 118.6C335.518 118.605 335.554 118.588 335.668 118.588V115.588C334.886 115.588 334.045 115.816 333.423 116.503L335.646 118.517ZM335.668 118.588C335.782 118.588 335.817 118.605 335.804 118.6C335.796 118.597 335.779 118.589 335.755 118.574C335.732 118.558 335.71 118.539 335.69 118.517L337.913 116.503C337.291 115.816 336.45 115.588 335.668 115.588V118.588ZM335.707 118.536C335.709 118.538 335.707 118.535 335.703 118.529C335.699 118.523 335.696 118.517 335.694 118.511C335.692 118.506 335.693 118.506 335.694 118.514C335.695 118.521 335.697 118.538 335.697 118.565H338.697C338.697 117.801 338.446 117.071 337.896 116.484L335.707 118.536ZM335.697 118.565C335.697 118.584 335.696 118.593 335.696 118.593C335.696 118.594 335.697 118.587 335.701 118.577C335.705 118.567 335.71 118.557 335.716 118.548C335.721 118.539 335.725 118.536 335.724 118.537L337.88 120.623C338.433 120.051 338.697 119.33 338.697 118.565H335.697ZM335.706 118.555C335.727 118.533 335.751 118.514 335.774 118.499C335.796 118.484 335.813 118.477 335.818 118.475C335.827 118.472 335.786 118.489 335.668 118.489V121.489C336.436 121.489 337.271 121.274 337.897 120.605L335.706 118.555ZM335.668 118.489C335.55 118.489 335.509 118.472 335.517 118.475C335.523 118.477 335.54 118.484 335.562 118.499C335.585 118.514 335.609 118.533 335.63 118.555L333.439 120.605C334.065 121.274 334.9 121.489 335.668 121.489V118.489ZM335.647 118.574C335.648 118.575 335.652 118.58 335.656 118.587C335.661 118.595 335.665 118.603 335.667 118.609C335.669 118.615 335.669 118.616 335.668 118.61C335.667 118.604 335.665 118.59 335.665 118.565H332.665C332.665 119.3 332.9 120.008 333.421 120.585L335.647 118.574ZM347.053 117.51L345.942 116.503L345.933 116.513L345.924 116.522L347.053 117.51ZM349.321 117.51L348.209 118.517L348.218 118.527L348.227 118.536L349.321 117.51ZM349.321 119.58L348.243 118.537L348.234 118.546L348.225 118.555L349.321 119.58ZM347.053 119.58L345.94 120.585L345.949 120.595L345.958 120.605L347.053 119.58ZM348.184 118.565C348.184 118.5 348.193 118.477 348.192 118.48C348.192 118.481 348.19 118.485 348.187 118.49C348.186 118.492 348.185 118.494 348.184 118.496C348.183 118.497 348.182 118.498 348.182 118.498L345.924 116.522C345.408 117.112 345.184 117.83 345.184 118.565H348.184ZM348.165 118.517C348.145 118.539 348.123 118.558 348.1 118.574C348.077 118.589 348.059 118.597 348.051 118.6C348.038 118.605 348.074 118.588 348.187 118.588V115.588C347.405 115.588 346.565 115.816 345.942 116.503L348.165 118.517ZM348.187 118.588C348.301 118.588 348.337 118.605 348.323 118.6C348.315 118.597 348.298 118.589 348.275 118.574C348.251 118.558 348.229 118.539 348.209 118.517L350.432 116.503C349.81 115.816 348.969 115.588 348.187 115.588V118.588ZM348.227 118.536C348.228 118.538 348.226 118.535 348.222 118.529C348.218 118.523 348.215 118.517 348.213 118.511C348.211 118.506 348.212 118.506 348.213 118.514C348.214 118.521 348.216 118.538 348.216 118.565H351.216C351.216 117.801 350.965 117.071 350.415 116.484L348.227 118.536ZM348.216 118.565C348.216 118.584 348.215 118.593 348.215 118.593C348.215 118.594 348.216 118.587 348.22 118.577C348.224 118.567 348.229 118.557 348.235 118.548C348.24 118.539 348.244 118.536 348.243 118.537L350.399 120.623C350.952 120.051 351.216 119.33 351.216 118.565H348.216ZM348.225 118.555C348.246 118.533 348.27 118.514 348.293 118.499C348.316 118.484 348.332 118.477 348.338 118.475C348.346 118.472 348.305 118.489 348.187 118.489V121.489C348.955 121.489 349.79 121.274 350.416 120.605L348.225 118.555ZM348.187 118.489C348.069 118.489 348.028 118.472 348.037 118.475C348.042 118.477 348.059 118.484 348.081 118.499C348.104 118.514 348.128 118.533 348.149 118.555L345.958 120.605C346.584 121.274 347.419 121.489 348.187 121.489V118.489ZM348.166 118.574C348.167 118.575 348.171 118.58 348.176 118.587C348.18 118.595 348.184 118.603 348.186 118.609C348.188 118.615 348.188 118.616 348.187 118.61C348.186 118.604 348.184 118.59 348.184 118.565H345.184C345.184 119.3 345.419 120.008 345.94 120.585L348.166 118.574ZM259.419 149.51L258.308 148.503L258.299 148.513L258.29 148.522L259.419 149.51ZM261.687 149.51L260.575 150.517L260.584 150.527L260.593 150.536L261.687 149.51ZM261.687 151.58L260.609 150.537L260.6 150.546L260.591 150.555L261.687 151.58ZM259.419 151.58L258.306 152.585L258.315 152.595L258.324 152.605L259.419 151.58ZM260.55 150.565C260.55 150.5 260.559 150.477 260.558 150.48C260.558 150.481 260.556 150.485 260.553 150.49C260.552 150.492 260.551 150.494 260.55 150.496C260.549 150.497 260.548 150.498 260.548 150.498L258.29 148.522C257.774 149.112 257.55 149.83 257.55 150.565H260.55ZM260.531 150.517C260.511 150.539 260.489 150.558 260.466 150.574C260.443 150.589 260.425 150.597 260.417 150.6C260.404 150.605 260.44 150.588 260.553 150.588V147.588C259.771 147.588 258.931 147.816 258.308 148.503L260.531 150.517ZM260.553 150.588C260.667 150.588 260.703 150.605 260.689 150.6C260.681 150.597 260.664 150.589 260.641 150.574C260.617 150.558 260.595 150.539 260.575 150.517L262.798 148.503C262.176 147.816 261.335 147.588 260.553 147.588V150.588ZM260.593 150.536C260.594 150.538 260.592 150.535 260.588 150.529C260.584 150.523 260.581 150.517 260.579 150.511C260.577 150.506 260.578 150.506 260.579 150.514C260.58 150.521 260.582 150.538 260.582 150.565H263.582C263.582 149.801 263.331 149.071 262.781 148.484L260.593 150.536ZM260.582 150.565C260.582 150.584 260.581 150.593 260.581 150.593C260.581 150.594 260.582 150.587 260.586 150.577C260.59 150.567 260.595 150.557 260.601 150.548C260.606 150.539 260.61 150.536 260.609 150.537L262.765 152.623C263.318 152.051 263.582 151.33 263.582 150.565H260.582ZM260.591 150.555C260.612 150.533 260.636 150.514 260.659 150.499C260.682 150.484 260.698 150.477 260.704 150.475C260.712 150.472 260.671 150.489 260.553 150.489V153.489C261.321 153.489 262.156 153.274 262.782 152.605L260.591 150.555ZM260.553 150.489C260.435 150.489 260.394 150.472 260.403 150.475C260.408 150.477 260.425 150.484 260.447 150.499C260.47 150.514 260.494 150.533 260.515 150.555L258.324 152.605C258.95 153.274 259.785 153.489 260.553 153.489V150.489ZM260.532 150.574C260.533 150.575 260.537 150.58 260.542 150.587C260.546 150.595 260.55 150.603 260.552 150.609C260.554 150.615 260.554 150.616 260.553 150.61C260.552 150.604 260.55 150.59 260.55 150.565H257.55C257.55 151.3 257.785 152.008 258.306 152.585L260.532 150.574ZM271.938 149.51L270.827 148.503L270.818 148.513L270.81 148.522L271.938 149.51ZM274.206 149.51L273.095 150.517L273.103 150.527L273.112 150.536L274.206 149.51ZM274.206 151.58L273.128 150.537L273.119 150.546L273.111 150.555L274.206 151.58ZM271.938 151.58L270.825 152.585L270.834 152.595L270.843 152.605L271.938 151.58ZM273.069 150.565C273.069 150.5 273.078 150.477 273.077 150.48C273.077 150.481 273.076 150.485 273.073 150.49C273.071 150.492 273.07 150.494 273.069 150.496C273.068 150.497 273.067 150.498 273.067 150.498L270.81 148.522C270.293 149.112 270.069 149.83 270.069 150.565H273.069ZM273.05 150.517C273.031 150.539 273.008 150.558 272.985 150.574C272.962 150.589 272.944 150.597 272.936 150.6C272.923 150.605 272.959 150.588 273.072 150.588V147.588C272.291 147.588 271.45 147.816 270.827 148.503L273.05 150.517ZM273.072 150.588C273.186 150.588 273.222 150.605 273.208 150.6C273.201 150.597 273.183 150.589 273.16 150.574C273.136 150.558 273.114 150.539 273.095 150.517L275.318 148.503C274.695 147.816 273.854 147.588 273.072 147.588V150.588ZM273.112 150.536C273.113 150.538 273.111 150.535 273.107 150.529C273.103 150.523 273.1 150.517 273.098 150.511C273.096 150.506 273.097 150.506 273.098 150.514C273.099 150.521 273.102 150.538 273.102 150.565H276.102C276.102 149.801 275.85 149.071 275.3 148.484L273.112 150.536ZM273.102 150.565C273.102 150.584 273.1 150.593 273.1 150.593C273.1 150.594 273.101 150.587 273.105 150.577C273.109 150.567 273.114 150.557 273.12 150.548C273.126 150.539 273.129 150.536 273.128 150.537L275.284 152.623C275.838 152.051 276.102 151.33 276.102 150.565H273.102ZM273.111 150.555C273.132 150.533 273.155 150.514 273.178 150.499C273.201 150.484 273.217 150.477 273.223 150.475C273.232 150.472 273.19 150.489 273.072 150.489V153.489C273.84 153.489 274.675 153.274 275.301 152.605L273.111 150.555ZM273.072 150.489C272.954 150.489 272.913 150.472 272.922 150.475C272.927 150.477 272.944 150.484 272.966 150.499C272.99 150.514 273.013 150.533 273.034 150.555L270.843 152.605C271.469 153.274 272.304 153.489 273.072 153.489V150.489ZM273.052 150.574C273.052 150.575 273.056 150.58 273.061 150.587C273.065 150.595 273.069 150.603 273.071 150.609C273.073 150.615 273.073 150.616 273.072 150.61C273.071 150.604 273.069 150.59 273.069 150.565H270.069C270.069 151.3 270.304 152.008 270.825 152.585L273.052 150.574ZM284.458 149.51L283.346 148.503L283.337 148.513L283.329 148.522L284.458 149.51ZM286.725 149.51L285.614 150.517L285.622 150.527L285.631 150.536L286.725 149.51ZM286.725 151.58L285.647 150.537L285.638 150.546L285.63 150.555L286.725 151.58ZM284.458 151.58L283.344 152.585L283.353 152.595L283.362 152.605L284.458 151.58ZM285.588 150.565C285.588 150.5 285.598 150.477 285.597 150.48C285.596 150.481 285.595 150.485 285.592 150.49C285.59 150.492 285.589 150.494 285.588 150.496C285.587 150.497 285.586 150.498 285.586 150.498L283.329 148.522C282.812 149.112 282.588 149.83 282.588 150.565H285.588ZM285.569 150.517C285.55 150.539 285.527 150.558 285.504 150.574C285.481 150.589 285.463 150.597 285.455 150.6C285.442 150.605 285.478 150.588 285.591 150.588V147.588C284.81 147.588 283.969 147.816 283.346 148.503L285.569 150.517ZM285.591 150.588C285.705 150.588 285.741 150.605 285.727 150.6C285.72 150.597 285.702 150.589 285.679 150.574C285.655 150.558 285.633 150.539 285.614 150.517L287.837 148.503C287.214 147.816 286.373 147.588 285.591 147.588V150.588ZM285.631 150.536C285.632 150.538 285.63 150.535 285.626 150.529C285.622 150.523 285.619 150.517 285.617 150.511C285.615 150.506 285.616 150.506 285.617 150.514C285.619 150.521 285.621 150.538 285.621 150.565H288.621C288.621 149.801 288.369 149.071 287.819 148.484L285.631 150.536ZM285.621 150.565C285.621 150.584 285.619 150.593 285.619 150.593C285.619 150.594 285.62 150.587 285.624 150.577C285.628 150.567 285.633 150.557 285.639 150.548C285.645 150.539 285.648 150.536 285.647 150.537L287.803 152.623C288.357 152.051 288.621 151.33 288.621 150.565H285.621ZM285.63 150.555C285.651 150.533 285.674 150.514 285.697 150.499C285.72 150.484 285.736 150.477 285.742 150.475C285.751 150.472 285.71 150.489 285.591 150.489V153.489C286.359 153.489 287.195 153.274 287.821 152.605L285.63 150.555ZM285.591 150.489C285.473 150.489 285.432 150.472 285.441 150.475C285.446 150.477 285.463 150.484 285.486 150.499C285.509 150.514 285.532 150.533 285.553 150.555L283.362 152.605C283.988 153.274 284.823 153.489 285.591 153.489V150.489ZM285.571 150.574C285.571 150.575 285.575 150.58 285.58 150.587C285.585 150.595 285.588 150.603 285.59 150.609C285.593 150.615 285.592 150.616 285.591 150.61C285.59 150.604 285.588 150.59 285.588 150.565H282.588C282.588 151.3 282.823 152.008 283.344 152.585L285.571 150.574ZM296.977 149.51L295.865 148.503L295.856 148.513L295.848 148.522L296.977 149.51ZM299.244 149.51L298.133 150.517L298.141 150.527L298.15 150.536L299.244 149.51ZM299.244 151.58L298.166 150.537L298.158 150.546L298.149 150.555L299.244 151.58ZM296.977 151.58L295.864 152.585L295.872 152.595L295.881 152.605L296.977 151.58ZM298.108 150.565C298.108 150.5 298.117 150.477 298.116 150.48C298.115 150.481 298.114 150.485 298.111 150.49C298.11 150.492 298.108 150.494 298.107 150.496C298.106 150.497 298.105 150.498 298.106 150.498L295.848 148.522C295.331 149.112 295.108 149.83 295.108 150.565H298.108ZM298.088 150.517C298.069 150.539 298.046 150.558 298.023 150.574C298 150.589 297.982 150.597 297.974 150.6C297.961 150.605 297.997 150.588 298.111 150.588V147.588C297.329 147.588 296.488 147.816 295.865 148.503L298.088 150.517ZM298.111 150.588C298.224 150.588 298.26 150.605 298.247 150.6C298.239 150.597 298.221 150.589 298.198 150.574C298.175 150.558 298.152 150.539 298.133 150.517L300.356 148.503C299.733 147.816 298.892 147.588 298.111 147.588V150.588ZM298.15 150.536C298.152 150.538 298.149 150.535 298.145 150.529C298.141 150.523 298.138 150.517 298.136 150.511C298.135 150.506 298.135 150.506 298.136 150.514C298.138 150.521 298.14 150.538 298.14 150.565H301.14C301.14 149.801 300.889 149.071 300.339 148.484L298.15 150.536ZM298.14 150.565C298.14 150.584 298.138 150.593 298.138 150.593C298.138 150.594 298.139 150.587 298.143 150.577C298.147 150.567 298.153 150.557 298.158 150.548C298.164 150.539 298.168 150.536 298.166 150.537L300.322 152.623C300.876 152.051 301.14 151.33 301.14 150.565H298.14ZM298.149 150.555C298.17 150.533 298.193 150.514 298.216 150.499C298.239 150.484 298.255 150.477 298.261 150.475C298.27 150.472 298.229 150.489 298.111 150.489V153.489C298.878 153.489 299.714 153.274 300.34 152.605L298.149 150.555ZM298.111 150.489C297.992 150.489 297.951 150.472 297.96 150.475C297.966 150.477 297.982 150.484 298.005 150.499C298.028 150.514 298.051 150.533 298.072 150.555L295.881 152.605C296.507 153.274 297.343 153.489 298.111 153.489V150.489ZM298.09 150.574C298.091 150.575 298.094 150.58 298.099 150.587C298.104 150.595 298.107 150.603 298.11 150.609C298.112 150.615 298.111 150.616 298.11 150.61C298.109 150.604 298.108 150.59 298.108 150.565H295.108C295.108 151.3 295.343 152.008 295.864 152.585L298.09 150.574ZM309.496 149.51L308.384 148.503L308.376 148.513L308.367 148.522L309.496 149.51ZM311.763 149.51L310.652 150.517L310.66 150.527L310.669 150.536L311.763 149.51ZM311.763 151.58L310.686 150.537L310.677 150.546L310.668 150.555L311.763 151.58ZM309.496 151.58L308.383 152.585L308.392 152.595L308.4 152.605L309.496 151.58ZM310.627 150.565C310.627 150.5 310.636 150.477 310.635 150.48C310.634 150.481 310.633 150.485 310.63 150.49C310.629 150.492 310.627 150.494 310.626 150.496C310.625 150.497 310.625 150.498 310.625 150.498L308.367 148.522C307.851 149.112 307.627 149.83 307.627 150.565H310.627ZM310.607 150.517C310.588 150.539 310.566 150.558 310.542 150.574C310.519 150.589 310.501 150.597 310.494 150.6C310.48 150.605 310.516 150.588 310.63 150.588V147.588C309.848 147.588 309.007 147.816 308.384 148.503L310.607 150.517ZM310.63 150.588C310.743 150.588 310.779 150.605 310.766 150.6C310.758 150.597 310.74 150.589 310.717 150.574C310.694 150.558 310.671 150.539 310.652 150.517L312.875 148.503C312.252 147.816 311.411 147.588 310.63 147.588V150.588ZM310.669 150.536C310.671 150.538 310.668 150.535 310.664 150.529C310.661 150.523 310.658 150.517 310.656 150.511C310.654 150.506 310.654 150.506 310.656 150.514C310.657 150.521 310.659 150.538 310.659 150.565H313.659C313.659 149.801 313.408 149.071 312.858 148.484L310.669 150.536ZM310.659 150.565C310.659 150.584 310.657 150.593 310.657 150.593C310.657 150.594 310.658 150.587 310.662 150.577C310.666 150.567 310.672 150.557 310.677 150.548C310.683 150.539 310.687 150.536 310.686 150.537L312.841 152.623C313.395 152.051 313.659 151.33 313.659 150.565H310.659ZM310.668 150.555C310.689 150.533 310.712 150.514 310.735 150.499C310.758 150.484 310.775 150.477 310.78 150.475C310.789 150.472 310.748 150.489 310.63 150.489V153.489C311.398 153.489 312.233 153.274 312.859 152.605L310.668 150.555ZM310.63 150.489C310.511 150.489 310.47 150.472 310.479 150.475C310.485 150.477 310.501 150.484 310.524 150.499C310.547 150.514 310.57 150.533 310.591 150.555L308.4 152.605C309.026 153.274 309.862 153.489 310.63 153.489V150.489ZM310.609 150.574C310.61 150.575 310.613 150.58 310.618 150.587C310.623 150.595 310.626 150.603 310.629 150.609C310.631 150.615 310.631 150.616 310.63 150.61C310.629 150.604 310.627 150.59 310.627 150.565H307.627C307.627 151.3 307.862 152.008 308.383 152.585L310.609 150.574ZM322.015 149.51L320.904 148.503L320.895 148.513L320.886 148.522L322.015 149.51ZM324.283 149.51L323.171 150.517L323.18 150.527L323.188 150.536L324.283 149.51ZM324.283 151.58L323.205 150.537L323.196 150.546L323.187 150.555L324.283 151.58ZM322.015 151.58L320.902 152.585L320.911 152.595L320.92 152.605L322.015 151.58ZM323.146 150.565C323.146 150.5 323.155 150.477 323.154 150.48C323.154 150.481 323.152 150.485 323.149 150.49C323.148 150.492 323.147 150.494 323.145 150.496C323.144 150.497 323.144 150.498 323.144 150.498L320.886 148.522C320.37 149.112 320.146 149.83 320.146 150.565H323.146ZM323.126 150.517C323.107 150.539 323.085 150.558 323.061 150.574C323.038 150.589 323.02 150.597 323.013 150.6C322.999 150.605 323.035 150.588 323.149 150.588V147.588C322.367 147.588 321.526 147.816 320.904 148.503L323.126 150.517ZM323.149 150.588C323.262 150.588 323.298 150.605 323.285 150.6C323.277 150.597 323.259 150.589 323.236 150.574C323.213 150.558 323.19 150.539 323.171 150.517L325.394 148.503C324.771 147.816 323.931 147.588 323.149 147.588V150.588ZM323.188 150.536C323.19 150.538 323.187 150.535 323.184 150.529C323.18 150.523 323.177 150.517 323.175 150.511C323.173 150.506 323.173 150.506 323.175 150.514C323.176 150.521 323.178 150.538 323.178 150.565H326.178C326.178 149.801 325.927 149.071 325.377 148.484L323.188 150.536ZM323.178 150.565C323.178 150.584 323.177 150.593 323.176 150.593C323.176 150.594 323.178 150.587 323.182 150.577C323.186 150.567 323.191 150.557 323.197 150.548C323.202 150.539 323.206 150.536 323.205 150.537L325.36 152.623C325.914 152.051 326.178 151.33 326.178 150.565H323.178ZM323.187 150.555C323.208 150.533 323.232 150.514 323.255 150.499C323.277 150.484 323.294 150.477 323.299 150.475C323.308 150.472 323.267 150.489 323.149 150.489V153.489C323.917 153.489 324.752 153.274 325.378 152.605L323.187 150.555ZM323.149 150.489C323.031 150.489 322.989 150.472 322.998 150.475C323.004 150.477 323.02 150.484 323.043 150.499C323.066 150.514 323.089 150.533 323.11 150.555L320.92 152.605C321.546 153.274 322.381 153.489 323.149 153.489V150.489ZM323.128 150.574C323.129 150.575 323.133 150.58 323.137 150.587C323.142 150.595 323.146 150.603 323.148 150.609C323.15 150.615 323.15 150.616 323.149 150.61C323.148 150.604 323.146 150.59 323.146 150.565H320.146C320.146 151.3 320.381 152.008 320.902 152.585L323.128 150.574Z" fill="#FFC850"/>
<path d="M49.8496 99.9195L55.9628 102.39V104.304L47.9746 100.603V99.1773L55.9628 95.4859V97.3999L49.8496 99.9195ZM66.5664 106.209H64.75V94.1675L61.1074 95.5054V93.8648L66.2832 91.9214H66.5664V106.209ZM82.7753 100.144C82.7753 102.26 82.414 103.832 81.6914 104.861C80.9687 105.89 79.8391 106.404 78.3027 106.404C76.7858 106.404 75.6627 105.903 74.9335 104.9C74.2044 103.891 73.8268 102.387 73.8007 100.388V97.9761C73.8007 95.8863 74.1621 94.3335 74.8847 93.3179C75.6074 92.3023 76.7402 91.7945 78.2832 91.7945C79.8131 91.7945 80.9394 92.286 81.6621 93.2691C82.3847 94.2456 82.7558 95.7561 82.7753 97.8003V100.144ZM80.9687 97.6734C80.9687 96.1434 80.7539 95.0301 80.3242 94.3335C79.8945 93.6304 79.2141 93.2788 78.2832 93.2788C77.3587 93.2788 76.6849 93.6271 76.2617 94.3238C75.8385 95.0204 75.6204 96.0913 75.6074 97.5367V100.427C75.6074 101.964 75.8287 103.1 76.2714 103.835C76.7207 104.565 77.3977 104.929 78.3027 104.929C79.1946 104.929 79.8554 104.584 80.2851 103.894C80.7213 103.204 80.9492 102.117 80.9687 100.632V97.6734ZM93.0273 106.209H91.2109V94.1675L87.5683 95.5054V93.8648L92.7441 91.9214H93.0273V106.209ZM109.236 100.144C109.236 102.26 108.875 103.832 108.152 104.861C107.43 105.89 106.3 106.404 104.764 106.404C103.247 106.404 102.124 105.903 101.394 104.9C100.665 103.891 100.288 102.387 100.262 100.388V97.9761C100.262 95.8863 100.623 94.3335 101.346 93.3179C102.068 92.3023 103.201 91.7945 104.744 91.7945C106.274 91.7945 107.4 92.286 108.123 93.2691C108.846 94.2456 109.217 95.7561 109.236 97.8003V100.144ZM107.43 97.6734C107.43 96.1434 107.215 95.0301 106.785 94.3335C106.355 93.6304 105.675 93.2788 104.744 93.2788C103.82 93.2788 103.146 93.6271 102.723 94.3238C102.299 95.0204 102.081 96.0913 102.068 97.5367V100.427C102.068 101.964 102.29 103.1 102.732 103.835C103.182 104.565 103.859 104.929 104.764 104.929C105.656 104.929 106.316 104.584 106.746 103.894C107.182 103.204 107.41 102.117 107.43 100.632V97.6734ZM114.098 107.429H112.545L118.482 91.9898H120.025L114.098 107.429ZM130.375 99.8609L123.92 97.3316V95.4761L132.26 99.1675V100.593L123.92 104.294V102.419L130.375 99.8609Z" fill="black"/>
<path d="M49.8496 99.9195L49.278 98.5326L45.8801 99.9331L49.2875 101.31L49.8496 99.9195ZM55.9628 102.39H57.4628V101.379L56.5249 100.999L55.9628 102.39ZM55.9628 104.304L55.3323 105.665L57.4628 106.652V104.304H55.9628ZM47.9746 100.603H46.4746V101.561L47.344 101.964L47.9746 100.603ZM47.9746 99.1773L47.3453 97.8156L46.4746 98.218V99.1773H47.9746ZM55.9628 95.4859H57.4628V93.1403L55.3336 94.1242L55.9628 95.4859ZM55.9628 97.3999L56.5344 98.7868L57.4628 98.4041V97.3999H55.9628ZM49.2875 101.31L55.4008 103.781L56.5249 100.999L50.4116 98.5287L49.2875 101.31ZM54.4628 102.39V104.304H57.4628V102.39H54.4628ZM56.5934 102.943L48.6052 99.242L47.344 101.964L55.3323 105.665L56.5934 102.943ZM49.4746 100.603V99.1773H46.4746V100.603H49.4746ZM48.6038 100.539L56.5921 96.8475L55.3336 94.1242L47.3453 97.8156L48.6038 100.539ZM54.4628 95.4859V97.3999H57.4628V95.4859H54.4628ZM55.3913 96.0131L49.278 98.5326L50.4211 101.306L56.5344 98.7868L55.3913 96.0131ZM66.5664 106.209V107.709H68.0664V106.209H66.5664ZM64.75 106.209H63.25V107.709H64.75V106.209ZM64.75 94.1675H66.25V92.0186L64.2328 92.7595L64.75 94.1675ZM61.1074 95.5054H59.6074V97.6543L61.6245 96.9134L61.1074 95.5054ZM61.1074 93.8648L60.5801 92.4605L59.6074 92.8257V93.8648H61.1074ZM66.2832 91.9214V90.4214H66.0108L65.7559 90.5171L66.2832 91.9214ZM66.5664 91.9214H68.0664V90.4214H66.5664V91.9214ZM66.5664 104.709H64.75V107.709H66.5664V104.709ZM66.25 106.209V94.1675H63.25V106.209H66.25ZM64.2328 92.7595L60.5902 94.0974L61.6245 96.9134L65.2671 95.5755L64.2328 92.7595ZM62.6074 95.5054V93.8648H59.6074V95.5054H62.6074ZM61.6346 95.2691L66.8104 93.3257L65.7559 90.5171L60.5801 92.4605L61.6346 95.2691ZM66.2832 93.4214H66.5664V90.4214H66.2832V93.4214ZM65.0664 91.9214V106.209H68.0664V91.9214H65.0664ZM74.9335 104.9L73.7177 105.778L73.7204 105.782L74.9335 104.9ZM73.8007 100.388H72.3007V100.398L72.3009 100.408L73.8007 100.388ZM81.6621 93.2691L80.4535 94.1575L80.4563 94.1613L81.6621 93.2691ZM82.7753 97.8003H84.2753V97.7932L84.2753 97.786L82.7753 97.8003ZM80.3242 94.3335L79.0442 95.1157L79.0475 95.121L80.3242 94.3335ZM75.6074 97.5367L74.1074 97.5231V97.5367H75.6074ZM76.2714 103.835L74.9862 104.609L74.9902 104.616L74.9943 104.622L76.2714 103.835ZM80.2851 103.894L79.0171 103.093L79.0118 103.101L80.2851 103.894ZM80.9687 100.632L82.4686 100.652L82.4687 100.642V100.632H80.9687ZM81.2753 100.144C81.2753 102.141 80.9248 103.343 80.464 103.999L82.9187 105.723C83.9033 104.322 84.2753 102.379 84.2753 100.144H81.2753ZM80.464 103.999C80.086 104.537 79.4734 104.904 78.3027 104.904V107.904C80.2049 107.904 81.8514 107.242 82.9187 105.723L80.464 103.999ZM78.3027 104.904C77.1451 104.904 76.5294 104.544 76.1467 104.018L73.7204 105.782C74.796 107.261 76.4264 107.904 78.3027 107.904V104.904ZM76.1494 104.021C75.6806 103.373 75.3249 102.23 75.3006 100.369L72.3009 100.408C72.3287 102.544 72.7281 104.409 73.7177 105.778L76.1494 104.021ZM75.3007 100.388V97.9761H72.3007V100.388H75.3007ZM75.3007 97.9761C75.3007 96.0076 75.6506 94.8289 76.1069 94.1875L73.6625 92.4483C72.6736 93.8382 72.3007 95.7649 72.3007 97.9761H75.3007ZM76.1069 94.1875C76.4805 93.6624 77.0959 93.2945 78.2832 93.2945V90.2945C76.3845 90.2945 74.7342 90.9421 73.6625 92.4483L76.1069 94.1875ZM78.2832 93.2945C79.4707 93.2945 80.0848 93.6559 80.4535 94.1575L82.8707 92.3806C81.794 90.9161 80.1556 90.2945 78.2832 90.2945V93.2945ZM80.4563 94.1613C80.9009 94.7622 81.257 95.8917 81.2754 97.8147L84.2753 97.786C84.2546 95.6204 83.8685 93.7291 82.8678 92.3768L80.4563 94.1613ZM81.2753 97.8003V100.144H84.2753V97.8003H81.2753ZM82.4687 97.6734C82.4687 96.0702 82.2558 94.6079 81.6008 93.546L79.0475 95.121C79.2519 95.4523 79.4687 96.2167 79.4687 97.6734H82.4687ZM81.6041 93.5514C80.8623 92.3375 79.656 91.7788 78.2832 91.7788V94.7788C78.7723 94.7788 78.9266 94.9233 79.0443 95.1157L81.6041 93.5514ZM78.2832 91.7788C76.9184 91.7788 75.7157 92.3334 74.9797 93.545L77.5437 95.1025C77.654 94.9209 77.799 94.7788 78.2832 94.7788V91.7788ZM74.9797 93.545C74.3454 94.5891 74.1213 95.9885 74.1074 97.5231L77.1073 97.5502C77.1195 96.1942 77.3316 95.4516 77.5437 95.1025L74.9797 93.545ZM74.1074 97.5367V100.427H77.1074V97.5367H74.1074ZM74.1074 100.427C74.1074 102.051 74.331 103.52 74.9862 104.609L77.5567 103.062C77.3265 102.68 77.1074 101.877 77.1074 100.427H74.1074ZM74.9943 104.622C75.7349 105.824 76.9128 106.429 78.3027 106.429V103.429C77.8826 103.429 77.7064 103.305 77.5485 103.049L74.9943 104.622ZM78.3027 106.429C79.6525 106.429 80.8245 105.866 81.5585 104.687L79.0118 103.101C78.8863 103.303 78.7367 103.429 78.3027 103.429V106.429ZM81.5531 104.696C82.2149 103.648 82.448 102.219 82.4686 100.652L79.4688 100.613C79.4504 102.014 79.2278 102.759 79.0172 103.093L81.5531 104.696ZM82.4687 100.632V97.6734H79.4687V100.632H82.4687ZM93.0273 106.209V107.709H94.5273V106.209H93.0273ZM91.2109 106.209H89.7109V107.709H91.2109V106.209ZM91.2109 94.1675H92.7109V92.0186L90.6937 92.7595L91.2109 94.1675ZM87.5683 95.5054H86.0683V97.6543L88.0855 96.9134L87.5683 95.5054ZM87.5683 93.8648L87.041 92.4605L86.0683 92.8257V93.8648H87.5683ZM92.7441 91.9214V90.4214H92.4718L92.2168 90.5171L92.7441 91.9214ZM93.0273 91.9214H94.5273V90.4214H93.0273V91.9214ZM93.0273 104.709H91.2109V107.709H93.0273V104.709ZM92.7109 106.209V94.1675H89.7109V106.209H92.7109ZM90.6937 92.7595L87.0512 94.0974L88.0855 96.9134L91.7281 95.5755L90.6937 92.7595ZM89.0683 95.5054V93.8648H86.0683V95.5054H89.0683ZM88.0956 95.2691L93.2714 93.3257L92.2168 90.5171L87.041 92.4605L88.0956 95.2691ZM92.7441 93.4214H93.0273V90.4214H92.7441V93.4214ZM91.5273 91.9214V106.209H94.5273V91.9214H91.5273ZM101.394 104.9L100.179 105.778L100.181 105.782L101.394 104.9ZM100.262 100.388H98.7617V100.398L98.7618 100.408L100.262 100.388ZM108.123 93.2691L106.914 94.1575L106.917 94.1613L108.123 93.2691ZM109.236 97.8003H110.736V97.7932L110.736 97.786L109.236 97.8003ZM106.785 94.3335L105.505 95.1157L105.508 95.121L106.785 94.3335ZM102.068 97.5367L100.568 97.5231V97.5367H102.068ZM102.732 103.835L101.447 104.609L101.451 104.616L101.455 104.622L102.732 103.835ZM106.746 103.894L105.478 103.093L105.473 103.101L106.746 103.894ZM107.43 100.632L108.93 100.652L108.93 100.642V100.632H107.43ZM107.736 100.144C107.736 102.141 107.386 103.343 106.925 103.999L109.38 105.723C110.364 104.322 110.736 102.379 110.736 100.144H107.736ZM106.925 103.999C106.547 104.537 105.934 104.904 104.764 104.904V107.904C106.666 107.904 108.312 107.242 109.38 105.723L106.925 103.999ZM104.764 104.904C103.606 104.904 102.99 104.544 102.608 104.018L100.181 105.782C101.257 107.261 102.887 107.904 104.764 107.904V104.904ZM102.61 104.021C102.142 103.373 101.786 102.23 101.762 100.369L98.7618 100.408C98.7896 102.544 99.1891 104.409 100.179 105.778L102.61 104.021ZM101.762 100.388V97.9761H98.7617V100.388H101.762ZM101.762 97.9761C101.762 96.0076 102.112 94.8289 102.568 94.1875L100.123 92.4483C99.1345 93.8382 98.7617 95.7649 98.7617 97.9761H101.762ZM102.568 94.1875C102.941 93.6624 103.557 93.2945 104.744 93.2945V90.2945C102.845 90.2945 101.195 90.9421 100.123 92.4483L102.568 94.1875ZM104.744 93.2945C105.932 93.2945 106.546 93.6559 106.914 94.1575L109.332 92.3806C108.255 90.9161 106.616 90.2945 104.744 90.2945V93.2945ZM106.917 94.1613C107.362 94.7622 107.718 95.8917 107.736 97.8147L110.736 97.786C110.716 95.6204 110.329 93.7291 109.329 92.3768L106.917 94.1613ZM107.736 97.8003V100.144H110.736V97.8003H107.736ZM108.93 97.6734C108.93 96.0702 108.717 94.6079 108.062 93.546L105.508 95.121C105.713 95.4523 105.93 96.2167 105.93 97.6734H108.93ZM108.065 93.5514C107.323 92.3375 106.117 91.7788 104.744 91.7788V94.7788C105.233 94.7788 105.388 94.9233 105.505 95.1157L108.065 93.5514ZM104.744 91.7788C103.379 91.7788 102.177 92.3334 101.441 93.545L104.005 95.1025C104.115 94.9209 104.26 94.7788 104.744 94.7788V91.7788ZM101.441 93.545C100.806 94.5891 100.582 95.9885 100.568 97.5231L103.568 97.5502C103.58 96.1942 103.793 95.4516 104.005 95.1025L101.441 93.545ZM100.568 97.5367V100.427H103.568V97.5367H100.568ZM100.568 100.427C100.568 102.051 100.792 103.52 101.447 104.609L104.018 103.062C103.787 102.68 103.568 101.877 103.568 100.427H100.568ZM101.455 104.622C102.196 105.824 103.374 106.429 104.764 106.429V103.429C104.344 103.429 104.167 103.305 104.009 103.049L101.455 104.622ZM104.764 106.429C106.113 106.429 107.285 105.866 108.019 104.687L105.473 103.101C105.347 103.303 105.198 103.429 104.764 103.429V106.429ZM108.014 104.696C108.676 103.648 108.909 102.219 108.93 100.652L105.93 100.613C105.911 102.014 105.689 102.759 105.478 103.093L108.014 104.696ZM108.93 100.632V97.6734H105.93V100.632H108.93ZM114.098 107.429V108.929H115.128L115.498 107.967L114.098 107.429ZM112.545 107.429L111.145 106.891L110.361 108.929H112.545V107.429ZM118.482 91.9898V90.4898H117.452L117.082 91.4514L118.482 91.9898ZM120.025 91.9898L121.426 92.5274L122.208 90.4898H120.025V91.9898ZM114.098 105.929H112.545V108.929H114.098V105.929ZM113.945 107.968L119.882 92.5282L117.082 91.4514L111.145 106.891L113.945 107.968ZM118.482 93.4898H120.025V90.4898H118.482V93.4898ZM118.625 91.4521L112.697 106.892L115.498 107.967L121.426 92.5274L118.625 91.4521ZM130.375 99.8609L130.928 101.255L134.466 99.8528L130.922 98.4643L130.375 99.8609ZM123.92 97.3316H122.42V98.3549L123.373 98.7282L123.92 97.3316ZM123.92 95.4761L124.527 94.1045L122.42 93.1718V95.4761H123.92ZM132.26 99.1675H133.76V98.1911L132.867 97.7959L132.26 99.1675ZM132.26 100.593L132.868 101.964L133.76 101.569V100.593H132.26ZM123.92 104.294H122.42V106.601L124.528 105.666L123.92 104.294ZM123.92 102.419L123.367 101.025L122.42 101.4V102.419H123.92ZM130.922 98.4643L124.467 95.935L123.373 98.7282L129.828 101.257L130.922 98.4643ZM125.42 97.3316V95.4761H122.42V97.3316H125.42ZM123.313 96.8477L131.653 100.539L132.867 97.7959L124.527 94.1045L123.313 96.8477ZM130.76 99.1675V100.593H133.76V99.1675H130.76ZM131.651 99.2222L123.311 102.923L124.528 105.666L132.868 101.964L131.651 99.2222ZM125.42 104.294V102.419H122.42V104.294H125.42ZM124.473 103.814L130.928 101.255L129.822 98.4664L123.367 101.025L124.473 103.814Z" fill="#3F98BB"/>
<path d="M159.92 129.427L165.779 191.986L192.154 200.237L218.529 191.986L224.389 129.427H159.92ZM212.485 142.071L211.68 149.547L192.322 157.34L192.272 157.356H210.991L208.842 180.527L192.356 185.063L175.768 180.448L174.694 168.767H182.903L183.441 174.821L192.272 176.923L201.455 174.489L202.076 164.753L174.156 164.674V164.658L174.123 164.674L173.518 157.356L192.339 149.974L193.43 149.547H172.797L171.823 142.071H212.485Z" fill="#3F98BB" stroke="black" stroke-opacity="0.69" stroke-width="3"/>
<path d="M43 124V216H135V124H43ZM93.0661 195.752C93.0661 204.705 87.8089 208.792 80.1491 208.792C73.2286 208.792 69.2241 205.219 67.1705 200.886L74.2143 196.635C75.5696 199.038 76.8018 201.071 79.7795 201.071C82.6134 201.071 84.4205 199.962 84.4205 195.629V166.242H93.0661V195.752V195.752ZM113.52 208.792C105.49 208.792 100.295 204.972 97.7688 199.962L104.813 195.896C106.661 198.914 109.084 201.153 113.335 201.153C116.908 201.153 119.208 199.366 119.208 196.881C119.208 193.924 116.867 192.877 112.904 191.131L110.747 190.207C104.504 187.558 100.377 184.211 100.377 177.167C100.377 170.678 105.326 165.749 113.027 165.749C118.53 165.749 122.473 167.659 125.307 172.67L118.571 176.982C117.093 174.333 115.491 173.286 113.006 173.286C110.48 173.286 108.879 174.888 108.879 176.982C108.879 179.57 110.48 180.617 114.197 182.239L116.354 183.163C123.705 186.305 127.833 189.529 127.833 196.758C127.833 204.521 121.713 208.792 113.52 208.792V208.792Z" fill="white" stroke="#3F98BB" stroke-width="3"/>
<path d="M49 133L52.0901 168.339L65.9557 173L79.9099 168.339L83 133H49ZM76.2885 144.42H60.0146L60.3776 148.83H75.9255L74.7214 162.08L66.0531 164.491V164.518H65.9557L57.2167 162.08L56.6854 155.312H60.9089L61.2187 158.714L65.9557 160.009L70.7104 158.714L71.2417 153.161H56.4641L55.3307 140.161H76.6781L76.2885 144.42V144.42Z" fill="#3F98BB"/>
</svg>
