<svg width="367" height="250" viewBox="0 0 367 250" fill="none" xmlns="http://www.w3.org/2000/svg">
<rect width="367" height="250" fill="white"/>
<g filter="url(#filter0_d)">
<rect x="15" y="16" width="339" height="219" rx="9" fill="white"/>
<rect x="16.5" y="17.5" width="336" height="216" rx="7.5" stroke="#3F98BB" stroke-width="3"/>
</g>
<mask id="path-3-inside-1" fill="white">
<path d="M180.489 85.641C179.817 83.6986 178.557 82.0138 176.883 80.8209C175.21 79.6279 173.206 78.9862 171.15 78.9848H167.839V72.3617H171.15C173.783 72.3538 176.305 71.3046 178.167 69.4432C180.028 67.5818 181.077 65.0595 181.085 62.427V35.9346C181.077 33.3022 180.028 30.7799 178.167 28.9185C176.305 27.0571 173.783 26.0079 171.15 26H51.9346C49.3022 26.0079 46.7799 27.0571 44.9185 28.9185C43.0571 30.7799 42.0079 33.3022 42 35.9346V62.427C42.0079 65.0595 43.0571 67.5818 44.9185 69.4432C46.7799 71.3046 49.3022 72.3538 51.9346 72.3617H55.2462V78.9848H51.9346C49.3022 78.9926 46.7799 80.0418 44.9185 81.9033C43.0571 83.7647 42.0079 86.287 42 88.9194V115.412C42.0079 118.044 43.0571 120.567 44.9185 122.428C46.7799 124.289 49.3022 125.339 51.9346 125.346H55.2462V131.97H51.9346C49.3022 131.977 46.7799 133.027 44.9185 134.888C43.0571 136.749 42.0079 139.272 42 141.904V168.397C42.0079 171.029 43.0571 173.551 44.9185 175.413C46.7799 177.274 49.3022 178.323 51.9346 178.331H114.854V204.824C114.854 217.871 146.512 224.693 177.774 224.693C209.035 224.693 240.693 217.871 240.693 204.824V105.477C240.693 92.7939 210.856 86.0384 180.489 85.641ZM51.9346 65.7386C51.0564 65.7386 50.2141 65.3897 49.593 64.7687C48.972 64.1476 48.6231 63.3053 48.6231 62.427V35.9346C48.6231 35.0564 48.972 34.2141 49.593 33.593C50.2141 32.972 51.0564 32.6231 51.9346 32.6231H171.15C172.029 32.6231 172.871 32.972 173.492 33.593C174.113 34.2141 174.462 35.0564 174.462 35.9346V62.427C174.462 63.3053 174.113 64.1476 173.492 64.7687C172.871 65.3897 172.029 65.7386 171.15 65.7386H51.9346ZM161.216 72.3617V78.9848H147.97V72.3617H161.216ZM141.346 72.3617V78.9848H81.7386V72.3617H141.346ZM75.1155 72.3617V78.9848H61.8693V72.3617H75.1155ZM114.854 171.708H51.9346C51.0564 171.708 50.2141 171.359 49.593 170.738C48.972 170.117 48.6231 169.275 48.6231 168.397V141.904C48.6231 141.026 48.972 140.184 49.593 139.563C50.2141 138.942 51.0564 138.593 51.9346 138.593H114.854V171.708ZM61.8693 131.97V125.346H75.1155V131.97H61.8693ZM114.854 131.97H81.7386V125.346H114.854V131.97ZM114.854 105.477V118.723H51.9346C51.0564 118.723 50.2141 118.374 49.593 117.753C48.972 117.132 48.6231 116.29 48.6231 115.412V88.9194C48.6231 88.0412 48.972 87.1988 49.593 86.5778C50.2141 85.9568 51.0564 85.6079 51.9346 85.6079H171.15C171.308 85.6251 171.463 85.6584 171.614 85.7072C142.472 86.5351 114.854 93.2907 114.854 105.477ZM234.07 204.824C234.07 209.327 214.201 218.07 177.774 218.07C141.346 218.07 121.477 209.327 121.477 204.824V181.047C132.372 187.968 155.123 191.577 177.774 191.577C200.425 191.577 223.175 187.968 234.07 181.047V204.824ZM234.07 171.708C234.07 176.212 214.201 184.954 177.774 184.954C141.346 184.954 121.477 176.212 121.477 171.708V147.931C132.372 154.852 155.123 158.462 177.774 158.462C200.425 158.462 223.175 154.852 234.07 147.931V171.708ZM234.07 138.593C234.07 143.096 214.201 151.839 177.774 151.839C141.346 151.839 121.477 143.096 121.477 138.593V114.816C132.372 121.737 155.123 125.346 177.774 125.346C200.425 125.346 223.175 121.737 234.07 114.816V138.593ZM177.774 118.723C141.346 118.723 121.477 109.981 121.477 105.477C121.477 100.973 141.346 92.231 177.774 92.231C214.201 92.231 234.07 100.973 234.07 105.477C234.07 109.981 214.201 118.723 177.774 118.723Z"/>
</mask>
<path d="M180.489 85.641C179.817 83.6986 178.557 82.0138 176.883 80.8209C175.21 79.6279 173.206 78.9862 171.15 78.9848H167.839V72.3617H171.15C173.783 72.3538 176.305 71.3046 178.167 69.4432C180.028 67.5818 181.077 65.0595 181.085 62.427V35.9346C181.077 33.3022 180.028 30.7799 178.167 28.9185C176.305 27.0571 173.783 26.0079 171.15 26H51.9346C49.3022 26.0079 46.7799 27.0571 44.9185 28.9185C43.0571 30.7799 42.0079 33.3022 42 35.9346V62.427C42.0079 65.0595 43.0571 67.5818 44.9185 69.4432C46.7799 71.3046 49.3022 72.3538 51.9346 72.3617H55.2462V78.9848H51.9346C49.3022 78.9926 46.7799 80.0418 44.9185 81.9033C43.0571 83.7647 42.0079 86.287 42 88.9194V115.412C42.0079 118.044 43.0571 120.567 44.9185 122.428C46.7799 124.289 49.3022 125.339 51.9346 125.346H55.2462V131.97H51.9346C49.3022 131.977 46.7799 133.027 44.9185 134.888C43.0571 136.749 42.0079 139.272 42 141.904V168.397C42.0079 171.029 43.0571 173.551 44.9185 175.413C46.7799 177.274 49.3022 178.323 51.9346 178.331H114.854V204.824C114.854 217.871 146.512 224.693 177.774 224.693C209.035 224.693 240.693 217.871 240.693 204.824V105.477C240.693 92.7939 210.856 86.0384 180.489 85.641ZM51.9346 65.7386C51.0564 65.7386 50.2141 65.3897 49.593 64.7687C48.972 64.1476 48.6231 63.3053 48.6231 62.427V35.9346C48.6231 35.0564 48.972 34.2141 49.593 33.593C50.2141 32.972 51.0564 32.6231 51.9346 32.6231H171.15C172.029 32.6231 172.871 32.972 173.492 33.593C174.113 34.2141 174.462 35.0564 174.462 35.9346V62.427C174.462 63.3053 174.113 64.1476 173.492 64.7687C172.871 65.3897 172.029 65.7386 171.15 65.7386H51.9346ZM161.216 72.3617V78.9848H147.97V72.3617H161.216ZM141.346 72.3617V78.9848H81.7386V72.3617H141.346ZM75.1155 72.3617V78.9848H61.8693V72.3617H75.1155ZM114.854 171.708H51.9346C51.0564 171.708 50.2141 171.359 49.593 170.738C48.972 170.117 48.6231 169.275 48.6231 168.397V141.904C48.6231 141.026 48.972 140.184 49.593 139.563C50.2141 138.942 51.0564 138.593 51.9346 138.593H114.854V171.708ZM61.8693 131.97V125.346H75.1155V131.97H61.8693ZM114.854 131.97H81.7386V125.346H114.854V131.97ZM114.854 105.477V118.723H51.9346C51.0564 118.723 50.2141 118.374 49.593 117.753C48.972 117.132 48.6231 116.29 48.6231 115.412V88.9194C48.6231 88.0412 48.972 87.1988 49.593 86.5778C50.2141 85.9568 51.0564 85.6079 51.9346 85.6079H171.15C171.308 85.6251 171.463 85.6584 171.614 85.7072C142.472 86.5351 114.854 93.2907 114.854 105.477ZM234.07 204.824C234.07 209.327 214.201 218.07 177.774 218.07C141.346 218.07 121.477 209.327 121.477 204.824V181.047C132.372 187.968 155.123 191.577 177.774 191.577C200.425 191.577 223.175 187.968 234.07 181.047V204.824ZM234.07 171.708C234.07 176.212 214.201 184.954 177.774 184.954C141.346 184.954 121.477 176.212 121.477 171.708V147.931C132.372 154.852 155.123 158.462 177.774 158.462C200.425 158.462 223.175 154.852 234.07 147.931V171.708ZM234.07 138.593C234.07 143.096 214.201 151.839 177.774 151.839C141.346 151.839 121.477 143.096 121.477 138.593V114.816C132.372 121.737 155.123 125.346 177.774 125.346C200.425 125.346 223.175 121.737 234.07 114.816V138.593ZM177.774 118.723C141.346 118.723 121.477 109.981 121.477 105.477C121.477 100.973 141.346 92.231 177.774 92.231C214.201 92.231 234.07 100.973 234.07 105.477C234.07 109.981 214.201 118.723 177.774 118.723Z" fill="white"/>
<path d="M240.693 107.477H323.634V103.477H240.693V107.477ZM180.489 85.641L176.709 86.9484L177.627 89.6039L180.437 89.6407L180.489 85.641ZM171.15 78.9848L171.153 74.9848H171.15V78.9848ZM167.839 78.9848H163.839V82.9848H167.839V78.9848ZM167.839 72.3617V68.3617H163.839V72.3617H167.839ZM171.15 72.3617V76.3617L171.162 76.3617L171.15 72.3617ZM181.085 62.427L185.085 62.439V62.427H181.085ZM181.085 35.9346L185.085 35.9346L185.085 35.9227L181.085 35.9346ZM171.15 26L171.162 22H171.15V26ZM51.9346 26V22L51.9227 22L51.9346 26ZM42 35.9346L38 35.9227V35.9346H42ZM42 62.427L38 62.427L38 62.439L42 62.427ZM51.9346 72.3617L51.9227 76.3617H51.9346V72.3617ZM55.2462 72.3617H59.2462V68.3617H55.2462V72.3617ZM55.2462 78.9848V82.9848H59.2462V78.9848H55.2462ZM51.9346 78.9848L51.9346 74.9848L51.9227 74.9848L51.9346 78.9848ZM42 88.9194L38 88.9075V88.9194H42ZM42 115.412L38 115.412L38 115.424L42 115.412ZM51.9346 125.346L51.9227 129.346H51.9346V125.346ZM55.2462 125.346H59.2462V121.346H55.2462V125.346ZM55.2462 131.97V135.97H59.2462V131.97H55.2462ZM51.9346 131.97L51.9346 127.97L51.9227 127.97L51.9346 131.97ZM42 141.904L38 141.892V141.904H42ZM42 168.397L38 168.397L38 168.409L42 168.397ZM51.9346 178.331L51.9227 182.331H51.9346V178.331ZM114.854 178.331H118.854V174.331H114.854V178.331ZM51.9346 32.6231V36.6231V32.6231ZM161.216 72.3617H165.216V68.3617H161.216V72.3617ZM161.216 78.9848V82.9848H165.216V78.9848H161.216ZM147.97 78.9848H143.97V82.9848H147.97V78.9848ZM147.97 72.3617V68.3617H143.97V72.3617H147.97ZM141.346 72.3617H145.346V68.3617H141.346V72.3617ZM141.346 78.9848V82.9848H145.346V78.9848H141.346ZM81.7386 78.9848H77.7386V82.9848H81.7386V78.9848ZM81.7386 72.3617V68.3617H77.7386V72.3617H81.7386ZM75.1155 72.3617H79.1155V68.3617H75.1155V72.3617ZM75.1155 78.9848V82.9848H79.1155V78.9848H75.1155ZM61.8693 78.9848H57.8693V82.9848H61.8693V78.9848ZM61.8693 72.3617V68.3617H57.8693V72.3617H61.8693ZM114.854 171.708V175.708H118.854V171.708H114.854ZM114.854 138.593H118.854V134.593H114.854V138.593ZM61.8693 131.97H57.8693V135.97H61.8693V131.97ZM61.8693 125.346V121.346H57.8693V125.346H61.8693ZM75.1155 125.346H79.1155V121.346H75.1155V125.346ZM75.1155 131.97V135.97H79.1155V131.97H75.1155ZM114.854 131.97V135.97H118.854V131.97H114.854ZM81.7386 131.97H77.7386V135.97H81.7386V131.97ZM81.7386 125.346V121.346H77.7386V125.346H81.7386ZM114.854 125.346H118.854V121.346H114.854V125.346ZM114.854 118.723V122.723H118.854V118.723H114.854ZM171.15 85.6079L171.584 81.6315L171.368 81.6079H171.15V85.6079ZM171.614 85.7072L171.728 89.7056L172.848 81.9022L171.614 85.7072ZM121.477 181.047L123.622 177.67L117.477 173.767V181.047H121.477ZM234.07 181.047H238.07V173.767L231.925 177.67L234.07 181.047ZM121.477 147.931L123.622 144.555L117.477 140.651V147.931H121.477ZM234.07 147.931H238.07V140.651L231.925 144.555L234.07 147.931ZM121.477 114.816L123.622 111.439L117.477 107.536V114.816H121.477ZM234.07 114.816H238.07V107.536L231.925 111.439L234.07 114.816ZM184.269 84.3336C183.326 81.6054 181.556 79.2391 179.205 77.5636L174.561 84.0781C175.558 84.7885 176.309 85.7918 176.709 86.9484L184.269 84.3336ZM179.205 77.5636C176.854 75.8881 174.04 74.9867 171.153 74.9848L171.148 82.9848C172.372 82.9856 173.565 83.3678 174.561 84.0781L179.205 77.5636ZM171.15 74.9848H167.839V82.9848H171.15V74.9848ZM171.839 78.9848V72.3617H163.839V78.9848H171.839ZM167.839 76.3617H171.15V68.3617H167.839V76.3617ZM171.162 76.3617C174.851 76.3506 178.386 74.8803 180.995 72.2716L175.338 66.6148C174.224 67.729 172.714 68.357 171.138 68.3617L171.162 76.3617ZM180.995 72.2716C183.604 69.663 185.074 66.1281 185.085 62.439L177.085 62.4151C177.08 63.9908 176.452 65.5006 175.338 66.6148L180.995 72.2716ZM185.085 62.427V35.9346H177.085V62.427H185.085ZM185.085 35.9227C185.074 32.2336 183.604 28.6987 180.995 26.09L175.338 31.7469C176.452 32.8611 177.08 34.3709 177.085 35.9466L185.085 35.9227ZM180.995 26.09C178.386 23.4814 174.851 22.011 171.162 22L171.138 30C172.714 30.0047 174.224 30.6327 175.338 31.7469L180.995 26.09ZM171.15 22H51.9346V30H171.15V22ZM51.9227 22C48.2336 22.011 44.6987 23.4814 42.09 26.09L47.7469 31.7469C48.8611 30.6327 50.3709 30.0047 51.9466 30L51.9227 22ZM42.09 26.09C39.4814 28.6987 38.011 32.2336 38 35.9227L46 35.9466C46.0047 34.3709 46.6327 32.8611 47.7469 31.7469L42.09 26.09ZM38 35.9346V62.427H46V35.9346H38ZM38 62.439C38.011 66.1281 39.4814 69.663 42.09 72.2716L47.7469 66.6148C46.6327 65.5006 46.0047 63.9908 46 62.4151L38 62.439ZM42.09 72.2716C44.6987 74.8803 48.2336 76.3506 51.9227 76.3617L51.9466 68.3617C50.3709 68.357 48.8611 67.729 47.7469 66.6148L42.09 72.2716ZM51.9346 76.3617H55.2462V68.3617H51.9346V76.3617ZM51.2462 72.3617V78.9848H59.2462V72.3617H51.2462ZM55.2462 74.9848H51.9346V82.9848H55.2462V74.9848ZM51.9227 74.9848C48.2336 74.9958 44.6987 76.4662 42.09 79.0748L47.7469 84.7317C48.8611 83.6175 50.3709 82.9895 51.9466 82.9848L51.9227 74.9848ZM42.09 79.0748C39.4814 81.6835 38.011 85.2183 38 88.9075L46 88.9314C46.0047 87.3557 46.6327 85.8459 47.7469 84.7317L42.09 79.0748ZM38 88.9194V115.412H46V88.9194H38ZM38 115.424C38.011 119.113 39.4814 122.648 42.09 125.256L47.7469 119.6C46.6327 118.485 46.0047 116.976 46 115.4L38 115.424ZM42.09 125.256C44.6987 127.865 48.2336 129.335 51.9227 129.346L51.9466 121.346C50.3709 121.342 48.8611 120.714 47.7469 119.6L42.09 125.256ZM51.9346 129.346H55.2462V121.346H51.9346V129.346ZM51.2462 125.346V131.97H59.2462V125.346H51.2462ZM55.2462 127.97H51.9346V135.97H55.2462V127.97ZM51.9227 127.97C48.2336 127.981 44.6987 129.451 42.09 132.06L47.7469 137.716C48.8611 136.602 50.3709 135.974 51.9466 135.97L51.9227 127.97ZM42.09 132.06C39.4814 134.668 38.011 138.203 38 141.892L46 141.916C46.0047 140.34 46.6327 138.831 47.7469 137.716L42.09 132.06ZM38 141.904V168.397H46V141.904H38ZM38 168.409C38.011 172.098 39.4814 175.633 42.09 178.241L47.7469 172.584C46.6327 171.47 46.0047 169.96 46 168.385L38 168.409ZM42.09 178.241C44.6987 180.85 48.2336 182.32 51.9227 182.331L51.9466 174.331C50.3709 174.327 48.8611 173.699 47.7469 172.584L42.09 178.241ZM51.9346 182.331H114.854V174.331H51.9346V182.331ZM110.854 178.331V204.824H118.854V178.331H110.854ZM110.854 204.824C110.854 209.909 113.981 213.836 117.961 216.685C121.953 219.543 127.387 221.774 133.504 223.501C145.792 226.968 161.913 228.693 177.774 228.693V220.693C162.373 220.693 147.035 219.007 135.677 215.801C129.973 214.191 125.538 212.271 122.618 210.18C119.684 208.08 118.854 206.262 118.854 204.824H110.854ZM177.774 228.693C193.634 228.693 209.755 226.968 222.043 223.501C228.16 221.774 233.594 219.543 237.586 216.685C241.566 213.836 244.693 209.909 244.693 204.824H236.693C236.693 206.262 235.863 208.08 232.93 210.18C230.009 212.271 225.575 214.191 219.87 215.801C208.512 219.007 193.174 220.693 177.774 220.693V228.693ZM244.693 204.824V105.477H236.693V204.824H244.693ZM244.693 105.477C244.693 100.539 241.745 96.6886 237.937 93.8685C234.131 91.0493 228.949 88.8397 223.111 87.1157C211.387 83.6531 195.943 81.8429 180.541 81.6413L180.437 89.6407C195.402 89.8365 210.06 91.6027 220.846 94.7881C226.263 96.388 230.439 98.2703 233.176 100.297C235.911 102.323 236.693 104.074 236.693 105.477H244.693ZM51.9346 61.7386C52.1172 61.7386 52.2924 61.8111 52.4215 61.9402L46.7646 67.5971C48.1358 68.9683 49.9955 69.7386 51.9346 69.7386V61.7386ZM52.4215 61.9402C52.5506 62.0693 52.6231 62.2444 52.6231 62.427H44.6231C44.6231 64.3662 45.3934 66.2259 46.7646 67.5971L52.4215 61.9402ZM52.6231 62.427V35.9346H44.6231V62.427H52.6231ZM52.6231 35.9346C52.6231 36.1172 52.5506 36.2923 52.4215 36.4215L46.7646 30.7646C45.3934 32.1358 44.6231 33.9955 44.6231 35.9346H52.6231ZM52.4215 36.4215C52.2923 36.5506 52.1172 36.6231 51.9346 36.6231L51.9346 28.6231C49.9955 28.6231 48.1358 29.3934 46.7646 30.7646L52.4215 36.4215ZM51.9346 36.6231H171.15V28.6231H51.9346V36.6231ZM171.15 36.6231C170.968 36.6231 170.793 36.5506 170.664 36.4215L176.32 30.7646C174.949 29.3934 173.09 28.6231 171.15 28.6231V36.6231ZM170.664 36.4215C170.534 36.2923 170.462 36.1172 170.462 35.9346H178.462C178.462 33.9955 177.692 32.1358 176.32 30.7646L170.664 36.4215ZM170.462 35.9346V62.427H178.462V35.9346H170.462ZM170.462 62.427C170.462 62.2445 170.534 62.0693 170.664 61.9402L176.32 67.5971C177.692 66.2259 178.462 64.3662 178.462 62.427H170.462ZM170.664 61.9402C170.793 61.8111 170.968 61.7386 171.15 61.7386V69.7386C173.09 69.7386 174.949 68.9683 176.32 67.5971L170.664 61.9402ZM171.15 61.7386H51.9346V69.7386H171.15V61.7386ZM157.216 72.3617V78.9848H165.216V72.3617H157.216ZM161.216 74.9848H147.97V82.9848H161.216V74.9848ZM151.97 78.9848V72.3617H143.97V78.9848H151.97ZM147.97 76.3617H161.216V68.3617H147.97V76.3617ZM137.346 72.3617V78.9848H145.346V72.3617H137.346ZM141.346 74.9848H81.7386V82.9848H141.346V74.9848ZM85.7386 78.9848V72.3617H77.7386V78.9848H85.7386ZM81.7386 76.3617H141.346V68.3617H81.7386V76.3617ZM71.1155 72.3617V78.9848H79.1155V72.3617H71.1155ZM75.1155 74.9848H61.8693V82.9848H75.1155V74.9848ZM65.8693 78.9848V72.3617H57.8693V78.9848H65.8693ZM61.8693 76.3617H75.1155V68.3617H61.8693V76.3617ZM114.854 167.708H51.9346V175.708H114.854V167.708ZM51.9346 167.708C52.1172 167.708 52.2923 167.781 52.4215 167.91L46.7646 173.567C48.1358 174.938 49.9955 175.708 51.9346 175.708V167.708ZM52.4215 167.91C52.5506 168.039 52.6231 168.214 52.6231 168.397H44.6231C44.6231 170.336 45.3934 172.195 46.7646 173.567L52.4215 167.91ZM52.6231 168.397V141.904H44.6231V168.397H52.6231ZM52.6231 141.904C52.6231 142.087 52.5506 142.262 52.4215 142.391L46.7646 136.734C45.3934 138.105 44.6231 139.965 44.6231 141.904H52.6231ZM52.4215 142.391C52.2923 142.52 52.1172 142.593 51.9346 142.593V134.593C49.9955 134.593 48.1358 135.363 46.7646 136.734L52.4215 142.391ZM51.9346 142.593H114.854V134.593H51.9346V142.593ZM110.854 138.593V171.708H118.854V138.593H110.854ZM65.8693 131.97V125.346H57.8693V131.97H65.8693ZM61.8693 129.346H75.1155V121.346H61.8693V129.346ZM71.1155 125.346V131.97H79.1155V125.346H71.1155ZM75.1155 127.97H61.8693V135.97H75.1155V127.97ZM114.854 127.97H81.7386V135.97H114.854V127.97ZM85.7386 131.97V125.346H77.7386V131.97H85.7386ZM81.7386 129.346H114.854V121.346H81.7386V129.346ZM110.854 125.346V131.97H118.854V125.346H110.854ZM110.854 105.477V118.723H118.854V105.477H110.854ZM114.854 114.723H51.9346V122.723H114.854V114.723ZM51.9346 114.723C52.1172 114.723 52.2923 114.796 52.4215 114.925L46.7646 120.582C48.1358 121.953 49.9955 122.723 51.9346 122.723V114.723ZM52.4215 114.925C52.5506 115.054 52.6231 115.229 52.6231 115.412H44.6231C44.6231 117.351 45.3934 119.211 46.7646 120.582L52.4215 114.925ZM52.6231 115.412V88.9194H44.6231V115.412H52.6231ZM52.6231 88.9194C52.6231 89.102 52.5506 89.2771 52.4215 89.4062L46.7646 83.7494C45.3934 85.1206 44.6231 86.9803 44.6231 88.9194H52.6231ZM52.4215 89.4062C52.2923 89.5353 52.1172 89.6079 51.9346 89.6079V81.6079C49.9955 81.6079 48.1358 82.3782 46.7646 83.7494L52.4215 89.4062ZM51.9346 89.6079H171.15V81.6079H51.9346V89.6079ZM170.717 89.5843C170.602 89.5718 170.49 89.5477 170.38 89.5122L172.848 81.9022C172.437 81.769 172.014 81.6783 171.584 81.6315L170.717 89.5843ZM171.5 81.7088C156.719 82.1288 142.13 84.0514 131.106 87.5168C125.617 89.2426 120.749 91.4307 117.174 94.2019C113.585 96.9838 110.854 100.733 110.854 105.477H118.854C118.854 104.128 119.575 102.463 122.075 100.525C124.589 98.5761 128.448 96.7385 133.506 95.1486C143.577 91.9827 157.367 90.1136 171.728 89.7056L171.5 81.7088ZM230.07 204.824C230.07 203.934 230.519 203.631 230.197 203.982C229.937 204.265 229.372 204.746 228.345 205.36C226.31 206.575 223.04 207.974 218.472 209.293C209.38 211.917 195.69 214.07 177.774 214.07V222.07C196.284 222.07 210.742 219.851 220.691 216.979C225.644 215.549 229.619 213.917 232.448 212.227C233.852 211.388 235.123 210.447 236.093 209.389C237 208.401 238.07 206.839 238.07 204.824H230.07ZM177.774 214.07C159.857 214.07 146.167 211.917 137.075 209.293C132.507 207.974 129.237 206.575 127.202 205.36C126.175 204.746 125.61 204.265 125.35 203.982C125.028 203.631 125.477 203.934 125.477 204.824H117.477C117.477 206.839 118.547 208.401 119.454 209.389C120.424 210.447 121.695 211.388 123.099 212.227C125.928 213.917 129.903 215.549 134.856 216.979C144.805 219.851 159.263 222.07 177.774 222.07V214.07ZM125.477 204.824V181.047H117.477V204.824H125.477ZM119.332 184.423C125.439 188.302 134.462 191.047 144.512 192.845C154.663 194.661 166.253 195.577 177.774 195.577V187.577C166.643 187.577 155.533 186.689 145.921 184.97C136.21 183.233 128.41 180.712 123.622 177.67L119.332 184.423ZM177.774 195.577C189.294 195.577 200.884 194.661 211.035 192.845C221.085 191.047 230.108 188.302 236.215 184.423L231.925 177.67C227.137 180.712 219.337 183.233 209.626 184.97C200.014 186.689 188.904 187.577 177.774 187.577V195.577ZM230.07 181.047V204.824H238.07V181.047H230.07ZM230.07 171.708C230.07 170.819 230.519 170.516 230.197 170.867C229.937 171.15 229.372 171.63 228.345 172.244C226.31 173.46 223.04 174.858 218.472 176.177C209.38 178.802 195.69 180.954 177.774 180.954V188.954C196.284 188.954 210.742 186.736 220.691 183.863C225.644 182.433 229.619 180.802 232.448 179.112C233.852 178.272 235.123 177.331 236.093 176.274C237 175.285 238.07 173.724 238.07 171.708H230.07ZM177.774 180.954C159.857 180.954 146.167 178.802 137.075 176.177C132.507 174.858 129.237 173.46 127.202 172.244C126.175 171.63 125.61 171.15 125.35 170.867C125.028 170.516 125.477 170.819 125.477 171.708H117.477C117.477 173.724 118.547 175.285 119.454 176.274C120.424 177.331 121.695 178.272 123.099 179.112C125.928 180.802 129.903 182.433 134.856 183.863C144.805 186.736 159.263 188.954 177.774 188.954V180.954ZM125.477 171.708V147.931H117.477V171.708H125.477ZM119.332 151.308C125.439 155.187 134.462 157.932 144.512 159.73C154.663 161.545 166.253 162.462 177.774 162.462V154.462C166.643 154.462 155.533 153.574 145.921 151.855C136.21 150.117 128.41 147.597 123.622 144.555L119.332 151.308ZM177.774 162.462C189.294 162.462 200.884 161.545 211.035 159.73C221.085 157.932 230.108 155.187 236.215 151.308L231.925 144.555C227.137 147.597 219.337 150.117 209.626 151.855C200.014 153.574 188.904 154.462 177.774 154.462V162.462ZM230.07 147.931V171.708H238.07V147.931H230.07ZM230.07 138.593C230.07 137.703 230.519 137.4 230.197 137.751C229.937 138.034 229.372 138.515 228.345 139.129C226.31 140.344 223.04 141.743 218.472 143.062C209.38 145.686 195.69 147.839 177.774 147.839V155.839C196.284 155.839 210.742 153.62 220.691 150.748C225.644 149.318 229.619 147.686 232.448 145.996C233.852 145.157 235.123 144.216 236.093 143.158C237 142.17 238.07 140.608 238.07 138.593H230.07ZM177.774 147.839C159.857 147.839 146.167 145.686 137.075 143.062C132.507 141.743 129.237 140.344 127.202 139.129C126.175 138.515 125.61 138.034 125.35 137.751C125.028 137.4 125.477 137.703 125.477 138.593H117.477C117.477 140.608 118.547 142.17 119.454 143.158C120.424 144.216 121.695 145.157 123.099 145.996C125.928 147.686 129.903 149.318 134.856 150.748C144.805 153.62 159.263 155.839 177.774 155.839V147.839ZM125.477 138.593V114.816H117.477V138.593H125.477ZM119.332 118.192C125.439 122.072 134.462 124.816 144.512 126.614C154.663 128.43 166.253 129.346 177.774 129.346V121.346C166.643 121.346 155.533 120.458 145.921 118.739C136.21 117.002 128.41 114.481 123.622 111.439L119.332 118.192ZM177.774 129.346C189.294 129.346 200.884 128.43 211.035 126.614C221.085 124.816 230.108 122.072 236.215 118.192L231.925 111.439C227.137 114.481 219.337 117.002 209.626 118.739C200.014 120.458 188.904 121.346 177.774 121.346V129.346ZM230.07 114.816V138.593H238.07V114.816H230.07ZM177.774 114.723C159.857 114.723 146.167 112.571 137.075 109.946C132.507 108.627 129.237 107.229 127.202 106.013C126.175 105.399 125.61 104.919 125.35 104.636C125.028 104.285 125.477 104.588 125.477 105.477H117.477C117.477 107.493 118.547 109.054 119.454 110.043C120.424 111.1 121.695 112.041 123.099 112.881C125.928 114.571 129.903 116.202 134.856 117.632C144.805 120.505 159.263 122.723 177.774 122.723V114.723ZM125.477 105.477C125.477 106.367 125.028 106.67 125.35 106.318C125.61 106.036 126.175 105.555 127.202 104.941C129.237 103.726 132.507 102.327 137.075 101.008C146.167 98.3834 159.857 96.231 177.774 96.231V88.231C159.263 88.231 144.805 90.4498 134.856 93.3221C129.903 94.752 125.928 96.3835 123.099 98.0736C121.695 98.9129 120.424 99.8542 119.454 100.912C118.547 101.9 117.477 103.462 117.477 105.477H125.477ZM177.774 96.231C195.69 96.231 209.38 98.3834 218.472 101.008C223.04 102.327 226.31 103.726 228.345 104.941C229.372 105.555 229.937 106.036 230.197 106.318C230.519 106.67 230.07 106.367 230.07 105.477H238.07C238.07 103.462 237 101.9 236.093 100.912C235.123 99.8542 233.852 98.9129 232.448 98.0736C229.619 96.3835 225.644 94.752 220.691 93.3221C210.742 90.4498 196.284 88.231 177.774 88.231V96.231ZM230.07 105.477C230.07 104.588 230.519 104.285 230.197 104.636C229.937 104.919 229.372 105.399 228.345 106.013C226.31 107.229 223.04 108.627 218.472 109.946C209.38 112.571 195.69 114.723 177.774 114.723V122.723C196.284 122.723 210.742 120.505 220.691 117.632C225.644 116.202 229.619 114.571 232.448 112.881C233.852 112.041 235.123 111.1 236.093 110.043C237 109.054 238.07 107.493 238.07 105.477H230.07Z" fill="#3F98BB" mask="url(#path-3-inside-1)"/>
<path d="M174.462 135.281H181.085V141.904H174.462V135.281Z" fill="#F35E98"/>
<path d="M174.462 171.708H181.085V178.331H174.462V171.708Z" fill="#F35E98"/>
<path d="M174.462 201.512H181.085V208.135H174.462V201.512Z" fill="#F35E98"/>
<path d="M71.8038 92.231H58.5576C57.6794 92.231 56.8371 92.5799 56.216 93.2009C55.595 93.8219 55.2461 94.6643 55.2461 95.5425V108.789C55.2461 109.667 55.595 110.509 56.216 111.13C56.8371 111.751 57.6794 112.1 58.5576 112.1H71.8038C72.6821 112.1 73.5244 111.751 74.1455 111.13C74.7665 110.509 75.1154 109.667 75.1154 108.789V95.5425C75.1154 94.6643 74.7665 93.8219 74.1455 93.2009C73.5244 92.5799 72.6821 92.231 71.8038 92.231ZM68.4923 105.477H61.8692V98.8541H68.4923V105.477Z" fill="#F35E98"/>
<path d="M98.2963 92.231H85.0501C84.1718 92.231 83.3295 92.5799 82.7085 93.2009C82.0874 93.8219 81.7385 94.6643 81.7385 95.5425V108.789C81.7385 109.667 82.0874 110.509 82.7085 111.13C83.3295 111.751 84.1718 112.1 85.0501 112.1H98.2963C99.1745 112.1 100.017 111.751 100.638 111.13C101.259 110.509 101.608 109.667 101.608 108.789V95.5425C101.608 94.6643 101.259 93.8219 100.638 93.2009C100.017 92.5799 99.1745 92.231 98.2963 92.231ZM94.9847 105.477H88.3616V98.8541H94.9847V105.477Z" fill="#F35E98"/>
<path d="M71.8038 39.2462H58.5576C57.6794 39.2462 56.8371 39.5951 56.216 40.2161C55.595 40.8372 55.2461 41.6795 55.2461 42.5577V55.8039C55.2461 56.6822 55.595 57.5245 56.216 58.1456C56.8371 58.7666 57.6794 59.1155 58.5576 59.1155H71.8038C72.6821 59.1155 73.5244 58.7666 74.1455 58.1456C74.7665 57.5245 75.1154 56.6822 75.1154 55.8039V42.5577C75.1154 41.6795 74.7665 40.8372 74.1455 40.2161C73.5244 39.5951 72.6821 39.2462 71.8038 39.2462ZM68.4923 52.4924H61.8692V45.8693H68.4923V52.4924Z" fill="#F35E98"/>
<path d="M98.2963 39.2462H85.0501C84.1718 39.2462 83.3295 39.5951 82.7085 40.2161C82.0874 40.8372 81.7385 41.6795 81.7385 42.5577V55.8039C81.7385 56.6822 82.0874 57.5245 82.7085 58.1456C83.3295 58.7666 84.1718 59.1155 85.0501 59.1155H98.2963C99.1745 59.1155 100.017 58.7666 100.638 58.1456C101.259 57.5245 101.608 56.6822 101.608 55.8039V42.5577C101.608 41.6795 101.259 40.8372 100.638 40.2161C100.017 39.5951 99.1745 39.2462 98.2963 39.2462ZM94.9847 52.4924H88.3616V45.8693H94.9847V52.4924Z" fill="#F35E98"/>
<path d="M108.231 39.2462H154.593V45.8693H108.231V39.2462Z" fill="#F35E98"/>
<path d="M161.216 39.2462H167.839V45.8693H161.216V39.2462Z" fill="#F35E98"/>
<path d="M108.231 52.4924H154.593V59.1155H108.231V52.4924Z" fill="#F35E98"/>
<path d="M161.216 52.4924H167.839V59.1155H161.216V52.4924Z" fill="#F35E98"/>
<path d="M71.8038 145.216H58.5576C57.6794 145.216 56.8371 145.565 56.216 146.186C55.595 146.807 55.2461 147.649 55.2461 148.527V161.774C55.2461 162.652 55.595 163.494 56.216 164.115C56.8371 164.736 57.6794 165.085 58.5576 165.085H71.8038C72.6821 165.085 73.5244 164.736 74.1455 164.115C74.7665 163.494 75.1154 162.652 75.1154 161.774V148.527C75.1154 147.649 74.7665 146.807 74.1455 146.186C73.5244 145.565 72.6821 145.216 71.8038 145.216ZM68.4923 158.462H61.8692V151.839H68.4923V158.462Z" fill="#F35E98"/>
<path d="M98.2963 145.216H85.0501C84.1718 145.216 83.3295 145.565 82.7085 146.186C82.0874 146.807 81.7385 147.649 81.7385 148.527V161.774C81.7385 162.652 82.0874 163.494 82.7085 164.115C83.3295 164.736 84.1718 165.085 85.0501 165.085H98.2963C99.1745 165.085 100.017 164.736 100.638 164.115C101.259 163.494 101.608 162.652 101.608 161.774V148.527C101.608 147.649 101.259 146.807 100.638 146.186C100.017 145.565 99.1745 145.216 98.2963 145.216ZM94.9847 158.462H88.3616V151.839H94.9847V158.462Z" fill="#F35E98"/>
<circle cx="251.205" cy="133.124" r="4.86099" fill="#F35E98"/>
<path d="M298.774 121.021H298.633C297.853 121.021 297.221 120.389 297.221 119.609C297.221 118.829 297.853 118.197 298.633 118.197H298.774C299.554 118.197 300.186 118.829 300.186 119.609C300.186 120.389 299.554 121.021 298.774 121.021Z" fill="#F35E98"/>
<path d="M291.715 121.021H277.25C274.682 121.021 272.593 118.932 272.593 116.364C272.593 115.113 273.085 113.939 273.979 113.059C274.863 112.189 276.022 111.719 277.26 111.736H308.374C309.154 111.736 309.786 112.368 309.786 113.148C309.786 113.928 309.154 114.56 308.374 114.56H277.25C277.233 114.56 277.216 114.559 277.199 114.559C276.735 114.559 276.296 114.741 275.96 115.071C275.61 115.416 275.417 115.875 275.417 116.364C275.417 117.375 276.239 118.197 277.25 118.197H291.715C292.495 118.197 293.127 118.829 293.127 119.609C293.127 120.389 292.494 121.021 291.715 121.021Z" fill="#F35E98"/>
<path d="M312.469 118.197H304.986C304.206 118.197 303.574 118.829 303.574 119.609C303.574 120.389 304.206 121.021 304.986 121.021H312.469C313.479 121.021 314.302 121.843 314.302 122.854C314.302 123.864 313.479 124.686 312.469 124.686C312.463 124.686 312.457 124.686 312.452 124.686L296.99 124.874C294.28 124.879 292.077 127.085 292.077 129.799L292.079 130.795H290.962C290.182 130.795 289.55 131.427 289.55 132.207V136.316C282.643 138.045 277.512 144.305 277.512 151.74V168.124C277.512 176.89 284.643 184.022 293.409 184.022C302.175 184.022 309.306 176.89 309.306 168.124V151.74C309.306 144.305 304.175 138.045 297.268 136.316V132.207C297.268 131.427 296.636 130.795 295.856 130.795H294.902L294.901 129.797C294.901 128.639 295.842 127.697 297 127.697C297.005 127.697 297.011 127.697 297.017 127.697L312.478 127.51C315.041 127.505 317.125 125.418 317.125 122.854C317.125 120.286 315.036 118.197 312.469 118.197ZM285.983 157.841H300.835V168.124C300.835 172.219 297.504 175.551 293.409 175.551C289.314 175.551 285.982 172.219 285.982 168.124L285.983 157.841ZM280.335 151.74C280.335 145.008 285.45 139.448 291.997 138.742V155.017H280.335V151.74ZM306.483 168.124C306.483 175.333 300.618 181.198 293.409 181.198C286.2 181.198 280.335 175.333 280.335 168.124V157.841H283.159V168.124C283.159 173.776 287.757 178.374 293.409 178.374C299.061 178.374 303.659 173.776 303.659 168.124V157.841H306.483V168.124ZM306.483 151.74V155.017H294.821V138.742C301.368 139.448 306.483 145.008 306.483 151.74ZM293.409 135.843C293.061 135.843 292.716 135.854 292.374 135.876V133.619H294.444V135.876C294.102 135.854 293.757 135.843 293.409 135.843Z" fill="#F35E98"/>
<path d="M285.983 157.841H300.835V168.124C300.835 172.219 297.504 175.551 293.409 175.551C289.314 175.551 285.982 172.219 285.982 168.124L285.983 157.841Z" fill="#F35E98"/>
<line x1="260.927" y1="131.624" x2="264.816" y2="131.624" stroke="black" stroke-width="3"/>
<line x1="268.704" y1="131.624" x2="284.26" y2="131.624" stroke="#3F98BB" stroke-width="3"/>
<defs>
<filter id="filter0_d" x="15" y="16" width="347" height="227" filterUnits="userSpaceOnUse" color-interpolation-filters="sRGB">
<feFlood flood-opacity="0" result="BackgroundImageFix"/>
<feColorMatrix in="SourceAlpha" type="matrix" values="0 0 0 0 0 0 0 0 0 0 0 0 0 0 0 0 0 0 127 0"/>
<feOffset dx="4" dy="4"/>
<feGaussianBlur stdDeviation="2"/>
<feColorMatrix type="matrix" values="0 0 0 0 0 0 0 0 0 0 0 0 0 0 0 0 0 0 0.25 0"/>
<feBlend mode="normal" in2="BackgroundImageFix" result="effect1_dropShadow"/>
<feBlend mode="normal" in="SourceGraphic" in2="effect1_dropShadow" result="shape"/>
</filter>
</defs>
</svg>
