<svg width="250" height="130" viewBox="0 0 250 130" fill="none" xmlns="http://www.w3.org/2000/svg">
<g clip-path="url(#clip0)">
<rect width="250" height="130" fill="#F35E98" fill-opacity="0.4"/>
<path d="M107.613 24.36C104.88 24.0133 102.383 23.3054 99.992 22.4021C100.301 22.016 100.593 21.6146 100.85 21.1804C100.886 21.1342 100.916 21.0868 100.95 21.0404C102.362 21.6224 103.816 22.1259 105.353 22.4688C108.189 23.1027 111.828 23.4725 115.093 23.0267C113.007 24.1673 110.432 24.7165 107.613 24.36ZM85.1152 22.7359C80.5438 21.1194 76.6016 18.5855 72.0054 17.046C72.293 16.8747 72.5968 16.7114 72.9145 16.5582C73.059 16.5524 73.2035 16.54 73.3442 16.517C81.6182 15.1523 88.4931 19.5794 95.6757 22.6936C92.7468 24.3708 88.2713 23.8515 85.1152 22.7359ZM86.1077 26.2146C81.0261 25.5706 76.7461 23.703 72.4793 21.5775C71.5764 21.1272 70.6535 20.6945 69.7128 20.2858C69.6471 19.6918 69.8272 19.1377 70.1827 18.6272C74.7789 20.4702 78.885 23.2163 83.8452 24.3246C86.6828 24.9573 90.3228 25.3278 93.5871 24.8815C91.5016 26.0226 88.9252 26.5717 86.1077 26.2146ZM56.845 16.8509C60.3458 16.4726 64.1288 16.7327 67.4727 17.692C67.0127 18.0909 66.6317 18.518 66.3604 18.9726C63.1208 17.8425 59.7143 17.0736 56.2073 16.9377C56.4276 16.9035 56.6425 16.8735 56.845 16.8509ZM78.3501 14.9963C82.0341 14.5967 86.0366 14.8967 89.5057 15.9852C92.5451 16.9382 95.3023 18.4184 98.1244 19.7703C97.9505 20.3092 97.68 20.8254 97.3082 21.2988C96.1904 20.8008 95.0866 20.2705 93.9851 19.7209C89.0419 17.256 83.5144 15.3063 77.7155 15.0823C77.935 15.0475 78.1483 15.0181 78.3501 14.9963ZM121.672 11.6344C121.301 11.3126 119.844 10.5401 118.79 10.777C117.386 11.0936 117.648 12.1231 118.028 12.4524C120.488 14.5846 120.569 18.3753 117.793 20.4413C114.908 22.5902 110.004 22.0764 106.62 20.8794C105.019 20.3129 103.496 19.6328 101.994 18.9239C102.499 17.0616 102.005 15.0836 100.165 13.4889C99.7956 13.1679 98.3378 12.3959 97.285 12.633C95.8789 12.9488 96.1425 13.9791 96.5213 14.3077C97.4149 15.0829 97.9915 16.077 98.2342 17.1276C95.7707 15.9769 93.2438 14.9276 90.4062 14.3456C84.9907 13.2348 79.2753 13.2122 73.9456 14.625C72.5419 14.9968 70.9155 15.5788 69.4956 16.3379C69.2977 16.2915 69.1029 16.2428 68.9011 16.2017C63.4856 15.0906 57.7694 15.0676 52.4398 16.4796C48.2927 17.5791 42.2132 20.5031 45.2023 24.43C45.4652 24.7749 46.739 25.76 47.8398 25.4279C49.0935 25.049 49.1755 24.0422 48.8469 23.6112C47.1758 21.4162 48.9219 19.6123 51.4109 18.4132C51.5547 18.4062 51.6969 18.3954 51.8384 18.3723C56.9323 17.5315 61.496 18.8898 65.9275 20.783C65.9886 21.3527 66.2344 21.9505 66.7082 22.5741C66.9726 22.9195 68.2456 23.9047 69.3456 23.5725C69.8952 23.4062 70.2098 23.118 70.3737 22.8122C74.1829 24.6066 77.9937 26.3849 82.0666 27.0617C88.0927 28.0621 94.5888 27.2807 98.5859 23.8578C100.216 24.446 101.87 24.9231 103.574 25.2059C110.937 26.4298 119.008 24.9956 122.357 19.3258C124.192 16.9452 124.287 13.9013 121.672 11.6344Z" fill="#3F98BB"/>
<path d="M126.747 22.5209L130.441 22.5159C131.989 22.5209 132.76 22.3129 132.76 21.9045C132.76 21.5036 131.004 21.2962 127.494 21.299C125.321 21.3022 124.232 21.5518 124.232 22.0638C124.232 22.3648 125.072 22.5209 126.747 22.5209ZM108.228 24.5014C108.565 24.5014 108.994 24.6531 109.507 24.9459C110.019 25.2427 110.299 25.3864 110.351 25.3929C110.614 25.3929 110.779 25.1744 110.86 24.7495C110.938 24.1366 110.988 23.811 111.014 23.7714C111.17 23.508 111.491 23.2449 111.98 22.9757C112.467 22.7123 112.876 22.5821 113.214 22.5821C114.03 22.5781 114.738 22.781 115.341 23.1721C115.945 23.5762 116.25 23.9871 116.246 24.4128C116.246 24.7174 116.073 25.0036 115.714 25.2637C115.361 25.5309 114.966 25.6671 114.511 25.6671C113.887 25.6671 113.206 25.4423 112.477 24.9916C112.213 25.0751 112.081 25.1887 112.081 25.3267C112.081 25.8161 112.399 26.4357 113.046 27.1936C113.685 27.9437 114.29 28.3347 114.871 28.3503C114.816 28.0655 114.713 27.7735 114.554 27.4665C114.403 27.1607 114.32 26.9663 114.32 26.8828C114.32 26.3336 114.476 26.064 114.786 26.064C115.029 26.064 115.277 26.2521 115.541 26.6412C115.882 27.1331 116.165 27.4665 116.406 27.6501C117.165 28.2 118.214 28.4742 119.548 28.4742C120.417 28.4742 121.282 28.1337 122.14 27.4512C123.01 26.7704 123.637 25.8603 124.031 24.7186C123.433 24.4334 122.825 24.1497 122.215 23.8612C121.806 23.6216 121.595 23.3141 121.595 22.9468C121.595 22.1132 121.867 21.5648 122.421 21.2962C122.71 21.1994 122.991 21.089 123.281 20.9766C123.572 20.8655 123.718 20.6259 123.718 20.2599C123.714 19.6268 123.522 19.0909 123.132 18.6409C122.735 18.1906 122.263 17.9654 121.711 17.9686C121.163 17.9686 120.667 18.1264 120.22 18.4462C119.771 18.7578 119.548 19.0909 119.548 19.4333C119.548 19.5984 119.605 19.8513 119.708 20.1841C119.81 20.5193 119.867 20.7593 119.864 20.8981C119.864 21.1853 119.754 21.4575 119.532 21.7118C119.311 21.9634 119.092 22.0914 118.881 22.0914C118.493 22.0914 118.173 21.8423 117.942 21.3561C117.705 20.7491 117.469 20.139 117.231 19.5252C116.995 19.0809 116.755 18.6409 116.52 18.2152C116.259 17.666 116.127 17.1638 116.127 16.7163C116.127 15.663 116.501 14.7165 117.244 13.89C118 13.0699 118.894 12.6525 119.945 12.6525C122.198 12.6525 123.768 14.1134 124.66 17.0219C124.771 17.37 124.847 17.937 124.898 18.7335C124.952 19.323 125.084 19.7417 125.29 19.9858L125.565 20.1982C125.747 20.1583 125.837 19.9739 125.837 19.6486C125.837 16.0026 124.771 13.1263 122.617 11.0091C121.62 10.0297 120.374 9.22957 118.881 8.6105C117.389 7.98693 116.009 7.67226 114.755 7.67226C114.493 7.67226 114.138 7.72236 113.693 7.81355C113.243 7.90602 112.913 7.9529 112.706 7.9529C112.469 7.85143 112.348 7.75061 112.354 7.64979C112.348 7.58364 112.79 7.1431 113.654 6.30054C112.181 4.85883 110.784 4.13508 109.441 4.13508C108.763 4.13508 108.136 4.22499 107.561 4.39324C106.978 4.56728 106.678 4.65654 106.646 4.65654C106.153 4.45361 105.904 4.15434 105.904 3.77224C105.904 2.79354 106.691 2.30869 108.264 2.30869C108.374 2.30869 108.9 2.4641 109.841 2.78712C110.314 2.93868 110.795 3.07996 111.292 3.2206C111.894 3.40555 112.405 3.60848 112.821 3.83197C113.326 4.09655 113.98 4.6225 114.786 5.41817C115.369 5.98908 115.907 6.27293 116.406 6.27293C116.559 6.27293 116.844 6.14192 117.251 5.87541C117.659 5.61276 117.95 5.4779 118.132 5.47533C119.386 5.47533 120.758 6.11045 122.218 7.37236C123.72 8.69848 124.919 10.3585 125.837 12.3466C126.233 13.2478 126.509 14.7306 126.665 16.8069C126.692 17.1766 126.711 17.5599 126.711 17.9654V18.3936C126.711 19.414 126.89 20.0454 127.259 20.2893C127.438 19.8413 127.53 19.4333 127.532 19.0674C127.532 18.8855 127.472 18.4103 127.353 17.6365C127.237 16.8601 127.176 16.1767 127.176 15.5893V15.1005C127.176 13.8964 126.811 12.438 126.076 10.7162C125.338 8.99582 124.973 8.00171 124.973 7.73841C124.981 7.19191 125.103 6.64604 125.353 6.10467C125.598 5.56652 125.827 5.29616 126.037 5.29616C126.146 5.29616 126.308 5.35267 126.548 5.46441C126.784 5.57679 126.944 5.63267 127.02 5.63267C127.119 5.63267 127.188 5.58129 127.222 5.47533C126.926 4.76699 126.784 4.24939 126.784 3.92572C126.784 3.43381 126.958 3.01638 127.299 2.6696C127.636 2.31896 128.046 2.15199 128.52 2.15199C129.557 2.15199 130.089 2.79354 130.089 4.07664L130.086 4.56214C130.082 5.21268 130.219 5.53955 130.479 5.54276C130.536 5.54276 130.613 5.52606 130.716 5.49716C130.822 5.4657 130.898 5.44579 130.953 5.44579C131.215 5.44579 131.455 5.62368 131.675 5.9711C131.902 6.31339 132.012 6.71925 132.012 7.18998C132.012 8.18858 131.461 9.78635 130.363 11.9832C129.338 14.0402 128.827 16.3822 128.827 19.0082C128.827 19.1303 128.814 19.2753 128.79 19.4333C128.79 19.5984 128.79 19.6927 128.79 19.7096C128.79 20.0575 128.95 20.2682 129.263 20.3523C129.763 18.4997 130.274 16.6365 130.8 14.7606C131.325 13.0732 131.858 11.8086 132.413 10.9725C134.345 8.12629 136.124 6.70063 137.755 6.70063C138.098 6.7032 138.432 6.75907 138.76 6.86952C139.083 6.98576 139.24 7.03714 139.208 7.03714C139.578 7.03714 139.862 6.79503 140.075 6.30247C140.361 5.63267 140.519 5.29038 140.546 5.2634C141.62 4.12865 143.868 3.55582 147.268 3.55582C148.398 3.55582 149.3 3.72793 149.985 4.07664C150.663 4.42149 151.009 4.84983 151.005 5.35845C151.005 5.56202 150.881 5.76431 150.631 5.9711C150.383 6.17339 150.152 6.27293 149.946 6.27293C149.889 6.27293 149.53 6.0289 148.867 5.53698C148.194 5.05598 147.451 4.80552 146.645 4.80552C145.515 4.80938 144.479 4.97249 143.533 5.29616C142.668 5.6089 142.241 5.92165 142.241 6.24467C143.102 7.01916 143.533 7.57465 143.533 7.92336C143.533 8.20657 143.391 8.35363 143.106 8.35748C142.917 8.35106 142.71 8.34014 142.471 8.32023C142.238 8.30097 142.08 8.28748 142.006 8.28492C141.48 8.28492 141.031 8.35748 140.666 8.475C140.431 8.5739 140.199 8.66958 139.998 8.74793C139.657 8.78775 139.315 8.82114 138.978 8.83784C138.425 8.92389 137.864 9.11334 137.282 9.42352C135.394 10.417 134.136 11.4027 133.509 12.3775C131.487 15.5589 130.479 18.0424 130.479 19.8314C130.479 19.917 130.613 20.0331 130.875 20.1982C132.452 15.5571 134.188 13.24 136.103 13.2375C136.993 13.24 137.749 13.5861 138.364 14.2906C138.984 14.9887 139.288 15.9071 139.288 17.0219C139.288 18.4269 139.109 19.5984 138.76 20.5359C138.409 21.4715 137.99 21.9399 137.517 21.9399C136.993 21.9399 136.629 21.6752 136.414 21.1474C136.891 20.5316 137.125 20.0954 137.125 19.8314C137.125 18.4693 136.576 17.7847 135.474 17.7847C134.504 17.7847 133.774 17.9563 133.276 18.3057C132.85 18.6113 132.365 19.2753 131.817 20.2893C133.001 20.5712 133.808 20.8288 134.254 21.0524C134.778 21.3188 135.042 21.6625 135.039 22.0914C135.039 22.4381 134.882 22.8073 134.548 23.2054C134.22 23.6031 133.877 23.8612 133.509 23.9871C133.138 24.104 132.767 24.2304 132.386 24.3627C132.008 24.4971 131.817 24.7088 131.817 24.9916C131.817 25.5276 132.353 26.2311 133.432 27.1331C134.612 28.1248 135.685 28.6282 136.654 28.6282C137.966 28.6282 139.355 28.0259 140.82 26.8251C140.927 26.9289 140.975 27.0779 140.975 27.2821C140.98 27.7085 140.74 28.058 140.27 28.3244C139.667 28.6879 139.326 28.9122 139.25 28.9904C139.378 29.0354 139.541 29.0567 139.72 29.0567L139.955 29.0534C140.977 29.0567 141.916 28.7077 142.766 28.0131C143.621 27.3245 144.047 26.5707 144.047 25.7551C144.047 25.6112 143.969 25.4757 143.809 25.3435C143.65 25.2151 143.508 25.1431 143.38 25.1431C143.274 25.1456 143.029 25.2605 142.648 25.4827C142.271 25.7025 142.006 25.8161 141.838 25.8161C140.635 25.8161 140.034 25.2999 140.034 24.2593C140.034 23.811 140.13 23.436 140.31 23.1297C140.491 22.8222 140.701 22.6739 140.939 22.6714C140.993 22.6739 141.064 22.6872 141.156 22.7143C141.25 22.7497 141.3 22.7617 141.33 22.7617C141.492 22.7617 141.758 22.7238 142.14 22.6393C142.525 22.5602 142.805 22.5209 142.985 22.5159C143.72 22.5159 144.378 22.8312 144.973 23.4483C145.561 24.0745 145.96 24.9421 146.165 26.064C147.636 25.6112 148.711 25.3897 149.394 25.3929C150.075 25.3864 150.498 25.644 150.65 26.15L150.298 26.3048C149.799 26.0183 149.469 25.8603 149.318 25.8186C148.421 26.0203 147.636 26.3303 146.959 26.7654C146.561 27.0087 145.972 27.4409 145.186 28.0605C144.398 28.6834 143.771 29.1246 143.298 29.3873C142.255 29.9806 141.044 30.2753 139.682 30.2741C136.22 30.2741 133.826 29.4811 132.488 27.8917C132.249 27.6044 131.858 26.956 131.306 25.9342C130.992 25.3671 130.609 25.0851 130.165 25.0896C129.823 25.0851 129.446 25.1744 129.025 25.3588C129.212 26.0948 129.457 26.9079 129.772 27.8024C130.064 28.5146 130.203 28.93 130.203 29.0567C130.203 29.3968 129.948 29.8657 129.421 30.461C128.893 31.0467 128.501 31.3435 128.238 31.3435C128.001 31.3435 127.586 30.9953 126.981 30.3049C126.376 29.6159 126.076 29.0848 126.076 28.7175C126.076 28.2494 126.265 27.6707 126.645 26.9791C127.03 26.2862 127.222 25.8392 127.222 25.6363C127.222 25.4661 127.112 25.2999 126.92 25.1167C126.727 24.9299 126.563 24.8418 126.434 24.8418C126.146 24.8418 125.745 25.1167 125.249 25.6671C123.836 27.2327 122.645 28.3091 121.673 28.8954C120.36 29.7149 118.795 30.1225 116.952 30.1225C115.984 30.1225 114.924 29.9262 113.768 29.5227C112.613 29.1297 111.643 28.6282 110.86 28.0161C110.73 27.9135 110.479 27.6501 110.109 27.2224C109.824 26.8539 109.495 26.5579 109.129 26.3336C108.236 25.7684 107.582 25.4815 107.165 25.4827C106.953 25.4827 106.658 25.6061 106.277 25.8655C105.9 26.1179 105.699 26.2426 105.672 26.2426C105.41 26.2426 105.273 26.1738 105.273 26.0286C105.276 25.0146 106.262 24.5014 108.228 24.5014Z" fill="#3F98BB"/>
<path d="M234.45 19.987C227.916 18.9564 221.637 20.843 216.2 23.4314C212.63 25.1327 209.045 26.6245 204.792 27.1407C200.3 27.6845 196.528 25.6195 194.974 22.6169C194.642 21.977 191.766 21.8855 192.124 22.5774C194.707 27.5674 201.767 28.8347 208.173 27.8175C216.836 26.4432 224.08 19.3876 233.483 20.8693C234.862 21.0869 236.632 20.3301 234.45 19.987ZM54.5027 22.6169C52.9481 25.6195 49.1744 27.6845 44.6849 27.1407C40.4303 26.6245 36.8468 25.1327 33.2756 23.4314C27.8386 20.843 21.5609 18.9564 15.0269 19.987C12.8433 20.3301 14.6134 21.0869 15.9925 20.8693C25.3968 19.3876 32.6401 26.4432 41.3033 27.8175C47.7092 28.8347 54.768 27.5674 57.3516 22.5774C57.7095 21.8855 54.8334 21.977 54.5027 22.6169ZM185.859 20.6741C185.633 20.3106 185.313 19.969 184.928 19.6501C187.728 18.8829 190.895 18.675 193.826 18.9774C193.996 18.9955 194.176 19.0195 194.36 19.0469C191.424 19.1556 188.571 19.7704 185.859 20.6741ZM183.053 21.7239C182.265 22.0511 181.492 22.3971 180.735 22.7572C177.165 24.4568 173.58 25.9503 169.326 26.4653C166.966 26.7509 164.808 26.3118 163.062 25.3993C165.796 25.7561 168.845 25.4599 171.219 24.9539C175.374 24.0677 178.811 21.8713 182.658 20.3973C182.957 20.8055 183.108 21.2489 183.053 21.7239ZM180.013 18.7104C180.13 18.7289 180.251 18.7381 180.371 18.7434C180.637 18.8659 180.892 18.9965 181.132 19.1335C177.284 20.3646 173.983 22.3909 170.157 23.6835C167.513 24.5756 163.768 24.9908 161.315 23.6496C167.329 21.1593 173.085 17.6192 180.013 18.7104ZM159.265 21.3114C161.627 20.2304 163.936 19.0473 166.481 18.2852C169.385 17.4147 172.736 17.1749 175.82 17.4944C175.989 17.5119 176.168 17.5353 176.352 17.5632C171.496 17.7429 166.867 19.3014 162.729 21.2725C161.807 21.712 160.884 22.1357 159.949 22.5337C159.637 22.1558 159.41 21.7423 159.265 21.3114ZM151.32 24.9822C148.96 25.2673 146.803 24.8282 145.057 23.916C147.791 24.2725 150.84 23.9768 153.214 23.4699C154.5 23.1957 155.717 22.7935 156.898 22.3276C156.927 22.3652 156.953 22.4033 156.983 22.4402C157.197 22.7875 157.442 23.1078 157.7 23.4165C155.699 24.1389 153.608 24.705 151.32 24.9822ZM198.019 20.1941C198.137 20.2125 198.256 20.2212 198.376 20.2268C200.46 21.1856 201.921 22.6275 200.523 24.3834C200.249 24.7281 200.316 25.5332 201.367 25.8362C202.287 26.1018 203.354 25.314 203.574 25.0382C206.077 21.898 200.986 19.5598 197.513 18.6806C193.052 17.5514 188.268 17.5698 183.732 18.4583C183.564 18.4912 183.4 18.5307 183.234 18.5672C182.045 17.9602 180.685 17.4948 179.508 17.1975C175.046 16.0677 170.26 16.0858 165.725 16.974C163.351 17.4394 161.235 18.2786 159.173 19.1987C159.376 18.3586 159.857 17.5636 160.606 16.9438C160.924 16.681 161.143 15.8571 159.967 15.6045C159.085 15.415 157.866 16.0323 157.556 16.289C156.014 17.5642 155.6 19.1463 156.024 20.6352C154.766 21.2021 153.491 21.7459 152.151 22.1989C149.317 23.1561 145.213 23.567 142.796 21.8486C140.472 20.1965 140.54 17.1652 142.6 15.4601C142.918 15.1968 143.137 14.3736 141.961 14.1204C141.081 13.9309 139.859 14.5487 139.549 14.806C137.361 16.6172 137.439 19.0493 138.973 20.9519C141.776 25.4901 148.536 26.6373 154.702 25.6586C156.128 25.4325 157.513 25.051 158.878 24.5812C162.224 27.3178 167.664 27.9427 172.708 27.1427C176.119 26.6014 179.31 25.1794 182.5 23.7445C182.636 23.989 182.899 24.2195 183.361 24.3525C184.281 24.6181 185.348 23.8304 185.569 23.5541C185.966 23.0554 186.169 22.5774 186.222 22.1219C189.932 20.6079 193.753 19.5217 198.019 20.1941Z" fill="#3F98BB"/>
<g filter="url(#filter0_d)">
<path d="M93.622 49.14C92.6486 49.14 91.862 48.8867 91.262 48.38C90.6753 47.8867 90.382 47.2333 90.382 46.42C90.382 45.9133 90.502 45.4467 90.742 45.02C90.982 44.5933 91.3086 44.26 91.722 44.02C92.1353 43.7667 92.5886 43.64 93.082 43.64C93.5886 43.64 93.9953 43.7667 94.302 44.02C94.622 44.2733 94.782 44.6067 94.782 45.02C94.782 45.34 94.7086 45.5933 94.562 45.78C94.442 45.62 94.2753 45.4933 94.062 45.4C93.862 45.3067 93.6486 45.26 93.422 45.26C93.022 45.26 92.6953 45.3933 92.442 45.66C92.1886 45.9267 92.062 46.2733 92.062 46.7C92.062 47.1267 92.182 47.4733 92.422 47.74C92.6753 48.0067 92.9886 48.14 93.362 48.14C93.8286 48.14 94.2286 47.9333 94.562 47.52C94.8953 47.1067 95.1486 46.4933 95.322 45.68L96.322 41.26H96.242C95.882 41.7667 95.442 42.1533 94.922 42.42C94.4153 42.6867 93.8553 42.82 93.242 42.82C92.4686 42.82 91.7886 42.6133 91.202 42.2C90.6153 41.7867 90.162 41.2 89.842 40.44C89.5353 39.6667 89.382 38.7733 89.382 37.76C89.382 36.2933 89.702 34.96 90.342 33.76C90.982 32.5467 91.862 31.5933 92.982 30.9C94.102 30.2067 95.3353 29.86 96.682 29.86C97.8153 29.86 98.7086 30.1067 99.362 30.6C100.029 31.0933 100.362 31.7667 100.362 32.62C100.362 33.1933 100.222 33.6533 99.942 34C99.662 34.3467 99.2953 34.52 98.842 34.52C98.5886 34.52 98.3486 34.4667 98.122 34.36C97.9086 34.2533 97.7286 34.1 97.582 33.9C97.822 33.74 98.022 33.4867 98.182 33.14C98.3553 32.78 98.442 32.42 98.442 32.06C98.442 31.66 98.322 31.3533 98.082 31.14C97.8553 30.9133 97.5286 30.8 97.102 30.8C96.3286 30.8 95.582 31.1467 94.862 31.84C94.142 32.52 93.562 33.4133 93.122 34.52C92.682 35.6267 92.462 36.7867 92.462 38C92.462 39 92.622 39.7667 92.942 40.3C93.262 40.82 93.722 41.08 94.322 41.08C95.042 41.08 95.6753 40.7 96.222 39.94C96.782 39.18 97.2286 38.0733 97.562 36.62L99.922 36.64L98.462 43.36C98.0353 45.3467 97.4286 46.8067 96.642 47.74C95.8686 48.6733 94.862 49.14 93.622 49.14ZM103.484 45.08C102.498 45.08 101.718 44.8267 101.144 44.32C100.571 43.8133 100.284 43.0133 100.284 41.92C100.284 41.0133 100.471 40.0067 100.844 38.9C101.218 37.7933 101.818 36.84 102.644 36.04C103.471 35.2267 104.511 34.82 105.764 34.82C107.471 34.82 108.324 35.8867 108.324 38.02V38.04C108.364 38.0533 108.438 38.06 108.544 38.06C108.984 38.06 109.491 37.9467 110.064 37.72C110.638 37.48 111.158 37.1933 111.624 36.86L111.804 37.4C111.418 37.8133 110.911 38.1667 110.284 38.46C109.671 38.74 108.998 38.94 108.264 39.06C108.158 40.2733 107.884 41.3333 107.444 42.24C107.004 43.1467 106.438 43.8467 105.744 44.34C105.051 44.8333 104.298 45.08 103.484 45.08ZM104.284 43.28C104.604 43.28 104.924 43.1 105.244 42.74C105.564 42.3667 105.844 41.8667 106.084 41.24C106.324 40.6 106.498 39.8933 106.604 39.12C106.244 39.04 106.064 38.76 106.064 38.28C106.064 37.7333 106.271 37.3733 106.684 37.2C106.658 36.76 106.591 36.46 106.484 36.3C106.378 36.1267 106.191 36.04 105.924 36.04C105.484 36.04 105.058 36.36 104.644 37C104.231 37.64 103.898 38.4067 103.644 39.3C103.391 40.1933 103.264 40.98 103.264 41.66C103.264 42.3 103.338 42.7333 103.484 42.96C103.631 43.1733 103.898 43.28 104.284 43.28ZM112.274 45.08C111.287 45.08 110.507 44.8267 109.934 44.32C109.36 43.8133 109.074 43.0133 109.074 41.92C109.074 41.0133 109.26 40.0067 109.634 38.9C110.007 37.7933 110.607 36.84 111.434 36.04C112.26 35.2267 113.3 34.82 114.554 34.82C116.26 34.82 117.114 35.8867 117.114 38.02V38.04C117.154 38.0533 117.227 38.06 117.334 38.06C117.774 38.06 118.28 37.9467 118.854 37.72C119.427 37.48 119.947 37.1933 120.414 36.86L120.594 37.4C120.207 37.8133 119.7 38.1667 119.074 38.46C118.46 38.74 117.787 38.94 117.054 39.06C116.947 40.2733 116.674 41.3333 116.234 42.24C115.794 43.1467 115.227 43.8467 114.534 44.34C113.84 44.8333 113.087 45.08 112.274 45.08ZM113.074 43.28C113.394 43.28 113.714 43.1 114.034 42.74C114.354 42.3667 114.634 41.8667 114.874 41.24C115.114 40.6 115.287 39.8933 115.394 39.12C115.034 39.04 114.854 38.76 114.854 38.28C114.854 37.7333 115.06 37.3733 115.474 37.2C115.447 36.76 115.38 36.46 115.274 36.3C115.167 36.1267 114.98 36.04 114.714 36.04C114.274 36.04 113.847 36.36 113.434 37C113.02 37.64 112.687 38.4067 112.434 39.3C112.18 40.1933 112.054 40.98 112.054 41.66C112.054 42.3 112.127 42.7333 112.274 42.96C112.42 43.1733 112.687 43.28 113.074 43.28ZM121.683 50C121.043 50 120.509 49.8333 120.083 49.5C119.656 49.1667 119.443 48.6867 119.443 48.06C119.443 47.3 119.749 46.6867 120.363 46.22C120.976 45.7667 121.756 45.3867 122.703 45.08L122.943 44.02C122.263 44.7533 121.463 45.12 120.543 45.12C119.783 45.12 119.149 44.86 118.643 44.34C118.136 43.82 117.883 43.0067 117.883 41.9C117.883 40.9133 118.076 39.88 118.463 38.8C118.863 37.7067 119.449 36.7867 120.223 36.04C121.009 35.28 121.943 34.9 123.023 34.9C123.569 34.9 123.976 34.9933 124.243 35.18C124.509 35.3667 124.643 35.6133 124.643 35.92V36.04L124.863 35H127.743L125.763 44.28C126.403 44.0667 126.916 43.7467 127.303 43.32C127.689 42.8933 128.016 42.26 128.283 41.42H129.123C128.763 42.6067 128.276 43.48 127.663 44.04C127.049 44.5867 126.356 44.96 125.583 45.16L125.283 46.6C125.016 47.8933 124.556 48.78 123.903 49.26C123.249 49.7533 122.509 50 121.683 50ZM121.843 43.18C122.149 43.18 122.463 43.04 122.783 42.76C123.103 42.48 123.323 42.1 123.443 41.62L124.463 36.88C124.463 36.72 124.396 36.56 124.263 36.4C124.129 36.2267 123.923 36.14 123.643 36.14C123.109 36.14 122.629 36.4533 122.203 37.08C121.776 37.6933 121.443 38.44 121.203 39.32C120.963 40.1867 120.843 40.9533 120.843 41.62C120.843 42.2867 120.936 42.7133 121.123 42.9C121.323 43.0867 121.563 43.18 121.843 43.18ZM121.223 48.44C121.449 48.44 121.669 48.2867 121.883 47.98C122.096 47.6733 122.263 47.2333 122.383 46.66L122.503 46.08C121.196 46.56 120.543 47.1267 120.543 47.78C120.543 47.9533 120.603 48.1067 120.723 48.24C120.843 48.3733 121.009 48.44 121.223 48.44ZM130.259 45.12C129.619 45.12 129.099 44.92 128.699 44.52C128.313 44.12 128.119 43.52 128.119 42.72C128.119 42.3867 128.173 41.9533 128.279 41.42L130.419 31.4L133.379 31L131.079 41.8C131.026 42 130.999 42.2133 130.999 42.44C130.999 42.7067 131.059 42.9 131.179 43.02C131.313 43.1267 131.526 43.18 131.819 43.18C132.206 43.18 132.566 43.02 132.899 42.7C133.233 42.3667 133.473 41.94 133.619 41.42H134.459C133.966 42.86 133.333 43.84 132.559 44.36C131.786 44.8667 131.019 45.12 130.259 45.12ZM136.431 45.12C135.458 45.12 134.698 44.8667 134.151 44.36C133.605 43.84 133.331 43.0333 133.331 41.94C133.331 41.02 133.511 40.0067 133.871 38.9C134.231 37.7933 134.818 36.84 135.631 36.04C136.445 35.2267 137.478 34.82 138.731 34.82C140.198 34.82 140.931 35.46 140.931 36.74C140.931 37.4867 140.718 38.1733 140.291 38.8C139.865 39.4267 139.298 39.9333 138.591 40.32C137.885 40.6933 137.131 40.9067 136.331 40.96C136.305 41.2533 136.291 41.4533 136.291 41.56C136.291 42.6667 136.705 43.22 137.531 43.22C137.905 43.22 138.305 43.12 138.731 42.92C139.158 42.72 139.545 42.4667 139.891 42.16C139.531 44.1333 138.378 45.12 136.431 45.12ZM136.471 40C136.978 39.9867 137.451 39.82 137.891 39.5C138.345 39.18 138.705 38.7733 138.971 38.28C139.251 37.7733 139.391 37.2467 139.391 36.7C139.391 36.1533 139.225 35.88 138.891 35.88C138.425 35.88 137.958 36.3067 137.491 37.16C137.038 38 136.698 38.9467 136.471 40ZM149.911 31.64C149.071 31.6667 148.425 31.9867 147.971 32.6C147.531 33.2133 147.311 34.2733 147.311 35.78C147.311 36.2733 147.358 36.62 147.451 36.82C147.545 37.0067 147.591 37.1133 147.591 37.14C146.871 37.14 146.331 36.9933 145.971 36.7C145.625 36.3933 145.451 35.8933 145.451 35.2C145.451 34.2533 145.685 33.3933 146.151 32.62C146.618 31.8333 147.358 31.2 148.371 30.72C149.398 30.24 150.698 30 152.271 30C152.591 30 153.018 30.0333 153.551 30.1C154.511 30.1933 155.191 30.24 155.591 30.24C156.298 30.24 156.898 30.16 157.391 30C157.351 30.12 157.278 30.3867 157.171 30.8C157.065 31.2 156.871 31.5467 156.591 31.84C156.325 32.12 155.958 32.3067 155.491 32.4C154.705 32.4 153.771 32.2733 152.691 32.02L151.851 36H154.771L154.451 37.48H151.531L149.911 45H147.031L149.911 31.64ZM157.371 45.08C156.385 45.08 155.605 44.8267 155.031 44.32C154.458 43.8133 154.171 43.0133 154.171 41.92C154.171 41.0133 154.358 40.0067 154.731 38.9C155.105 37.7933 155.705 36.84 156.531 36.04C157.358 35.2267 158.398 34.82 159.651 34.82C161.358 34.82 162.211 35.8867 162.211 38.02V38.04C162.251 38.0533 162.325 38.06 162.431 38.06C162.871 38.06 163.378 37.9467 163.951 37.72C164.525 37.48 165.045 37.1933 165.511 36.86L165.691 37.4C165.305 37.8133 164.798 38.1667 164.171 38.46C163.558 38.74 162.885 38.94 162.151 39.06C162.045 40.2733 161.771 41.3333 161.331 42.24C160.891 43.1467 160.325 43.8467 159.631 44.34C158.938 44.8333 158.185 45.08 157.371 45.08ZM158.171 43.28C158.491 43.28 158.811 43.1 159.131 42.74C159.451 42.3667 159.731 41.8667 159.971 41.24C160.211 40.6 160.385 39.8933 160.491 39.12C160.131 39.04 159.951 38.76 159.951 38.28C159.951 37.7333 160.158 37.3733 160.571 37.2C160.545 36.76 160.478 36.46 160.371 36.3C160.265 36.1267 160.078 36.04 159.811 36.04C159.371 36.04 158.945 36.36 158.531 37C158.118 37.64 157.785 38.4067 157.531 39.3C157.278 40.1933 157.151 40.98 157.151 41.66C157.151 42.3 157.225 42.7333 157.371 42.96C157.518 43.1733 157.785 43.28 158.171 43.28ZM170.46 45.12C169.647 45.12 169.047 44.9067 168.66 44.48C168.287 44.04 168.1 43.5 168.1 42.86C168.1 42.58 168.134 42.2667 168.2 41.92C168.267 41.56 168.334 41.2133 168.4 40.88C168.48 40.5467 168.534 40.3333 168.56 40.24C168.667 39.7733 168.767 39.3133 168.86 38.86C168.954 38.4067 169 38.04 169 37.76C169 37.08 168.76 36.74 168.28 36.74C167.934 36.74 167.627 36.9133 167.36 37.26C167.094 37.5933 166.88 38.0333 166.72 38.58L165.36 45H162.48L164.6 35H167.48L167.26 36.04C167.927 35.2933 168.707 34.92 169.6 34.92C170.28 34.92 170.82 35.1067 171.22 35.48C171.62 35.8533 171.82 36.42 171.82 37.18C171.82 37.5667 171.774 38 171.68 38.48C171.587 38.9467 171.454 39.52 171.28 40.2C171.174 40.6133 171.074 41.02 170.98 41.42C170.9 41.8067 170.86 42.1133 170.86 42.34C170.86 42.6067 170.92 42.8133 171.04 42.96C171.16 43.1067 171.367 43.18 171.66 43.18C172.06 43.18 172.38 43.04 172.62 42.76C172.86 42.4667 173.1 42.02 173.34 41.42H174.18C173.687 42.8867 173.114 43.8733 172.46 44.38C171.82 44.8733 171.154 45.12 170.46 45.12ZM175.318 45.12C174.678 45.12 174.158 44.92 173.758 44.52C173.371 44.12 173.178 43.52 173.178 42.72C173.178 42.3867 173.231 41.9533 173.338 41.42L174.538 35.8H173.878L174.038 35H174.698L175.298 32.24L178.258 31.84L177.578 35H178.778L178.618 35.8H177.418L176.138 41.8C176.085 42 176.058 42.2133 176.058 42.44C176.058 42.7067 176.118 42.9 176.238 43.02C176.371 43.1267 176.585 43.18 176.878 43.18C177.265 43.18 177.625 43.02 177.958 42.7C178.291 42.3667 178.531 41.94 178.678 41.42H179.518C179.025 42.86 178.391 43.84 177.618 44.36C176.845 44.8667 176.078 45.12 175.318 45.12ZM180.95 45.12C180.31 45.12 179.77 45 179.33 44.76C178.89 44.5067 178.563 44.1867 178.35 43.8C178.137 43.4 178.03 42.9867 178.03 42.56C178.03 42.12 178.137 41.74 178.35 41.42C178.55 41.0867 178.797 40.8467 179.09 40.7C179.61 39.7667 180.063 38.8267 180.45 37.88C180.837 36.92 181.203 35.8867 181.55 34.78L184.51 34.38C184.577 36.0867 184.69 37.9333 184.85 39.92C184.917 40.72 184.95 41.3 184.95 41.66C184.95 42.4733 184.743 43.14 184.33 43.66C183.917 44.18 183.403 44.5533 182.79 44.78C182.19 45.0067 181.577 45.12 180.95 45.12ZM180.31 43.54C180.803 43.54 181.217 43.3933 181.55 43.1C181.883 42.8067 182.05 42.3333 182.05 41.68C182.05 41.28 182.01 40.72 181.93 40C181.797 38.48 181.71 37.46 181.67 36.94C181.35 37.9933 180.81 39.2533 180.05 40.72C180.357 40.88 180.51 41.1133 180.51 41.42C180.51 41.6733 180.423 41.9 180.25 42.1C180.09 42.3 179.883 42.4 179.63 42.4C179.35 42.4 179.17 42.3133 179.09 42.14C179.09 42.62 179.183 42.9733 179.37 43.2C179.57 43.4267 179.883 43.54 180.31 43.54Z" fill="#3F98BB"/>
</g>
<path fill-rule="evenodd" clip-rule="evenodd" d="M28.7766 63.8994H28.7767V59.931H31.427C31.427 61.3466 31.9052 62.7248 32.7912 63.8625C33.6772 65.0003 34.9241 65.8375 36.3483 66.2508C37.7726 66.6642 39.2988 66.6318 40.7022 66.1585C42.1056 65.6852 43.312 64.7959 44.1438 63.6218L49.4585 67.0238C47.8601 69.2804 45.5416 70.9893 42.8445 71.8989C40.1475 72.8085 37.2144 72.8707 34.4774 72.0763C31.7404 71.282 29.344 69.673 27.6413 67.4865C27.0363 66.7095 26.5301 65.8742 26.1291 64.998H28.7766V63.8994ZM30.029 68.1201H32.1163V66.1359H30.029V68.1201Z" fill="#112233"/>
<path fill-rule="evenodd" clip-rule="evenodd" d="M28.7766 60.6987L28.7766 55.6317H26.129C26.5301 54.7555 27.0362 53.9202 27.6413 53.1432C29.344 50.9567 31.7403 49.3477 34.4774 48.5534C37.2144 47.759 40.1475 47.8212 42.8445 48.7308C45.5416 49.6404 47.8601 51.3493 49.4585 53.6059L44.1437 57.0079C43.312 55.8338 42.1056 54.9445 40.7022 54.4712C39.2987 53.9979 37.7725 53.9655 36.3483 54.3789C34.9241 54.7922 33.6771 55.6294 32.7911 56.7672C31.9051 57.9049 31.4269 59.2831 31.4269 60.6987H28.7766ZM30.029 52.5097H32.1162V54.4939H30.029V52.5097Z" fill="#112233"/>
<rect x="30.029" y="52.5097" width="2.08725" height="1.73448" fill="white"/>
<path d="M29.0282 61.8785V59.1007H26.5235V61.8785H29.0282Z" fill="#112233" fill-opacity="0.6"/>
<path d="M25.2712 61.3818V59.7945H23.6014V61.3818H25.2712Z" fill="#112233" fill-opacity="0.6"/>
<path d="M24.8537 58.2125V54.2442H20.6792V58.2125H24.8537Z" fill="#3F98BB"/>
<path d="M24.8537 66.8849V62.9166H20.6792V66.8849H24.8537Z" fill="#3F98BB"/>
<path d="M34.8725 62.2255V59.4476H31.9504V62.2255H34.8725Z" fill="#112233" fill-opacity="0.6"/>
<path d="M37.3773 59.3504V57.3662H35.29V59.3504H37.3773Z" fill="#3F98BB"/>
<path d="M20.6792 63.2162V60.8352H18.1745V63.2162H20.6792Z" fill="#112233" fill-opacity="0.6"/>
<path d="M16.9221 62.1256V60.1414H14.8349V62.1256H16.9221Z" fill="#112233" fill-opacity="0.6"/>
<path d="M20.2618 59.3504V57.3662H18.1745V59.3504H20.2618Z" fill="#112233" fill-opacity="0.6"/>
<path d="M15.6698 58.9536V57.3662H14V58.9536H15.6698Z" fill="#112233" fill-opacity="0.6"/>
<g filter="url(#filter1_d)">
<path d="M54.6872 72.193C54.6552 72.129 54.6018 72.065 54.5272 72.001C54.4632 71.9264 54.4312 71.8784 54.4312 71.857C54.4312 71.7397 54.4045 71.649 54.3512 71.585C54.3298 71.5637 54.3192 71.5157 54.3192 71.441C54.3192 71.2704 54.3992 70.9824 54.5592 70.577C54.7298 70.161 54.9485 69.713 55.2152 69.233C55.2792 69.169 55.3592 69.057 55.4552 68.897C55.5618 68.737 55.6312 68.6464 55.6632 68.625C55.6632 68.5824 55.6792 68.545 55.7112 68.513C55.7432 68.4704 55.7805 68.449 55.8232 68.449V68.353C55.8232 68.257 55.9992 68.0277 56.3512 67.665C56.7032 67.2917 56.9912 67.0357 57.2152 66.897C57.4818 66.7157 57.7538 66.625 58.0312 66.625C58.2232 66.625 58.3885 66.6784 58.5272 66.785C58.5805 66.849 58.8258 67.0784 59.2632 67.473L59.8552 68.001L59.5672 68.801C59.4712 69.089 59.4232 69.3504 59.4232 69.585C59.4232 69.9904 59.5405 70.3797 59.7752 70.753C59.8285 70.8704 59.9352 70.9824 60.0952 71.089C60.2552 71.1957 60.4152 71.2597 60.5752 71.281C60.8098 71.3237 60.9272 71.441 60.9272 71.633C60.9272 71.8464 60.8312 71.9744 60.6392 72.017C60.5965 72.0277 60.5325 72.033 60.4472 72.033C59.8178 72.033 59.2738 71.5904 58.8152 70.705C58.7725 70.641 58.7138 70.5237 58.6392 70.353C58.5752 70.1824 58.5378 70.065 58.5272 70.001C58.4632 70.0864 58.3832 70.1877 58.2872 70.305C58.1912 70.4224 58.1005 70.5237 58.0152 70.609C56.8525 71.7717 55.9352 72.353 55.2632 72.353C55.0498 72.353 54.8578 72.2997 54.6872 72.193ZM55.2632 71.297C55.2632 71.3504 55.3165 71.3664 55.4232 71.345C55.5405 71.3237 55.6792 71.2704 55.8392 71.185C56.0098 71.0997 56.1805 70.9877 56.3512 70.849C57.2685 70.0597 57.9298 69.3717 58.3352 68.785L58.6872 68.209C58.5805 67.985 58.4685 67.825 58.3512 67.729C58.2338 67.6224 58.1272 67.569 58.0312 67.569C57.8072 67.569 57.4552 67.8517 56.9752 68.417C56.4952 68.9717 56.0578 69.6277 55.6632 70.385C55.5672 70.5664 55.4818 70.753 55.4072 70.945C55.3325 71.1264 55.2845 71.2437 55.2632 71.297ZM62.575 71.793C62.4577 71.7077 62.3084 71.3504 62.127 70.721C61.9564 70.0917 61.823 69.4837 61.727 68.897C61.6844 68.673 61.599 68.369 61.471 67.985C61.4284 67.8144 61.407 67.697 61.407 67.633C61.407 67.441 61.487 67.297 61.647 67.201C61.6897 67.169 61.7484 67.1477 61.823 67.137C61.9084 67.1157 61.9777 67.1104 62.031 67.121C62.2657 67.2064 62.479 67.857 62.671 69.073C62.703 69.3824 62.751 69.6597 62.815 69.905C62.879 70.1504 62.9164 70.2944 62.927 70.337C62.959 70.401 62.9964 70.4704 63.039 70.545C63.0817 70.609 63.1297 70.641 63.183 70.641C63.215 70.641 63.2524 70.6197 63.295 70.577C63.4977 70.3744 63.7164 70.1184 63.951 69.809C64.207 69.457 64.383 69.2224 64.479 69.105C64.5964 68.9237 64.751 68.7104 64.943 68.465C64.975 68.4224 65.0497 68.321 65.167 68.161C65.2844 68.001 65.3964 67.8677 65.503 67.761C65.6097 67.6437 65.7004 67.5744 65.775 67.553C65.807 67.5424 65.855 67.537 65.919 67.537C66.1004 67.537 66.191 67.6117 66.191 67.761C66.191 67.8997 66.095 68.1077 65.903 68.385C65.839 68.4704 65.7697 68.5877 65.695 68.737C65.631 68.8757 65.5884 68.9557 65.567 68.977C65.4497 69.2117 65.231 69.5424 64.911 69.969C64.6017 70.3957 64.3937 70.6624 64.287 70.769C64.2657 70.7904 64.175 70.865 64.015 70.993C63.8657 71.121 63.727 71.2757 63.599 71.457C63.2577 71.777 63.0124 71.937 62.863 71.937C62.767 71.937 62.671 71.889 62.575 71.793ZM68.0799 72.817C67.6212 72.817 67.2426 72.6464 66.9439 72.305C66.6452 71.9637 66.4959 71.537 66.4959 71.025C66.4959 70.513 66.6079 69.953 66.8319 69.345C67.0666 68.7264 67.3652 68.1717 67.7279 67.681C68.0906 67.1904 68.4586 66.8597 68.8319 66.689C69.0452 66.5717 69.2852 66.513 69.5519 66.513C69.7546 66.513 69.9839 66.5717 70.2399 66.689C70.4212 66.7637 70.5599 66.8544 70.6559 66.961C70.7519 67.0677 70.8372 67.233 70.9119 67.457C70.9439 67.649 70.9599 67.7824 70.9599 67.857C70.9599 67.921 70.9332 68.0597 70.8799 68.273C70.7519 68.6677 70.5812 69.0037 70.3679 69.281C70.1652 69.5477 69.8986 69.777 69.5679 69.969C69.3972 70.0757 69.1839 70.129 68.9279 70.129C68.7039 70.129 68.4906 70.0917 68.2879 70.017C68.0959 69.9317 67.9466 69.809 67.8399 69.649L67.7279 69.521L67.6799 69.649C67.4559 70.225 67.3439 70.7157 67.3439 71.121C67.3439 71.3984 67.3972 71.6224 67.5039 71.793C67.5786 71.9104 67.7599 71.969 68.0479 71.969C68.2612 71.969 68.4159 71.9477 68.5119 71.905C68.6719 71.8517 68.8106 71.7877 68.9279 71.713C69.0559 71.6277 69.1786 71.5424 69.2959 71.457L69.3599 71.425H69.3439C69.4719 71.361 69.5786 71.3024 69.6639 71.249C69.7492 71.1957 69.8079 71.1584 69.8399 71.137C69.8612 71.137 69.8826 71.1317 69.9039 71.121C69.9252 71.1104 69.9466 71.089 69.9679 71.057C70.0639 71.0144 70.1759 71.0304 70.3039 71.105C70.4319 71.1797 70.4959 71.2757 70.4959 71.393C70.4746 71.4784 70.3786 71.617 70.2079 71.809C70.0372 72.001 69.9092 72.1024 69.8239 72.113C69.8132 72.113 69.7759 72.129 69.7119 72.161C69.6479 72.193 69.6052 72.2197 69.5839 72.241H69.5999C69.5039 72.369 69.4079 72.433 69.3119 72.433H69.1839C69.1412 72.5184 68.9972 72.6037 68.7519 72.689C68.5172 72.7744 68.2932 72.817 68.0799 72.817ZM68.7999 69.297C69.1199 69.297 69.4132 69.1157 69.6799 68.753C69.9359 68.4117 70.0639 68.0704 70.0639 67.729C70.0639 67.5477 70.0266 67.4197 69.9519 67.345C69.8879 67.313 69.8292 67.297 69.7759 67.297C69.7226 67.297 69.6319 67.313 69.5039 67.345C69.3652 67.377 69.1519 67.5264 68.8639 67.793C68.5759 68.049 68.3626 68.2784 68.2239 68.481L68.0159 68.817C68.1012 68.785 68.1812 68.769 68.2559 68.769C68.3412 68.7584 68.3892 68.7637 68.3999 68.785C68.3999 68.9344 68.4372 69.057 68.5119 69.153C68.5866 69.249 68.6826 69.297 68.7999 69.297ZM72.739 72.241C72.547 72.2837 72.339 72.225 72.115 72.065C71.891 71.905 71.7577 71.729 71.715 71.537C71.7044 71.4944 71.699 71.425 71.699 71.329C71.699 70.9344 71.8484 70.4277 72.147 69.809C72.4564 69.1797 72.8297 68.6037 73.267 68.081C73.7044 67.5477 74.1044 67.2117 74.467 67.073C74.691 66.9557 74.835 66.897 74.899 66.897C74.963 66.897 75.107 66.9557 75.331 67.073C75.4804 67.1157 75.5924 67.1637 75.667 67.217C75.7417 67.2704 75.8377 67.377 75.955 67.537C76.0937 67.8144 76.195 68.1557 76.259 68.561C76.323 68.785 76.355 68.945 76.355 69.041C76.355 69.1264 76.323 69.201 76.259 69.265C76.2484 69.2757 76.227 69.297 76.195 69.329C76.1737 69.361 76.163 69.3877 76.163 69.409C76.163 69.4197 76.1737 69.425 76.195 69.425C76.195 69.4357 76.1897 69.4624 76.179 69.505C76.1684 69.537 76.147 69.585 76.115 69.649C75.987 70.0544 75.923 70.401 75.923 70.689C75.923 70.785 75.9337 70.8864 75.955 70.993C76.0617 71.2704 76.243 71.409 76.499 71.409C76.7124 71.409 76.915 71.313 77.107 71.121C77.2777 71.0037 77.4004 70.9237 77.475 70.881C77.5604 70.8277 77.603 70.8384 77.603 70.913C77.6137 70.9237 77.635 70.9397 77.667 70.961C77.699 70.9824 77.731 70.993 77.763 70.993C77.8377 70.993 77.875 71.041 77.875 71.137C77.875 71.233 77.8377 71.3397 77.763 71.457C77.6884 71.5317 77.6297 71.5957 77.587 71.649C77.5444 71.7024 77.523 71.745 77.523 71.777L77.283 72.001C77.0804 72.1184 76.8404 72.177 76.563 72.177C76.275 72.177 76.0457 72.1184 75.875 72.001C75.7257 71.8944 75.5817 71.7397 75.443 71.537C75.3044 71.3344 75.2137 71.153 75.171 70.993L75.091 70.833L74.627 71.137C74.5204 71.2437 74.3977 71.3557 74.259 71.473C74.1204 71.5797 74.0297 71.6544 73.987 71.697C73.9017 71.8037 73.827 71.857 73.763 71.857H73.603C73.603 71.9317 73.4964 72.017 73.283 72.113C73.0804 72.1984 72.899 72.241 72.739 72.241ZM72.579 71.377C72.6964 71.377 72.995 71.2117 73.475 70.881C73.955 70.5397 74.259 70.289 74.387 70.129L74.851 69.649C75.0217 69.457 75.155 69.2384 75.251 68.993C75.3577 68.7477 75.411 68.5237 75.411 68.321C75.411 68.1397 75.3844 68.0117 75.331 67.937C75.2884 67.809 75.2244 67.745 75.139 67.745C75.0964 67.745 74.9737 67.7824 74.771 67.857C74.5684 67.985 74.2804 68.2784 73.907 68.737C73.5444 69.1957 73.219 69.6704 72.931 70.161C72.643 70.641 72.499 70.993 72.499 71.217C72.499 71.249 72.5097 71.281 72.531 71.313C72.5524 71.345 72.5684 71.3664 72.579 71.377ZM80.3095 72.737C80.1602 72.6944 80.0375 72.6464 79.9415 72.593C79.8455 72.5397 79.7175 72.4384 79.5575 72.289C79.3655 72.033 79.2375 71.7984 79.1735 71.585C79.1202 71.361 79.0935 71.009 79.0935 70.529C79.0935 70.273 79.2375 69.569 79.5255 68.417C79.5042 68.4917 79.5415 68.337 79.6375 67.953C79.6695 67.8357 79.6269 67.761 79.5095 67.729C79.3922 67.697 79.2269 67.681 79.0135 67.681C78.8322 67.681 78.7255 67.6704 78.6935 67.649C78.6615 67.6384 78.6402 67.6224 78.6295 67.601C78.6295 67.5797 78.6295 67.5637 78.6295 67.553C78.6295 67.4997 78.6082 67.4357 78.5655 67.361C78.5549 67.3504 78.5495 67.3344 78.5495 67.313C78.5495 67.2597 78.5762 67.201 78.6295 67.137C78.6935 67.073 78.7682 67.0357 78.8535 67.025C78.9069 67.0144 79.0295 66.9984 79.2215 66.977C79.4135 66.9557 79.5949 66.913 79.7655 66.849C79.9362 66.785 80.0695 66.6944 80.1655 66.577C80.3042 66.225 80.4802 65.8304 80.6935 65.393C80.9069 64.945 81.0509 64.6784 81.1255 64.593C81.2962 64.5077 81.4135 64.465 81.4775 64.465C81.5415 64.465 81.5949 64.4864 81.6375 64.529C81.6802 64.5717 81.7389 64.6464 81.8135 64.753C81.8242 64.7744 81.8509 64.8117 81.8935 64.865C81.9362 64.9184 81.9575 64.9717 81.9575 65.025C81.9575 65.1104 81.9149 65.2384 81.8295 65.409C81.7549 65.5797 81.6002 65.8784 81.3655 66.305L81.1575 66.705C81.1895 66.7157 81.2642 66.721 81.3815 66.721C81.4989 66.721 81.5949 66.7157 81.6695 66.705C81.9042 66.6624 82.1229 66.641 82.3255 66.641C82.4322 66.641 82.5069 66.6464 82.5495 66.657C82.7949 66.657 82.9709 66.705 83.0775 66.801C83.1949 66.8864 83.2642 67.0357 83.2855 67.249C83.3069 67.3664 83.2855 67.4357 83.2215 67.457C83.1575 67.4784 82.9762 67.489 82.6775 67.489C81.4402 67.5424 80.8162 67.5904 80.8055 67.633C80.7629 67.665 80.6829 67.8517 80.5655 68.193C80.4482 68.5344 80.3469 68.8597 80.2615 69.169C80.1229 69.809 80.0535 70.3744 80.0535 70.865C80.0535 71.313 80.1175 71.6117 80.2455 71.761C80.2989 71.8144 80.4002 71.841 80.5495 71.841C80.6989 71.841 80.8589 71.8144 81.0295 71.761C81.2109 71.697 81.3602 71.617 81.4775 71.521C81.6695 71.361 81.8295 71.281 81.9575 71.281C82.0215 71.281 82.0695 71.3024 82.1015 71.345C82.1442 71.377 82.1655 71.4197 82.1655 71.473C82.1655 71.5904 82.1015 71.7397 81.9735 71.921C81.8135 72.1664 81.6002 72.369 81.3335 72.529C81.0669 72.689 80.8109 72.769 80.5655 72.769C80.4482 72.769 80.3629 72.7584 80.3095 72.737Z" fill="black" fill-opacity="0.5"/>
</g>
<g filter="url(#filter2_d)">
<path d="M172.323 50V70H210.592L238.575 50H172.323Z" fill="black" stroke="black"/>
<path d="M183.889 61.772C184.217 61.844 184.553 61.964 184.897 62.132C185.249 62.3 185.609 62.472 185.977 62.648C186.345 62.824 186.717 62.976 187.093 63.104C187.477 63.24 187.861 63.308 188.245 63.308C188.397 63.308 188.553 63.292 188.713 63.26C188.873 63.236 189.033 63.188 189.193 63.116C189.201 63.156 189.205 63.192 189.205 63.224C189.205 63.256 189.205 63.292 189.205 63.332C189.205 63.516 189.177 63.704 189.121 63.896C189.065 64.096 188.981 64.276 188.869 64.436C188.765 64.596 188.629 64.728 188.461 64.832C188.293 64.944 188.097 65 187.873 65C187.617 65 187.353 64.932 187.081 64.796C186.817 64.66 186.541 64.492 186.253 64.292C185.965 64.092 185.669 63.872 185.365 63.632C185.061 63.4 184.749 63.184 184.429 62.984C184.109 62.784 183.781 62.616 183.445 62.48C183.109 62.344 182.769 62.276 182.425 62.276C182.377 62.276 182.329 62.276 182.281 62.276C182.241 62.276 182.197 62.28 182.149 62.288V53.984C181.765 54.168 181.469 54.436 181.261 54.788C181.061 55.132 180.961 55.552 180.961 56.048C180.961 56.264 180.977 56.452 181.009 56.612C181.049 56.764 181.089 56.892 181.129 56.996C181.177 57.1 181.225 57.188 181.273 57.26C181.321 57.324 181.357 57.372 181.381 57.404C180.901 57.404 180.521 57.292 180.241 57.068C179.961 56.844 179.821 56.492 179.821 56.012C179.821 55.604 179.921 55.224 180.121 54.872C180.321 54.52 180.585 54.216 180.913 53.96C181.249 53.696 181.629 53.492 182.053 53.348C182.485 53.196 182.929 53.12 183.385 53.12C183.473 53.12 183.557 53.124 183.637 53.132C183.725 53.132 183.809 53.136 183.889 53.144V61.772ZM187.982 55.94C188.534 55.94 188.974 56.092 189.302 56.396C189.63 56.692 189.842 57.172 189.938 57.836H190.022C190.134 57.836 190.258 57.816 190.394 57.776C190.538 57.736 190.686 57.684 190.838 57.62C190.99 57.556 191.138 57.48 191.282 57.392C191.426 57.304 191.554 57.212 191.666 57.116L191.846 57.44C191.758 57.568 191.646 57.684 191.51 57.788C191.382 57.892 191.234 57.988 191.066 58.076C190.898 58.156 190.722 58.228 190.538 58.292C190.354 58.348 190.17 58.392 189.986 58.424C189.994 58.48 189.998 58.536 189.998 58.592C189.998 58.64 189.998 58.692 189.998 58.748C189.998 59.212 189.958 59.648 189.878 60.056C189.798 60.456 189.662 60.808 189.47 61.112C189.286 61.408 189.046 61.644 188.75 61.82C188.454 61.988 188.09 62.072 187.658 62.072C187.362 62.072 187.078 62.028 186.806 61.94C186.542 61.844 186.306 61.692 186.098 61.484C185.89 61.268 185.722 60.988 185.594 60.644C185.474 60.292 185.414 59.864 185.414 59.36C185.414 59.016 185.45 58.648 185.522 58.256C185.594 57.856 185.726 57.484 185.918 57.14C186.11 56.796 186.37 56.512 186.698 56.288C187.034 56.056 187.462 55.94 187.982 55.94ZM187.994 60.944C188.162 60.944 188.306 60.888 188.426 60.776C188.554 60.656 188.658 60.496 188.738 60.296C188.818 60.088 188.874 59.844 188.906 59.564C188.946 59.284 188.966 58.98 188.966 58.652V58.472C188.766 58.432 188.638 58.356 188.582 58.244C188.526 58.132 188.498 58.008 188.498 57.872C188.498 57.704 188.526 57.576 188.582 57.488C188.638 57.4 188.71 57.34 188.798 57.308C188.71 57.036 188.602 56.86 188.474 56.78C188.354 56.7 188.25 56.66 188.162 56.66C187.986 56.66 187.834 56.744 187.706 56.912C187.586 57.072 187.486 57.28 187.406 57.536C187.326 57.784 187.266 58.06 187.226 58.364C187.194 58.668 187.178 58.96 187.178 59.24C187.178 59.6 187.202 59.892 187.25 60.116C187.306 60.34 187.374 60.512 187.454 60.632C187.534 60.752 187.622 60.836 187.718 60.884C187.814 60.924 187.906 60.944 187.994 60.944ZM200.984 59.852C200.759 60.188 200.523 60.468 200.276 60.692C200.035 60.916 199.803 61.108 199.579 61.268C199.427 61.564 199.203 61.772 198.907 61.892C198.619 62.012 198.323 62.072 198.019 62.072C197.659 62.072 197.351 62.024 197.095 61.928C196.839 61.824 196.627 61.688 196.459 61.52C196.299 61.344 196.179 61.144 196.099 60.92C196.019 60.696 195.979 60.46 195.979 60.212C195.979 59.94 196.043 59.728 196.171 59.576C196.299 59.416 196.451 59.336 196.627 59.336C197.123 59.336 197.371 59.532 197.371 59.924C197.371 60.052 197.327 60.16 197.239 60.248C197.151 60.336 197.039 60.38 196.903 60.38C196.839 60.38 196.771 60.372 196.699 60.356C196.635 60.332 196.583 60.288 196.543 60.224C196.607 60.504 196.711 60.724 196.855 60.884C197.007 61.044 197.199 61.124 197.431 61.124C197.631 61.124 197.779 61.076 197.875 60.98C197.971 60.876 198.019 60.7 198.019 60.452C198.019 60.188 197.995 59.952 197.947 59.744C197.908 59.528 197.843 59.292 197.755 59.036C197.667 58.78 197.559 58.476 197.431 58.124C197.303 57.764 197.159 57.3 197 56.732C196.632 57.548 196.123 58.084 195.475 58.34C195.483 58.412 195.487 58.484 195.487 58.556C195.495 58.628 195.499 58.704 195.499 58.784C195.499 59.136 195.463 59.508 195.391 59.9C195.319 60.284 195.183 60.64 194.983 60.968C194.791 61.288 194.523 61.552 194.179 61.76C193.843 61.968 193.407 62.072 192.871 62.072C192.191 62.072 191.691 61.904 191.371 61.568C191.051 61.232 190.891 60.78 190.891 60.212V53.84L192.619 53.6V56.3C192.835 56.148 193.011 56.052 193.147 56.012C193.283 55.964 193.419 55.94 193.555 55.94C194.011 55.94 194.399 56.096 194.719 56.408C195.047 56.712 195.275 57.16 195.403 57.752C195.667 57.672 195.911 57.472 196.135 57.152C196.359 56.832 196.571 56.404 196.771 55.868L198.5 55.628C198.699 56.404 198.875 57.032 199.027 57.512C199.179 57.992 199.307 58.4 199.411 58.736C199.523 59.064 199.607 59.352 199.664 59.6C199.727 59.848 199.759 60.128 199.759 60.44C199.895 60.352 200.027 60.256 200.156 60.152C200.283 60.04 200.391 59.94 200.479 59.852H200.984ZM194.263 58.892C194.263 58.812 194.259 58.736 194.251 58.664C194.251 58.592 194.247 58.52 194.239 58.448C194.023 58.344 193.915 58.124 193.915 57.788C193.915 57.644 193.947 57.528 194.011 57.44C193.923 57.24 193.811 57.088 193.675 56.984C193.547 56.872 193.403 56.816 193.243 56.816C193.147 56.816 193.035 56.836 192.907 56.876C192.779 56.908 192.683 56.96 192.619 57.032V60.2C192.619 60.456 192.675 60.64 192.787 60.752C192.899 60.856 193.043 60.908 193.219 60.908C193.427 60.908 193.599 60.848 193.735 60.728C193.871 60.6 193.975 60.44 194.047 60.248C194.127 60.048 194.183 59.832 194.215 59.6C194.247 59.36 194.263 59.124 194.263 58.892ZM202.053 54.104V56H202.785V56.48H202.053V60.08C202.053 60.416 202.097 60.64 202.185 60.752C202.281 60.856 202.445 60.908 202.677 60.908C202.909 60.908 203.101 60.808 203.253 60.608C203.413 60.408 203.505 60.156 203.529 59.852H204.033C203.969 60.34 203.857 60.732 203.697 61.028C203.537 61.316 203.357 61.54 203.157 61.7C202.957 61.852 202.753 61.952 202.545 62C202.337 62.048 202.153 62.072 201.993 62.072C201.377 62.072 200.945 61.904 200.697 61.568C200.449 61.224 200.325 60.772 200.325 60.212V56.48H199.941V56H200.325V54.344L202.053 54.104ZM206.26 61.064C206.5 61.064 206.712 61.032 206.896 60.968C207.08 60.904 207.244 60.82 207.388 60.716C207.532 60.604 207.664 60.476 207.784 60.332C207.904 60.18 208.02 60.02 208.132 59.852H208.54C208.428 60.132 208.292 60.404 208.132 60.668C207.98 60.932 207.788 61.168 207.556 61.376C207.332 61.584 207.068 61.752 206.764 61.88C206.46 62.008 206.104 62.072 205.696 62.072C205.352 62.072 205.036 62.02 204.748 61.916C204.46 61.812 204.208 61.652 203.992 61.436C203.784 61.212 203.62 60.928 203.5 60.584C203.388 60.232 203.332 59.812 203.332 59.324C203.332 58.98 203.368 58.612 203.44 58.22C203.52 57.82 203.656 57.452 203.848 57.116C204.04 56.78 204.3 56.5 204.628 56.276C204.956 56.052 205.372 55.94 205.876 55.94C206.26 55.94 206.556 56 206.764 56.12C206.972 56.24 207.124 56.38 207.22 56.54C207.324 56.7 207.384 56.856 207.4 57.008C207.424 57.16 207.436 57.268 207.436 57.332C207.436 57.692 207.368 58.008 207.232 58.28C207.104 58.552 206.928 58.784 206.704 58.976C206.488 59.16 206.236 59.304 205.948 59.408C205.668 59.504 205.38 59.56 205.084 59.576C205.092 60.112 205.18 60.496 205.348 60.728C205.524 60.952 205.828 61.064 206.26 61.064ZM206.512 57.344C206.512 57.064 206.464 56.868 206.368 56.756C206.272 56.636 206.168 56.576 206.056 56.576C205.92 56.576 205.796 56.644 205.684 56.78C205.572 56.908 205.472 57.084 205.384 57.308C205.304 57.524 205.236 57.78 205.18 58.076C205.132 58.372 205.1 58.68 205.084 59C205.284 58.984 205.472 58.932 205.648 58.844C205.824 58.748 205.976 58.628 206.104 58.484C206.232 58.332 206.332 58.16 206.404 57.968C206.476 57.776 206.512 57.568 206.512 57.344ZM209.858 56V56.744C210.034 56.536 210.23 56.352 210.446 56.192C210.662 56.024 210.898 55.94 211.154 55.94C211.306 55.94 211.442 55.972 211.562 56.036C211.69 56.1 211.798 56.184 211.886 56.288C211.982 56.392 212.054 56.508 212.102 56.636C212.158 56.756 212.186 56.88 212.186 57.008C212.186 57.184 212.13 57.348 212.018 57.5C211.914 57.644 211.738 57.716 211.49 57.716C211.306 57.716 211.178 57.676 211.106 57.596C211.034 57.516 210.978 57.432 210.938 57.344C210.898 57.248 210.854 57.16 210.806 57.08C210.766 57 210.69 56.96 210.578 56.96C210.458 56.96 210.338 57.008 210.218 57.104C210.106 57.192 209.986 57.304 209.858 57.44V62H208.13V56H209.858Z" fill="white"/>
</g>
<g filter="url(#filter3_d)">
<path d="M187.702 93.7975L186.996 96.5494L184.416 96.6064C183.645 95.1129 183.207 93.4042 183.207 91.5885C183.207 89.8327 183.616 88.1769 184.341 86.7189H184.342L186.639 87.1587L187.645 89.5429C187.434 90.1841 187.319 90.8723 187.319 91.5885C187.319 92.3657 187.454 93.1105 187.702 93.7975Z" fill="#FBBB00"/>
<path d="M203.31 89.6104C203.426 90.2509 203.487 90.9124 203.487 91.5884C203.487 92.3465 203.41 93.0859 203.265 93.7992C202.771 96.2264 201.482 98.3459 199.695 99.8457L199.694 99.8451L196.801 99.691L196.392 97.0217C197.577 96.2957 198.504 95.1594 198.992 93.7992H193.57V89.6104H199.071H203.31Z" fill="#518EF8"/>
<path d="M199.694 99.8452L199.695 99.8457C197.957 101.304 195.75 102.177 193.347 102.177C189.486 102.177 186.128 99.9231 184.416 96.6064L187.702 93.7975C188.558 96.184 190.762 97.8828 193.347 97.8828C194.458 97.8828 195.499 97.5692 196.392 97.0218L199.694 99.8452Z" fill="#28B446"/>
<path d="M199.819 83.4377L196.534 86.2459C195.61 85.6426 194.518 85.2941 193.347 85.2941C190.704 85.2941 188.458 87.0709 187.645 89.5429L184.342 86.7189H184.341C186.029 83.3213 189.428 81 193.347 81C195.807 81 198.063 81.9152 199.819 83.4377Z" fill="#F14336"/>
<path d="M167 115H224.683M185.953 110.307H208.752M176.339 112.959H216.443M192.545 107.858H199.962" stroke="#3F98BB"/>
</g>
<g filter="url(#filter4_d)">
<path d="M11.7381 96.392C11.3648 96.392 11.0075 96.3387 10.6661 96.232C10.3355 96.136 10.0475 95.9227 9.80213 95.592C9.83413 95.336 9.9088 94.9627 10.0261 94.472C10.1541 93.9813 10.3088 93.4267 10.4901 92.808C10.6715 92.1787 10.8635 91.5333 11.0661 90.872C11.2688 90.2107 11.4661 89.5813 11.6581 88.984C11.8608 88.376 12.0368 87.848 12.1861 87.4C12.3461 86.9413 12.4635 86.6107 12.5381 86.408C12.5701 86.3227 12.6235 86.1947 12.6981 86.024C12.7728 85.8533 12.8688 85.6773 12.9861 85.496C13.1035 85.3147 13.2368 85.1653 13.3861 85.048C13.5461 84.92 13.7168 84.856 13.8981 84.856C14.0795 84.856 14.2821 84.9307 14.5061 85.08C14.1755 85.8267 13.8395 86.6587 13.4981 87.576C13.1675 88.4827 12.8475 89.4213 12.5381 90.392C12.2395 91.352 11.9621 92.2907 11.7061 93.208C11.4608 94.1147 11.2581 94.9467 11.0981 95.704C11.1835 95.736 11.3008 95.7573 11.4501 95.768C11.6101 95.7893 11.7595 95.8 11.8981 95.8C12.5915 95.8 13.2528 95.6293 13.8821 95.288C14.5115 94.9573 15.0875 94.5147 15.6101 93.96C16.1435 93.3947 16.6075 92.7653 17.0021 92.072C17.3968 91.368 17.7008 90.648 17.9141 89.912C18.1275 89.176 18.2341 88.472 18.2341 87.8C18.2341 86.936 18.0848 86.2373 17.7861 85.704C17.4981 85.16 17.0981 84.7653 16.5861 84.52C16.0741 84.264 15.4875 84.136 14.8261 84.136C14.1328 84.136 13.5088 84.264 12.9541 84.52C12.3995 84.7653 11.9621 85.1067 11.6421 85.544C11.3328 85.9707 11.1781 86.4613 11.1781 87.016C11.1781 87.1333 11.1888 87.2613 11.2101 87.4C11.2315 87.528 11.2688 87.656 11.3221 87.784C10.8635 87.784 10.5328 87.688 10.3301 87.496C10.1381 87.2933 10.0421 87.048 10.0421 86.76C10.0421 86.3867 10.1755 86.008 10.4421 85.624C10.7195 85.24 11.0981 84.888 11.5781 84.568C12.0688 84.2373 12.6341 83.976 13.2741 83.784C13.9141 83.5813 14.6075 83.48 15.3541 83.48C16.3995 83.48 17.2368 83.6827 17.8661 84.088C18.4955 84.4827 18.9488 85.0213 19.2261 85.704C19.5141 86.376 19.6581 87.128 19.6581 87.96C19.6581 88.8773 19.5088 89.7573 19.2101 90.6C18.9221 91.432 18.5168 92.2 17.9941 92.904C17.4821 93.608 16.8848 94.2213 16.2021 94.744C15.5301 95.2667 14.8101 95.672 14.0421 95.96C13.2848 96.248 12.5168 96.392 11.7381 96.392ZM20.3594 95.752C20.0074 95.752 19.7034 95.6347 19.4474 95.4C19.1807 95.1653 19.0474 94.8133 19.0474 94.344C19.0474 93.9707 19.1327 93.5653 19.3034 93.128C19.474 92.6907 19.7087 92.2587 20.0074 91.832C20.306 91.4053 20.6474 91.0213 21.0314 90.68C21.4154 90.328 21.826 90.0453 22.2634 89.832C22.7007 89.6187 23.138 89.512 23.5754 89.512C24.034 89.512 24.4234 89.6293 24.7434 89.864C25.0634 90.0987 25.2234 90.408 25.2234 90.792C25.2234 91.08 25.122 91.288 24.9194 91.416C24.7167 91.544 24.4767 91.5813 24.1994 91.528C24.2207 91.432 24.2367 91.336 24.2474 91.24C24.2687 91.144 24.2794 91.0427 24.2794 90.936C24.2794 90.7227 24.2367 90.5307 24.1514 90.36C24.066 90.1893 23.8847 90.104 23.6074 90.104C23.3087 90.104 23.0047 90.2053 22.6954 90.408C22.386 90.6107 22.0874 90.8773 21.7994 91.208C21.522 91.528 21.2714 91.8853 21.0474 92.28C20.8234 92.664 20.6474 93.0427 20.5194 93.416C20.3914 93.7893 20.3274 94.1253 20.3274 94.424C20.3274 94.7653 20.45 94.936 20.6954 94.936C20.9407 94.936 21.2127 94.8187 21.5114 94.584C21.81 94.3387 22.1087 94.0347 22.4074 93.672C22.7167 93.3093 23.01 92.9413 23.2874 92.568C23.5647 92.184 23.8047 91.8587 24.0074 91.592C24.0394 91.5387 24.082 91.512 24.1354 91.512C24.178 91.5227 24.258 91.5493 24.3754 91.592C24.5034 91.624 24.6207 91.6773 24.7274 91.752C24.834 91.8267 24.8874 91.9227 24.8874 92.04C24.8874 92.1787 24.8127 92.3707 24.6634 92.616C24.514 92.8507 24.3594 93.1067 24.1994 93.384C24.05 93.6613 23.9754 93.9173 23.9754 94.152C23.9754 94.2907 24.0127 94.424 24.0874 94.552C24.162 94.6693 24.2847 94.728 24.4554 94.728C24.7114 94.728 25.0687 94.5413 25.5274 94.168C25.9967 93.784 26.4714 93.1387 26.9514 92.232L27.2554 92.536C26.8607 93.4107 26.37 94.12 25.7834 94.664C25.1967 95.208 24.6047 95.48 24.0074 95.48C23.57 95.48 23.2447 95.3413 23.0314 95.064C22.818 94.7867 22.7007 94.488 22.6794 94.168V94.088C22.2527 94.6 21.858 95.0053 21.4954 95.304C21.1434 95.6027 20.7647 95.752 20.3594 95.752ZM31.9648 95.32C31.5488 95.32 31.2288 95.2133 31.0048 95C30.7914 94.7973 30.6848 94.536 30.6848 94.216C30.6848 94.0027 30.7221 93.7787 30.7968 93.544C30.8714 93.2987 30.9461 93.0533 31.0208 92.808C31.0954 92.5627 31.1328 92.328 31.1328 92.104C31.1328 91.8693 31.0741 91.7093 30.9568 91.624C30.8501 91.528 30.7221 91.48 30.5728 91.48C30.2528 91.48 29.9221 91.6133 29.5808 91.88C29.2501 92.136 28.9248 92.4613 28.6048 92.856C28.2954 93.2507 28.0021 93.6613 27.7248 94.088C27.4474 94.5147 27.2074 94.8987 27.0048 95.24C26.8021 95.24 26.6101 95.2027 26.4288 95.128C26.2474 95.064 26.0928 94.9467 25.9648 94.776C25.9754 94.7227 26.0394 94.5627 26.1568 94.296C26.2634 94.0187 26.3861 93.6933 26.5248 93.32C26.6634 92.936 26.7861 92.536 26.8928 92.12C26.9994 91.704 27.0528 91.3253 27.0528 90.984C27.1274 90.8987 27.2394 90.8133 27.3888 90.728C27.5488 90.6427 27.7141 90.6 27.8848 90.6C28.2581 90.6 28.4448 90.76 28.4448 91.08C28.4448 91.368 28.3541 91.8427 28.1728 92.504C28.4501 92.1307 28.7541 91.7787 29.0848 91.448C29.4154 91.1173 29.7568 90.8507 30.1088 90.648C30.4714 90.4347 30.8341 90.328 31.1968 90.328C31.6554 90.328 31.9914 90.4827 32.2048 90.792C32.4288 91.1013 32.5408 91.4427 32.5408 91.816C32.5408 92.136 32.4874 92.4347 32.3808 92.712C32.2741 92.9893 32.1674 93.2507 32.0608 93.496C31.9648 93.7413 31.9168 93.9813 31.9168 94.216C31.9168 94.3867 31.9541 94.5093 32.0288 94.584C32.1141 94.648 32.2048 94.68 32.3008 94.68C32.5568 94.68 32.8234 94.5573 33.1008 94.312C33.3781 94.0667 33.6394 93.7573 33.8848 93.384C34.1408 93 34.3648 92.616 34.5568 92.232L34.8288 92.456C34.6048 92.9787 34.3488 93.4587 34.0608 93.896C33.7834 94.3227 33.4688 94.6693 33.1168 94.936C32.7754 95.192 32.3914 95.32 31.9648 95.32ZM35.9433 95.896C35.3886 95.896 34.9299 95.72 34.5673 95.368C34.2153 95.0267 34.0393 94.4987 34.0393 93.784C34.0393 93.2613 34.1406 92.7493 34.3433 92.248C34.5459 91.7467 34.8179 91.2987 35.1593 90.904C35.5006 90.4987 35.8793 90.1787 36.2953 89.944C36.7219 89.7093 37.1539 89.592 37.5913 89.592C38.0393 89.592 38.3593 89.704 38.5513 89.928C38.7539 90.152 38.8553 90.4133 38.8553 90.712C38.8553 91.0107 38.7806 91.304 38.6313 91.592C38.4926 91.8693 38.3006 92.008 38.0553 92.008C37.8526 92.008 37.6873 91.9067 37.5593 91.704C37.6659 91.6293 37.7779 91.4907 37.8953 91.288C38.0126 91.0853 38.0713 90.824 38.0713 90.504C38.0713 90.3227 37.9699 90.232 37.7673 90.232C37.5006 90.232 37.2179 90.3547 36.9193 90.6C36.6313 90.8347 36.3593 91.144 36.1033 91.528C35.8579 91.9013 35.6553 92.3013 35.4953 92.728C35.3459 93.144 35.2713 93.528 35.2713 93.88C35.2713 94.1787 35.3459 94.456 35.4953 94.712C35.6553 94.9573 35.9593 95.08 36.4073 95.08C36.8126 95.08 37.2339 94.9627 37.6713 94.728C38.1086 94.4933 38.5193 94.168 38.9033 93.752C39.2873 93.3253 39.5966 92.8187 39.8313 92.232L40.1513 92.52C39.8953 93.1707 39.5379 93.752 39.0793 94.264C38.6313 94.7653 38.1299 95.16 37.5753 95.448C37.0313 95.7467 36.4873 95.896 35.9433 95.896ZM42.6314 88.264C42.4287 88.264 42.242 88.216 42.0714 88.12C41.9114 88.0133 41.8314 87.8533 41.8314 87.64C41.8314 87.384 41.97 87.1653 42.2474 86.984C42.5247 86.8027 42.8127 86.712 43.1114 86.712C43.3034 86.712 43.4634 86.7547 43.5914 86.84C43.73 86.9253 43.7994 87.08 43.7994 87.304C43.7994 87.528 43.6767 87.7467 43.4314 87.96C43.186 88.1627 42.9194 88.264 42.6314 88.264ZM40.7434 95.48C40.274 95.48 39.922 95.3413 39.6874 95.064C39.4527 94.7867 39.3354 94.4507 39.3354 94.056C39.3354 93.8107 39.378 93.5013 39.4634 93.128C39.5487 92.7547 39.666 92.3653 39.8154 91.96C39.9754 91.544 40.1567 91.1547 40.3594 90.792C40.562 90.4293 40.7807 90.136 41.0154 89.912C41.25 89.6773 41.4847 89.56 41.7194 89.56C41.8474 89.56 41.9594 89.6027 42.0554 89.688C42.1514 89.7627 42.1994 89.8747 42.1994 90.024C42.1994 90.1627 42.114 90.3707 41.9434 90.648C41.7834 90.9253 41.5914 91.2453 41.3674 91.608C41.154 91.9707 40.962 92.3493 40.7914 92.744C40.6314 93.128 40.5514 93.496 40.5514 93.848C40.5514 94.1893 40.61 94.4187 40.7274 94.536C40.8554 94.6427 41.0367 94.696 41.2714 94.696C41.634 94.696 42.0287 94.5147 42.4554 94.152C42.882 93.7893 43.3247 93.1547 43.7834 92.248L44.0234 92.504C43.65 93.4427 43.1754 94.1733 42.5994 94.696C42.0234 95.2187 41.4047 95.48 40.7434 95.48ZM48.7616 95.32C48.3456 95.32 48.0256 95.2133 47.8016 95C47.5883 94.7973 47.4816 94.536 47.4816 94.216C47.4816 94.0027 47.519 93.7787 47.5936 93.544C47.6683 93.2987 47.743 93.0533 47.8176 92.808C47.8923 92.5627 47.9296 92.328 47.9296 92.104C47.9296 91.8693 47.871 91.7093 47.7536 91.624C47.647 91.528 47.519 91.48 47.3696 91.48C47.0496 91.48 46.719 91.6133 46.3776 91.88C46.047 92.136 45.7216 92.4613 45.4016 92.856C45.0923 93.2507 44.799 93.6613 44.5216 94.088C44.2443 94.5147 44.0043 94.8987 43.8016 95.24C43.599 95.24 43.407 95.2027 43.2256 95.128C43.0443 95.064 42.8896 94.9467 42.7616 94.776C42.7723 94.7227 42.8363 94.5627 42.9536 94.296C43.0603 94.0187 43.183 93.6933 43.3216 93.32C43.4603 92.936 43.583 92.536 43.6896 92.12C43.7963 91.704 43.8496 91.3253 43.8496 90.984C43.9243 90.8987 44.0363 90.8133 44.1856 90.728C44.3456 90.6427 44.511 90.6 44.6816 90.6C45.055 90.6 45.2416 90.76 45.2416 91.08C45.2416 91.368 45.151 91.8427 44.9696 92.504C45.247 92.1307 45.551 91.7787 45.8816 91.448C46.2123 91.1173 46.5536 90.8507 46.9056 90.648C47.2683 90.4347 47.631 90.328 47.9936 90.328C48.4523 90.328 48.7883 90.4827 49.0016 90.792C49.2256 91.1013 49.3376 91.4427 49.3376 91.816C49.3376 92.136 49.2843 92.4347 49.1776 92.712C49.071 92.9893 48.9643 93.2507 48.8576 93.496C48.7616 93.7413 48.7136 93.9813 48.7136 94.216C48.7136 94.3867 48.751 94.5093 48.8256 94.584C48.911 94.648 49.0016 94.68 49.0976 94.68C49.3536 94.68 49.6203 94.5573 49.8976 94.312C50.175 94.0667 50.4363 93.7573 50.6816 93.384C50.9376 93 51.1616 92.616 51.3536 92.232L51.6256 92.456C51.4016 92.9787 51.1456 93.4587 50.8576 93.896C50.5803 94.3227 50.2656 94.6693 49.9136 94.936C49.5723 95.192 49.1883 95.32 48.7616 95.32ZM51.7321 99.48C51.4655 99.48 51.2148 99.4 50.9801 99.24C50.7561 99.08 50.6441 98.8187 50.6441 98.456C50.6441 98.1147 50.7401 97.8053 50.9321 97.528C51.1348 97.2613 51.3961 97.0107 51.7161 96.776C52.0468 96.552 52.3988 96.344 52.7721 96.152C53.1455 95.96 53.5081 95.7787 53.8601 95.608C53.9775 95.32 54.0895 95.0107 54.1961 94.68C54.3028 94.3493 54.4041 93.992 54.5001 93.608C54.1268 94.0773 53.7321 94.4667 53.3161 94.776C52.9108 95.0853 52.4948 95.24 52.0681 95.24C51.6415 95.24 51.3001 95.0907 51.0441 94.792C50.7988 94.4933 50.6761 94.0987 50.6761 93.608C50.6761 93.0427 50.8148 92.5147 51.0921 92.024C51.3801 91.5227 51.7481 91.08 52.1961 90.696C52.6441 90.3013 53.1241 89.9973 53.6361 89.784C54.1481 89.56 54.6388 89.448 55.1081 89.448C55.4495 89.448 55.7055 89.512 55.8761 89.64C56.0468 89.7573 56.1321 89.896 56.1321 90.056C56.1321 90.184 56.0948 90.2853 56.0201 90.36C55.9455 90.4347 55.8975 90.4773 55.8761 90.488C55.7695 90.3707 55.6575 90.296 55.5401 90.264C55.4335 90.2213 55.3055 90.2 55.1561 90.2C54.7401 90.2 54.3401 90.3173 53.9561 90.552C53.5721 90.7867 53.2308 91.0907 52.9321 91.464C52.6441 91.8267 52.4148 92.2053 52.2441 92.6C52.0735 92.9947 51.9881 93.352 51.9881 93.672C51.9881 93.8853 52.0361 94.0507 52.1321 94.168C52.2281 94.2747 52.3455 94.328 52.4841 94.328C52.7828 94.328 53.1455 94.136 53.5721 93.752C53.9988 93.3573 54.4095 92.8827 54.8041 92.328C54.8361 92.168 54.8681 92.024 54.9001 91.896C55.0068 91.4693 55.1348 91.1547 55.2841 90.952C55.4335 90.7493 55.6415 90.648 55.9081 90.648C55.9615 90.648 56.0255 90.6533 56.1001 90.664C56.1855 90.6747 56.2761 90.6907 56.3721 90.712C56.3721 90.904 56.3188 91.2187 56.2121 91.656C56.1055 92.0933 55.9615 92.6053 55.7801 93.192C55.5988 93.768 55.3961 94.36 55.1721 94.968C55.5028 94.8293 55.8388 94.6373 56.1801 94.392C56.5215 94.136 56.8361 93.832 57.1241 93.48C57.4121 93.1173 57.6308 92.7173 57.7801 92.28L58.0681 92.568C57.8975 93.0587 57.6308 93.5067 57.2681 93.912C56.9161 94.3173 56.5321 94.6693 56.1161 94.968C55.7001 95.256 55.3161 95.48 54.9641 95.64C54.6761 96.344 54.3615 96.984 54.0201 97.56C53.6895 98.1467 53.3321 98.6107 52.9481 98.952C52.5748 99.304 52.1695 99.48 51.7321 99.48ZM51.6681 98.744C51.8601 98.744 52.1215 98.5627 52.4521 98.2C52.7935 97.8373 53.1615 97.224 53.5561 96.36C53.1615 96.552 52.7988 96.7493 52.4681 96.952C52.1375 97.1547 51.8708 97.368 51.6681 97.592C51.4655 97.816 51.3641 98.0507 51.3641 98.296C51.3641 98.5947 51.4655 98.744 51.6681 98.744Z" fill="black"/>
<path d="M65.1624 96.74C64.3891 96.74 63.6491 96.6067 62.9424 96.34C62.2491 96.0733 61.6824 95.6667 61.2424 95.12C60.8024 94.5733 60.5824 93.8933 60.5824 93.08C60.5824 92.36 60.7424 91.8 61.0624 91.4C61.3824 90.9867 61.7824 90.7 62.2624 90.54C62.7424 90.38 63.2091 90.3 63.6624 90.3C63.2358 90.7533 62.9091 91.22 62.6824 91.7C62.4691 92.18 62.3624 92.64 62.3624 93.08C62.3624 93.5333 62.4758 93.96 62.7024 94.36C62.9424 94.7467 63.2958 95.06 63.7624 95.3C64.2291 95.5533 64.8091 95.68 65.5024 95.68C66.1024 95.68 66.6824 95.58 67.2424 95.38C67.8158 95.18 68.2824 94.88 68.6424 94.48C69.0158 94.08 69.2024 93.58 69.2024 92.98C69.2024 92.4333 69.0424 91.9667 68.7224 91.58C68.4158 91.18 68.0158 90.8267 67.5224 90.52C67.0291 90.2 66.5091 89.9 65.9624 89.62C65.4158 89.3267 64.8958 89.0133 64.4024 88.68C63.9091 88.3467 63.5024 87.96 63.1824 87.52C62.8758 87.08 62.7224 86.5533 62.7224 85.94C62.7224 85.3933 62.8558 84.8133 63.1224 84.2C63.4024 83.5733 63.7958 82.9867 64.3024 82.44C64.8091 81.8933 65.4224 81.4533 66.1424 81.12C66.8624 80.7733 67.6624 80.6 68.5424 80.6C69.4624 80.6 70.1091 80.7933 70.4824 81.18C70.8558 81.5667 71.0424 82.0733 71.0424 82.7C71.0424 83.1933 70.9558 83.72 70.7824 84.28C70.6091 84.84 70.3958 85.3733 70.1424 85.88C69.9024 86.3867 69.6691 86.82 69.4424 87.18C68.8558 87.06 68.5624 86.72 68.5624 86.16C68.5624 85.88 68.6158 85.5667 68.7224 85.22C68.8424 84.8733 68.9758 84.5133 69.1224 84.14C69.2824 83.7667 69.4158 83.4067 69.5224 83.06C69.6424 82.7 69.7024 82.3867 69.7024 82.12C69.7024 81.88 69.6291 81.6933 69.4824 81.56C69.3491 81.4267 69.0691 81.36 68.6424 81.36C68.0024 81.36 67.4158 81.5 66.8824 81.78C66.3491 82.06 65.8824 82.4133 65.4824 82.84C65.0958 83.2667 64.7958 83.72 64.5824 84.2C64.3691 84.6667 64.2624 85.0933 64.2624 85.48C64.2624 85.96 64.4158 86.3733 64.7224 86.72C65.0291 87.0533 65.4224 87.36 65.9024 87.64C66.3958 87.92 66.9091 88.2 67.4424 88.48C67.9891 88.76 68.5024 89.0733 68.9824 89.42C69.4758 89.7667 69.8758 90.18 70.1824 90.66C70.4891 91.14 70.6424 91.7267 70.6424 92.42C70.6424 93.1133 70.4824 93.7267 70.1624 94.26C69.8558 94.7933 69.4358 95.24 68.9024 95.6C68.3691 95.9733 67.7758 96.2533 67.1224 96.44C66.4824 96.64 65.8291 96.74 65.1624 96.74ZM74.1101 96.12C73.4168 96.12 72.8434 95.9 72.3901 95.46C71.9501 95.0333 71.7301 94.3733 71.7301 93.48C71.7301 92.8267 71.8568 92.1867 72.1101 91.56C72.3634 90.9333 72.7034 90.3733 73.1301 89.88C73.5568 89.3733 74.0301 88.9733 74.5501 88.68C75.0834 88.3867 75.6234 88.24 76.1701 88.24C76.7301 88.24 77.1301 88.38 77.3701 88.66C77.6234 88.94 77.7501 89.2667 77.7501 89.64C77.7501 90.0133 77.6568 90.38 77.4701 90.74C77.2968 91.0867 77.0568 91.26 76.7501 91.26C76.4968 91.26 76.2901 91.1333 76.1301 90.88C76.2634 90.7867 76.4034 90.6133 76.5501 90.36C76.6968 90.1067 76.7701 89.78 76.7701 89.38C76.7701 89.1533 76.6434 89.04 76.3901 89.04C76.0568 89.04 75.7034 89.1933 75.3301 89.5C74.9701 89.7933 74.6301 90.18 74.3101 90.66C74.0034 91.1267 73.7501 91.6267 73.5501 92.16C73.3634 92.68 73.2701 93.16 73.2701 93.6C73.2701 93.9733 73.3634 94.32 73.5501 94.64C73.7501 94.9467 74.1301 95.1 74.6901 95.1C75.1968 95.1 75.7234 94.9533 76.2701 94.66C76.8168 94.3667 77.3301 93.96 77.8101 93.44C78.2901 92.9067 78.6768 92.2733 78.9701 91.54L79.3701 91.9C79.0501 92.7133 78.6034 93.44 78.0301 94.08C77.4701 94.7067 76.8434 95.2 76.1501 95.56C75.4701 95.9333 74.7901 96.12 74.1101 96.12ZM82.2103 95.52C81.7169 95.52 81.3169 95.3867 81.0103 95.12C80.7036 94.8667 80.5503 94.52 80.5503 94.08C80.5503 93.7067 80.6436 93.3067 80.8303 92.88C81.0169 92.4533 81.2036 92.0333 81.3903 91.62C81.5903 91.2067 81.6903 90.84 81.6903 90.52C81.6903 90.2133 81.5903 89.96 81.3903 89.76C81.1903 89.5467 80.9569 89.3733 80.6903 89.24C80.3969 89.9733 80.0636 90.6867 79.6903 91.38C79.3303 92.06 79.0369 92.5933 78.8103 92.98L78.5103 92.4C78.6969 92.0533 78.9436 91.56 79.2503 90.92C79.5569 90.28 79.8503 89.5667 80.1303 88.78C79.9969 88.6467 79.9303 88.4667 79.9303 88.24C79.9303 87.8933 80.0369 87.5667 80.2503 87.26C80.4636 86.9533 80.6703 86.8 80.8703 86.8C81.0303 86.8 81.1436 86.8933 81.2103 87.08C81.2903 87.2533 81.3303 87.3733 81.3303 87.44C81.3303 87.5067 81.2969 87.6267 81.2303 87.8C81.1769 87.9733 81.1369 88.1 81.1103 88.18C81.1236 88.3267 81.2369 88.4733 81.4503 88.62C81.6769 88.7533 81.9303 88.9133 82.2103 89.1C82.4903 89.2867 82.7369 89.52 82.9503 89.8C83.1636 90.08 83.2703 90.4333 83.2703 90.86C83.2703 91.2467 83.1836 91.64 83.0103 92.04C82.8369 92.44 82.6636 92.8133 82.4903 93.16C82.3169 93.5067 82.2303 93.8067 82.2303 94.06C82.2303 94.2467 82.2769 94.3733 82.3703 94.44C82.4769 94.4933 82.5969 94.52 82.7303 94.52C83.0503 94.52 83.3836 94.4267 83.7303 94.24C84.0769 94.04 84.4169 93.7867 84.7503 93.48C85.0836 93.1733 85.3769 92.8533 85.6303 92.52C85.8836 92.1733 86.0769 91.86 86.2103 91.58L86.6903 91.94C86.4369 92.5133 86.0703 93.08 85.5903 93.64C85.1103 94.1867 84.5769 94.64 83.9903 95C83.4036 95.3467 82.8103 95.52 82.2103 95.52ZM89.7359 86.58C89.4825 86.58 89.2492 86.52 89.0359 86.4C88.8359 86.2667 88.7359 86.0667 88.7359 85.8C88.7359 85.48 88.9092 85.2067 89.2559 84.98C89.6025 84.7533 89.9625 84.64 90.3359 84.64C90.5759 84.64 90.7759 84.6933 90.9359 84.8C91.1092 84.9067 91.1959 85.1 91.1959 85.38C91.1959 85.66 91.0425 85.9333 90.7359 86.2C90.4292 86.4533 90.0959 86.58 89.7359 86.58ZM87.3759 95.6C86.7892 95.6 86.3492 95.4267 86.0559 95.08C85.7625 94.7333 85.6159 94.3133 85.6159 93.82C85.6159 93.5133 85.6692 93.1267 85.7759 92.66C85.8825 92.1933 86.0292 91.7067 86.2159 91.2C86.4159 90.68 86.6425 90.1933 86.8959 89.74C87.1492 89.2867 87.4225 88.92 87.7159 88.64C88.0092 88.3467 88.3025 88.2 88.5959 88.2C88.7559 88.2 88.8959 88.2533 89.0159 88.36C89.1359 88.4533 89.1959 88.5933 89.1959 88.78C89.1959 88.9533 89.0892 89.2133 88.8759 89.56C88.6759 89.9067 88.4359 90.3067 88.1559 90.76C87.8892 91.2133 87.6492 91.6867 87.4359 92.18C87.2359 92.66 87.1359 93.12 87.1359 93.56C87.1359 93.9867 87.2092 94.2733 87.3559 94.42C87.5159 94.5533 87.7425 94.62 88.0359 94.62C88.4892 94.62 88.9825 94.3933 89.5159 93.94C90.0492 93.4867 90.6025 92.6933 91.1759 91.56L91.4759 91.88C91.0092 93.0533 90.4159 93.9667 89.6959 94.62C88.9759 95.2733 88.2025 95.6 87.3759 95.6ZM89.5387 100.6C89.3787 100.6 89.212 100.54 89.0387 100.42C88.852 100.3 88.752 100.193 88.7387 100.1C89.072 99.1267 89.3587 98.28 89.5987 97.56C89.8254 96.8533 90.0187 96.18 90.1787 95.54C90.3387 94.9133 90.4854 94.26 90.6187 93.58C90.7387 92.8867 90.8587 92.1 90.9787 91.22C91.112 90.3267 91.2587 89.2533 91.4187 88C91.4454 87.84 91.4787 87.7267 91.5187 87.66C91.5587 87.58 91.6854 87.54 91.8987 87.54C92.312 87.54 92.612 87.6533 92.7987 87.88C92.9854 88.0933 93.0787 88.3333 93.0787 88.6C93.0787 88.92 92.9854 89.5467 92.7987 90.48C93.052 90.0933 93.3387 89.7267 93.6587 89.38C93.992 89.0333 94.3587 88.7533 94.7587 88.54C95.1587 88.3133 95.592 88.2 96.0587 88.2C96.712 88.2 97.252 88.42 97.6787 88.86C98.1054 89.3 98.3187 89.88 98.3187 90.6C98.3187 91.12 98.1987 91.6733 97.9587 92.26C97.732 92.8333 97.4054 93.38 96.9787 93.9C96.552 94.4067 96.0387 94.82 95.4387 95.14C94.8387 95.4733 94.1787 95.64 93.4587 95.64C93.032 95.64 92.692 95.5867 92.4387 95.48C92.1854 95.3733 92.0587 95.2533 92.0587 95.12C92.0587 95.0267 92.1054 94.9733 92.1987 94.96C92.3054 94.9333 92.4187 94.92 92.5387 94.92C93.1654 94.9067 93.732 94.7733 94.2387 94.52C94.7587 94.2667 95.2054 93.94 95.5787 93.54C95.952 93.1267 96.2387 92.6867 96.4387 92.22C96.6387 91.7533 96.7387 91.2933 96.7387 90.84C96.7387 90.44 96.6454 90.0933 96.4587 89.8C96.2854 89.5067 96.0054 89.36 95.6187 89.36C95.2854 89.36 94.9454 89.4667 94.5987 89.68C94.2654 89.8933 93.952 90.1667 93.6587 90.5C93.3654 90.82 93.1054 91.16 92.8787 91.52C92.652 91.8667 92.4787 92.1733 92.3587 92.44C92.1054 93.32 91.872 94.1933 91.6587 95.06C91.4587 95.94 91.2654 96.7533 91.0787 97.5C90.892 98.2467 90.7054 98.88 90.5187 99.4C90.3187 99.92 90.1054 100.273 89.8787 100.46C89.772 100.553 89.6587 100.6 89.5387 100.6Z" fill="black" fill-opacity="0.5"/>
<path d="M106.391 96.15C105.657 96.15 105.066 95.9333 104.616 95.5C104.166 95.0667 103.941 94.4083 103.941 93.525C103.941 92.8417 104.066 91.9917 104.316 90.975C104.582 89.9583 104.916 88.9083 105.316 87.825C105.199 87.7917 105.057 87.7667 104.891 87.75C104.741 87.7167 104.591 87.6667 104.441 87.6V86.825C104.707 86.8583 104.924 86.8833 105.091 86.9C105.274 86.9167 105.457 86.9333 105.641 86.95C105.991 86.0667 106.366 85.2167 106.766 84.4C107.182 83.5667 107.591 82.825 107.991 82.175C108.407 81.525 108.799 81.0167 109.166 80.65C109.532 80.2667 109.857 80.075 110.141 80.075C110.307 80.075 110.466 80.1417 110.616 80.275C110.766 80.3917 110.841 80.5667 110.841 80.8C110.841 81.1333 110.666 81.6083 110.316 82.225C109.982 82.8417 109.566 83.5667 109.066 84.4C108.566 85.2167 108.082 86.0917 107.616 87.025H108.391C109.124 87.025 109.782 87.0167 110.366 87C110.966 86.9667 111.574 86.9167 112.191 86.85V87.675C111.274 87.7583 110.432 87.825 109.666 87.875C108.899 87.925 108.166 87.9583 107.466 87.975H107.166C106.816 88.7917 106.507 89.6333 106.241 90.5C105.991 91.35 105.866 92.1833 105.866 93C105.866 93.6833 105.974 94.1667 106.191 94.45C106.407 94.7333 106.749 94.875 107.216 94.875C108.049 94.875 108.899 94.5 109.766 93.75C110.649 92.9833 111.416 91.95 112.066 90.65L112.416 90.9C111.982 91.8833 111.441 92.775 110.791 93.575C110.157 94.375 109.466 95 108.716 95.45C107.966 95.9167 107.191 96.15 106.391 96.15Z" fill="#FCC91D"/>
</g>
<g filter="url(#filter5_d)">
<path d="M26.2116 119.105C25.6765 119.105 25.2566 119.018 24.9519 118.842C24.6238 118.658 24.446 118.398 24.4187 118.062L24.3659 117.512C24.7253 117.426 25.028 117.203 25.2741 116.844C25.3405 116.742 25.3738 116.654 25.3738 116.58C25.3738 116.479 25.323 116.428 25.2214 116.428H25.2038C25.1999 116.432 25.1921 116.434 25.1804 116.434C24.907 117.008 24.4636 117.295 23.8503 117.295C23.5378 117.295 23.2702 117.227 23.0476 117.09C22.8288 116.953 22.6277 116.717 22.4441 116.381H22.4089C22.3034 116.381 22.2507 116.426 22.2507 116.516C22.2507 116.578 22.2741 116.648 22.321 116.727C22.4773 116.988 22.6726 117.193 22.907 117.342C23.0905 117.467 23.2839 117.541 23.487 117.564L23.4402 118.672C23.2058 118.824 22.9577 118.934 22.696 119C22.4382 119.07 22.0691 119.105 21.5886 119.105C21.112 119.105 20.6863 119.012 20.3113 118.824C19.8503 118.594 19.6198 118.273 19.6198 117.863C19.6198 117.352 19.7214 116.088 19.9245 114.072C20.0339 113.021 20.1218 112.287 20.1882 111.869C20.5905 111.51 21.1843 111.33 21.9695 111.33C22.5398 111.33 23.0124 111.436 23.3874 111.646L23.7097 112.725L23.5046 113.586C23.489 113.645 23.4812 113.701 23.4812 113.756C23.4812 113.893 23.5593 113.963 23.7155 113.967L24.2722 111.652C24.4323 111.566 24.6413 111.492 24.8991 111.43C25.157 111.363 25.4382 111.33 25.7429 111.33C26.3132 111.33 26.7351 111.428 27.0085 111.623C27.2859 111.814 27.4499 112.139 27.5007 112.596C27.5124 112.682 27.53 112.824 27.5534 113.023C27.9089 116.078 28.0866 117.877 28.0866 118.42C27.653 118.877 27.028 119.105 26.2116 119.105ZM31.763 115.736V116.762C31.7904 116.789 31.8353 116.803 31.8978 116.803C31.9603 116.803 32.0052 116.781 32.0326 116.738C32.0599 116.695 32.0736 116.621 32.0736 116.516V115.678C32.0736 115.303 32.058 115.055 32.0267 114.934C31.9955 114.809 31.9369 114.746 31.8509 114.746C31.7962 114.746 31.7494 114.766 31.7103 114.805C31.7455 115.191 31.763 115.502 31.763 115.736ZM29.5716 118.332C28.931 117.715 28.6107 116.879 28.6107 115.824C28.6107 114.766 28.9115 113.932 29.513 113.322C30.1185 112.709 30.9115 112.402 31.892 112.402C32.8724 112.402 33.6654 112.721 34.2709 113.357C34.8724 113.994 35.1732 114.824 35.1732 115.848C35.1732 116.867 34.8822 117.678 34.3002 118.279C33.722 118.881 32.9349 119.182 31.9388 119.182C30.9427 119.182 30.1537 118.898 29.5716 118.332ZM39.1777 114.846C39.1387 114.807 39.0918 114.787 39.0371 114.787C38.9512 114.787 38.8926 114.85 38.8613 114.975C38.8301 115.096 38.8145 115.344 38.8145 115.719V116.316C38.8145 116.422 38.8281 116.496 38.8555 116.539C38.8828 116.582 38.9277 116.604 38.9902 116.604C39.0527 116.604 39.0977 116.59 39.125 116.562V115.777C39.125 115.395 39.1426 115.084 39.1777 114.846ZM38.7559 111.383C38.9629 111.141 39.1914 110.959 39.4414 110.838C39.6914 110.713 40.0098 110.65 40.3965 110.65C40.8652 110.65 41.2461 110.781 41.5391 111.043C41.8398 111.324 41.9902 111.703 41.9902 112.18V116.047C41.9902 116.629 42.1309 117.008 42.4121 117.184C42.416 117.203 42.418 117.24 42.418 117.295V117.4C42.418 117.955 42.25 118.387 41.9141 118.695C41.6172 118.969 41.25 119.105 40.8125 119.105C40.5078 119.105 40.2441 119.041 40.0215 118.912C39.7598 118.764 39.5762 118.561 39.4707 118.303C39.3379 118.303 39.2715 118.367 39.2715 118.496C39.2715 118.555 39.293 118.623 39.3359 118.701C39.3828 118.775 39.4453 118.842 39.5234 118.9C39.293 119.037 38.9941 119.105 38.627 119.105C38.1309 119.105 37.666 118.992 37.2324 118.766C36.8027 118.535 36.4609 118.189 36.207 117.729C35.9141 117.201 35.7676 116.562 35.7676 115.812C35.7676 114.812 36.0469 114.027 36.6055 113.457C37.168 112.887 37.8848 112.602 38.7559 112.602C39.2715 112.602 39.7207 112.699 40.1035 112.895C40.1465 112.852 40.168 112.807 40.168 112.76C40.168 112.643 40.0293 112.543 39.752 112.461C39.4746 112.379 39.1953 112.338 38.9141 112.338C38.9141 111.939 38.8613 111.621 38.7559 111.383ZM48.9655 116.1C48.9655 116.381 48.9967 116.607 49.0592 116.779C49.1217 116.951 49.2311 117.086 49.3873 117.184C49.3913 117.203 49.3932 117.24 49.3932 117.295V117.4C49.3932 117.955 49.2252 118.387 48.8893 118.695C48.5924 118.969 48.2252 119.105 47.7877 119.105C47.4909 119.105 47.2194 119.035 46.9733 118.895C46.7272 118.754 46.5514 118.551 46.4459 118.285C46.3131 118.285 46.2467 118.35 46.2467 118.479C46.2467 118.588 46.3151 118.711 46.4518 118.848C46.1979 119.02 45.8151 119.105 45.3034 119.105C44.5807 119.105 44.0026 118.91 43.569 118.52C43.1393 118.125 42.9245 117.576 42.9245 116.873C42.9245 116.166 43.153 115.619 43.61 115.232C44.028 114.885 44.569 114.711 45.233 114.711C45.4596 114.711 45.6784 114.727 45.8893 114.758C46.0299 114.785 46.1061 114.801 46.1178 114.805C46.1295 114.766 46.1354 114.732 46.1354 114.705C46.1354 114.604 46.0495 114.535 45.8776 114.5C45.7057 114.465 45.4811 114.447 45.2038 114.447C44.6139 114.447 44.11 114.566 43.692 114.805C43.5006 114.48 43.4049 114.07 43.4049 113.574C43.4049 113.293 43.4401 113.084 43.5104 112.947C43.7916 112.818 44.1491 112.705 44.5827 112.607C45.0163 112.506 45.4733 112.455 45.9538 112.455C46.9459 112.455 47.6959 112.672 48.2038 113.105C48.7116 113.539 48.9655 114.154 48.9655 114.951V116.1ZM45.9245 116.387C45.7604 116.387 45.6784 116.461 45.6784 116.609C45.6784 116.75 45.7741 116.82 45.9655 116.82C46.0983 116.82 46.1959 116.789 46.2584 116.727C46.3209 116.66 46.3522 116.547 46.3522 116.387C46.3522 116.387 46.2096 116.387 45.9245 116.387ZM52.9055 116.797L52.6243 116.92C52.6243 117.182 52.6751 117.461 52.7766 117.758C52.8626 118.039 52.9817 118.289 53.1341 118.508C52.7473 118.906 52.2102 119.105 51.5227 119.105C51.1282 119.105 50.7864 119.002 50.4973 118.795C50.1614 118.561 49.9934 118.25 49.9934 117.863V111.025C50.1809 110.916 50.4055 110.826 50.6673 110.756C50.9329 110.686 51.2005 110.65 51.47 110.65C51.9192 110.65 52.2903 110.738 52.5833 110.914C52.9153 111.121 53.0813 111.418 53.0813 111.805V112.426C53.0813 112.945 52.9895 113.453 52.8059 113.949C52.7708 114 52.7083 114.074 52.6184 114.172C52.5286 114.266 52.4563 114.352 52.4016 114.43C52.3509 114.508 52.3255 114.576 52.3255 114.635C52.3255 114.689 52.3723 114.74 52.4661 114.787C52.7708 114.502 53.0091 114.191 53.1809 113.855C53.3567 113.52 53.5169 113.074 53.6614 112.52C53.7122 112.512 53.7708 112.502 53.8372 112.49C53.9036 112.479 54.013 112.461 54.1653 112.438C54.3216 112.41 54.4309 112.396 54.4934 112.396C55.095 112.396 55.5638 112.535 55.8997 112.812C56.2356 113.086 56.4036 113.463 56.4036 113.943C56.4036 114.424 56.2513 114.836 55.9466 115.18C55.6653 115.488 55.3001 115.721 54.8509 115.877C55.2102 116.088 55.6634 116.238 56.2102 116.328C56.4212 116.711 56.5266 117.119 56.5266 117.553C56.5266 117.982 56.3899 118.342 56.1165 118.631C55.8118 118.947 55.3899 119.105 54.8509 119.105C54.3157 119.105 53.8743 118.9 53.5266 118.49C53.1829 118.076 52.9759 117.512 52.9055 116.797Z" fill="black"/>
</g>
<g filter="url(#filter6_d)">
<path d="M97.8353 115L97.8233 109.96L95.3513 114.112H94.4753L92.0153 110.068V115H90.1913V106.6H91.7993L94.9433 111.82L98.0393 106.6H99.6353L99.6593 115H97.8353ZM104.592 115.096C103.912 115.096 103.3 114.956 102.756 114.676C102.22 114.388 101.8 113.992 101.496 113.488C101.192 112.984 101.04 112.412 101.04 111.772C101.04 111.132 101.192 110.56 101.496 110.056C101.8 109.552 102.22 109.16 102.756 108.88C103.3 108.592 103.912 108.448 104.592 108.448C105.272 108.448 105.88 108.592 106.416 108.88C106.952 109.16 107.372 109.552 107.676 110.056C107.98 110.56 108.132 111.132 108.132 111.772C108.132 112.412 107.98 112.984 107.676 113.488C107.372 113.992 106.952 114.388 106.416 114.676C105.88 114.956 105.272 115.096 104.592 115.096ZM104.592 113.56C105.072 113.56 105.464 113.4 105.768 113.08C106.08 112.752 106.236 112.316 106.236 111.772C106.236 111.228 106.08 110.796 105.768 110.476C105.464 110.148 105.072 109.984 104.592 109.984C104.112 109.984 103.716 110.148 103.404 110.476C103.092 110.796 102.936 111.228 102.936 111.772C102.936 112.316 103.092 112.752 103.404 113.08C103.716 113.4 104.112 113.56 104.592 113.56ZM113.308 108.448C114.108 108.448 114.752 108.688 115.24 109.168C115.736 109.648 115.984 110.36 115.984 111.304V115H114.112V111.592C114.112 111.08 114 110.7 113.776 110.452C113.552 110.196 113.228 110.068 112.804 110.068C112.332 110.068 111.956 110.216 111.676 110.512C111.396 110.8 111.256 111.232 111.256 111.808V115H109.384V108.544H111.172V109.3C111.42 109.028 111.728 108.82 112.096 108.676C112.464 108.524 112.868 108.448 113.308 108.448ZM121.844 114.688C121.66 114.824 121.432 114.928 121.16 115C120.896 115.064 120.616 115.096 120.32 115.096C119.552 115.096 118.956 114.9 118.532 114.508C118.116 114.116 117.908 113.54 117.908 112.78V110.128H116.912V108.688H117.908V107.116H119.78V108.688H121.388V110.128H119.78V112.756C119.78 113.028 119.848 113.24 119.984 113.392C120.128 113.536 120.328 113.608 120.584 113.608C120.88 113.608 121.132 113.528 121.34 113.368L121.844 114.688ZM125.067 115.096C124.531 115.096 124.007 115.032 123.495 114.904C122.983 114.768 122.575 114.6 122.271 114.4L122.895 113.056C123.183 113.24 123.531 113.392 123.939 113.512C124.347 113.624 124.747 113.68 125.139 113.68C125.931 113.68 126.327 113.484 126.327 113.092C126.327 112.908 126.219 112.776 126.003 112.696C125.787 112.616 125.455 112.548 125.007 112.492C124.479 112.412 124.043 112.32 123.699 112.216C123.355 112.112 123.055 111.928 122.799 111.664C122.551 111.4 122.427 111.024 122.427 110.536C122.427 110.128 122.543 109.768 122.775 109.456C123.015 109.136 123.359 108.888 123.807 108.712C124.263 108.536 124.799 108.448 125.415 108.448C125.871 108.448 126.323 108.5 126.771 108.604C127.227 108.7 127.603 108.836 127.899 109.012L127.275 110.344C126.707 110.024 126.087 109.864 125.415 109.864C125.015 109.864 124.715 109.92 124.515 110.032C124.315 110.144 124.215 110.288 124.215 110.464C124.215 110.664 124.323 110.804 124.539 110.884C124.755 110.964 125.099 111.04 125.571 111.112C126.099 111.2 126.531 111.296 126.867 111.4C127.203 111.496 127.495 111.676 127.743 111.94C127.991 112.204 128.115 112.572 128.115 113.044C128.115 113.444 127.995 113.8 127.755 114.112C127.515 114.424 127.163 114.668 126.699 114.844C126.243 115.012 125.699 115.096 125.067 115.096ZM135.594 111.796C135.594 111.82 135.582 111.988 135.558 112.3H130.674C130.762 112.7 130.97 113.016 131.298 113.248C131.626 113.48 132.034 113.596 132.522 113.596C132.858 113.596 133.154 113.548 133.41 113.452C133.674 113.348 133.918 113.188 134.142 112.972L135.138 114.052C134.53 114.748 133.642 115.096 132.474 115.096C131.746 115.096 131.102 114.956 130.542 114.676C129.982 114.388 129.55 113.992 129.246 113.488C128.942 112.984 128.79 112.412 128.79 111.772C128.79 111.14 128.938 110.572 129.234 110.068C129.538 109.556 129.95 109.16 130.47 108.88C130.998 108.592 131.586 108.448 132.234 108.448C132.866 108.448 133.438 108.584 133.95 108.856C134.462 109.128 134.862 109.52 135.15 110.032C135.446 110.536 135.594 111.124 135.594 111.796ZM132.246 109.864C131.822 109.864 131.466 109.984 131.178 110.224C130.89 110.464 130.714 110.792 130.65 111.208H133.83C133.766 110.8 133.59 110.476 133.302 110.236C133.014 109.988 132.662 109.864 132.246 109.864ZM138.629 109.396C138.853 109.084 139.153 108.848 139.529 108.688C139.913 108.528 140.353 108.448 140.849 108.448V110.176C140.641 110.16 140.501 110.152 140.429 110.152C139.893 110.152 139.473 110.304 139.169 110.608C138.865 110.904 138.713 111.352 138.713 111.952V115H136.841V108.544H138.629V109.396ZM143.75 109.396C143.974 109.084 144.274 108.848 144.65 108.688C145.034 108.528 145.474 108.448 145.97 108.448V110.176C145.762 110.16 145.622 110.152 145.55 110.152C145.014 110.152 144.594 110.304 144.29 110.608C143.986 110.904 143.834 111.352 143.834 111.952V115H141.962V108.544H143.75V109.396ZM149.652 108.448C150.652 108.448 151.42 108.688 151.956 109.168C152.492 109.64 152.76 110.356 152.76 111.316V115H151.008V114.196C150.656 114.796 150 115.096 149.04 115.096C148.544 115.096 148.112 115.012 147.744 114.844C147.384 114.676 147.108 114.444 146.916 114.148C146.724 113.852 146.628 113.516 146.628 113.14C146.628 112.54 146.852 112.068 147.3 111.724C147.756 111.38 148.456 111.208 149.4 111.208H150.888C150.888 110.8 150.764 110.488 150.516 110.272C150.268 110.048 149.896 109.936 149.4 109.936C149.056 109.936 148.716 109.992 148.38 110.104C148.052 110.208 147.772 110.352 147.54 110.536L146.868 109.228C147.22 108.98 147.64 108.788 148.128 108.652C148.624 108.516 149.132 108.448 149.652 108.448ZM149.508 113.836C149.828 113.836 150.112 113.764 150.36 113.62C150.608 113.468 150.784 113.248 150.888 112.96V112.3H149.604C148.836 112.3 148.452 112.552 148.452 113.056C148.452 113.296 148.544 113.488 148.728 113.632C148.92 113.768 149.18 113.836 149.508 113.836ZM158.618 114.688C158.434 114.824 158.206 114.928 157.934 115C157.67 115.064 157.39 115.096 157.094 115.096C156.326 115.096 155.73 114.9 155.306 114.508C154.89 114.116 154.682 113.54 154.682 112.78V110.128H153.686V108.688H154.682V107.116H156.554V108.688H158.162V110.128H156.554V112.756C156.554 113.028 156.622 113.24 156.758 113.392C156.902 113.536 157.102 113.608 157.358 113.608C157.654 113.608 157.906 113.528 158.114 113.368L158.618 114.688Z" fill="black"/>
</g>
<path d="M141.829 77.9833H141.544V75.1845C141.544 74.7208 141.161 74.3449 140.689 74.3449H136.983C136.51 74.3449 136.127 74.7208 136.127 75.1845V76.2091C136.127 76.7009 135.765 77.1196 135.319 77.1425C135.081 77.1553 134.855 77.0734 134.683 76.9133C134.511 76.753 134.417 76.5366 134.417 76.3041V75.1845C134.417 74.7208 134.034 74.3449 133.561 74.3449H129.855C129.383 74.3449 129 74.7208 129 75.1845V83.5809C129 85.2785 130.407 86.6596 132.136 86.6596H140.689C141.161 86.6596 141.544 86.2836 141.544 85.8199V83.0211H141.829C143.244 83.0211 144.395 81.8912 144.395 80.5022C144.395 79.1133 143.244 77.9833 141.829 77.9833V77.9833ZM141.829 81.3419H140.689C140.216 81.3419 139.833 81.7178 139.833 82.1815V84.9803H132.136C131.35 84.9803 130.711 84.3525 130.711 83.5809V76.0242H132.706V76.3041C132.706 76.9918 132.998 77.6578 133.506 78.1313C134.021 78.6117 134.697 78.8563 135.409 78.8195C136.771 78.7495 137.838 77.6029 137.838 76.2091V76.0242H139.833V78.823C139.833 79.2867 140.216 79.6626 140.689 79.6626H141.829C142.301 79.6626 142.684 80.0393 142.684 80.5022C142.684 80.9652 142.301 81.3419 141.829 81.3419Z" fill="#3F98BB"/>
<path d="M158.193 61.0787C158.193 59.3811 156.786 58 155.057 58H146.505H137.952C136.223 58 134.816 59.3811 134.816 61.0787L134.816 69.475C134.816 69.9387 135.199 70.3147 135.671 70.3147H138.522V70.5945C138.522 71.9835 139.673 73.1134 141.088 73.1134C142.503 73.1134 143.654 71.9835 143.654 70.5946V70.3147H145.649L145.649 73.1134C145.649 73.5772 146.032 73.9531 146.505 73.9531H147.548C148.049 73.9531 148.476 74.3089 148.499 74.7463C148.511 74.9802 148.429 75.2019 148.265 75.3705C148.102 75.5394 147.882 75.6324 147.645 75.6324H146.505C146.032 75.6324 145.649 76.0083 145.649 76.472V80.1104C145.649 80.5741 146.032 80.9501 146.505 80.9501H155.057C156.786 80.9501 158.193 79.569 158.193 77.8714V61.0787ZM147.36 62.4781V59.6793H155.057C155.843 59.6793 156.483 60.307 156.483 61.0787V68.6354H154.487V68.3555C154.487 67.6678 154.196 67.0017 153.687 66.5282C153.172 66.0479 152.495 65.8035 151.785 65.8401C150.422 65.9101 149.355 67.0568 149.355 68.4505V68.6354H147.36L147.36 65.8366C147.36 65.3729 146.977 64.997 146.505 64.997H145.461C144.96 64.997 144.533 64.6411 144.51 64.2037C144.498 63.9699 144.581 63.7481 144.744 63.5795C144.907 63.4107 145.127 63.3177 145.364 63.3177H146.505C146.977 63.3177 147.36 62.9418 147.36 62.4781ZM142.798 68.6354C142.326 68.6354 141.943 69.0113 141.943 69.475V70.5946C141.943 71.0576 141.559 71.4342 141.088 71.4342C140.616 71.4342 140.233 71.0575 140.233 70.5945V69.475C140.233 69.0113 139.85 68.6354 139.377 68.6354H136.526L136.526 61.0787C136.526 60.3071 137.166 59.6793 137.952 59.6793H145.649V61.6384H145.364C144.664 61.6384 143.985 61.9246 143.503 62.4235C143.014 62.9296 142.765 63.593 142.802 64.2915C142.873 65.6288 144.041 66.6762 145.461 66.6762H145.649L145.649 68.6354H142.798ZM155.057 79.2708H147.36V77.3116H147.645C148.345 77.3116 149.024 77.0255 149.506 76.5265C149.995 76.0204 150.244 75.357 150.207 74.6585C150.136 73.3213 148.968 72.2738 147.548 72.2738H147.36L147.36 70.3147H150.211C150.683 70.3147 151.066 69.9387 151.066 69.475V68.4505C151.066 67.9587 151.428 67.5399 151.874 67.517C152.112 67.5052 152.338 67.5862 152.51 67.7463C152.682 67.9065 152.777 68.1229 152.777 68.3555V69.475C152.777 69.9387 153.159 70.3147 153.632 70.3147H156.483L156.483 77.8714C156.483 78.643 155.843 79.2708 155.057 79.2708Z" fill="#3F98BB"/>
</g>
<defs>
<filter id="filter0_d" x="85.382" y="29.86" width="103.568" height="28.14" filterUnits="userSpaceOnUse" color-interpolation-filters="sRGB">
<feFlood flood-opacity="0" result="BackgroundImageFix"/>
<feColorMatrix in="SourceAlpha" type="matrix" values="0 0 0 0 0 0 0 0 0 0 0 0 0 0 0 0 0 0 127 0"/>
<feOffset dy="4"/>
<feGaussianBlur stdDeviation="2"/>
<feColorMatrix type="matrix" values="0 0 0 0 0 0 0 0 0 0 0 0 0 0 0 0 0 0 0.3 0"/>
<feBlend mode="normal" in2="BackgroundImageFix" result="effect1_dropShadow"/>
<feBlend mode="normal" in="SourceGraphic" in2="effect1_dropShadow" result="shape"/>
</filter>
<filter id="filter1_d" x="50.3192" y="64.465" width="36.9744" height="16.352" filterUnits="userSpaceOnUse" color-interpolation-filters="sRGB">
<feFlood flood-opacity="0" result="BackgroundImageFix"/>
<feColorMatrix in="SourceAlpha" type="matrix" values="0 0 0 0 0 0 0 0 0 0 0 0 0 0 0 0 0 0 127 0"/>
<feOffset dy="4"/>
<feGaussianBlur stdDeviation="2"/>
<feColorMatrix type="matrix" values="0 0 0 0 0 0 0 0 0 0 0 0 0 0 0 0 0 0 0.25 0"/>
<feBlend mode="normal" in2="BackgroundImageFix" result="effect1_dropShadow"/>
<feBlend mode="normal" in="SourceGraphic" in2="effect1_dropShadow" result="shape"/>
</filter>
<filter id="filter2_d" x="167.823" y="49.5" width="76.3111" height="29" filterUnits="userSpaceOnUse" color-interpolation-filters="sRGB">
<feFlood flood-opacity="0" result="BackgroundImageFix"/>
<feColorMatrix in="SourceAlpha" type="matrix" values="0 0 0 0 0 0 0 0 0 0 0 0 0 0 0 0 0 0 127 0"/>
<feOffset dy="4"/>
<feGaussianBlur stdDeviation="2"/>
<feColorMatrix type="matrix" values="0 0 0 0 0 0 0 0 0 0 0 0 0 0 0 0 0 0 0.25 0"/>
<feBlend mode="normal" in2="BackgroundImageFix" result="effect1_dropShadow"/>
<feBlend mode="normal" in="SourceGraphic" in2="effect1_dropShadow" result="shape"/>
</filter>
<filter id="filter3_d" x="163" y="81" width="65.6832" height="42.5" filterUnits="userSpaceOnUse" color-interpolation-filters="sRGB">
<feFlood flood-opacity="0" result="BackgroundImageFix"/>
<feColorMatrix in="SourceAlpha" type="matrix" values="0 0 0 0 0 0 0 0 0 0 0 0 0 0 0 0 0 0 127 0"/>
<feOffset dy="4"/>
<feGaussianBlur stdDeviation="2"/>
<feColorMatrix type="matrix" values="0 0 0 0 0 0 0 0 0 0 0 0 0 0 0 0 0 0 0.25 0"/>
<feBlend mode="normal" in2="BackgroundImageFix" result="effect1_dropShadow"/>
<feBlend mode="normal" in="SourceGraphic" in2="effect1_dropShadow" result="shape"/>
</filter>
<filter id="filter4_d" x="5.80213" y="80.075" width="110.614" height="28.525" filterUnits="userSpaceOnUse" color-interpolation-filters="sRGB">
<feFlood flood-opacity="0" result="BackgroundImageFix"/>
<feColorMatrix in="SourceAlpha" type="matrix" values="0 0 0 0 0 0 0 0 0 0 0 0 0 0 0 0 0 0 127 0"/>
<feOffset dy="4"/>
<feGaussianBlur stdDeviation="2"/>
<feColorMatrix type="matrix" values="0 0 0 0 0 0 0 0 0 0 0 0 0 0 0 0 0 0 0.25 0"/>
<feBlend mode="normal" in2="BackgroundImageFix" result="effect1_dropShadow"/>
<feBlend mode="normal" in="SourceGraphic" in2="effect1_dropShadow" result="shape"/>
</filter>
<filter id="filter5_d" x="15.6198" y="110.65" width="44.9068" height="16.5312" filterUnits="userSpaceOnUse" color-interpolation-filters="sRGB">
<feFlood flood-opacity="0" result="BackgroundImageFix"/>
<feColorMatrix in="SourceAlpha" type="matrix" values="0 0 0 0 0 0 0 0 0 0 0 0 0 0 0 0 0 0 127 0"/>
<feOffset dy="4"/>
<feGaussianBlur stdDeviation="2"/>
<feColorMatrix type="matrix" values="0 0 0 0 0 0 0 0 0 0 0 0 0 0 0 0 0 0 0.25 0"/>
<feBlend mode="normal" in2="BackgroundImageFix" result="effect1_dropShadow"/>
<feBlend mode="normal" in="SourceGraphic" in2="effect1_dropShadow" result="shape"/>
</filter>
<filter id="filter6_d" x="86.1913" y="106.6" width="76.4265" height="16.496" filterUnits="userSpaceOnUse" color-interpolation-filters="sRGB">
<feFlood flood-opacity="0" result="BackgroundImageFix"/>
<feColorMatrix in="SourceAlpha" type="matrix" values="0 0 0 0 0 0 0 0 0 0 0 0 0 0 0 0 0 0 127 0"/>
<feOffset dy="4"/>
<feGaussianBlur stdDeviation="2"/>
<feColorMatrix type="matrix" values="0 0 0 0 0 0 0 0 0 0 0 0 0 0 0 0 0 0 0.25 0"/>
<feBlend mode="normal" in2="BackgroundImageFix" result="effect1_dropShadow"/>
<feBlend mode="normal" in="SourceGraphic" in2="effect1_dropShadow" result="shape"/>
</filter>
<clipPath id="clip0">
<rect width="250" height="130" fill="white"/>
</clipPath>
</defs>
</svg>
