<svg width="56" height="56" viewBox="0 0 56 56" fill="none" xmlns="http://www.w3.org/2000/svg">
<g clip-path="url(#clip0)">
<path d="M55.2027 14.7052C55.2026 14.7052 55.2026 14.7052 55.2025 14.7052L55.2007 14.7034L51.586 14.1876C51.078 14.1153 50.7248 13.6448 50.7971 13.1367C50.8319 12.8926 50.9623 12.6723 51.1595 12.5244L54.081 10.3333C54.4916 10.0254 54.5747 9.44298 54.2668 9.03239L50.9216 4.57218C50.6137 4.16159 50.0313 4.07842 49.6207 4.38634L46.7002 6.57742C46.2914 6.88766 45.7085 6.80774 45.3983 6.39889C45.2477 6.20039 45.1831 5.94962 45.2191 5.70303L45.7357 2.0884C45.8085 1.58036 45.4558 1.1096 44.9479 1.03665C44.9475 1.03665 44.9472 1.03654 44.9468 1.03654L39.431 0.248568C38.9231 0.175625 38.4521 0.52826 38.3792 1.03631C38.3792 1.03642 38.3792 1.03642 38.3792 1.03654L37.8625 4.65116C37.7902 5.15921 37.3196 5.51243 36.8116 5.44006C36.5674 5.40533 36.3472 5.2749 36.1992 5.07767L34.0091 2.15624C33.7012 1.74564 33.1188 1.66248 32.7082 1.97039L29.9159 4.06576C28.6527 3.93149 27.3787 3.93149 26.1154 4.06576C17.8425 5.01135 11.3548 11.609 10.5484 19.8967C10.5233 20.1597 10.514 20.4208 10.501 20.6819H10.2222C9.78133 20.6827 9.40163 20.9933 9.31347 21.4253L8.67139 24.4786L6.09934 22.7048C5.73021 22.4501 5.23169 22.4955 4.91459 22.8126L2.12696 25.6002C1.81034 25.9172 1.76504 26.415 2.01918 26.784L3.78467 29.3514L0.730361 29.9935C0.303157 30.0871 -0.000927086 30.4659 2.12374e-06 30.9032V34.62C-0.000230179 35.0596 0.307687 35.4391 0.737795 35.5297L3.79211 36.1718L2.02661 38.7392C1.77247 39.1082 1.81777 39.6061 2.1344 39.923L4.92203 42.7107C5.23912 43.0278 5.73764 43.0732 6.10677 42.8185L8.67418 41.0483L9.31626 44.1026C9.40442 44.5346 9.78412 44.8452 10.225 44.846H13.9419C14.3814 44.8462 14.761 44.5383 14.8516 44.1082L15.4936 41.0539L18.0611 42.8194C18.4301 43.0735 18.9279 43.0282 19.2449 42.7116L20.6879 41.2639V43.9121C20.6921 45.2341 21.4003 46.4535 22.5464 47.1123V52.275C22.5464 54.3278 24.2105 55.9919 26.2632 55.9919H29.98C32.0328 55.9919 33.6969 54.3278 33.6969 52.275V47.1123C34.8429 46.4535 35.5511 45.2341 35.5553 43.9121V40.2343C35.5805 38.6868 36.3901 37.2582 37.7046 36.4413C38.4757 35.941 39.207 35.3818 39.8919 34.7687L38.6524 33.3842C38.0397 33.9334 37.385 34.4339 36.6945 34.8812C34.8494 36.0392 33.72 38.056 33.6969 40.2343V43.9121C33.6969 44.9386 32.8649 45.7706 31.8385 45.7706H24.4048C23.3783 45.7706 22.5464 44.9386 22.5464 43.9121V40.1572C22.5249 38.0201 21.4132 36.0422 19.5989 34.9127C12.2341 30.285 10.0151 20.5633 14.6428 13.1985C17.5141 8.62899 22.5251 5.84775 27.9218 5.82847C27.908 5.86158 27.8958 5.89538 27.8856 5.92976C27.8511 6.17367 27.915 6.42143 28.0631 6.6183L30.2532 9.53881C30.4841 9.83767 30.5063 10.2481 30.309 10.5702C30.119 10.8943 29.7516 11.0711 29.3798 11.0172L25.7651 10.5005C25.2571 10.4277 24.7863 10.7805 24.7134 11.2884C24.7134 11.2887 24.7133 11.2891 24.7133 11.2894L23.9244 16.808C23.8515 17.3159 24.2043 17.7868 24.7122 17.8598C24.7126 17.8598 24.7129 17.8599 24.7133 17.8599L28.3279 18.3765C28.8359 18.4489 29.1892 18.9194 29.1168 19.4275C29.0821 19.6716 28.9516 19.8918 28.7544 20.0398L25.8339 22.23C25.4233 22.5379 25.3401 23.1203 25.6481 23.5309L28.9932 27.9911C29.3011 28.4017 29.8835 28.4848 30.2941 28.1769L33.2155 25.9868C33.6265 25.6794 34.2089 25.7634 34.5162 26.1745C34.6633 26.3711 34.7266 26.618 34.6921 26.8611L34.1763 30.4758C34.1034 30.9837 34.456 31.4547 34.9641 31.5276C34.9642 31.5276 34.9642 31.5276 34.9643 31.5276L40.4838 32.3165C40.5273 32.3221 40.5711 32.3249 40.6148 32.3249C41.0775 32.3255 41.47 31.9856 41.5357 31.5276L42.0514 27.913C42.1238 27.405 42.5943 27.0517 43.1023 27.1241C43.3465 27.1588 43.5667 27.2893 43.7147 27.4865L45.9058 30.407C46.2137 30.8176 46.7961 30.9008 47.2067 30.5928L51.6669 27.2477C52.0775 26.9398 52.1606 26.3574 51.8527 25.9468L49.6626 23.0263C49.4327 22.727 49.4105 22.3172 49.6068 21.9949C49.7928 21.6665 50.1635 21.4886 50.536 21.5488L54.1506 22.0646C54.6586 22.1375 55.1296 21.7847 55.2025 21.2768C55.2025 21.2767 55.2025 21.2767 55.2025 21.2766L55.9905 15.7571C56.0634 15.249 55.7108 14.7782 55.2027 14.7052ZM24.4048 47.629H31.8385V49.4874H24.4048V47.629ZM24.4048 51.3458H31.8385V52.275C31.8385 53.3015 31.0065 54.1334 29.98 54.1334H26.2632C25.2368 54.1334 24.4048 53.3015 24.4048 52.275V51.3458ZM17.0073 35.3216C17.5147 35.7365 18.0448 36.1228 18.5954 36.4785C19.4733 37.0333 20.1342 37.8727 20.4677 38.8563L18.4746 40.8457L16.5446 39.5151C15.6995 38.9327 14.5423 39.1458 13.9598 39.9909C13.8201 40.1936 13.7221 40.4219 13.6715 40.6627L13.1846 42.9829H10.9758L10.4889 40.6664C10.2775 39.6621 9.29199 39.0192 8.28763 39.2305C8.04684 39.2812 7.81849 39.3792 7.61581 39.5188L5.68491 40.8457L3.99189 39.1564L5.32159 37.2274C5.90455 36.3826 5.69223 35.2253 4.84746 34.6423C4.64466 34.5024 4.41607 34.4041 4.17494 34.3534L1.85842 33.8655V31.6577L4.17494 31.1699C5.17895 30.957 5.82034 29.9705 5.60744 28.9664C5.55691 28.7282 5.46016 28.5022 5.32252 28.3014L3.99189 26.3668L5.68491 24.6775L7.61674 26.0081C8.4622 26.5899 9.61942 26.3762 10.2012 25.5307C10.3406 25.3283 10.4384 25.1002 10.4889 24.8596L10.6515 24.0865C10.8004 25.1572 11.047 26.2119 11.3884 27.2375C8.33095 27.6019 6.14789 30.3761 6.51237 33.4336C6.87685 36.491 9.65101 38.6741 12.7085 38.3096C14.549 38.0901 16.1601 36.9702 17.0073 35.3216ZM15.5643 34.0123C14.8704 35.941 12.7445 36.942 10.8158 36.2482C8.88708 35.5544 7.88609 33.4284 8.57986 31.4998C9.11067 30.0243 10.5116 29.0415 12.0796 29.0448C12.0917 29.0448 12.1028 29.0448 12.1149 29.0448C12.9695 30.8873 14.1364 32.5679 15.5643 34.0123ZM53.489 20.0909L50.7943 19.7062C49.2702 19.4886 47.8583 20.5477 47.6406 22.0718C47.5361 22.8036 47.7266 23.5471 48.1702 24.1386L49.8029 26.3157L46.8294 28.5458L45.1959 26.3696C44.2722 25.1378 42.525 24.888 41.2933 25.8116C40.7018 26.2551 40.3108 26.9154 40.206 27.6472L39.8297 30.3457L36.1509 29.8197L36.5356 27.125C36.7539 25.601 35.6953 24.1886 34.1712 23.9705C33.4389 23.8656 32.6951 24.0561 32.1033 24.5L29.9261 26.1326L27.696 23.1592L29.8722 21.5256C31.104 20.602 31.3539 18.8547 30.4302 17.6231C29.9868 17.0316 29.3265 16.6405 28.5946 16.5358L25.8999 16.1511L26.4258 12.4723L29.1205 12.857C30.6445 13.0753 32.0569 12.0167 32.2751 10.4926C32.38 9.76031 32.1895 9.01648 31.7455 8.42469L30.1073 6.24569L33.0808 4.01558L34.7144 6.19272C35.638 7.42451 37.3853 7.67435 38.6169 6.75071C39.2084 6.30725 39.5994 5.64693 39.7042 4.91506L40.0889 2.22035L43.7677 2.74535L43.383 5.44006C43.1653 6.9642 44.2244 8.37613 45.7485 8.5938C46.4804 8.69834 47.2239 8.50785 47.8153 8.06415L49.9924 6.43153L52.2225 9.405L50.0454 11.0386C48.8136 11.9622 48.5638 13.7095 49.4874 14.9411C49.9309 15.5326 50.5912 15.9236 51.3231 16.0284L54.0178 16.4131L53.489 20.0909Z" fill="white"/>
<path d="M39.956 8.84729C35.8505 8.84729 32.5223 12.1755 32.5223 16.281C32.5223 20.3865 35.8505 23.7146 39.956 23.7146C44.0615 23.7146 47.3897 20.3865 47.3897 16.281C47.385 12.1773 44.0596 8.85182 39.956 8.84729ZM39.956 21.8562C36.8768 21.8562 34.3808 19.3601 34.3808 16.281C34.3808 13.2018 36.8768 10.7057 39.956 10.7057C43.0352 10.7057 45.5313 13.2018 45.5313 16.281C45.5277 19.3586 43.0337 21.8526 39.956 21.8562Z" fill="white"/>
<path d="M29.0508 41.1243H27.1924V43.9119H29.0508V41.1243Z" fill="white"/>
<path d="M24.0572 31.9984C18.321 29.7577 15.4875 23.2911 17.7284 17.5549C18.5968 15.3323 20.1552 13.4468 22.1746 12.1756L21.1813 10.6034C15.1024 14.433 13.2789 22.4655 17.1085 28.5443C18.5917 30.8986 20.7906 32.7153 23.3826 33.7277C25.6768 34.6067 27.1917 36.809 27.1923 39.2658H29.0507C29.0536 36.0424 27.0672 33.1515 24.0572 31.9984Z" fill="white"/>
<path d="M52.281 34.62H45.7766V36.4784H52.281V34.62Z" fill="white"/>
<path d="M45.4423 39.4805L44.2527 40.9083L49.8284 45.5536L51.018 44.1258L45.4423 39.4805Z" fill="white"/>
<path d="M42.0597 42.0537H40.2013V48.5582H42.0597V42.0537Z" fill="white"/>
<path d="M8.38208 14.2046L0.948914 16.0627L1.39936 17.8647L8.83252 16.0066L8.38208 14.2046Z" fill="white"/>
<path d="M3.57194 5.05936L2.49237 6.5708L8.99632 11.2164L10.0759 9.70493L3.57194 5.05936Z" fill="white"/>
<path d="M12.2544 0.00768703L10.454 0.468018L12.3545 7.90112L14.1549 7.44079L12.2544 0.00768703Z" fill="white"/>
</g>
<defs>
<clipPath id="clip0">
<rect width="56" height="56" fill="white"/>
</clipPath>
</defs>
</svg>
