<svg width="678" height="401" viewBox="0 0 678 401" fill="none" xmlns="http://www.w3.org/2000/svg">
<rect width="678" height="401" fill="#3F98BB"/>
<path d="M213.169 280.648C205.879 262.682 202.033 243.281 202.033 223.248C202.033 182.609 217.876 144.381 246.576 115.681C275.333 86.9234 313.504 71.1384 354.143 71.1384C394.782 71.1384 433.011 86.9808 461.711 115.681C476.348 130.318 487.598 147.366 495.175 165.963L511.936 159.133C503.498 138.354 490.87 119.24 474.511 102.881C442.367 70.7366 399.604 53 354.143 53C308.682 53 265.919 70.6792 233.775 102.881C201.631 135.025 183.895 177.788 183.895 223.248C183.895 245.634 188.2 267.332 196.351 287.422L213.169 280.648Z" fill="#F5DA8D"/>
<path d="M213.169 280.648C205.879 262.682 202.033 243.281 202.033 223.248C202.033 182.609 217.876 144.381 246.576 115.681C275.333 86.9234 313.504 71.1384 354.143 71.1384C394.782 71.1384 433.011 86.9808 461.711 115.681C476.348 130.318 487.598 147.366 495.175 165.963L511.936 159.133C503.498 138.354 490.87 119.24 474.511 102.881C442.367 70.7366 399.604 53 354.143 53C308.682 53 265.919 70.6792 233.775 102.881C201.631 135.025 183.895 177.788 183.895 223.248C183.895 245.634 188.2 267.332 196.351 287.422L213.169 280.648Z" stroke="#3D0938" stroke-width="4" stroke-miterlimit="10" stroke-linecap="round" stroke-linejoin="round"/>
<path d="M229.93 273.875C223.501 258.033 220.114 240.928 220.114 223.306C220.114 187.488 234.062 153.852 259.376 128.481C284.689 103.168 318.383 89.2194 354.201 89.2194C390.018 89.2194 423.655 103.168 449.025 128.481C461.94 141.396 471.871 156.435 478.472 172.794L495.232 165.963C487.656 147.366 476.405 130.26 461.768 115.681C433.011 86.9234 394.84 71.1384 354.201 71.1384C313.561 71.1384 275.333 86.9808 246.633 115.681C217.876 144.438 202.091 182.609 202.091 223.248C202.091 243.224 205.936 262.625 213.226 280.648L229.93 273.875Z" fill="#E38980"/>
<path d="M229.93 273.875C223.501 258.033 220.114 240.928 220.114 223.306C220.114 187.488 234.062 153.852 259.376 128.481C284.689 103.168 318.383 89.2194 354.201 89.2194C390.018 89.2194 423.655 103.168 449.025 128.481C461.94 141.396 471.871 156.435 478.472 172.794L495.232 165.963C487.656 147.366 476.405 130.26 461.768 115.681C433.011 86.9234 394.84 71.1384 354.201 71.1384C313.561 71.1384 275.333 86.9808 246.633 115.681C217.876 144.438 202.091 182.609 202.091 223.248C202.091 243.224 205.936 262.625 213.226 280.648L229.93 273.875Z" stroke="#3D0938" stroke-width="4" stroke-miterlimit="10" stroke-linecap="round" stroke-linejoin="round"/>
<path d="M246.69 267.045C241.123 253.326 238.195 238.517 238.195 223.306C238.195 192.31 250.249 163.208 272.176 141.281C294.103 119.354 323.205 107.3 354.201 107.3C385.197 107.3 414.298 119.354 436.225 141.281C447.361 152.417 455.971 165.447 461.711 179.624L478.472 172.794C471.813 156.377 461.883 141.339 449.025 128.481C423.712 103.168 390.018 89.2194 354.201 89.2194C318.383 89.2194 284.747 103.168 259.376 128.481C234.062 153.794 220.114 187.488 220.114 223.306C220.114 240.928 223.501 258.033 229.93 273.875L246.69 267.045Z" fill="#CC5F7E"/>
<path d="M246.69 267.045C241.123 253.326 238.195 238.517 238.195 223.306C238.195 192.31 250.249 163.208 272.176 141.281C294.103 119.354 323.205 107.3 354.201 107.3C385.197 107.3 414.298 119.354 436.225 141.281C447.361 152.417 455.971 165.447 461.711 179.624L478.472 172.794C471.813 156.377 461.883 141.339 449.025 128.481C423.712 103.168 390.018 89.2194 354.201 89.2194C318.383 89.2194 284.747 103.168 259.376 128.481C234.062 153.794 220.114 187.488 220.114 223.306C220.114 240.928 223.501 258.033 229.93 273.875L246.69 267.045Z" stroke="#3D0938" stroke-width="4" stroke-miterlimit="10" stroke-linecap="round" stroke-linejoin="round"/>
<path d="M280.212 253.441C276.424 244.142 274.357 233.982 274.357 223.306C274.357 179.223 310.117 143.462 354.201 143.462C387.665 143.462 416.307 164.069 428.189 193.286L444.95 186.455C440.071 174.458 432.839 163.495 423.425 154.081C404.942 135.599 380.318 125.381 354.201 125.381C328.026 125.381 303.459 135.541 284.976 154.081C266.493 172.564 256.276 197.189 256.276 223.306C256.276 236.163 258.744 248.677 263.451 260.271L280.212 253.441Z" fill="#36C2E3"/>
<path d="M280.212 253.441C276.424 244.142 274.357 233.982 274.357 223.306C274.357 179.223 310.117 143.462 354.201 143.462C387.665 143.462 416.307 164.069 428.189 193.286L444.95 186.455C440.071 174.458 432.839 163.495 423.425 154.081C404.942 135.599 380.318 125.381 354.201 125.381C328.026 125.381 303.459 135.541 284.976 154.081C266.493 172.564 256.276 197.189 256.276 223.306C256.276 236.163 258.744 248.677 263.451 260.271L280.212 253.441Z" stroke="#3D0938" stroke-width="4" stroke-miterlimit="10" stroke-linecap="round" stroke-linejoin="round"/>
<path d="M263.451 260.214C258.744 248.619 256.276 236.163 256.276 223.248C256.276 197.074 266.436 172.507 284.976 154.024C303.459 135.541 328.084 125.324 354.201 125.324C380.375 125.324 404.942 135.484 423.425 154.024C432.839 163.438 440.071 174.458 444.95 186.398L461.711 179.567C455.971 165.389 447.361 152.359 436.225 141.224C414.298 119.297 385.197 107.243 354.201 107.243C323.205 107.243 294.103 119.297 272.176 141.224C250.249 163.151 238.195 192.252 238.195 223.248C238.195 238.517 241.123 253.269 246.69 266.987L263.451 260.214Z" fill="#6D4F8D"/>
<path d="M263.451 260.214C258.744 248.619 256.276 236.163 256.276 223.248C256.276 197.074 266.436 172.507 284.976 154.024C303.459 135.541 328.084 125.324 354.201 125.324C380.375 125.324 404.942 135.484 423.425 154.024C432.839 163.438 440.071 174.458 444.95 186.398L461.711 179.567C455.971 165.389 447.361 152.359 436.225 141.224C414.298 119.297 385.197 107.243 354.201 107.243C323.205 107.243 294.103 119.297 272.176 141.224C250.249 163.151 238.195 192.252 238.195 223.248C238.195 238.517 241.123 253.269 246.69 266.987L263.451 260.214Z" stroke="#3D0938" stroke-width="4" stroke-miterlimit="10" stroke-linecap="round" stroke-linejoin="round"/>
<path d="M262.648 239.952H279.523" stroke="#3D0938" stroke-width="6" stroke-miterlimit="10" stroke-linecap="round" stroke-linejoin="round"/>
<path d="M275.563 239.952H292.381" stroke="#3D0938" stroke-width="6" stroke-miterlimit="10" stroke-linecap="round" stroke-linejoin="round"/>
<path d="M516.298 152.245C511.764 152.245 507.631 154.139 504.703 157.238C502.924 139.731 488.115 126.128 470.149 126.128C455.339 126.128 442.654 135.426 437.718 148.514C434.159 147.251 430.313 146.562 426.238 146.562C409.19 146.562 395.356 158.788 395.356 173.884C395.356 188.005 407.468 199.657 423.023 201.092C426.869 213.95 438.808 223.363 452.929 223.363C465.958 223.363 477.094 215.385 481.801 204.077C485.474 207.349 490.239 209.3 495.519 209.3C506.942 209.3 516.183 200.059 516.183 188.636C516.183 187.144 516.011 185.766 515.724 184.389C515.896 184.389 516.011 184.389 516.183 184.389C525.023 184.389 532.198 177.214 532.198 168.374C532.313 159.42 525.138 152.245 516.298 152.245Z" fill="white"/>
<path d="M516.298 170.555C516.126 170.555 516.011 170.555 515.839 170.555C516.126 171.933 516.298 173.368 516.298 174.803C516.298 186.225 507.057 195.467 495.634 195.467C490.353 195.467 485.532 193.515 481.916 190.243C477.209 201.551 466.073 209.53 453.043 209.53C438.923 209.53 426.984 200.116 423.138 187.259C410.223 186.053 399.661 177.845 396.447 166.939C395.816 169.12 395.471 171.474 395.471 173.827C395.471 187.947 407.583 199.6 423.138 201.035C426.984 213.892 438.923 223.306 453.043 223.306C466.073 223.306 477.209 215.327 481.916 204.019C485.589 207.291 490.353 209.243 495.634 209.243C507.057 209.243 516.298 200.001 516.298 188.579C516.298 187.086 516.126 185.709 515.839 184.331C516.011 184.331 516.126 184.331 516.298 184.331C525.138 184.331 532.313 177.156 532.313 168.317C532.313 165.848 531.739 163.495 530.763 161.429C528.18 166.824 522.67 170.555 516.298 170.555Z" fill="#CCFFFF"/>
<path opacity="0.43" d="M280.212 253.441L263.451 260.271L229.93 273.875L213.169 280.706L196.408 287.536C188.2 267.446 183.952 245.692 183.952 223.363C183.952 219.517 184.067 215.729 184.354 211.941C184.871 211.941 185.387 211.941 185.904 211.941C188.889 211.941 191.816 212.228 194.686 212.802C197.212 209.415 200.082 206.43 203.296 203.79C209.151 198.968 216.039 195.524 223.386 193.687C226.83 192.826 230.389 192.31 234.005 192.195C234.579 192.195 235.153 192.138 235.784 192.138C237.966 192.138 240.147 192.252 242.271 192.539C248.412 193.343 254.21 195.237 259.491 197.992C265.518 201.149 270.913 205.569 275.276 210.793C274.644 214.868 274.3 219.058 274.3 223.306C274.357 233.982 276.424 244.142 280.212 253.441Z" fill="#3D0938"/>
<path d="M344.959 273.072C344.557 261.477 334.857 252.408 323.262 252.809C322.171 252.867 321.081 252.982 319.99 253.154C315.283 240.641 303.057 231.973 288.937 232.432C285.895 232.547 283.025 233.064 280.269 233.925C275.85 212.687 256.621 197.074 234.235 197.82C218.507 198.337 204.903 206.775 197.154 219.23C193.136 218.025 188.889 217.451 184.526 217.623C162.542 218.369 145.322 236.795 146.068 258.779C146.814 280.763 165.24 297.983 187.224 297.237C188.544 297.18 189.864 297.065 191.185 296.893C198.819 312.505 215.12 322.952 233.603 322.321C252.66 321.689 268.617 309.406 274.816 292.473C279.638 295.113 285.263 296.548 291.175 296.319C298.293 296.089 304.837 293.506 310.003 289.373C313.906 292.817 319.072 294.884 324.697 294.711C336.234 294.367 345.304 284.666 344.959 273.072Z" fill="white"/>
<path d="M343.926 267.389C341.286 275.597 333.766 281.624 324.64 281.969C319.014 282.141 313.848 280.132 309.945 276.63C304.779 280.763 298.236 283.346 291.118 283.576C285.206 283.748 279.581 282.37 274.759 279.73C268.56 296.606 252.66 308.889 233.546 309.578C215.063 310.209 198.819 299.705 191.127 284.15C189.807 284.322 188.487 284.437 187.167 284.494C166.904 285.183 149.684 270.603 146.527 251.087C146.126 253.613 145.953 256.196 146.011 258.894C146.757 280.878 165.182 298.098 187.167 297.352C188.487 297.294 189.807 297.18 191.127 297.007C198.761 312.62 215.063 323.067 233.546 322.436C252.603 321.804 268.56 309.521 274.759 292.588C279.581 295.228 285.206 296.663 291.118 296.433C298.236 296.204 304.779 293.621 309.945 289.488C313.848 292.932 319.014 294.998 324.64 294.826C336.234 294.424 345.304 284.724 344.902 273.129C344.902 271.12 344.5 269.168 343.926 267.389Z" fill="#CCFFFF"/>
<path d="M344.959 273.072C344.557 261.477 334.857 252.408 323.262 252.809C322.171 252.867 321.081 252.982 319.99 253.154C315.283 240.641 303.057 231.973 288.937 232.432C285.895 232.547 283.025 233.064 280.269 233.925C275.85 212.687 256.621 197.074 234.235 197.82C218.507 198.337 204.903 206.775 197.154 219.23C193.136 218.025 188.889 217.451 184.526 217.623C162.542 218.369 145.322 236.795 146.068 258.779C146.814 280.763 165.24 297.983 187.224 297.237C188.544 297.18 189.864 297.065 191.185 296.893C198.819 312.505 215.12 322.952 233.603 322.321C252.66 321.689 268.617 309.406 274.816 292.473C279.638 295.113 285.263 296.548 291.175 296.319C298.293 296.089 304.837 293.506 310.003 289.373C313.906 292.817 319.072 294.884 324.697 294.711C336.234 294.367 345.304 284.666 344.959 273.072Z" stroke="#3D0938" stroke-width="4" stroke-miterlimit="10" stroke-linecap="round" stroke-linejoin="round"/>
<path d="M376.414 266.011L384.163 276.343L388.124 269.972L376.414 266.011Z" fill="#F0406F"/>
<path d="M376.414 266.011L384.163 276.343L388.124 269.972L376.414 266.011Z" stroke="#3D0938" stroke-width="4" stroke-miterlimit="10" stroke-linecap="round" stroke-linejoin="round"/>
<path d="M381.81 255.392L388.124 269.972L394.955 266.184L381.81 255.392Z" fill="#F0406F"/>
<path d="M381.81 255.392L388.124 269.972L394.955 266.184L381.81 255.392Z" stroke="#3D0938" stroke-width="4" stroke-miterlimit="10" stroke-linecap="round" stroke-linejoin="round"/>
<path d="M490.927 277.778C485.474 278.467 473.248 279.041 459.243 273.99C440.243 267.159 430.543 268.307 426.352 269.57C424.917 269.972 423.482 270.489 422.047 271.12C409.649 276.917 404.311 291.727 410.166 304.068C413.839 311.931 421.129 316.925 429.108 318.073C429.108 318.073 429.337 318.131 429.796 318.131C429.911 318.131 430.026 318.131 430.141 318.188C433.126 318.532 442.08 319.279 448.164 317.384C454.478 314.4 445.294 311.243 445.294 311.243C445.294 311.243 452.469 313.252 457.865 310.496C465.786 306.421 456.947 303.551 456.947 303.551C456.947 303.551 464.753 305.904 470.493 300.624C474.109 297.294 470.952 296.146 468.082 295.745C472.1 295.802 478.759 295.228 480.997 291.038C482.604 288.053 478.988 287.364 476.29 287.249C479.677 287.135 485.704 286.446 489.148 283.805C490.755 282.543 491.846 281.452 492.592 280.534C493.51 279.386 492.477 277.606 490.927 277.778Z" fill="#D4907F"/>
<path d="M490.927 277.778C485.474 278.467 473.248 279.041 459.243 273.99C440.243 267.159 430.543 268.307 426.352 269.57C424.917 269.972 423.482 270.489 422.047 271.12C409.649 276.917 404.311 291.727 410.166 304.068C413.839 311.931 421.129 316.925 429.108 318.073C429.108 318.073 429.337 318.131 429.796 318.131C429.911 318.131 430.026 318.131 430.141 318.188C433.126 318.532 442.08 319.279 448.164 317.384C454.478 314.4 445.294 311.243 445.294 311.243C445.294 311.243 452.469 313.252 457.865 310.496C465.786 306.421 456.947 303.551 456.947 303.551C456.947 303.551 464.753 305.904 470.493 300.624C474.109 297.294 470.952 296.146 468.082 295.745C472.1 295.802 478.759 295.228 480.997 291.038C482.604 288.053 477.496 287.307 474.855 287.192C478.242 287.077 485.704 286.446 489.148 283.805C490.755 282.543 491.846 281.452 492.592 280.534C493.51 279.386 492.477 277.606 490.927 277.778Z" stroke="#3D0938" stroke-width="4" stroke-miterlimit="10" stroke-linecap="round" stroke-linejoin="round"/>
<path d="M453.847 322.378C453.847 322.378 465.786 325.133 482.891 335.638C500.054 346.084 507.172 343.616 507.172 343.616" stroke="#3D0938" stroke-width="5" stroke-miterlimit="10" stroke-linecap="round" stroke-linejoin="round"/>
<path d="M486.967 348.38C486.967 348.38 479.103 348.093 471.297 337.934C463.49 327.774 460.391 322.895 457.119 322.665" stroke="#3D0938" stroke-width="5" stroke-miterlimit="10" stroke-linecap="round" stroke-linejoin="round"/>
<path d="M516.126 302.346C516.643 301.772 517.102 300.796 516.93 299.82C516.872 299.59 516.7 298.959 516.126 298.557C515.552 298.098 514.748 297.926 513.887 298.098C515.609 297.696 516.7 296.146 516.47 294.654C516.183 293.162 514.576 292.071 512.854 292.301C513.715 292.186 514.404 291.727 514.806 291.095C515.15 290.521 515.15 289.89 515.093 289.603C514.978 288.627 514.174 287.881 513.486 287.536C511.993 286.79 510.099 287.594 508.492 288.283C505.335 289.603 503.383 291.612 502.006 293.047C500.972 294.137 499.537 295.745 498.217 297.983C500.226 299.59 502.12 300.624 503.441 301.255C505.22 302.116 507.746 303.264 511.19 303.436C512.912 303.494 514.978 303.551 516.126 302.346Z" fill="#F0406F"/>
<path d="M515.839 299.82C515.782 299.59 515.609 298.959 515.035 298.557C514.921 298.5 514.806 298.442 514.691 298.328C514.519 298.729 514.289 299.017 514.06 299.304C512.912 300.509 510.845 300.451 509.123 300.394C505.679 300.222 503.154 299.074 501.374 298.213C500.456 297.811 499.365 297.18 498.102 296.376C497.758 296.893 497.414 297.409 497.069 297.983C499.078 299.59 500.972 300.624 502.293 301.255C504.072 302.116 506.598 303.264 510.042 303.436C511.764 303.494 513.83 303.551 514.978 302.346C515.609 301.772 516.069 300.796 515.839 299.82Z" fill="#DB2C62"/>
<path d="M512.797 288.11C512.395 288.742 511.706 289.201 510.845 289.316C512.108 289.144 513.313 289.718 513.945 290.579C514.06 290.177 514.002 289.832 514.002 289.66C513.887 288.914 513.428 288.283 512.912 287.881C512.854 287.938 512.854 287.996 512.797 288.11Z" fill="#DB2C62"/>
<path d="M497.127 297.926C497.299 298.041 497.471 298.155 497.643 298.328C498.389 297.294 499.136 296.491 499.767 295.859C501.145 294.424 503.096 292.473 506.253 291.095C507.86 290.406 509.755 289.66 511.247 290.349C511.821 290.636 512.452 291.21 512.739 291.956C513.141 291.727 513.486 291.44 513.715 291.095C514.06 290.521 514.06 289.89 514.002 289.603C513.887 288.627 513.084 287.881 512.395 287.536C510.903 286.79 509.008 287.594 507.401 288.283C504.244 289.603 502.293 291.612 500.915 293.047C499.882 294.137 498.447 295.745 497.127 297.926Z" fill="#F96291"/>
<path d="M516.126 302.346C516.643 301.772 517.102 300.796 516.93 299.82C516.872 299.59 516.7 298.959 516.126 298.557C515.552 298.098 514.748 297.926 513.887 298.098C515.609 297.696 516.7 296.146 516.47 294.654C516.183 293.162 514.576 292.071 512.854 292.301C513.715 292.186 514.404 291.727 514.806 291.095C515.15 290.521 515.15 289.89 515.093 289.603C514.978 288.627 514.174 287.881 513.486 287.536C511.993 286.79 510.099 287.594 508.492 288.283C505.335 289.603 503.383 291.612 502.006 293.047C500.972 294.137 499.537 295.745 498.217 297.983C500.226 299.59 502.12 300.624 503.441 301.255C505.22 302.116 507.746 303.264 511.19 303.436C512.912 303.494 514.978 303.551 516.126 302.346Z" stroke="#3D0938" stroke-width="4" stroke-miterlimit="10" stroke-linecap="round" stroke-linejoin="round"/>
<path d="M498.16 297.983C498.16 297.983 472.043 300.337 445.294 280.993C436.168 274.392 430.198 270.144 426.295 267.504C424.401 265.782 422.22 264.289 419.809 263.199C418.948 262.682 419.005 262.797 419.005 262.797C415.791 261.419 412.175 260.616 408.444 260.616C393.749 260.616 381.81 272.555 381.81 287.249C381.81 297.237 387.32 305.962 395.471 310.496C395.471 310.496 395.529 310.554 395.643 310.554C396.677 311.128 397.767 311.587 398.858 312.046C410.912 317.097 453.503 331.16 498.16 297.983Z" fill="#F1CB9C"/>
<path d="M408.444 263.715C412.175 263.715 415.791 264.519 419.005 265.897C419.005 265.897 418.948 265.782 419.809 266.298C422.162 267.446 424.343 268.881 426.295 270.603C430.198 273.301 436.11 277.491 445.294 284.092C466.073 299.074 487.77 299.705 495.864 299.82C497.069 298.959 496.954 299.476 498.16 298.557C498.16 298.557 472.043 300.911 445.294 281.567C436.168 274.966 430.198 270.718 426.295 268.078C424.401 266.356 422.22 264.863 419.809 263.773C418.948 263.256 419.005 263.371 419.005 263.371C415.791 261.993 412.175 261.19 408.444 261.19C393.749 261.19 381.81 273.129 381.81 287.823C381.81 288.225 381.81 288.57 381.867 288.914C382.614 274.851 394.208 263.715 408.444 263.715Z" fill="#F8E4C1"/>
<path d="M491.674 297.926C450.059 323.928 411.773 311.3 400.465 306.478C399.374 306.077 398.284 305.56 397.251 304.986C397.136 304.929 397.078 304.929 397.078 304.929C388.928 300.394 383.417 291.669 383.417 281.682C383.417 280.074 383.589 278.525 383.819 276.975C382.499 280.132 381.753 283.576 381.753 287.192C381.753 297.18 387.263 305.904 395.414 310.439C395.414 310.439 395.471 310.496 395.586 310.496C396.619 311.07 397.71 311.53 398.8 311.989C410.854 317.097 453.445 331.103 498.102 297.926C498.16 297.983 495.749 298.155 491.674 297.926Z" fill="#D4907F"/>
<path d="M498.16 297.983C498.16 297.983 472.043 300.337 445.294 280.993C436.168 274.392 430.198 270.144 426.295 267.504C424.401 265.782 422.22 264.289 419.809 263.199C418.948 262.682 419.005 262.797 419.005 262.797C415.791 261.419 412.175 260.616 408.444 260.616C393.749 260.616 381.81 272.555 381.81 287.249C381.81 297.237 387.32 305.962 395.471 310.496C395.471 310.496 395.529 310.554 395.643 310.554C396.677 311.128 397.767 311.587 398.858 312.046C410.912 317.097 453.503 331.16 498.16 297.983Z" stroke="#3D0938" stroke-width="4" stroke-miterlimit="10" stroke-linecap="round" stroke-linejoin="round"/>
<path d="M479.275 322.55C474.052 320.828 462.744 316.179 452.24 305.675C437.947 291.382 428.648 288.283 424.343 287.709C422.851 287.422 421.359 287.307 419.809 287.307C406.148 287.307 395.012 298.385 395.012 312.104C395.012 320.771 399.489 328.405 406.205 332.825C406.205 332.825 406.435 332.94 406.779 333.169C406.894 333.227 406.951 333.284 407.066 333.342C409.592 334.891 417.398 339.426 423.712 340.287C430.715 340.287 423.712 333.514 423.712 333.514C423.712 333.514 429.337 338.393 435.364 338.163C444.261 337.876 437.488 331.447 437.488 331.447C437.488 331.447 443.515 336.9 450.977 334.547C455.684 333.055 453.273 330.701 450.862 329.094C454.478 330.873 460.735 333.227 464.581 330.357C467.279 328.348 464.294 326.167 461.94 324.904C465.097 326.224 470.78 328.176 475.028 327.257C477.037 326.798 478.472 326.281 479.562 325.765C480.94 325.133 480.768 323.067 479.275 322.55Z" fill="#EFAB89"/>
<path d="M424.229 335.064C417.915 334.203 410.108 329.668 407.583 328.118C407.468 328.061 407.41 328.003 407.296 327.946C406.951 327.716 406.722 327.602 406.722 327.602C400.006 323.182 395.529 315.548 395.529 306.88C395.529 306.823 395.529 306.765 395.529 306.708C395.127 308.43 394.955 310.209 394.955 312.046C394.955 320.714 399.432 328.348 406.148 332.768C406.148 332.768 406.377 332.882 406.722 333.112C406.836 333.169 406.894 333.227 407.009 333.284C409.534 334.834 417.341 339.369 423.655 340.23C428.476 340.23 426.639 337.015 425.09 335.006C424.803 335.064 424.516 335.064 424.229 335.064Z" fill="#D4907F"/>
<path d="M479.275 322.55C478.644 322.321 477.898 322.091 477.037 321.747C476.577 321.862 475.889 321.689 475.544 322.091C473.42 325.076 461.596 323.641 458.496 322.321C460.85 323.584 460.391 324.215 465.155 325.133C465.557 325.191 464.523 325.535 464.179 325.707C467.393 326.855 471.641 327.946 475.028 327.2C477.037 326.741 478.472 326.224 479.562 325.707C480.94 325.133 480.768 323.067 479.275 322.55Z" fill="#D4907F"/>
<path d="M435.881 332.94C429.796 333.169 421.244 328.692 421.244 328.692C419.924 329.668 419.235 328.405 425.606 334.891C427.787 336.326 431.404 338.221 435.249 338.106C441.736 337.876 439.899 334.432 438.406 332.595C437.832 332.825 436.971 332.94 435.881 332.94Z" fill="#D4907F"/>
<path d="M451.321 329.438C443.917 331.62 435.135 327.544 435.135 327.544C435.135 327.544 435.651 329.668 438.808 332.481C440.989 333.916 445.581 336.212 450.92 334.547C455.339 333.169 453.56 330.988 451.321 329.438Z" fill="#D4907F"/>
<path d="M463.662 325.994C460.62 328.692 450.403 326.683 447.189 325.133C449.599 326.683 449.599 327.946 451.494 329.381H451.436C455.11 331.103 460.907 333.055 464.523 330.357C466.59 328.864 465.442 327.257 463.662 325.994Z" fill="#D4907F"/>
<path d="M479.275 322.55C474.052 320.828 462.744 316.179 452.24 305.675C437.947 291.382 428.648 288.283 424.343 287.709C422.851 287.422 421.359 287.307 419.809 287.307C406.148 287.307 395.012 298.385 395.012 312.104C395.012 320.771 399.489 328.405 406.205 332.825C406.205 332.825 406.435 332.94 406.779 333.169C406.894 333.227 406.951 333.284 407.066 333.342C409.592 334.891 417.398 339.426 423.712 340.287C430.715 340.287 423.712 333.514 423.712 333.514C423.712 333.514 429.337 338.393 435.364 338.163C444.261 337.876 437.488 331.447 437.488 331.447C437.488 331.447 443.515 336.9 450.977 334.547C455.684 333.055 453.273 330.701 450.862 329.094C454.478 330.873 460.735 333.227 464.581 330.357C467.279 328.348 464.294 326.167 461.94 324.904C465.097 326.224 470.78 328.176 475.028 327.257C477.037 326.798 478.472 326.281 479.562 325.765C480.94 325.133 480.768 323.067 479.275 322.55Z" stroke="#3D0938" stroke-width="4" stroke-miterlimit="10" stroke-linecap="round" stroke-linejoin="round"/>
<path d="M397.71 275.769C397.71 275.769 398.054 282.083 403.909 282.083C409.018 282.083 410.453 279.673 410.453 279.673" stroke="#3D0938" stroke-width="4" stroke-miterlimit="10" stroke-linecap="round" stroke-linejoin="round"/>
<path d="M395.758 279.615L398.628 278.926" stroke="#3D0938" stroke-width="4" stroke-miterlimit="10" stroke-linecap="round" stroke-linejoin="round"/>
<path d="M398.628 282.83L400.006 280.763" stroke="#3D0938" stroke-width="4" stroke-miterlimit="10" stroke-linecap="round" stroke-linejoin="round"/>
<path d="M402.991 282.083V284.437" stroke="#3D0938" stroke-width="4" stroke-miterlimit="10" stroke-linecap="round" stroke-linejoin="round"/>
<path d="M407.755 281.509L408.845 284.437" stroke="#3D0938" stroke-width="4" stroke-miterlimit="10" stroke-linecap="round" stroke-linejoin="round"/>
<path d="M411.888 298.959C411.888 298.959 413.839 301.198 416.02 298.959" stroke="#3D0938" stroke-width="3" stroke-miterlimit="10" stroke-linecap="round" stroke-linejoin="round"/>
<path d="M405.344 309.176C405.344 309.176 409.305 310.783 410.912 307.052" stroke="#3D0938" stroke-width="3" stroke-miterlimit="10" stroke-linecap="round" stroke-linejoin="round"/>
<path d="M405.746 318.877C405.746 318.877 408.558 319.967 409.649 317.384" stroke="#3D0938" stroke-width="3" stroke-miterlimit="10" stroke-linecap="round" stroke-linejoin="round"/>
<path d="M429.222 306.536C429.222 306.536 431.633 308.373 433.413 306.191" stroke="#3D0938" stroke-width="3" stroke-miterlimit="10" stroke-linecap="round" stroke-linejoin="round"/>
<path d="M436.397 320.599C436.397 320.599 438.808 322.436 440.588 320.254" stroke="#3D0938" stroke-width="3" stroke-miterlimit="10" stroke-linecap="round" stroke-linejoin="round"/>
<path d="M441.621 312.85C441.621 312.85 444.032 314.687 445.811 312.505" stroke="#3D0938" stroke-width="3" stroke-miterlimit="10" stroke-linecap="round" stroke-linejoin="round"/>
<path d="M426.525 314.113C426.525 314.113 428.935 315.949 430.715 313.768" stroke="#3D0938" stroke-width="3" stroke-miterlimit="10" stroke-linecap="round" stroke-linejoin="round"/>
<path d="M447.303 276.688C447.303 276.688 449.714 278.525 451.494 276.343" stroke="#3D0938" stroke-width="3" stroke-miterlimit="10" stroke-linecap="round" stroke-linejoin="round"/>
<path d="M463.662 289.66C463.662 289.66 466.073 291.497 467.853 289.316" stroke="#3D0938" stroke-width="3" stroke-miterlimit="10" stroke-linecap="round" stroke-linejoin="round"/>
<path d="M463.72 283.691C463.72 283.691 466.532 284.781 467.623 282.141" stroke="#3D0938" stroke-width="3" stroke-miterlimit="10" stroke-linecap="round" stroke-linejoin="round"/>
<path d="M455.225 282.428C455.225 282.428 458.209 282.772 458.611 279.96" stroke="#3D0938" stroke-width="3" stroke-miterlimit="10" stroke-linecap="round" stroke-linejoin="round"/>
<path d="M418.661 321.517C418.661 321.517 421.531 322.493 422.507 319.91" stroke="#3D0938" stroke-width="3" stroke-miterlimit="10" stroke-linecap="round" stroke-linejoin="round"/>
<path d="M417.685 305.675C417.685 305.675 420.785 307.913 422.966 305.043" stroke="#3D0938" stroke-width="3" stroke-miterlimit="10" stroke-linecap="round" stroke-linejoin="round"/>
<path d="M416.02 312.907C416.02 312.907 419.12 315.146 421.301 312.276" stroke="#3D0938" stroke-width="3" stroke-miterlimit="10" stroke-linecap="round" stroke-linejoin="round"/>
<path d="M420.383 329.094C420.383 329.094 420.842 330.644 423.655 333.456" stroke="#3D0938" stroke-width="4" stroke-miterlimit="10" stroke-linecap="round" stroke-linejoin="round"/>
<path d="M437.431 331.447C437.431 331.447 436.225 330.701 434.388 328.003" stroke="#3D0938" stroke-width="4" stroke-miterlimit="10" stroke-linecap="round" stroke-linejoin="round"/>
<path d="M450.862 329.094C450.862 329.094 448.394 327.372 446.385 325.133" stroke="#3D0938" stroke-width="4" stroke-miterlimit="10" stroke-linecap="round" stroke-linejoin="round"/>
<path d="M461.94 324.961C461.94 324.961 458.095 323.354 457.061 322.321" stroke="#3D0938" stroke-width="4" stroke-miterlimit="10" stroke-linecap="round" stroke-linejoin="round"/>
<path d="M364.647 219.403V231.744C364.36 231.686 364.016 231.629 363.672 231.629C361.433 231.629 359.596 233.179 359.596 235.13C359.596 237.082 361.433 238.632 363.672 238.632C365.91 238.632 367.747 237.082 367.747 235.13V221.526L376.701 217.738V227.553C376.414 227.496 376.07 227.439 375.726 227.439C373.487 227.439 371.65 228.988 371.65 230.94C371.65 232.892 373.487 234.441 375.726 234.441C377.964 234.441 379.801 232.892 379.801 230.94V216.418V215.212V212.974L364.647 219.403Z" fill="#F0406F"/>
<path d="M364.647 219.403V231.744C364.36 231.686 364.016 231.629 363.672 231.629C361.433 231.629 359.596 233.179 359.596 235.13C359.596 237.082 361.433 238.632 363.672 238.632C365.91 238.632 367.747 237.082 367.747 235.13V221.526L376.701 217.738V227.553C376.414 227.496 376.07 227.439 375.726 227.439C373.487 227.439 371.65 228.988 371.65 230.94C371.65 232.892 373.487 234.441 375.726 234.441C377.964 234.441 379.801 232.892 379.801 230.94V216.418V215.212V212.974L364.647 219.403Z" stroke="#3D0938" stroke-width="2" stroke-miterlimit="10" stroke-linecap="round" stroke-linejoin="round"/>
<path d="M363.901 169.063L359.768 183.815C359.596 184.503 358.85 184.848 358.161 184.676C355.234 183.872 352.249 185.25 351.56 187.775C350.871 190.301 352.651 192.999 355.578 193.802C358.506 194.606 361.49 193.228 362.179 190.703L366.886 173.712C367.001 173.253 367.46 172.851 367.919 172.794L378.251 171.474C379.17 171.359 379.858 172.162 379.629 173.081L376.931 182.724C376.759 183.413 376.013 183.757 375.324 183.585C372.396 182.781 369.412 184.159 368.723 186.685C368.034 189.21 369.813 191.908 372.741 192.712C375.668 193.515 378.653 192.138 379.342 189.612L384.623 170.67L385.024 169.12L385.311 168.03C385.541 167.169 384.852 166.308 383.934 166.422L363.901 169.063Z" fill="#21E8A6"/>
<path d="M363.901 169.063L359.768 183.815C359.596 184.503 358.85 184.848 358.161 184.676C355.234 183.872 352.249 185.25 351.56 187.775C350.871 190.301 352.651 192.999 355.578 193.802C358.506 194.606 361.49 193.228 362.179 190.703L366.886 173.712C367.001 173.253 367.46 172.851 367.919 172.794L378.251 171.474C379.17 171.359 379.858 172.162 379.629 173.081L376.931 182.724C376.759 183.413 376.013 183.757 375.324 183.585C372.396 182.781 369.412 184.159 368.723 186.685C368.034 189.21 369.813 191.908 372.741 192.712C375.668 193.515 378.653 192.138 379.342 189.612L384.623 170.67L385.024 169.12L385.311 168.03C385.541 167.169 384.852 166.308 383.934 166.422L363.901 169.063Z" stroke="#3D0938" stroke-width="2" stroke-miterlimit="10" stroke-linecap="round" stroke-linejoin="round"/>
<path d="M372.109 245.175L371.65 245.864C371.191 246.553 370.56 247.069 369.871 247.471L366.14 249.595L366.656 251.374L368.665 257.975C368.436 257.975 368.264 258.033 368.034 258.09C366.829 258.435 366.082 259.583 366.369 260.673C366.656 261.706 367.919 262.28 369.182 261.936C370.33 261.592 370.617 261.247 370.445 260.271L370.502 259.697L368.493 252.522L371.019 251.03C371.822 250.571 372.511 249.939 373.028 249.136L373.257 248.791L372.109 245.175Z" fill="#E38980"/>
<path d="M372.683 245.175L372.224 245.864C371.765 246.553 371.134 247.069 370.445 247.471L366.714 249.595L367.23 251.374L369.239 257.975C369.01 257.975 368.838 258.033 368.608 258.09C367.403 258.435 366.656 259.583 366.943 260.673C367.23 261.706 368.493 262.28 369.756 261.936C370.904 261.592 370.445 261.132 370.273 260.099L368.091 252.867L371.593 251.03C372.396 250.571 373.085 249.939 373.602 249.136L373.831 248.791L372.683 245.175Z" stroke="#3D0938" stroke-width="2" stroke-miterlimit="10" stroke-linecap="round" stroke-linejoin="round"/>
<path d="M215.063 136.747C213.915 130.203 207.716 125.841 201.23 126.989C201.115 126.989 201 127.046 200.943 127.046C198.073 119.527 190.209 114.82 181.943 116.255C174.826 117.518 169.487 122.971 168.11 129.629C166.101 128.538 163.747 128.079 161.337 128.538C155.654 129.514 151.866 134.91 152.841 140.592C153.817 146.275 159.213 150.063 164.895 149.088C166.79 148.743 168.454 147.94 169.832 146.792C171.152 154.368 178.442 159.477 186.019 158.157C191.185 157.238 195.26 153.622 196.867 148.973C199.278 150.523 202.263 151.211 205.362 150.695C211.849 149.432 216.211 143.233 215.063 136.747Z" fill="white"/>
<path d="M206.281 145.586C203.239 146.103 200.196 145.414 197.786 143.864C196.178 148.514 192.16 152.13 186.937 153.048C179.303 154.368 172.07 149.26 170.75 141.683C169.373 142.831 167.708 143.635 165.814 143.979C160.131 144.955 154.736 141.166 153.76 135.484C153.702 135.082 153.645 134.68 153.645 134.336C152.784 136.173 152.44 138.354 152.841 140.535C153.817 146.218 159.213 150.006 164.895 149.03C166.79 148.686 168.454 147.882 169.832 146.734C171.152 154.311 178.442 159.42 186.019 158.099C191.185 157.181 195.26 153.565 196.867 148.915C199.278 150.465 202.263 151.154 205.362 150.637C211.275 149.604 215.407 144.381 215.293 138.526C213.685 142.085 210.414 144.84 206.281 145.586Z" fill="#CCFFFF"/>
<path opacity="0.43" d="M199.393 156.09C200.656 156.377 201.918 156.492 203.239 156.492C204.272 156.492 205.248 156.377 206.281 156.205C215.924 154.541 222.41 145.357 220.688 135.713C219.942 131.581 217.818 127.964 214.833 125.381C207.314 136 201.115 147.366 196.293 159.305C197.499 158.329 198.532 157.296 199.393 156.09Z" fill="#3D0938"/>
<path d="M215.063 136.747C213.915 130.203 207.716 125.841 201.23 126.989C201.115 126.989 201 127.046 200.943 127.046C198.073 119.527 190.209 114.82 181.943 116.255C174.826 117.518 169.487 122.971 168.11 129.629C166.101 128.538 163.747 128.079 161.337 128.538C155.654 129.514 151.866 134.91 152.841 140.592C153.817 146.275 159.213 150.063 164.895 149.088C166.79 148.743 168.454 147.94 169.832 146.792C171.152 154.368 178.442 159.477 186.019 158.157C191.185 157.238 195.26 153.622 196.867 148.973C199.278 150.523 202.263 151.211 205.362 150.695C211.849 149.432 216.211 143.233 215.063 136.747Z" stroke="#3D0938" stroke-width="4" stroke-miterlimit="10" stroke-linecap="round" stroke-linejoin="round"/>
<path d="M516.298 152.245C511.764 152.245 507.631 154.139 504.703 157.238C502.924 139.731 488.115 126.128 470.149 126.128C455.339 126.128 442.654 135.426 437.718 148.514C434.159 147.251 430.313 146.562 426.238 146.562C409.19 146.562 395.356 158.788 395.356 173.884C395.356 188.005 407.468 199.657 423.023 201.092C426.869 213.95 438.808 223.363 452.929 223.363C465.958 223.363 477.094 215.385 481.801 204.077C485.474 207.349 490.239 209.3 495.519 209.3C506.942 209.3 516.183 200.059 516.183 188.636C516.183 187.144 516.011 185.766 515.724 184.389C515.896 184.389 516.011 184.389 516.183 184.389C525.023 184.389 532.198 177.214 532.198 168.374C532.313 159.42 525.138 152.245 516.298 152.245Z" stroke="#3D0938" stroke-width="4" stroke-miterlimit="10" stroke-linecap="round" stroke-linejoin="round"/>
</svg>
