<svg width="364" height="247" viewBox="0 0 364 247" fill="none" xmlns="http://www.w3.org/2000/svg">
<g filter="url(#filter0_d)">
<path d="M343 10.5H19C14.8579 10.5 11.5 13.8579 11.5 18V229C11.5 233.142 14.8579 236.5 19 236.5H343C347.142 236.5 350.5 233.142 350.5 229V18C350.5 13.8579 347.142 10.5 343 10.5Z" fill="white" stroke="#3F98BB" stroke-width="3"/>
</g>
<path d="M126.439 198H150" stroke="#3F98BB" stroke-width="3"/>
<path d="M108 198H115.171" stroke="#3F98BB" stroke-width="3"/>
<path d="M126.439 208.5H150" stroke="#3F98BB" stroke-width="3"/>
<path d="M108 208.5H115.171" stroke="#3F98BB" stroke-width="3"/>
<path d="M126.439 219H150" stroke="#3F98BB" stroke-width="3"/>
<path d="M108 219H115.171" stroke="#3F98BB" stroke-width="3"/>
<path d="M54.9746 106.449C62.9687 106.449 69.4492 99.9687 69.4492 91.9746C69.4492 83.9805 62.9687 77.5 54.9746 77.5C46.9805 77.5 40.5 83.9805 40.5 91.9746C40.5 99.9687 46.9805 106.449 54.9746 106.449Z" fill="white" stroke="#3F98BB" stroke-width="3"/>
<path d="M46.3729 93.0143L49.6395 97.6245C50.726 99.1579 52.9389 99.3262 54.2447 97.9746L64.3955 87.4689" stroke="#FFC850" stroke-width="3" stroke-linecap="round"/>
<path d="M54.9746 153.45C62.9687 153.45 69.4492 146.969 69.4492 138.975C69.4492 130.981 62.9687 124.5 54.9746 124.5C46.9805 124.5 40.5 130.981 40.5 138.975C40.5 146.969 46.9805 153.45 54.9746 153.45Z" fill="white" stroke="#3F98BB" stroke-width="3"/>
<path d="M64.0254 231.55C78.675 231.55 90.5508 219.675 90.5508 205.025C90.5508 190.375 78.675 178.5 64.0254 178.5C49.3758 178.5 37.5 190.375 37.5 205.025C37.5 219.675 49.3758 231.55 64.0254 231.55Z" fill="white" stroke="#3F98BB" stroke-width="3"/>
<path d="M64.0255 222.5C73.6765 222.5 81.5001 214.676 81.5001 205.025C81.5001 195.374 73.6765 187.55 64.0255 187.55C54.3745 187.55 46.5509 195.374 46.5509 205.025C46.5509 214.676 54.3745 222.5 64.0255 222.5Z" fill="white" stroke="#3F98BB" stroke-width="3"/>
<path d="M64.0254 212C67.8773 212 70.9999 208.877 70.9999 205.025C70.9999 201.173 67.8773 198.05 64.0254 198.05C60.1735 198.05 57.0509 201.173 57.0509 205.025C57.0509 208.877 60.1735 212 64.0254 212Z" fill="#FFC850"/>
<path d="M64.0254 212C67.8773 212 70.9999 208.877 70.9999 205.025C70.9999 201.173 67.8773 198.05 64.0254 198.05C60.1735 198.05 57.0509 201.173 57.0509 205.025C57.0509 208.877 60.1735 212 64.0254 212Z" stroke="#3F98BB"/>
<path d="M223.055 88.0549L212.255 98.8549C211.58 99.53 211.201 100.445 211.201 101.4C211.201 102.355 211.58 103.27 212.255 103.945L223.055 114.745L228.145 109.655L219.89 101.4L228.145 93.1453L223.055 88.0549Z" fill="#3F98BB" stroke="white" stroke-width="5"/>
<mask id="mask0" mask-type="alpha" maskUnits="userSpaceOnUse" x="24" y="15" width="216" height="216">
<path d="M222 166.2H218.4V162.6C218.391 159.738 217.251 156.996 215.227 154.972C213.203 152.949 210.461 151.808 207.6 151.8H186C183.138 151.808 180.396 152.949 178.372 154.972C176.349 156.996 175.208 159.738 175.2 162.6V177C175.2 177.954 174.82 178.87 174.145 179.545C173.47 180.22 172.555 180.6 171.6 180.6H135.6V173.4H157.2C160.061 173.391 162.804 172.251 164.827 170.227C166.851 168.204 167.991 165.461 168 162.6V125.232C172.015 119.191 174.43 112.229 175.02 105H195.324L205.044 114.756L210.156 109.644L201.876 101.4L210.156 93.1559L205.044 88.0439L195.324 97.7999H175.02C174.43 90.5703 172.015 83.6088 168 77.5679V40.2C167.991 37.3383 166.851 34.5962 164.827 32.5727C162.804 30.5491 160.061 29.4085 157.2 29.4H146.4V25.8C146.4 22.9356 145.262 20.1886 143.237 18.1632C141.211 16.1379 138.464 15 135.6 15C132.735 15 129.988 16.1379 127.963 18.1632C125.938 20.1886 124.8 22.9356 124.8 25.8V29.4H106.8V25.8C106.8 22.9356 105.662 20.1886 103.637 18.1632C101.611 16.1379 98.8642 15 95.9999 15C93.1355 15 90.3885 16.1379 88.3631 18.1632C86.3377 20.1886 85.1999 22.9356 85.1999 25.8V29.4H67.1999V25.8C67.1999 22.9356 66.0621 20.1886 64.0367 18.1632C62.0113 16.1379 59.2643 15 56.3999 15C53.5356 15 50.7886 16.1379 48.7632 18.1632C46.7378 20.1886 45.6 22.9356 45.6 25.8V29.4H34.8C31.9383 29.4085 29.1962 30.5491 27.1727 32.5727C25.1491 34.5962 24.0085 37.3383 24 40.2V162.6C24.0085 165.461 25.1491 168.204 27.1727 170.227C29.1962 172.251 31.9383 173.391 34.8 173.4H128.4V184.2C128.4 185.154 128.779 186.07 129.454 186.745C130.129 187.42 131.045 187.8 132 187.8H171.6C174.461 187.791 177.204 186.651 179.227 184.627C181.251 182.603 182.391 179.861 182.4 177V162.6C182.4 161.645 182.779 160.729 183.454 160.054C184.129 159.379 185.045 159 186 159H207.6C208.554 159 209.47 159.379 210.145 160.054C210.82 160.729 211.2 161.645 211.2 162.6V166.2H207.6C202.826 166.2 198.247 168.096 194.872 171.472C191.496 174.847 189.6 179.426 189.6 184.2V213C189.6 217.774 191.496 222.352 194.872 225.728C198.247 229.103 202.826 231 207.6 231H222C226.774 231 231.352 229.103 234.728 225.728C238.103 222.352 240 217.774 240 213V184.2C240 179.426 238.103 174.847 234.728 171.472C231.352 168.096 226.774 166.2 222 166.2ZM160.8 162.6C160.8 163.555 160.42 164.47 159.745 165.145C159.07 165.82 158.155 166.2 157.2 166.2H135.6V144.42C144.968 143.645 153.823 139.812 160.8 133.512V162.6ZM132 25.8C132 24.8452 132.379 23.9295 133.054 23.2544C133.729 22.5793 134.645 22.2 135.6 22.2C136.555 22.2 137.47 22.5793 138.145 23.2544C138.821 23.9295 139.2 24.8452 139.2 25.8V40.2C139.2 41.1547 138.821 42.0704 138.145 42.7455C137.47 43.4207 136.555 43.8 135.6 43.8C134.645 43.8 133.729 43.4207 133.054 42.7455C132.379 42.0704 132 41.1547 132 40.2V25.8ZM92.3999 25.8C92.3999 24.8452 92.7792 23.9295 93.4543 23.2544C94.1294 22.5793 95.0451 22.2 95.9999 22.2C96.9547 22.2 97.8703 22.5793 98.5455 23.2544C99.2206 23.9295 99.5999 24.8452 99.5999 25.8V40.2C99.5999 41.1547 99.2206 42.0704 98.5455 42.7455C97.8703 43.4207 96.9547 43.8 95.9999 43.8C95.0451 43.8 94.1294 43.4207 93.4543 42.7455C92.7792 42.0704 92.3999 41.1547 92.3999 40.2V25.8ZM52.8 25.8C52.8 24.8452 53.1792 23.9295 53.8544 23.2544C54.5295 22.5793 55.4452 22.2 56.3999 22.2C57.3547 22.2 58.2704 22.5793 58.9455 23.2544C59.6207 23.9295 59.9999 24.8452 59.9999 25.8V40.2C59.9999 41.1547 59.6207 42.0704 58.9455 42.7455C58.2704 43.4207 57.3547 43.8 56.3999 43.8C55.4452 43.8 54.5295 43.4207 53.8544 42.7455C53.1792 42.0704 52.8 41.1547 52.8 40.2V25.8ZM31.2 40.2C31.2 39.2452 31.5793 38.3295 32.2544 37.6544C32.9295 36.9792 33.8452 36.6 34.8 36.6H45.6V40.2C45.6 43.0643 46.7378 45.8113 48.7632 47.8367C50.7886 49.8621 53.5356 50.9999 56.3999 50.9999C59.2643 50.9999 62.0113 49.8621 64.0367 47.8367C66.0621 45.8113 67.1999 43.0643 67.1999 40.2V36.6H85.1999V40.2C85.1999 43.0643 86.3377 45.8113 88.3631 47.8367C90.3885 49.8621 93.1355 50.9999 95.9999 50.9999C98.8642 50.9999 101.611 49.8621 103.637 47.8367C105.662 45.8113 106.8 43.0643 106.8 40.2V36.6H124.8V40.2C124.8 43.0643 125.938 45.8113 127.963 47.8367C129.988 49.8621 132.735 50.9999 135.6 50.9999C138.464 50.9999 141.211 49.8621 143.237 47.8367C145.262 45.8113 146.4 43.0643 146.4 40.2V36.6H157.2C158.155 36.6 159.07 36.9792 159.745 37.6544C160.42 38.3295 160.8 39.2452 160.8 40.2V69.2879C152.905 62.1511 142.642 58.1997 132 58.1999H31.2V40.2ZM128.4 166.2H34.8C33.8452 166.2 32.9295 165.82 32.2544 165.145C31.5793 164.47 31.2 163.555 31.2 162.6V65.3999H108.168C100.68 70.3462 94.9201 77.5037 91.69 85.8763C88.46 94.249 87.9204 103.42 90.1463 112.114C92.3722 120.808 97.2529 128.591 104.109 134.382C110.965 140.172 119.456 143.681 128.4 144.42V166.2ZM95.9999 101.4C95.9987 92.1633 99.5478 83.2797 105.913 76.5866C112.278 69.8934 120.973 65.903 130.198 65.4405C139.423 64.9781 148.472 68.0792 155.475 74.1022C162.478 80.1253 166.897 88.6095 167.82 97.7999H160.548C159.632 90.5313 155.981 83.8849 150.337 79.2137C144.693 74.5425 137.482 72.1976 130.17 72.6564C122.859 73.1152 115.997 76.3432 110.981 81.6832C105.966 87.0232 103.174 94.0738 103.174 101.4C103.174 108.726 105.966 115.777 110.981 121.117C115.997 126.457 122.859 129.685 130.17 130.143C137.482 130.602 144.693 128.257 150.337 123.586C155.981 118.915 159.632 112.268 160.548 105H167.82C166.897 114.19 162.478 122.674 155.475 128.697C148.472 134.721 139.423 137.822 130.198 137.359C120.973 136.897 112.278 132.906 105.913 126.213C99.5478 119.52 95.9987 110.636 95.9999 101.4ZM138.192 105C137.399 106.372 136.176 107.445 134.712 108.052C133.247 108.658 131.624 108.765 130.093 108.355C128.562 107.944 127.209 107.04 126.244 105.783C125.279 104.525 124.756 102.985 124.756 101.4C124.756 99.8149 125.279 98.2742 126.244 97.0168C127.209 95.7593 128.562 94.8554 130.093 94.4452C131.624 94.035 133.247 94.1414 134.712 94.7479C136.176 95.3545 137.399 96.4272 138.192 97.7999H132V105H138.192ZM132 86.9999C129.305 86.9911 126.661 87.739 124.37 89.1584C122.078 90.5778 120.232 92.6117 119.039 95.0288C117.847 97.4459 117.357 100.149 117.624 102.831C117.892 105.513 118.908 108.066 120.555 110.199C122.202 112.333 124.414 113.961 126.941 114.899C129.468 115.837 132.207 116.048 134.847 115.506C137.488 114.964 139.923 113.692 141.876 111.835C143.829 109.978 145.222 107.61 145.896 105H153.276C152.373 110.34 149.497 115.146 145.218 118.466C140.939 121.786 135.569 123.377 130.172 122.924C124.775 122.471 119.745 120.007 116.079 116.021C112.413 112.034 110.378 106.816 110.378 101.4C110.378 95.9839 112.413 90.7655 116.079 86.7789C119.745 82.7924 124.775 80.3285 130.172 79.8755C135.569 79.4226 140.939 81.0137 145.218 84.3336C149.497 87.6534 152.373 92.4596 153.276 97.7999H145.896C145.1 94.7165 143.304 91.9841 140.79 90.0299C138.275 88.0758 135.184 87.0102 132 86.9999ZM196.8 184.2C196.808 181.338 197.949 178.596 199.972 176.572C201.996 174.549 204.738 173.408 207.6 173.4H211.2V187.8H196.8V184.2ZM232.8 213C232.791 215.861 231.651 218.603 229.627 220.627C227.603 222.651 224.861 223.791 222 223.8H207.6C204.738 223.791 201.996 222.651 199.972 220.627C197.949 218.603 196.808 215.861 196.8 213V195H232.8V213ZM232.8 187.8H218.4V173.4H222C224.861 173.408 227.603 174.549 229.627 176.572C231.651 178.596 232.791 181.338 232.8 184.2V187.8Z" fill="white"/>
</mask>
<g mask="url(#mask0)">
<path d="M222 166.2H218.4V162.6C218.391 159.738 217.251 156.996 215.227 154.972C213.203 152.949 210.461 151.808 207.6 151.8H186C183.138 151.808 180.396 152.949 178.372 154.972C176.349 156.996 175.208 159.738 175.2 162.6V177C175.2 177.954 174.82 178.87 174.145 179.545C173.47 180.22 172.555 180.6 171.6 180.6H135.6V173.4H157.2C160.061 173.391 162.804 172.251 164.827 170.227C166.851 168.204 167.991 165.461 168 162.6V125.232C172.015 119.191 174.43 112.229 175.02 105H195.324L205.044 114.756L210.156 109.644L201.876 101.4L210.156 93.1559L205.044 88.0439L195.324 97.7999H175.02C174.43 90.5703 172.015 83.6088 168 77.5679V40.2C167.991 37.3383 166.851 34.5962 164.827 32.5727C162.804 30.5491 160.061 29.4085 157.2 29.4H146.4V25.8C146.4 22.9356 145.262 20.1886 143.237 18.1632C141.211 16.1379 138.464 15 135.6 15C132.735 15 129.988 16.1379 127.963 18.1632C125.938 20.1886 124.8 22.9356 124.8 25.8V29.4H106.8V25.8C106.8 22.9356 105.662 20.1886 103.637 18.1632C101.611 16.1379 98.8642 15 95.9999 15C93.1355 15 90.3885 16.1379 88.3631 18.1632C86.3377 20.1886 85.1999 22.9356 85.1999 25.8V29.4H67.1999V25.8C67.1999 22.9356 66.0621 20.1886 64.0367 18.1632C62.0113 16.1379 59.2643 15 56.3999 15C53.5356 15 50.7886 16.1379 48.7632 18.1632C46.7378 20.1886 45.6 22.9356 45.6 25.8V29.4H34.8C31.9383 29.4085 29.1962 30.5491 27.1727 32.5727C25.1491 34.5962 24.0085 37.3383 24 40.2V162.6C24.0085 165.461 25.1491 168.204 27.1727 170.227C29.1962 172.251 31.9383 173.391 34.8 173.4H128.4V184.2C128.4 185.154 128.779 186.07 129.454 186.745C130.129 187.42 131.045 187.8 132 187.8H171.6C174.461 187.791 177.204 186.651 179.227 184.627C181.251 182.603 182.391 179.861 182.4 177V162.6C182.4 161.645 182.779 160.729 183.454 160.054C184.129 159.379 185.045 159 186 159H207.6C208.554 159 209.47 159.379 210.145 160.054C210.82 160.729 211.2 161.645 211.2 162.6V166.2H207.6C202.826 166.2 198.247 168.096 194.872 171.472C191.496 174.847 189.6 179.426 189.6 184.2V213C189.6 217.774 191.496 222.352 194.872 225.728C198.247 229.103 202.826 231 207.6 231H222C226.774 231 231.352 229.103 234.728 225.728C238.103 222.352 240 217.774 240 213V184.2C240 179.426 238.103 174.847 234.728 171.472C231.352 168.096 226.774 166.2 222 166.2ZM160.8 162.6C160.8 163.555 160.42 164.47 159.745 165.145C159.07 165.82 158.155 166.2 157.2 166.2H135.6V144.42C144.968 143.645 153.823 139.812 160.8 133.512V162.6ZM132 25.8C132 24.8452 132.379 23.9295 133.054 23.2544C133.729 22.5793 134.645 22.2 135.6 22.2C136.555 22.2 137.47 22.5793 138.145 23.2544C138.821 23.9295 139.2 24.8452 139.2 25.8V40.2C139.2 41.1547 138.821 42.0704 138.145 42.7455C137.47 43.4207 136.555 43.8 135.6 43.8C134.645 43.8 133.729 43.4207 133.054 42.7455C132.379 42.0704 132 41.1547 132 40.2V25.8ZM92.3999 25.8C92.3999 24.8452 92.7792 23.9295 93.4543 23.2544C94.1294 22.5793 95.0451 22.2 95.9999 22.2C96.9547 22.2 97.8703 22.5793 98.5455 23.2544C99.2206 23.9295 99.5999 24.8452 99.5999 25.8V40.2C99.5999 41.1547 99.2206 42.0704 98.5455 42.7455C97.8703 43.4207 96.9547 43.8 95.9999 43.8C95.0451 43.8 94.1294 43.4207 93.4543 42.7455C92.7792 42.0704 92.3999 41.1547 92.3999 40.2V25.8ZM52.8 25.8C52.8 24.8452 53.1792 23.9295 53.8544 23.2544C54.5295 22.5793 55.4452 22.2 56.3999 22.2C57.3547 22.2 58.2704 22.5793 58.9455 23.2544C59.6207 23.9295 59.9999 24.8452 59.9999 25.8V40.2C59.9999 41.1547 59.6207 42.0704 58.9455 42.7455C58.2704 43.4207 57.3547 43.8 56.3999 43.8C55.4452 43.8 54.5295 43.4207 53.8544 42.7455C53.1792 42.0704 52.8 41.1547 52.8 40.2V25.8ZM31.2 40.2C31.2 39.2452 31.5793 38.3295 32.2544 37.6544C32.9295 36.9792 33.8452 36.6 34.8 36.6H45.6V40.2C45.6 43.0643 46.7378 45.8113 48.7632 47.8367C50.7886 49.8621 53.5356 50.9999 56.3999 50.9999C59.2643 50.9999 62.0113 49.8621 64.0367 47.8367C66.0621 45.8113 67.1999 43.0643 67.1999 40.2V36.6H85.1999V40.2C85.1999 43.0643 86.3377 45.8113 88.3631 47.8367C90.3885 49.8621 93.1355 50.9999 95.9999 50.9999C98.8642 50.9999 101.611 49.8621 103.637 47.8367C105.662 45.8113 106.8 43.0643 106.8 40.2V36.6H124.8V40.2C124.8 43.0643 125.938 45.8113 127.963 47.8367C129.988 49.8621 132.735 50.9999 135.6 50.9999C138.464 50.9999 141.211 49.8621 143.237 47.8367C145.262 45.8113 146.4 43.0643 146.4 40.2V36.6H157.2C158.155 36.6 159.07 36.9792 159.745 37.6544C160.42 38.3295 160.8 39.2452 160.8 40.2V69.2879C152.905 62.1511 142.642 58.1997 132 58.1999H31.2V40.2ZM128.4 166.2H34.8C33.8452 166.2 32.9295 165.82 32.2544 165.145C31.5793 164.47 31.2 163.555 31.2 162.6V65.3999H108.168C100.68 70.3462 94.9201 77.5037 91.69 85.8763C88.46 94.249 87.9204 103.42 90.1463 112.114C92.3722 120.808 97.2529 128.591 104.109 134.382C110.965 140.172 119.456 143.681 128.4 144.42V166.2ZM95.9999 101.4C95.9987 92.1633 99.5478 83.2797 105.913 76.5866C112.278 69.8934 120.973 65.903 130.198 65.4405C139.423 64.9781 148.472 68.0792 155.475 74.1022C162.478 80.1253 166.897 88.6095 167.82 97.7999H160.548C159.632 90.5313 155.981 83.8849 150.337 79.2137C144.693 74.5425 137.482 72.1976 130.17 72.6564C122.859 73.1152 115.997 76.3432 110.981 81.6832C105.966 87.0232 103.174 94.0738 103.174 101.4C103.174 108.726 105.966 115.777 110.981 121.117C115.997 126.457 122.859 129.685 130.17 130.143C137.482 130.602 144.693 128.257 150.337 123.586C155.981 118.915 159.632 112.268 160.548 105H167.82C166.897 114.19 162.478 122.674 155.475 128.697C148.472 134.721 139.423 137.822 130.198 137.359C120.973 136.897 112.278 132.906 105.913 126.213C99.5478 119.52 95.9987 110.636 95.9999 101.4ZM138.192 105C137.399 106.372 136.176 107.445 134.712 108.052C133.247 108.658 131.624 108.765 130.093 108.355C128.562 107.944 127.209 107.04 126.244 105.783C125.279 104.525 124.756 102.985 124.756 101.4C124.756 99.8149 125.279 98.2742 126.244 97.0168C127.209 95.7593 128.562 94.8554 130.093 94.4452C131.624 94.035 133.247 94.1414 134.712 94.7479C136.176 95.3545 137.399 96.4272 138.192 97.7999H132V105H138.192ZM132 86.9999C129.305 86.9911 126.661 87.739 124.37 89.1584C122.078 90.5778 120.232 92.6117 119.039 95.0288C117.847 97.4459 117.357 100.149 117.624 102.831C117.892 105.513 118.908 108.066 120.555 110.199C122.202 112.333 124.414 113.961 126.941 114.899C129.468 115.837 132.207 116.048 134.847 115.506C137.488 114.964 139.923 113.692 141.876 111.835C143.829 109.978 145.222 107.61 145.896 105H153.276C152.373 110.34 149.497 115.146 145.218 118.466C140.939 121.786 135.569 123.377 130.172 122.924C124.775 122.471 119.745 120.007 116.079 116.021C112.413 112.034 110.378 106.816 110.378 101.4C110.378 95.9839 112.413 90.7655 116.079 86.7789C119.745 82.7924 124.775 80.3285 130.172 79.8755C135.569 79.4226 140.939 81.0137 145.218 84.3336C149.497 87.6534 152.373 92.4596 153.276 97.7999H145.896C145.1 94.7165 143.304 91.9841 140.79 90.0299C138.275 88.0758 135.184 87.0102 132 86.9999ZM196.8 184.2C196.808 181.338 197.949 178.596 199.972 176.572C201.996 174.549 204.738 173.408 207.6 173.4H211.2V187.8H196.8V184.2ZM232.8 213C232.791 215.861 231.651 218.603 229.627 220.627C227.603 222.651 224.861 223.791 222 223.8H207.6C204.738 223.791 201.996 222.651 199.972 220.627C197.949 218.603 196.808 215.861 196.8 213V195H232.8V213ZM232.8 187.8H218.4V173.4H222C224.861 173.408 227.603 174.549 229.627 176.572C231.651 178.596 232.791 181.338 232.8 184.2V187.8Z" fill="#3F98BB" stroke="#FEFEFE" stroke-width="6"/>
</g>
<mask id="mask1" mask-type="alpha" maskUnits="userSpaceOnUse" x="24" y="15" width="216" height="216">
<path d="M222 166.2H218.4V162.6C218.391 159.738 217.251 156.996 215.227 154.972C213.203 152.949 210.461 151.808 207.6 151.8H186C183.138 151.808 180.396 152.949 178.372 154.972C176.349 156.996 175.208 159.738 175.2 162.6V177C175.2 177.954 174.82 178.87 174.145 179.545C173.47 180.22 172.555 180.6 171.6 180.6H135.6V173.4H157.2C160.061 173.391 162.804 172.251 164.827 170.227C166.851 168.204 167.991 165.461 168 162.6V125.232C172.015 119.191 174.43 112.229 175.02 105H195.324L205.044 114.756L210.156 109.644L201.876 101.4L210.156 93.1559L205.044 88.0439L195.324 97.7999H175.02C174.43 90.5703 172.015 83.6088 168 77.5679V40.2C167.991 37.3383 166.851 34.5962 164.827 32.5727C162.804 30.5491 160.061 29.4085 157.2 29.4H146.4V25.8C146.4 22.9356 145.262 20.1886 143.237 18.1632C141.211 16.1379 138.464 15 135.6 15C132.735 15 129.988 16.1379 127.963 18.1632C125.938 20.1886 124.8 22.9356 124.8 25.8V29.4H106.8V25.8C106.8 22.9356 105.662 20.1886 103.637 18.1632C101.611 16.1379 98.8642 15 95.9999 15C93.1355 15 90.3885 16.1379 88.3631 18.1632C86.3377 20.1886 85.1999 22.9356 85.1999 25.8V29.4H67.1999V25.8C67.1999 22.9356 66.0621 20.1886 64.0367 18.1632C62.0113 16.1379 59.2643 15 56.3999 15C53.5356 15 50.7886 16.1379 48.7632 18.1632C46.7378 20.1886 45.6 22.9356 45.6 25.8V29.4H34.8C31.9383 29.4085 29.1962 30.5491 27.1727 32.5727C25.1491 34.5962 24.0085 37.3383 24 40.2V162.6C24.0085 165.461 25.1491 168.204 27.1727 170.227C29.1962 172.251 31.9383 173.391 34.8 173.4H128.4V184.2C128.4 185.154 128.779 186.07 129.454 186.745C130.129 187.42 131.045 187.8 132 187.8H171.6C174.461 187.791 177.204 186.651 179.227 184.627C181.251 182.603 182.391 179.861 182.4 177V162.6C182.4 161.645 182.779 160.729 183.454 160.054C184.129 159.379 185.045 159 186 159H207.6C208.554 159 209.47 159.379 210.145 160.054C210.82 160.729 211.2 161.645 211.2 162.6V166.2H207.6C202.826 166.2 198.247 168.096 194.872 171.472C191.496 174.847 189.6 179.426 189.6 184.2V213C189.6 217.774 191.496 222.352 194.872 225.728C198.247 229.103 202.826 231 207.6 231H222C226.774 231 231.352 229.103 234.728 225.728C238.103 222.352 240 217.774 240 213V184.2C240 179.426 238.103 174.847 234.728 171.472C231.352 168.096 226.774 166.2 222 166.2ZM160.8 162.6C160.8 163.555 160.42 164.47 159.745 165.145C159.07 165.82 158.155 166.2 157.2 166.2H135.6V144.42C144.968 143.645 153.823 139.812 160.8 133.512V162.6ZM132 25.8C132 24.8452 132.379 23.9295 133.054 23.2544C133.729 22.5793 134.645 22.2 135.6 22.2C136.555 22.2 137.47 22.5793 138.145 23.2544C138.821 23.9295 139.2 24.8452 139.2 25.8V40.2C139.2 41.1547 138.821 42.0704 138.145 42.7455C137.47 43.4207 136.555 43.8 135.6 43.8C134.645 43.8 133.729 43.4207 133.054 42.7455C132.379 42.0704 132 41.1547 132 40.2V25.8ZM92.3999 25.8C92.3999 24.8452 92.7792 23.9295 93.4543 23.2544C94.1294 22.5793 95.0451 22.2 95.9999 22.2C96.9547 22.2 97.8703 22.5793 98.5455 23.2544C99.2206 23.9295 99.5999 24.8452 99.5999 25.8V40.2C99.5999 41.1547 99.2206 42.0704 98.5455 42.7455C97.8703 43.4207 96.9547 43.8 95.9999 43.8C95.0451 43.8 94.1294 43.4207 93.4543 42.7455C92.7792 42.0704 92.3999 41.1547 92.3999 40.2V25.8ZM52.8 25.8C52.8 24.8452 53.1792 23.9295 53.8544 23.2544C54.5295 22.5793 55.4452 22.2 56.3999 22.2C57.3547 22.2 58.2704 22.5793 58.9455 23.2544C59.6207 23.9295 59.9999 24.8452 59.9999 25.8V40.2C59.9999 41.1547 59.6207 42.0704 58.9455 42.7455C58.2704 43.4207 57.3547 43.8 56.3999 43.8C55.4452 43.8 54.5295 43.4207 53.8544 42.7455C53.1792 42.0704 52.8 41.1547 52.8 40.2V25.8ZM31.2 40.2C31.2 39.2452 31.5793 38.3295 32.2544 37.6544C32.9295 36.9792 33.8452 36.6 34.8 36.6H45.6V40.2C45.6 43.0643 46.7378 45.8113 48.7632 47.8367C50.7886 49.8621 53.5356 50.9999 56.3999 50.9999C59.2643 50.9999 62.0113 49.8621 64.0367 47.8367C66.0621 45.8113 67.1999 43.0643 67.1999 40.2V36.6H85.1999V40.2C85.1999 43.0643 86.3377 45.8113 88.3631 47.8367C90.3885 49.8621 93.1355 50.9999 95.9999 50.9999C98.8642 50.9999 101.611 49.8621 103.637 47.8367C105.662 45.8113 106.8 43.0643 106.8 40.2V36.6H124.8V40.2C124.8 43.0643 125.938 45.8113 127.963 47.8367C129.988 49.8621 132.735 50.9999 135.6 50.9999C138.464 50.9999 141.211 49.8621 143.237 47.8367C145.262 45.8113 146.4 43.0643 146.4 40.2V36.6H157.2C158.155 36.6 159.07 36.9792 159.745 37.6544C160.42 38.3295 160.8 39.2452 160.8 40.2V69.2879C152.905 62.1511 142.642 58.1997 132 58.1999H31.2V40.2ZM128.4 166.2H34.8C33.8452 166.2 32.9295 165.82 32.2544 165.145C31.5793 164.47 31.2 163.555 31.2 162.6V65.3999H108.168C100.68 70.3462 94.9201 77.5037 91.69 85.8763C88.46 94.249 87.9204 103.42 90.1463 112.114C92.3722 120.808 97.2529 128.591 104.109 134.382C110.965 140.172 119.456 143.681 128.4 144.42V166.2ZM95.9999 101.4C95.9987 92.1633 99.5478 83.2797 105.913 76.5866C112.278 69.8934 120.973 65.903 130.198 65.4405C139.423 64.9781 148.472 68.0792 155.475 74.1022C162.478 80.1253 166.897 88.6095 167.82 97.7999H160.548C159.632 90.5313 155.981 83.8849 150.337 79.2137C144.693 74.5425 137.482 72.1976 130.17 72.6564C122.859 73.1152 115.997 76.3432 110.981 81.6832C105.966 87.0232 103.174 94.0738 103.174 101.4C103.174 108.726 105.966 115.777 110.981 121.117C115.997 126.457 122.859 129.685 130.17 130.143C137.482 130.602 144.693 128.257 150.337 123.586C155.981 118.915 159.632 112.268 160.548 105H167.82C166.897 114.19 162.478 122.674 155.475 128.697C148.472 134.721 139.423 137.822 130.198 137.359C120.973 136.897 112.278 132.906 105.913 126.213C99.5478 119.52 95.9987 110.636 95.9999 101.4ZM138.192 105C137.399 106.372 136.176 107.445 134.712 108.052C133.247 108.658 131.624 108.765 130.093 108.355C128.562 107.944 127.209 107.04 126.244 105.783C125.279 104.525 124.756 102.985 124.756 101.4C124.756 99.8149 125.279 98.2742 126.244 97.0168C127.209 95.7593 128.562 94.8554 130.093 94.4452C131.624 94.035 133.247 94.1414 134.712 94.7479C136.176 95.3545 137.399 96.4272 138.192 97.7999H132V105H138.192ZM132 86.9999C129.305 86.9911 126.661 87.739 124.37 89.1584C122.078 90.5778 120.232 92.6117 119.039 95.0288C117.847 97.4459 117.357 100.149 117.624 102.831C117.892 105.513 118.908 108.066 120.555 110.199C122.202 112.333 124.414 113.961 126.941 114.899C129.468 115.837 132.207 116.048 134.847 115.506C137.488 114.964 139.923 113.692 141.876 111.835C143.829 109.978 145.222 107.61 145.896 105H153.276C152.373 110.34 149.497 115.146 145.218 118.466C140.939 121.786 135.569 123.377 130.172 122.924C124.775 122.471 119.745 120.007 116.079 116.021C112.413 112.034 110.378 106.816 110.378 101.4C110.378 95.9839 112.413 90.7655 116.079 86.7789C119.745 82.7924 124.775 80.3285 130.172 79.8755C135.569 79.4226 140.939 81.0137 145.218 84.3336C149.497 87.6534 152.373 92.4596 153.276 97.7999H145.896C145.1 94.7165 143.304 91.9841 140.79 90.0299C138.275 88.0758 135.184 87.0102 132 86.9999ZM196.8 184.2C196.808 181.338 197.949 178.596 199.972 176.572C201.996 174.549 204.738 173.408 207.6 173.4H211.2V187.8H196.8V184.2ZM232.8 213C232.791 215.861 231.651 218.603 229.627 220.627C227.603 222.651 224.861 223.791 222 223.8H207.6C204.738 223.791 201.996 222.651 199.972 220.627C197.949 218.603 196.808 215.861 196.8 213V195H232.8V213ZM232.8 187.8H218.4V173.4H222C224.861 173.408 227.603 174.549 229.627 176.572C231.651 178.596 232.791 181.338 232.8 184.2V187.8Z" fill="white"/>
</mask>
<g mask="url(#mask1)">
<path d="M222 166.2H218.4V162.6C218.391 159.738 217.251 156.996 215.227 154.972C213.203 152.949 210.461 151.808 207.6 151.8H186C183.138 151.808 180.396 152.949 178.372 154.972C176.349 156.996 175.208 159.738 175.2 162.6V177C175.2 177.954 174.82 178.87 174.145 179.545C173.47 180.22 172.555 180.6 171.6 180.6H135.6V173.4H157.2C160.061 173.391 162.804 172.251 164.827 170.227C166.851 168.204 167.991 165.461 168 162.6V125.232C172.015 119.191 174.43 112.229 175.02 105H195.324L205.044 114.756L210.156 109.644L201.876 101.4L210.156 93.1559L205.044 88.0439L195.324 97.7999H175.02C174.43 90.5703 172.015 83.6088 168 77.5679V40.2C167.991 37.3383 166.851 34.5962 164.827 32.5727C162.804 30.5491 160.061 29.4085 157.2 29.4H146.4V25.8C146.4 22.9356 145.262 20.1886 143.237 18.1632C141.211 16.1379 138.464 15 135.6 15C132.735 15 129.988 16.1379 127.963 18.1632C125.938 20.1886 124.8 22.9356 124.8 25.8V29.4H106.8V25.8C106.8 22.9356 105.662 20.1886 103.637 18.1632C101.611 16.1379 98.8642 15 95.9999 15C93.1355 15 90.3885 16.1379 88.3631 18.1632C86.3377 20.1886 85.1999 22.9356 85.1999 25.8V29.4H67.1999V25.8C67.1999 22.9356 66.0621 20.1886 64.0367 18.1632C62.0113 16.1379 59.2643 15 56.3999 15C53.5356 15 50.7886 16.1379 48.7632 18.1632C46.7378 20.1886 45.6 22.9356 45.6 25.8V29.4H34.8C31.9383 29.4085 29.1962 30.5491 27.1727 32.5727C25.1491 34.5962 24.0085 37.3383 24 40.2V162.6C24.0085 165.461 25.1491 168.204 27.1727 170.227C29.1962 172.251 31.9383 173.391 34.8 173.4H128.4V184.2C128.4 185.154 128.779 186.07 129.454 186.745C130.129 187.42 131.045 187.8 132 187.8H171.6C174.461 187.791 177.204 186.651 179.227 184.627C181.251 182.603 182.391 179.861 182.4 177V162.6C182.4 161.645 182.779 160.729 183.454 160.054C184.129 159.379 185.045 159 186 159H207.6C208.554 159 209.47 159.379 210.145 160.054C210.82 160.729 211.2 161.645 211.2 162.6V166.2H207.6C202.826 166.2 198.247 168.096 194.872 171.472C191.496 174.847 189.6 179.426 189.6 184.2V213C189.6 217.774 191.496 222.352 194.872 225.728C198.247 229.103 202.826 231 207.6 231H222C226.774 231 231.352 229.103 234.728 225.728C238.103 222.352 240 217.774 240 213V184.2C240 179.426 238.103 174.847 234.728 171.472C231.352 168.096 226.774 166.2 222 166.2ZM160.8 162.6C160.8 163.555 160.42 164.47 159.745 165.145C159.07 165.82 158.155 166.2 157.2 166.2H135.6V144.42C144.968 143.645 153.823 139.812 160.8 133.512V162.6ZM132 25.8C132 24.8452 132.379 23.9295 133.054 23.2544C133.729 22.5793 134.645 22.2 135.6 22.2C136.555 22.2 137.47 22.5793 138.145 23.2544C138.821 23.9295 139.2 24.8452 139.2 25.8V40.2C139.2 41.1547 138.821 42.0704 138.145 42.7455C137.47 43.4207 136.555 43.8 135.6 43.8C134.645 43.8 133.729 43.4207 133.054 42.7455C132.379 42.0704 132 41.1547 132 40.2V25.8ZM92.3999 25.8C92.3999 24.8452 92.7792 23.9295 93.4543 23.2544C94.1294 22.5793 95.0451 22.2 95.9999 22.2C96.9547 22.2 97.8703 22.5793 98.5455 23.2544C99.2206 23.9295 99.5999 24.8452 99.5999 25.8V40.2C99.5999 41.1547 99.2206 42.0704 98.5455 42.7455C97.8703 43.4207 96.9547 43.8 95.9999 43.8C95.0451 43.8 94.1294 43.4207 93.4543 42.7455C92.7792 42.0704 92.3999 41.1547 92.3999 40.2V25.8ZM52.8 25.8C52.8 24.8452 53.1792 23.9295 53.8544 23.2544C54.5295 22.5793 55.4452 22.2 56.3999 22.2C57.3547 22.2 58.2704 22.5793 58.9455 23.2544C59.6207 23.9295 59.9999 24.8452 59.9999 25.8V40.2C59.9999 41.1547 59.6207 42.0704 58.9455 42.7455C58.2704 43.4207 57.3547 43.8 56.3999 43.8C55.4452 43.8 54.5295 43.4207 53.8544 42.7455C53.1792 42.0704 52.8 41.1547 52.8 40.2V25.8ZM31.2 40.2C31.2 39.2452 31.5793 38.3295 32.2544 37.6544C32.9295 36.9792 33.8452 36.6 34.8 36.6H45.6V40.2C45.6 43.0643 46.7378 45.8113 48.7632 47.8367C50.7886 49.8621 53.5356 50.9999 56.3999 50.9999C59.2643 50.9999 62.0113 49.8621 64.0367 47.8367C66.0621 45.8113 67.1999 43.0643 67.1999 40.2V36.6H85.1999V40.2C85.1999 43.0643 86.3377 45.8113 88.3631 47.8367C90.3885 49.8621 93.1355 50.9999 95.9999 50.9999C98.8642 50.9999 101.611 49.8621 103.637 47.8367C105.662 45.8113 106.8 43.0643 106.8 40.2V36.6H124.8V40.2C124.8 43.0643 125.938 45.8113 127.963 47.8367C129.988 49.8621 132.735 50.9999 135.6 50.9999C138.464 50.9999 141.211 49.8621 143.237 47.8367C145.262 45.8113 146.4 43.0643 146.4 40.2V36.6H157.2C158.155 36.6 159.07 36.9792 159.745 37.6544C160.42 38.3295 160.8 39.2452 160.8 40.2V69.2879C152.905 62.1511 142.642 58.1997 132 58.1999H31.2V40.2ZM128.4 166.2H34.8C33.8452 166.2 32.9295 165.82 32.2544 165.145C31.5793 164.47 31.2 163.555 31.2 162.6V65.3999H108.168C100.68 70.3462 94.9201 77.5037 91.69 85.8763C88.46 94.249 87.9204 103.42 90.1463 112.114C92.3722 120.808 97.2529 128.591 104.109 134.382C110.965 140.172 119.456 143.681 128.4 144.42V166.2ZM95.9999 101.4C95.9987 92.1633 99.5478 83.2797 105.913 76.5866C112.278 69.8934 120.973 65.903 130.198 65.4405C139.423 64.9781 148.472 68.0792 155.475 74.1022C162.478 80.1253 166.897 88.6095 167.82 97.7999H160.548C159.632 90.5313 155.981 83.8849 150.337 79.2137C144.693 74.5425 137.482 72.1976 130.17 72.6564C122.859 73.1152 115.997 76.3432 110.981 81.6832C105.966 87.0232 103.174 94.0738 103.174 101.4C103.174 108.726 105.966 115.777 110.981 121.117C115.997 126.457 122.859 129.685 130.17 130.143C137.482 130.602 144.693 128.257 150.337 123.586C155.981 118.915 159.632 112.268 160.548 105H167.82C166.897 114.19 162.478 122.674 155.475 128.697C148.472 134.721 139.423 137.822 130.198 137.359C120.973 136.897 112.278 132.906 105.913 126.213C99.5478 119.52 95.9987 110.636 95.9999 101.4ZM138.192 105C137.399 106.372 136.176 107.445 134.712 108.052C133.247 108.658 131.624 108.765 130.093 108.355C128.562 107.944 127.209 107.04 126.244 105.783C125.279 104.525 124.756 102.985 124.756 101.4C124.756 99.8149 125.279 98.2742 126.244 97.0168C127.209 95.7593 128.562 94.8554 130.093 94.4452C131.624 94.035 133.247 94.1414 134.712 94.7479C136.176 95.3545 137.399 96.4272 138.192 97.7999H132V105H138.192ZM132 86.9999C129.305 86.9911 126.661 87.739 124.37 89.1584C122.078 90.5778 120.232 92.6117 119.039 95.0288C117.847 97.4459 117.357 100.149 117.624 102.831C117.892 105.513 118.908 108.066 120.555 110.199C122.202 112.333 124.414 113.961 126.941 114.899C129.468 115.837 132.207 116.048 134.847 115.506C137.488 114.964 139.923 113.692 141.876 111.835C143.829 109.978 145.222 107.61 145.896 105H153.276C152.373 110.34 149.497 115.146 145.218 118.466C140.939 121.786 135.569 123.377 130.172 122.924C124.775 122.471 119.745 120.007 116.079 116.021C112.413 112.034 110.378 106.816 110.378 101.4C110.378 95.9839 112.413 90.7655 116.079 86.7789C119.745 82.7924 124.775 80.3285 130.172 79.8755C135.569 79.4226 140.939 81.0137 145.218 84.3336C149.497 87.6534 152.373 92.4596 153.276 97.7999H145.896C145.1 94.7165 143.304 91.9841 140.79 90.0299C138.275 88.0758 135.184 87.0102 132 86.9999ZM196.8 184.2C196.808 181.338 197.949 178.596 199.972 176.572C201.996 174.549 204.738 173.408 207.6 173.4H211.2V187.8H196.8V184.2ZM232.8 213C232.791 215.861 231.651 218.603 229.627 220.627C227.603 222.651 224.861 223.791 222 223.8H207.6C204.738 223.791 201.996 222.651 199.972 220.627C197.949 218.603 196.808 215.861 196.8 213V195H232.8V213ZM232.8 187.8H218.4V173.4H222C224.861 173.408 227.603 174.549 229.627 176.572C231.651 178.596 232.791 181.338 232.8 184.2V187.8Z" fill="#3F98BB" stroke="#FEFEFE" stroke-width="8"/>
</g>
<mask id="mask2" mask-type="alpha" maskUnits="userSpaceOnUse" x="24" y="15" width="216" height="216">
<path d="M222 166.2H218.4V162.6C218.391 159.738 217.251 156.996 215.227 154.972C213.203 152.949 210.461 151.808 207.6 151.8H186C183.138 151.808 180.396 152.949 178.372 154.972C176.349 156.996 175.208 159.738 175.2 162.6V177C175.2 177.954 174.82 178.87 174.145 179.545C173.47 180.22 172.555 180.6 171.6 180.6H135.6V173.4H157.2C160.061 173.391 162.804 172.251 164.827 170.227C166.851 168.204 167.991 165.461 168 162.6V125.232C172.015 119.191 174.43 112.229 175.02 105H195.324L205.044 114.756L210.156 109.644L201.876 101.4L210.156 93.1559L205.044 88.0439L195.324 97.7999H175.02C174.43 90.5703 172.015 83.6088 168 77.5679V40.2C167.991 37.3383 166.851 34.5962 164.827 32.5727C162.804 30.5491 160.061 29.4085 157.2 29.4H146.4V25.8C146.4 22.9356 145.262 20.1886 143.237 18.1632C141.211 16.1379 138.464 15 135.6 15C132.735 15 129.988 16.1379 127.963 18.1632C125.938 20.1886 124.8 22.9356 124.8 25.8V29.4H106.8V25.8C106.8 22.9356 105.662 20.1886 103.637 18.1632C101.611 16.1379 98.8642 15 95.9999 15C93.1355 15 90.3885 16.1379 88.3631 18.1632C86.3377 20.1886 85.1999 22.9356 85.1999 25.8V29.4H67.1999V25.8C67.1999 22.9356 66.0621 20.1886 64.0367 18.1632C62.0113 16.1379 59.2643 15 56.3999 15C53.5356 15 50.7886 16.1379 48.7632 18.1632C46.7378 20.1886 45.6 22.9356 45.6 25.8V29.4H34.8C31.9383 29.4085 29.1962 30.5491 27.1727 32.5727C25.1491 34.5962 24.0085 37.3383 24 40.2V162.6C24.0085 165.461 25.1491 168.204 27.1727 170.227C29.1962 172.251 31.9383 173.391 34.8 173.4H128.4V184.2C128.4 185.155 128.779 186.07 129.454 186.745C130.129 187.42 131.045 187.8 132 187.8H171.6C174.461 187.791 177.204 186.651 179.227 184.627C181.251 182.603 182.391 179.861 182.4 177V162.6C182.4 161.645 182.779 160.729 183.454 160.054C184.129 159.379 185.045 159 186 159H207.6C208.554 159 209.47 159.379 210.145 160.054C210.82 160.729 211.2 161.645 211.2 162.6V166.2H207.6C202.826 166.2 198.247 168.096 194.872 171.472C191.496 174.847 189.6 179.426 189.6 184.2V213C189.6 217.774 191.496 222.352 194.872 225.728C198.247 229.103 202.826 231 207.6 231H222C226.774 231 231.352 229.103 234.728 225.728C238.103 222.352 240 217.774 240 213V184.2C240 179.426 238.103 174.847 234.728 171.472C231.352 168.096 226.774 166.2 222 166.2ZM160.8 162.6C160.8 163.555 160.42 164.47 159.745 165.145C159.07 165.82 158.155 166.2 157.2 166.2H135.6V144.42C144.968 143.645 153.823 139.812 160.8 133.512V162.6ZM132 25.8C132 24.8452 132.379 23.9295 133.054 23.2544C133.729 22.5793 134.645 22.2 135.6 22.2C136.555 22.2 137.47 22.5793 138.145 23.2544C138.821 23.9295 139.2 24.8452 139.2 25.8V40.2C139.2 41.1547 138.821 42.0704 138.145 42.7455C137.47 43.4207 136.555 43.8 135.6 43.8C134.645 43.8 133.729 43.4207 133.054 42.7455C132.379 42.0704 132 41.1547 132 40.2V25.8ZM92.3999 25.8C92.3999 24.8452 92.7792 23.9295 93.4543 23.2544C94.1294 22.5793 95.0451 22.2 95.9999 22.2C96.9547 22.2 97.8703 22.5793 98.5455 23.2544C99.2206 23.9295 99.5999 24.8452 99.5999 25.8V40.2C99.5999 41.1547 99.2206 42.0704 98.5455 42.7455C97.8703 43.4207 96.9547 43.8 95.9999 43.8C95.0451 43.8 94.1294 43.4207 93.4543 42.7455C92.7792 42.0704 92.3999 41.1547 92.3999 40.2V25.8ZM52.8 25.8C52.8 24.8452 53.1792 23.9295 53.8544 23.2544C54.5295 22.5793 55.4452 22.2 56.3999 22.2C57.3547 22.2 58.2704 22.5793 58.9455 23.2544C59.6207 23.9295 59.9999 24.8452 59.9999 25.8V40.2C59.9999 41.1547 59.6207 42.0704 58.9455 42.7455C58.2704 43.4207 57.3547 43.8 56.3999 43.8C55.4452 43.8 54.5295 43.4207 53.8544 42.7455C53.1792 42.0704 52.8 41.1547 52.8 40.2V25.8ZM31.2 40.2C31.2 39.2452 31.5793 38.3295 32.2544 37.6544C32.9295 36.9792 33.8452 36.6 34.8 36.6H45.6V40.2C45.6 43.0643 46.7378 45.8113 48.7632 47.8367C50.7886 49.8621 53.5356 50.9999 56.3999 50.9999C59.2643 50.9999 62.0113 49.8621 64.0367 47.8367C66.0621 45.8113 67.1999 43.0643 67.1999 40.2V36.6H85.1999V40.2C85.1999 43.0643 86.3377 45.8113 88.3631 47.8367C90.3885 49.8621 93.1355 50.9999 95.9999 50.9999C98.8642 50.9999 101.611 49.8621 103.637 47.8367C105.662 45.8113 106.8 43.0643 106.8 40.2V36.6H124.8V40.2C124.8 43.0643 125.938 45.8113 127.963 47.8367C129.988 49.8621 132.735 50.9999 135.6 50.9999C138.464 50.9999 141.211 49.8621 143.237 47.8367C145.262 45.8113 146.4 43.0643 146.4 40.2V36.6H157.2C158.155 36.6 159.07 36.9792 159.745 37.6544C160.42 38.3295 160.8 39.2452 160.8 40.2V69.2879C152.905 62.1511 142.642 58.1997 132 58.1999H31.2V40.2ZM128.4 166.2H34.8C33.8452 166.2 32.9295 165.82 32.2544 165.145C31.5793 164.47 31.2 163.555 31.2 162.6V65.3999H108.168C100.68 70.3462 94.9201 77.5037 91.69 85.8763C88.46 94.249 87.9204 103.42 90.1463 112.114C92.3722 120.808 97.2529 128.591 104.109 134.382C110.965 140.172 119.456 143.681 128.4 144.42V166.2ZM95.9999 101.4C95.9987 92.1633 99.5478 83.2797 105.913 76.5866C112.278 69.8934 120.973 65.903 130.198 65.4405C139.423 64.9781 148.472 68.0792 155.475 74.1022C162.478 80.1253 166.897 88.6095 167.82 97.7999H160.548C159.632 90.5313 155.981 83.8849 150.337 79.2137C144.693 74.5425 137.482 72.1976 130.17 72.6564C122.859 73.1152 115.997 76.3432 110.981 81.6832C105.966 87.0232 103.174 94.0738 103.174 101.4C103.174 108.726 105.966 115.777 110.981 121.117C115.997 126.457 122.859 129.685 130.17 130.143C137.482 130.602 144.693 128.257 150.337 123.586C155.981 118.915 159.632 112.268 160.548 105H167.82C166.897 114.19 162.478 122.674 155.475 128.697C148.472 134.721 139.423 137.822 130.198 137.359C120.973 136.897 112.278 132.906 105.913 126.213C99.5478 119.52 95.9987 110.636 95.9999 101.4ZM138.192 105C137.399 106.372 136.176 107.445 134.712 108.052C133.247 108.658 131.624 108.765 130.093 108.355C128.562 107.944 127.209 107.04 126.244 105.783C125.279 104.525 124.756 102.985 124.756 101.4C124.756 99.8149 125.279 98.2742 126.244 97.0168C127.209 95.7593 128.562 94.8554 130.093 94.4452C131.624 94.035 133.247 94.1414 134.712 94.7479C136.176 95.3545 137.399 96.4272 138.192 97.7999H132V105H138.192ZM132 86.9999C129.305 86.9911 126.661 87.739 124.37 89.1584C122.078 90.5778 120.232 92.6117 119.039 95.0288C117.847 97.4459 117.357 100.149 117.624 102.831C117.892 105.513 118.908 108.066 120.555 110.199C122.202 112.333 124.414 113.961 126.941 114.899C129.468 115.837 132.207 116.048 134.847 115.506C137.488 114.964 139.923 113.692 141.876 111.835C143.829 109.978 145.222 107.61 145.896 105H153.276C152.373 110.34 149.497 115.146 145.218 118.466C140.939 121.786 135.569 123.377 130.172 122.924C124.775 122.471 119.745 120.007 116.079 116.021C112.413 112.034 110.378 106.816 110.378 101.4C110.378 95.9839 112.413 90.7655 116.079 86.7789C119.745 82.7924 124.775 80.3285 130.172 79.8755C135.569 79.4226 140.939 81.0137 145.218 84.3336C149.497 87.6534 152.373 92.4596 153.276 97.7999H145.896C145.1 94.7165 143.304 91.9841 140.79 90.0299C138.275 88.0758 135.184 87.0102 132 86.9999ZM196.8 184.2C196.808 181.338 197.949 178.596 199.972 176.572C201.996 174.549 204.738 173.408 207.6 173.4H211.2V187.8H196.8V184.2ZM232.8 213C232.791 215.861 231.65 218.603 229.627 220.627C227.603 222.65 224.861 223.791 222 223.8H207.6C204.738 223.791 201.996 222.65 199.972 220.627C197.949 218.603 196.808 215.861 196.8 213V195H232.8V213ZM232.8 187.8H218.4V173.4H222C224.861 173.408 227.603 174.549 229.627 176.572C231.65 178.596 232.791 181.338 232.8 184.2V187.8Z" fill="white"/>
</mask>
<g mask="url(#mask2)">
<path d="M222 166.2H218.4V162.6C218.391 159.738 217.251 156.996 215.227 154.972C213.203 152.949 210.461 151.808 207.6 151.8H186C183.138 151.808 180.396 152.949 178.372 154.972C176.349 156.996 175.208 159.738 175.2 162.6V177C175.2 177.954 174.82 178.87 174.145 179.545C173.47 180.22 172.555 180.6 171.6 180.6H135.6V173.4H157.2C160.061 173.391 162.804 172.251 164.827 170.227C166.851 168.204 167.991 165.461 168 162.6V125.232C172.015 119.191 174.43 112.229 175.02 105H195.324L205.044 114.756L210.156 109.644L201.876 101.4L210.156 93.1559L205.044 88.0439L195.324 97.7999H175.02C174.43 90.5703 172.015 83.6088 168 77.5679V40.2C167.991 37.3383 166.851 34.5962 164.827 32.5727C162.804 30.5491 160.061 29.4085 157.2 29.4H146.4V25.8C146.4 22.9356 145.262 20.1886 143.237 18.1632C141.211 16.1379 138.464 15 135.6 15C132.735 15 129.988 16.1379 127.963 18.1632C125.938 20.1886 124.8 22.9356 124.8 25.8V29.4H106.8V25.8C106.8 22.9356 105.662 20.1886 103.637 18.1632C101.611 16.1379 98.8642 15 95.9999 15C93.1355 15 90.3885 16.1379 88.3631 18.1632C86.3377 20.1886 85.1999 22.9356 85.1999 25.8V29.4H67.1999V25.8C67.1999 22.9356 66.0621 20.1886 64.0367 18.1632C62.0113 16.1379 59.2643 15 56.3999 15C53.5356 15 50.7886 16.1379 48.7632 18.1632C46.7378 20.1886 45.6 22.9356 45.6 25.8V29.4H34.8C31.9383 29.4085 29.1962 30.5491 27.1727 32.5727C25.1491 34.5962 24.0085 37.3383 24 40.2V162.6C24.0085 165.461 25.1491 168.204 27.1727 170.227C29.1962 172.251 31.9383 173.391 34.8 173.4H128.4V184.2C128.4 185.155 128.779 186.07 129.454 186.745C130.129 187.42 131.045 187.8 132 187.8H171.6C174.461 187.791 177.204 186.651 179.227 184.627C181.251 182.603 182.391 179.861 182.4 177V162.6C182.4 161.645 182.779 160.729 183.454 160.054C184.129 159.379 185.045 159 186 159H207.6C208.554 159 209.47 159.379 210.145 160.054C210.82 160.729 211.2 161.645 211.2 162.6V166.2H207.6C202.826 166.2 198.247 168.096 194.872 171.472C191.496 174.847 189.6 179.426 189.6 184.2V213C189.6 217.774 191.496 222.352 194.872 225.728C198.247 229.103 202.826 231 207.6 231H222C226.774 231 231.352 229.103 234.728 225.728C238.103 222.352 240 217.774 240 213V184.2C240 179.426 238.103 174.847 234.728 171.472C231.352 168.096 226.774 166.2 222 166.2ZM160.8 162.6C160.8 163.555 160.42 164.47 159.745 165.145C159.07 165.82 158.155 166.2 157.2 166.2H135.6V144.42C144.968 143.645 153.823 139.812 160.8 133.512V162.6ZM132 25.8C132 24.8452 132.379 23.9295 133.054 23.2544C133.729 22.5793 134.645 22.2 135.6 22.2C136.555 22.2 137.47 22.5793 138.145 23.2544C138.821 23.9295 139.2 24.8452 139.2 25.8V40.2C139.2 41.1547 138.821 42.0704 138.145 42.7455C137.47 43.4207 136.555 43.8 135.6 43.8C134.645 43.8 133.729 43.4207 133.054 42.7455C132.379 42.0704 132 41.1547 132 40.2V25.8ZM92.3999 25.8C92.3999 24.8452 92.7792 23.9295 93.4543 23.2544C94.1294 22.5793 95.0451 22.2 95.9999 22.2C96.9547 22.2 97.8703 22.5793 98.5455 23.2544C99.2206 23.9295 99.5999 24.8452 99.5999 25.8V40.2C99.5999 41.1547 99.2206 42.0704 98.5455 42.7455C97.8703 43.4207 96.9547 43.8 95.9999 43.8C95.0451 43.8 94.1294 43.4207 93.4543 42.7455C92.7792 42.0704 92.3999 41.1547 92.3999 40.2V25.8ZM52.8 25.8C52.8 24.8452 53.1792 23.9295 53.8544 23.2544C54.5295 22.5793 55.4452 22.2 56.3999 22.2C57.3547 22.2 58.2704 22.5793 58.9455 23.2544C59.6207 23.9295 59.9999 24.8452 59.9999 25.8V40.2C59.9999 41.1547 59.6207 42.0704 58.9455 42.7455C58.2704 43.4207 57.3547 43.8 56.3999 43.8C55.4452 43.8 54.5295 43.4207 53.8544 42.7455C53.1792 42.0704 52.8 41.1547 52.8 40.2V25.8ZM31.2 40.2C31.2 39.2452 31.5793 38.3295 32.2544 37.6544C32.9295 36.9792 33.8452 36.6 34.8 36.6H45.6V40.2C45.6 43.0643 46.7378 45.8113 48.7632 47.8367C50.7886 49.8621 53.5356 50.9999 56.3999 50.9999C59.2643 50.9999 62.0113 49.8621 64.0367 47.8367C66.0621 45.8113 67.1999 43.0643 67.1999 40.2V36.6H85.1999V40.2C85.1999 43.0643 86.3377 45.8113 88.3631 47.8367C90.3885 49.8621 93.1355 50.9999 95.9999 50.9999C98.8642 50.9999 101.611 49.8621 103.637 47.8367C105.662 45.8113 106.8 43.0643 106.8 40.2V36.6H124.8V40.2C124.8 43.0643 125.938 45.8113 127.963 47.8367C129.988 49.8621 132.735 50.9999 135.6 50.9999C138.464 50.9999 141.211 49.8621 143.237 47.8367C145.262 45.8113 146.4 43.0643 146.4 40.2V36.6H157.2C158.155 36.6 159.07 36.9792 159.745 37.6544C160.42 38.3295 160.8 39.2452 160.8 40.2V69.2879C152.905 62.1511 142.642 58.1997 132 58.1999H31.2V40.2ZM128.4 166.2H34.8C33.8452 166.2 32.9295 165.82 32.2544 165.145C31.5793 164.47 31.2 163.555 31.2 162.6V65.3999H108.168C100.68 70.3462 94.9201 77.5037 91.69 85.8763C88.46 94.249 87.9204 103.42 90.1463 112.114C92.3722 120.808 97.2529 128.591 104.109 134.382C110.965 140.172 119.456 143.681 128.4 144.42V166.2ZM95.9999 101.4C95.9987 92.1633 99.5478 83.2797 105.913 76.5866C112.278 69.8934 120.973 65.903 130.198 65.4405C139.423 64.9781 148.472 68.0792 155.475 74.1022C162.478 80.1253 166.897 88.6095 167.82 97.7999H160.548C159.632 90.5313 155.981 83.8849 150.337 79.2137C144.693 74.5425 137.482 72.1976 130.17 72.6564C122.859 73.1152 115.997 76.3432 110.981 81.6832C105.966 87.0232 103.174 94.0738 103.174 101.4C103.174 108.726 105.966 115.777 110.981 121.117C115.997 126.457 122.859 129.685 130.17 130.143C137.482 130.602 144.693 128.257 150.337 123.586C155.981 118.915 159.632 112.268 160.548 105H167.82C166.897 114.19 162.478 122.674 155.475 128.697C148.472 134.721 139.423 137.822 130.198 137.359C120.973 136.897 112.278 132.906 105.913 126.213C99.5478 119.52 95.9987 110.636 95.9999 101.4ZM138.192 105C137.399 106.372 136.176 107.445 134.712 108.052C133.247 108.658 131.624 108.765 130.093 108.355C128.562 107.944 127.209 107.04 126.244 105.783C125.279 104.525 124.756 102.985 124.756 101.4C124.756 99.8149 125.279 98.2742 126.244 97.0168C127.209 95.7593 128.562 94.8554 130.093 94.4452C131.624 94.035 133.247 94.1414 134.712 94.7479C136.176 95.3545 137.399 96.4272 138.192 97.7999H132V105H138.192ZM132 86.9999C129.305 86.9911 126.661 87.739 124.37 89.1584C122.078 90.5778 120.232 92.6117 119.039 95.0288C117.847 97.4459 117.357 100.149 117.624 102.831C117.892 105.513 118.908 108.066 120.555 110.199C122.202 112.333 124.414 113.961 126.941 114.899C129.468 115.837 132.207 116.048 134.847 115.506C137.488 114.964 139.923 113.692 141.876 111.835C143.829 109.978 145.222 107.61 145.896 105H153.276C152.373 110.34 149.497 115.146 145.218 118.466C140.939 121.786 135.569 123.377 130.172 122.924C124.775 122.471 119.745 120.007 116.079 116.021C112.413 112.034 110.378 106.816 110.378 101.4C110.378 95.9839 112.413 90.7655 116.079 86.7789C119.745 82.7924 124.775 80.3285 130.172 79.8755C135.569 79.4226 140.939 81.0137 145.218 84.3336C149.497 87.6534 152.373 92.4596 153.276 97.7999H145.896C145.1 94.7165 143.304 91.9841 140.79 90.0299C138.275 88.0758 135.184 87.0102 132 86.9999ZM196.8 184.2C196.808 181.338 197.949 178.596 199.972 176.572C201.996 174.549 204.738 173.408 207.6 173.4H211.2V187.8H196.8V184.2ZM232.8 213C232.791 215.861 231.65 218.603 229.627 220.627C227.603 222.65 224.861 223.791 222 223.8H207.6C204.738 223.791 201.996 222.65 199.972 220.627C197.949 218.603 196.808 215.861 196.8 213V195H232.8V213ZM232.8 187.8H218.4V173.4H222C224.861 173.408 227.603 174.549 229.627 176.572C231.65 178.596 232.791 181.338 232.8 184.2V187.8Z" fill="#3F98BB" stroke="#FEFEFE" stroke-width="4"/>
</g>
<line x1="252" y1="190.5" x2="288" y2="190.5" stroke="#3F98BB" stroke-width="3"/>
<line x1="253" y1="136.5" x2="288" y2="136.5" stroke="#3F98BB" stroke-width="3"/>
<line x1="294" y1="136.5" x2="306" y2="136.5" stroke="#3F98BB" stroke-width="3"/>
<line x1="313" y1="136.5" x2="338" y2="136.5" stroke="#3F98BB" stroke-width="3"/>
<line x1="253" y1="162.5" x2="338" y2="162.5" stroke="#3F98BB" stroke-width="3"/>
<line x1="302" y1="190.5" x2="338" y2="190.5" stroke="#3F98BB" stroke-width="3"/>
<line x1="253" y1="209.5" x2="270" y2="209.5" stroke="#3F98BB" stroke-width="3"/>
<line x1="283" y1="209.5" x2="300" y2="209.5" stroke="#3F98BB" stroke-width="3"/>
<line x1="320" y1="209.5" x2="337" y2="209.5" stroke="#3F98BB" stroke-width="3"/>
<path d="M288 43H303V93.0451H288V43Z" fill="black" fill-opacity="0.2"/>
<path d="M303 93.0451V43H288V93.0451M303 93.0451H288M303 93.0451L296.911 110.802C296.764 111.231 296.167 111.258 295.982 110.844L288 93.0451" stroke="#3F98BB" stroke-width="3"/>
<rect width="15" height="9" transform="matrix(1 0 0 -1 288 43)" fill="#FFC850" stroke="#3F98BB" stroke-width="3"/>
<defs>
<filter id="filter0_d" x="10" y="9" width="350" height="237" filterUnits="userSpaceOnUse" color-interpolation-filters="sRGB">
<feFlood flood-opacity="0" result="BackgroundImageFix"/>
<feColorMatrix in="SourceAlpha" type="matrix" values="0 0 0 0 0 0 0 0 0 0 0 0 0 0 0 0 0 0 127 0"/>
<feOffset dx="4" dy="4"/>
<feGaussianBlur stdDeviation="2"/>
<feColorMatrix type="matrix" values="0 0 0 0 0 0 0 0 0 0 0 0 0 0 0 0 0 0 0.25 0"/>
<feBlend mode="normal" in2="BackgroundImageFix" result="effect1_dropShadow"/>
<feBlend mode="normal" in="SourceGraphic" in2="effect1_dropShadow" result="shape"/>
</filter>
</defs>
</svg>
