<svg width="352" height="243" viewBox="0 0 352 243" fill="none" xmlns="http://www.w3.org/2000/svg">
<g filter="url(#filter0_d)">
<rect x="2" y="2" width="340" height="231" rx="19" fill="white"/>
<rect x="2" y="2" width="340" height="231" rx="19" stroke="#3F98BB" stroke-width="3"/>
</g>
<path d="M113.611 82.8083C112.725 83.1008 111.839 83.377 110.953 83.637C111.101 84.2382 111.232 84.8394 111.363 85.4407C113.381 95.1251 112.052 102.908 107.573 105.476C103.259 107.929 96.2203 105.378 89.1 99.2362C88.3945 98.6349 87.7055 98.0012 87.0492 97.3675C86.6062 97.79 86.1469 98.2125 85.6875 98.6187C78.2227 105.183 70.7414 107.946 66.2625 105.362C61.9641 102.892 60.6844 95.5639 62.4891 86.3994C62.6695 85.4894 62.8664 84.5957 63.0961 83.6857C62.0461 83.3933 61.0125 83.0683 60.0445 82.727C51.2836 79.721 45 74.9762 45 70.069C45 64.9992 51.6938 59.9133 60.7992 56.8259C61.5375 56.5822 62.2758 56.3385 63.0305 56.1272C62.7844 55.1523 62.5711 54.1936 62.3742 53.2024C60.6516 44.1841 61.9969 37.0345 66.2953 34.5809C70.725 32.046 78.1734 34.6459 85.425 40.9343C85.9992 41.438 86.5734 41.958 87.1477 42.5104C87.8695 41.8117 88.6242 41.1455 89.3789 40.4956C96.4008 34.5159 103.341 32.0948 107.623 34.5484C112.052 37.0832 113.496 44.7691 111.626 54.1286C111.478 54.8435 111.314 55.5747 111.134 56.3222C111.659 56.4685 112.167 56.6309 112.676 56.7934C122.142 59.897 129 64.918 129 70.069C129 74.9925 122.536 79.7697 113.611 82.8083ZM91.4133 96.6038C97.5164 101.869 103.209 103.932 105.802 102.453C108.574 100.877 109.641 94.5077 107.902 86.1394C107.787 85.5869 107.672 85.0507 107.524 84.5145C103.882 85.3269 100.191 85.9119 96.4828 86.2369C94.35 89.2592 92.0203 92.1515 89.4938 94.8651C90.1336 95.4664 90.757 96.0351 91.4133 96.6038ZM72.4313 61.6357C73.268 60.222 74.1211 58.8083 75.0234 57.4271C72.4641 57.7034 69.9211 58.1096 67.4109 58.6458C68.1328 60.9857 69.0352 63.4068 70.0852 65.8767C70.8398 64.4468 71.6109 63.0331 72.4313 61.6357ZM67.4602 81.1834C69.8227 81.7034 72.3328 82.1258 74.9414 82.4508C74.0719 81.1021 73.2188 79.721 72.4148 78.3235C71.6109 76.9424 70.8234 75.5287 70.0852 74.0988C69.0516 76.5199 68.182 78.8923 67.4602 81.1834ZM71.9555 69.9877C73.0383 72.2301 74.2195 74.4237 75.4664 76.5849C76.7133 78.746 78.0586 80.8421 79.4695 82.9058C81.9305 83.0845 84.4406 83.182 87 83.182C89.5594 83.182 92.0859 83.0845 94.5305 82.9058C95.925 80.8584 97.2539 78.7623 98.5172 76.6174C99.7805 74.4725 100.962 72.2789 102.077 70.0527C100.978 67.8103 99.7969 65.6005 98.5336 63.4231C97.2867 61.2619 95.9578 59.1658 94.5633 57.0859C92.1188 56.9072 89.5758 56.8259 87 56.8259C84.4242 56.8259 81.9305 56.9072 79.5188 57.0534C78.0914 59.1171 76.7461 61.2294 75.4828 63.3906C74.2195 65.5517 73.0547 67.7453 71.9555 69.9877ZM101.585 61.6682C102.422 63.0981 103.209 64.5443 103.98 66.0067C105.03 63.6506 105.949 61.2619 106.753 58.8083C104.21 58.2396 101.634 57.8009 99.0422 57.5084C99.9281 58.8733 100.765 60.2707 101.585 61.6682ZM103.948 74.0988C103.177 75.5287 102.389 76.9586 101.569 78.356C100.765 79.7372 99.9281 81.1021 99.0586 82.4508C101.7 82.1258 104.227 81.6871 106.589 81.1509C105.834 78.746 104.948 76.4061 103.948 74.0988ZM87.0328 92.379C88.7555 90.5266 90.3797 88.5767 91.8891 86.5618C88.6406 86.7081 85.3758 86.7081 82.1273 86.5618C83.7352 88.658 85.3922 90.6079 87.0328 92.379ZM68.0016 102.34C70.7578 103.932 76.8773 101.657 83.325 96.0026C83.7352 95.6451 84.1453 95.2551 84.5719 94.8651C82.0289 92.1515 79.6828 89.2592 77.5336 86.2369C73.8258 85.9119 70.1508 85.3432 66.5086 84.547C66.2953 85.3757 66.1148 86.2206 65.9344 87.0656C64.3922 94.9301 65.4094 100.861 68.0016 102.34ZM63.982 59.507C63.293 59.702 62.6203 59.9133 61.9477 60.1408C58.4531 61.2294 54.4828 62.9519 51.6117 65.2105C49.9547 66.3479 48.8391 68.1028 48.5273 70.069C48.5273 73.0426 53.7117 76.8449 61.193 79.4285C62.1281 79.7535 63.0797 80.0459 64.0313 80.3222C65.1469 76.7961 66.4922 73.335 68.0508 69.9877C66.4758 66.5917 65.1141 63.0818 63.982 59.507ZM83.1117 43.5829C80.4047 41.1293 77.2711 39.1794 73.8586 37.8469C72.0375 36.9857 69.9375 36.9045 68.0672 37.6357C65.4586 39.1306 64.3758 44.8666 65.8523 52.5849C66.0328 53.4949 66.2297 54.4048 66.4594 55.2985C70.1344 54.5186 73.8422 53.9823 77.5992 53.7061C79.7648 50.6675 82.1438 47.7589 84.6867 45.0291C84.1617 44.5253 83.6367 44.0379 83.1117 43.5829ZM87.1312 47.5314C85.4578 49.3188 83.7844 51.3012 82.1602 53.4299C83.7352 53.3649 85.3594 53.3324 87 53.3324C88.6898 53.3324 90.3469 53.3649 91.9875 53.4461C90.4781 51.3825 88.8539 49.4163 87.1312 47.5314ZM108.574 42.6567C108.427 40.6743 107.442 38.8219 105.867 37.5707C103.259 36.0758 97.6969 38.0257 91.6922 43.1279C91.0031 43.7129 90.3141 44.3466 89.6086 44.9966C92.1188 47.7427 94.432 50.6513 96.532 53.7061C100.289 54.0148 104.03 54.5836 107.721 55.4123C107.885 54.746 108.033 54.0798 108.164 53.4299C108.968 49.92 109.099 46.264 108.574 42.6567ZM111.56 60.1245C111.101 59.9783 110.641 59.832 110.166 59.702C109.017 63.2443 107.606 66.7054 105.982 70.069C107.557 73.3838 108.886 76.7961 110.002 80.2897C110.855 80.0459 111.675 79.786 112.463 79.526C120.108 76.9261 125.473 73.0588 125.473 70.1015C125.473 66.9166 119.747 62.8056 111.56 60.1245ZM87 62.5619C91.1508 62.5619 94.5141 65.8929 94.5141 70.004C94.5141 74.115 91.1508 77.4461 87 77.4461C82.8492 77.4461 79.4859 74.115 79.4859 70.004C79.4859 65.8929 82.8492 62.5619 87 62.5619Z" fill="#3F98BB"/>
<rect width="84" height="84" transform="matrix(1 0 0 -1 45 112)" stroke="#3F98BB" stroke-width="3"/>
<path d="M101.816 190.054L153.679 138.101C155.44 136.337 155.44 133.476 153.679 131.712L147.301 125.323C145.54 123.559 142.685 123.559 140.923 125.323L98.6274 167.692L78.8804 147.911C77.1193 146.147 74.2638 146.147 72.5024 147.911L66.1247 154.3C64.3636 156.064 64.3636 158.925 66.1247 160.689L95.4385 190.053C97.1998 191.818 100.055 191.818 101.816 190.054Z" fill="#3F98BB"/>
<path d="M109.902 223C71.2961 223 40 191.65 40 152.977M101.816 190.054L153.679 138.101C155.44 136.337 155.44 133.476 153.679 131.712L147.301 125.323C145.54 123.559 142.685 123.559 140.923 125.323L98.6274 167.692L78.8804 147.911C77.1193 146.147 74.2638 146.147 72.5024 147.911L66.1247 154.3C64.3636 156.064 64.3636 158.925 66.1247 160.689L95.4385 190.053C97.1998 191.818 100.055 191.818 101.816 190.054Z" stroke="black" stroke-width="3"/>
<path d="M253.906 151.672H242.595V169.302H253.906V151.672Z" fill="#9E6B57"/>
<path d="M248.503 151.672H242.595V169.302H248.503V151.672Z" fill="#8C5A4B"/>
<path d="M264.383 151.672H253.49V169.302H264.383V151.672Z" fill="#AD7B64"/>
<path d="M240.724 130.542L240.723 130.542C228.204 125.504 219.308 113.28 219.078 98.9324L218.578 98.9404L219.078 98.9324C218.773 80.0089 233.869 64.1698 252.657 63.7237C272.041 63.2634 287.905 78.9444 287.905 98.3612C287.905 112.9 279.008 125.343 266.398 130.484C265.66 130.785 265.193 131.509 265.193 132.296V142.727H241.785V132.104C241.785 131.408 241.357 130.797 240.724 130.542Z" fill="#FFC850" stroke="#3F98BB"/>
<path d="M246.436 131.006C233.734 125.895 224.71 113.495 224.476 98.9407C224.179 80.4553 238.369 64.8712 256.447 63.3402C255.197 63.2348 253.929 63.1935 252.645 63.2241C233.579 63.6768 218.269 79.7463 218.578 98.9407C218.811 113.495 227.835 125.895 240.537 131.006C240.986 131.187 241.285 131.618 241.285 132.104V143.228H247.184V132.104C247.184 131.617 246.884 131.187 246.436 131.006Z" fill="#F9B428"/>
<path d="M264.382 169.302L255.413 190.338C254.558 192.342 252.419 192.342 251.565 190.338L242.595 169.302H264.382Z" fill="#E4EAF8"/>
<path d="M248.502 169.302H242.596L251.565 190.339C252.42 192.342 254.559 192.342 255.413 190.339L256.442 187.924L248.502 169.302Z" fill="#D8DCE5"/>
<path d="M246.958 179.533L251.565 190.338C252.419 192.342 254.558 192.342 255.413 190.338L260.02 179.533H246.958Z" fill="#707487"/>
<path d="M255.413 190.338L256.442 187.924L252.864 179.533H246.958L251.565 190.338C252.414 192.329 254.554 192.354 255.413 190.338Z" fill="#5E6377"/>
<path d="M267.111 141.936H239.867C238.151 141.936 236.746 143.349 236.746 145.078V149.057C236.746 150.785 238.15 152.199 239.867 152.199H267.111C268.827 152.199 270.232 150.785 270.232 149.057V145.078C270.232 143.349 268.828 141.936 267.111 141.936Z" fill="#008CFF"/>
<path d="M261.23 100.117H245.747C244.027 100.117 242.619 101.534 242.619 103.266V107.256C242.619 108.988 244.027 110.405 245.747 110.405H261.23C262.951 110.405 264.359 108.988 264.359 107.256V103.266C264.359 101.534 262.951 100.117 261.23 100.117Z" fill="#FC932B"/>
<path d="M267.111 146.261H239.867C238.49 146.261 237.316 145.35 236.904 144.098C236.803 144.407 236.746 144.736 236.746 145.078V149.057C236.746 150.785 238.15 152.199 239.867 152.199H267.111C268.827 152.199 270.232 150.785 270.232 149.057V145.078C270.232 144.736 270.175 144.407 270.074 144.098C269.662 145.35 268.488 146.261 267.111 146.261Z" fill="#0385DD"/>
<path d="M261.23 104.467H245.747C244.365 104.467 243.185 103.551 242.775 102.292C242.675 102.6 242.619 102.927 242.619 103.266V107.256C242.619 108.988 244.027 110.405 245.747 110.405H261.23C262.951 110.405 264.359 108.988 264.359 107.256V103.266C264.359 102.927 264.304 102.6 264.203 102.292C263.793 103.551 262.614 104.467 261.23 104.467Z" fill="#E87B18"/>
<path d="M212.757 98.6551C212.757 97.4255 211.767 96.4286 210.546 96.4286H199.429C198.208 96.4286 197.218 97.4255 197.218 98.6551C197.218 99.8848 198.208 100.882 199.429 100.882H210.545C211.767 100.882 212.757 99.8851 212.757 98.6551Z" fill="black"/>
<path d="M307.57 96.4286H296.455C295.233 96.4286 294.243 97.4255 294.243 98.6551C294.243 99.8848 295.233 100.882 296.455 100.882H307.57C308.792 100.882 309.782 99.8848 309.782 98.6551C309.783 97.4255 308.793 96.4286 307.57 96.4286Z" fill="black"/>
<path d="M253.5 57.6426C254.722 57.6426 255.712 56.6457 255.712 55.416V44.2266C255.712 42.9969 254.722 42 253.5 42C252.278 42 251.288 42.9969 251.288 44.2266V55.4157C251.288 56.646 252.278 57.6426 253.5 57.6426Z" fill="black"/>
<path d="M215.194 118.347L205.567 123.941C204.51 124.556 204.147 125.918 204.758 126.983C205.369 128.048 206.721 128.413 207.78 127.798L217.406 122.203C218.464 121.589 218.826 120.227 218.216 119.162C217.605 118.096 216.252 117.732 215.194 118.347Z" fill="black"/>
<path d="M291.806 78.9641L301.433 73.3695C302.49 72.7546 302.853 71.3929 302.242 70.3277C301.632 69.2628 300.278 68.898 299.22 69.5128L289.594 75.1074C288.536 75.7222 288.173 77.084 288.784 78.1491C289.395 79.2146 290.749 79.5786 291.806 78.9641Z" fill="black"/>
<path d="M273.871 63.1374C274.931 63.7528 276.283 63.3862 276.893 62.3225L282.451 52.6322C283.062 51.5674 282.699 50.2053 281.641 49.5905C280.583 48.9753 279.23 49.3405 278.62 50.4054L273.062 60.0956C272.451 61.1608 272.814 62.5226 273.871 63.1374Z" fill="black"/>
<path d="M230.107 62.3222C230.718 63.3874 232.071 63.7522 233.129 63.1371C234.187 62.5223 234.549 61.1605 233.938 60.0954L228.381 50.4051C227.77 49.3402 226.417 48.9753 225.359 49.5902C224.301 50.205 223.939 51.5668 224.549 52.6319L230.107 62.3222Z" fill="black"/>
<path d="M301.433 123.941L291.806 118.347C290.747 117.732 289.394 118.097 288.784 119.162C288.173 120.227 288.536 121.589 289.594 122.203L299.22 127.798C300.28 128.413 301.632 128.047 302.242 126.983C302.853 125.918 302.49 124.556 301.433 123.941Z" fill="black"/>
<path d="M205.567 73.3695L215.194 78.9641C216.252 79.5792 217.605 79.214 218.216 78.1491C218.826 77.0842 218.464 75.7222 217.406 75.1074L207.78 69.5128C206.721 68.8977 205.369 69.2628 204.758 70.3277C204.147 71.3926 204.51 72.7546 205.567 73.3695Z" fill="black"/>
<path d="M290.147 104.62C290.356 103.409 289.55 102.256 288.346 102.046C287.144 101.836 285.997 102.647 285.789 103.859C283.872 114.978 276.21 124.524 265.796 128.769C264.413 129.333 263.519 130.674 263.519 132.186V139.619H260.385V112.475H261.265C264.21 112.475 266.605 110.063 266.605 107.099V103.087C266.605 100.123 264.21 97.7116 261.265 97.7116H258.661C257.44 97.7116 256.45 98.7085 256.45 99.9382C256.45 101.168 257.44 102.165 258.661 102.165H261.265C261.762 102.165 262.181 102.587 262.181 103.087V107.098C262.181 107.599 261.762 108.021 261.265 108.021H245.736C245.239 108.021 244.819 107.598 244.819 107.098V103.087C244.819 102.587 245.239 102.165 245.736 102.165H248.339C249.561 102.165 250.551 101.168 250.551 99.9382C250.551 98.7085 249.561 97.7116 248.339 97.7116H245.736C242.791 97.7116 240.395 100.123 240.395 103.087V107.099C240.395 110.063 242.791 112.475 245.736 112.475H246.616V139.619H243.482V131.993C243.482 130.592 242.642 129.348 241.342 128.825C229.033 123.872 220.941 112.056 220.726 98.7231C220.436 80.6604 234.783 65.6187 252.706 65.193C269.65 64.7877 283.973 77.2265 286.031 94.1195C286.179 95.3402 287.286 96.2083 288.496 96.0587C289.708 95.909 290.57 94.7981 290.422 93.5774C288.117 74.6535 271.89 60.2931 252.602 60.7405C232.257 61.2238 215.973 78.2952 216.302 98.7949C216.541 113.695 225.448 126.926 239.058 132.696V139.683C236.488 140.067 234.509 142.296 234.509 144.987V148.989C234.509 151.949 236.901 154.357 239.842 154.357H240.394V169.234C240.394 169.51 240.455 169.834 240.573 170.112C241 171.113 242.318 174.204 243.825 177.739C246.121 183.124 248.856 189.537 249.543 191.149C251.161 194.944 255.832 194.955 257.456 191.149L266.424 170.115C266.543 169.838 266.605 169.513 266.605 169.234V154.357H267.157C270.098 154.357 272.49 151.949 272.49 148.989V144.987C272.49 142.296 270.511 140.067 267.941 139.683V132.695C279.514 127.781 288.001 117.07 290.147 104.62ZM251.04 112.475H255.96V139.619H251.04V112.475ZM258.574 177.238H248.427L245.963 171.461H261.036L258.574 177.238ZM253.5 189.137L250.326 181.692H256.675L253.5 189.137ZM251.288 167.008H244.819V154.357H251.288V167.008ZM262.182 167.008H255.713V154.357H262.182V167.008ZM268.067 148.989C268.067 149.485 267.651 149.904 267.158 149.904H239.843C239.35 149.904 238.934 149.485 238.934 148.989V144.987C238.934 144.492 239.35 144.072 239.843 144.072H267.158C267.651 144.072 268.067 144.492 268.067 144.987V148.989Z" fill="#3F98BB"/>
<path d="M290.147 104.62C290.356 103.409 289.55 102.256 288.346 102.046C287.144 101.836 285.997 102.647 285.789 103.859C283.872 114.978 276.21 124.524 265.796 128.769C264.413 129.333 263.519 130.674 263.519 132.186V139.619H260.385V112.475H261.265C264.21 112.475 266.605 110.063 266.605 107.099V103.087C266.605 100.123 264.21 97.7116 261.265 97.7116H258.661C257.44 97.7116 256.45 98.7085 256.45 99.9382C256.45 101.168 257.44 102.165 258.661 102.165H261.265C261.762 102.165 262.181 102.587 262.181 103.087V107.098C262.181 107.599 261.762 108.021 261.265 108.021H245.736C245.239 108.021 244.819 107.598 244.819 107.098V103.087C244.819 102.587 245.239 102.165 245.736 102.165H248.339C249.561 102.165 250.551 101.168 250.551 99.9382C250.551 98.7085 249.561 97.7116 248.339 97.7116H245.736C242.791 97.7116 240.395 100.123 240.395 103.087V107.099C240.395 110.063 242.791 112.475 245.736 112.475H246.616V139.619H243.482V131.993C243.482 130.592 242.642 129.348 241.342 128.825C229.033 123.872 220.941 112.056 220.726 98.7231C220.436 80.6604 234.783 65.6187 252.706 65.193C269.65 64.7877 283.973 77.2265 286.031 94.1195C286.179 95.3402 287.286 96.2083 288.496 96.0587C289.708 95.909 290.57 94.7981 290.422 93.5774C288.117 74.6535 271.89 60.2931 252.602 60.7405C232.257 61.2238 215.973 78.2952 216.302 98.7949C216.541 113.695 225.448 126.926 239.058 132.696V139.683C236.488 140.067 234.509 142.296 234.509 144.987V148.989C234.509 151.949 236.901 154.357 239.842 154.357H240.394V169.234C240.394 169.51 240.455 169.834 240.573 170.112C241 171.113 242.318 174.204 243.825 177.739C246.121 183.124 248.856 189.537 249.543 191.149C251.161 194.944 255.832 194.955 257.456 191.149L266.424 170.115C266.543 169.838 266.605 169.513 266.605 169.234V154.357H267.157C270.098 154.357 272.49 151.949 272.49 148.989V144.987C272.49 142.296 270.511 140.067 267.941 139.683V132.695C279.514 127.781 288.001 117.07 290.147 104.62ZM251.04 112.475H255.96V139.619H251.04V112.475ZM258.574 177.238H248.427L245.963 171.461H261.036L258.574 177.238ZM253.5 189.137L250.326 181.692H256.675L253.5 189.137ZM251.288 167.008H244.819V154.357H251.288V167.008ZM262.182 167.008H255.713V154.357H262.182V167.008ZM268.067 148.989C268.067 149.485 267.651 149.904 267.158 149.904H239.843C239.35 149.904 238.934 149.485 238.934 148.989V144.987C238.934 144.492 239.35 144.072 239.843 144.072H267.158C267.651 144.072 268.067 144.492 268.067 144.987V148.989Z" stroke="black"/>
<rect x="178" y="42" width="151" height="152" stroke="#3F98BB" stroke-width="3"/>
<defs>
<filter id="filter0_d" x="0.5" y="0.5" width="351" height="242" filterUnits="userSpaceOnUse" color-interpolation-filters="sRGB">
<feFlood flood-opacity="0" result="BackgroundImageFix"/>
<feColorMatrix in="SourceAlpha" type="matrix" values="0 0 0 0 0 0 0 0 0 0 0 0 0 0 0 0 0 0 127 0"/>
<feOffset dx="4" dy="4"/>
<feGaussianBlur stdDeviation="2"/>
<feColorMatrix type="matrix" values="0 0 0 0 0 0 0 0 0 0 0 0 0 0 0 0 0 0 0.25 0"/>
<feBlend mode="normal" in2="BackgroundImageFix" result="effect1_dropShadow"/>
<feBlend mode="normal" in="SourceGraphic" in2="effect1_dropShadow" result="shape"/>
</filter>
</defs>
</svg>
