<svg width="324" height="171" viewBox="0 0 324 171" fill="none" xmlns="http://www.w3.org/2000/svg">
<g clip-path="url(#clip0)">
<rect width="324" height="171" fill="white"/>
<rect x="1" width="323" height="170" fill="#3F98BB"/>
<path d="M109.5 57C109.5 67.2051 101.006 75.5 90.5 75.5C79.9943 75.5 71.5 67.2051 71.5 57C71.5 46.7949 79.9943 38.5 90.5 38.5C101.006 38.5 109.5 46.7949 109.5 57Z" fill="#FCC91D" stroke="black"/>
<circle cx="87.5" cy="58.5" r="19" fill="#F35E98" stroke="black"/>
<g style="mix-blend-mode:darken">
<path d="M73.5 122.5C73.5 125.221 71.0794 127.5 68 127.5C64.9206 127.5 62.5 125.221 62.5 122.5C62.5 119.779 64.9206 117.5 68 117.5C71.0794 117.5 73.5 119.779 73.5 122.5Z" fill="#C4C4C4"/>
<path d="M73.5 122.5C73.5 125.221 71.0794 127.5 68 127.5C64.9206 127.5 62.5 125.221 62.5 122.5C62.5 119.779 64.9206 117.5 68 117.5C71.0794 117.5 73.5 119.779 73.5 122.5Z" stroke="black"/>
</g>
<g style="mix-blend-mode:darken">
<path d="M75.5567 125.742C73.8553 129.932 69.0802 131.948 64.8911 130.247C60.702 128.545 58.6853 123.77 60.3867 119.581" stroke="black"/>
</g>
<g style="mix-blend-mode:darken">
<path d="M77.0678 126.657C75.1404 131.607 69.3052 133.956 64.0345 131.904" stroke="black"/>
</g>
<g style="mix-blend-mode:darken">
<path d="M74.205 124.849C72.8047 128.297 68.8745 129.956 65.4267 128.556C61.9789 127.156 60.3191 123.226 61.7194 119.778" stroke="black"/>
</g>
<ellipse rx="4.5" ry="5.5" transform="matrix(-1 0 0 1 54.5 87.5)" fill="#F35E98"/>
<ellipse rx="3" ry="3.5" transform="matrix(-1 0 0 1 149 49.5)" fill="#C4C4C4"/>
<ellipse rx="3" ry="3.5" transform="matrix(-1 0 0 1 149 49.5)" fill="#F35E98"/>
<circle r="1.5" transform="matrix(-1 0 0 1 208.5 25.5)" fill="#C4C4C4"/>
<circle r="1.5" transform="matrix(-1 0 0 1 208.5 25.5)" fill="#F35E98"/>
<circle r="1.5" transform="matrix(-1 0 0 1 227.5 51.5)" fill="#F35E98"/>
<circle r="1.5" transform="matrix(-1 0 0 1 245.5 77.5)" fill="#F35E98"/>
<circle r="1.5" transform="matrix(-1 0 0 1 261.5 121.5)" fill="#F35E98"/>
<circle r="1.5" transform="matrix(-1 0 0 1 231.5 147.5)" fill="#F35E98"/>
<circle r="1.5" transform="matrix(-1 0 0 1 189.5 156.5)" fill="#F35E98"/>
<ellipse rx="1.5" ry="1" transform="matrix(-1 0 0 1 148.5 164)" fill="#F35E98"/>
<circle r="1.5" transform="matrix(-1 0 0 1 101.5 117.5)" fill="#F35E98"/>
<circle r="1.5" transform="matrix(-1 0 0 1 28.5 76.5)" fill="#F35E98"/>
<circle r="1.5" transform="matrix(-1 0 0 1 41.5 47.5)" fill="#F35E98"/>
<g filter="url(#filter0_i)">
<rect x="136" y="16" width="48" height="27" fill="#C4C4C4"/>
</g>
<rect x="140.5" y="13.5" width="47" height="25" stroke="white"/>
<g filter="url(#filter1_i)">
<path d="M74 18H63V21.3684L68.9425 24H74V18Z" fill="#C4C4C4"/>
</g>
<path d="M63.5 18.5H73.5V23.5H69.0483L63.5 21.043V18.5Z" stroke="black"/>
<path d="M157.04 60.5521L157.042 60.5487C157.053 60.514 157.051 60.4982 157.051 60.497V60.497C157.051 60.4959 157.051 60.4962 157.05 60.4948C157.048 60.4922 157.043 60.4856 157.032 60.4779C157.02 60.4701 157.007 60.4647 156.997 60.4621L156.965 60.4543L156.936 60.4426C156.165 60.141 155.399 59.8146 154.639 59.4907L154.629 59.486C153.87 59.1627 153.118 58.8418 152.358 58.5436C150.832 57.9446 149.298 57.4462 147.695 57.2218L147.694 57.2216C147.671 57.2183 147.635 57.2206 147.595 57.2359C147.554 57.2514 147.523 57.2743 147.506 57.2934C147.506 57.2936 147.505 57.2939 147.505 57.2942C147.506 57.2954 147.507 57.2968 147.508 57.2982L147.517 57.3108L147.525 57.3239C147.884 57.8988 148.215 58.5099 148.532 59.1095C148.417 58.8224 148.302 58.5434 148.173 58.2629L147.745 57.3367L148.739 57.5661C150.62 58.0001 152.452 58.7505 154.219 59.4743C154.923 59.7628 155.617 60.0472 156.3 60.3055L156.753 60.4771L156.595 60.9357C155.991 62.694 155.206 64.4099 154.437 66.0914C154.265 66.4674 154.093 66.8417 153.925 67.2144L153.616 67.8986L153.104 67.3497C152.243 66.427 151.44 65.451 150.647 64.4253L150.666 64.4632C151.253 65.6377 152.205 66.6298 153.193 67.6595C153.353 67.8262 153.514 67.9938 153.674 68.1634C153.682 68.1658 153.694 68.1681 153.707 68.1693C153.72 68.1704 153.733 68.1704 153.745 68.1692C153.748 68.169 153.751 68.1687 153.753 68.1683C153.754 68.1682 153.755 68.168 153.756 68.1679C154.069 67.4687 154.394 66.7766 154.717 66.0864C155.574 64.2595 156.425 62.4463 157.04 60.5521ZM138.197 67.8196C140.739 66.2379 143.462 64.9714 146.276 64.4322C143.968 64.7242 141.643 65.7978 139.59 66.9771C135.646 69.2779 132.026 72.0416 128.597 75.1409L128.597 75.1413C123.903 79.3726 119.176 84.3689 116.098 90.0658L115.183 89.6733C119.899 75.1976 132.401 64.4399 147.88 61.425C139.61 62.2634 131.297 66.7025 124.9 73.084C118.234 79.7341 113.699 88.4417 113.438 97.2724L113.437 97.31L113.43 97.3471C113.38 97.6227 113.325 97.8812 113.272 98.1308C113.175 98.5883 113.084 99.016 113.041 99.4644C113.041 99.4692 113.041 99.4735 113.042 99.4774H113.337C113.387 98.6909 113.479 97.9208 113.57 97.1956L113.574 97.1597L113.584 97.1248C115.943 88.566 121.861 81.4564 128.325 75.6587C131.109 73.1403 134.489 70.1265 138.197 67.8196Z" stroke="#29458A"/>
<path d="M241.858 100.548C240.81 100.823 239.707 100.919 238.647 101.08C238.511 101.107 238.399 100.933 238.422 100.826C238.576 100.207 238.701 99.5447 239.024 98.9998L239.011 98.9781C237.506 96.2087 233.607 95.1002 230.789 94.3384C227.552 93.4482 224.028 93.0177 220.787 94.0284C220.413 94.208 220.016 94.4015 219.648 94.6383C219.474 94.7497 219.321 94.5113 219.48 94.3782C219.545 94.3364 219.611 94.2946 219.676 94.2528C219.62 94.1661 219.643 94.0593 219.751 93.9897C220.004 93.8581 220.284 93.7699 220.55 93.66C226.536 90.058 235.956 92.2736 240.003 97.7583C240.224 97.3404 240.481 96.9302 240.689 96.4906C240.771 96.2847 241.034 96.3606 241.11 96.5262C241.655 97.7074 241.762 99.017 242.013 100.265C242.047 100.365 242.016 100.508 241.858 100.548ZM240.858 97.0865C240.659 97.3977 240.433 97.6655 240.249 97.9983C240.169 98.1113 240.04 98.102 239.977 98.0509C239.912 98.0927 239.84 98.0772 239.777 98.0261C235.579 93.4036 229.343 91.4699 223.549 92.9883C226.09 92.7949 228.741 93.2965 231.117 93.9437C232.861 94.4159 234.537 95.0228 236.132 95.8356C237.372 96.478 238.736 97.4085 239.12 98.8156C239.252 98.6391 239.506 98.8435 239.432 99.0137C239.244 99.5323 239.079 100.037 238.949 100.549C239.816 100.421 240.697 100.314 241.543 100.107C241.331 99.1098 241.206 98.0571 240.858 97.0865Z" fill="#29458A"/>
<path d="M234.653 104.207L228.469 103.8L226.141 97.9502L223.812 103.8L217.636 104.207L222.373 108.229L220.819 114.331L226.141 110.967L231.463 114.331L229.909 108.229L234.653 104.207Z" fill="#F35E98"/>
<path d="M162.623 25.4269L159.994 25.254L159.004 22.7663L158.013 25.254L155.387 25.4269L157.401 27.1374L156.74 29.7321L159.004 28.3015L161.267 29.7321L160.606 27.1374L162.623 25.4269Z" fill="black"/>
<path d="M97.2196 54.8925L91.0365 54.486L88.7079 48.636L86.3794 54.486L80.2031 54.8925L84.9402 58.9148L83.3858 65.0165L88.7079 61.6524L94.0302 65.0165L92.4757 58.9148L97.2196 54.8925Z" fill="black"/>
<path d="M172.219 95.7453L162.518 78.9422C162.377 78.6982 162.117 78.5479 161.835 78.5479H142.433C142.151 78.5479 141.89 78.6982 141.749 78.9422L132.048 95.7453C131.907 95.9893 131.907 96.2899 132.048 96.534L141.749 113.337C141.89 113.581 142.151 113.731 142.433 113.731H161.835C162.117 113.731 162.377 113.581 162.518 113.337L172.219 96.534C172.36 96.2899 172.36 95.9893 172.219 95.7453ZM161.38 112.154H142.888L133.642 96.1396L142.888 80.1253H161.38L170.625 96.1396L161.38 112.154Z" fill="#F35E98"/>
<path d="M168.576 95.7453L160.697 82.0971C160.556 81.8531 160.295 81.7028 160.014 81.7028H144.254C143.972 81.7028 143.712 81.8531 143.571 82.0971L135.691 95.7453C135.55 95.9893 135.55 96.2899 135.691 96.534L143.571 110.182C143.712 110.426 143.972 110.576 144.254 110.576H160.014C160.295 110.576 160.556 110.426 160.697 110.182L168.576 96.534C168.717 96.2899 168.717 95.9893 168.576 95.7453ZM159.558 108.999H144.709L137.285 96.1396L144.709 83.2802H159.558L166.983 96.1396L159.558 108.999Z" fill="#F35E98"/>
<path d="M146.857 85.5087C146.847 85.459 146.832 85.4093 146.812 85.3612C146.793 85.3138 146.768 85.2681 146.74 85.2255C146.711 85.182 146.678 85.1418 146.641 85.1055C146.605 85.0693 146.565 85.0361 146.521 85.007C146.479 84.9786 146.433 84.9549 146.386 84.9352C146.337 84.9155 146.288 84.8998 146.238 84.8894C146.136 84.8689 146.031 84.8689 145.93 84.8894C145.879 84.8998 145.83 84.9155 145.782 84.9352C145.734 84.9549 145.688 84.9786 145.646 85.007C145.602 85.0361 145.562 85.0693 145.526 85.1055C145.49 85.1418 145.456 85.182 145.428 85.2255C145.4 85.2681 145.375 85.3138 145.355 85.3612C145.336 85.4093 145.321 85.459 145.311 85.5087C145.3 85.5598 145.295 85.612 145.295 85.6632C145.295 85.7144 145.3 85.7665 145.311 85.817C145.321 85.8675 145.336 85.9171 145.355 85.9645C145.375 86.0126 145.4 86.0583 145.428 86.1009C145.456 86.1442 145.49 86.1845 145.526 86.2208C145.562 86.2571 145.602 86.2902 145.646 86.3185C145.688 86.3469 145.735 86.3714 145.782 86.3911C145.83 86.4108 145.879 86.4258 145.93 86.436C145.98 86.4463 146.032 86.4518 146.083 86.4518C146.135 86.4518 146.187 86.4463 146.238 86.436C146.289 86.4258 146.337 86.4108 146.386 86.3911C146.433 86.3714 146.479 86.3469 146.521 86.3185C146.565 86.2902 146.605 86.2571 146.641 86.2208C146.677 86.1846 146.711 86.1443 146.74 86.1009C146.768 86.0584 146.793 86.0126 146.812 85.9645C146.832 85.9172 146.847 85.8675 146.857 85.817C146.867 85.7666 146.872 85.7144 146.872 85.6632C146.872 85.6119 146.867 85.5598 146.857 85.5087Z" fill="#F35E98"/>
<path d="M147.004 106.633L140.946 96.1396L145.326 88.5536C145.543 88.1764 145.414 87.6941 145.037 87.4763C144.66 87.2585 144.177 87.3878 143.959 87.7649L139.352 95.7453C139.211 95.9893 139.211 96.2899 139.352 96.534L145.638 107.422C145.784 107.675 146.049 107.816 146.322 107.816C146.456 107.816 146.591 107.782 146.715 107.71C147.093 107.492 147.222 107.01 147.004 106.633Z" fill="#F35E98"/>
<path d="M206.031 36.3901L215.804 43.9217L204.395 48.6193L206.031 36.3901Z" fill="#FCC91D"/>
<g style="mix-blend-mode:darken">
<path d="M67.1703 120.992L68.5769 110.48L76.9776 116.954L67.1703 120.992Z" stroke="black"/>
</g>
<path d="M154.992 47.0468L158.005 49.3685L154.488 50.8165L154.992 47.0468Z" fill="#FCC91D"/>
<path d="M216.433 114.955L219.445 117.276L215.928 118.725L216.433 114.955Z" fill="#FCC91D"/>
<path d="M92.8762 80.9129L98.485 85.2355L91.9371 87.9316L92.8762 80.9129Z" fill="#FCC91D"/>
<path d="M234.439 16.5651L239.444 20.4228L233.601 22.8289L234.439 16.5651Z" fill="#FCC91D"/>
<path d="M20.5194 109.04L25.525 112.898L19.6813 115.304L20.5194 109.04Z" fill="#FCC91D"/>
<path d="M22 24L24.5206 29.1942L27.7586 24.4142L22 24ZM115 31L112.479 25.8058L109.241 30.5858L115 31ZM25.4452 26.9378L26.8862 27.914L27.4471 27.086L26.0061 26.1099L25.4452 26.9378ZM109.553 27.914L110.994 28.8901L111.555 28.0622L110.114 27.086L109.553 27.914ZM99.7804 27.914C102.731 25.915 106.602 25.915 109.553 27.914L110.114 27.086C106.824 24.8576 102.509 24.8576 99.2196 27.086L99.7804 27.914ZM88.8862 27.914C92.1758 30.1424 96.4909 30.1424 99.7804 27.914L99.2196 27.086C96.2687 29.085 92.3979 29.085 89.4471 27.086L88.8862 27.914ZM79.1138 27.914C82.0646 25.915 85.9354 25.915 88.8862 27.914L89.4471 27.086C86.1576 24.8576 81.8424 24.8576 78.5529 27.086L79.1138 27.914ZM68.2196 27.914C71.5091 30.1424 75.8242 30.1424 79.1138 27.914L78.5529 27.086C75.6021 29.085 71.7313 29.085 68.7804 27.086L68.2196 27.914ZM58.4471 27.914C61.3979 25.915 65.2687 25.915 68.2196 27.914L68.7804 27.086C65.4909 24.8576 61.1758 24.8576 57.8862 27.086L58.4471 27.914ZM47.5529 27.914C50.8424 30.1424 55.1576 30.1424 58.4471 27.914L57.8862 27.086C54.9354 29.085 51.0646 29.085 48.1138 27.086L47.5529 27.914ZM37.7804 27.914C40.7313 25.915 44.6021 25.915 47.5529 27.914L48.1138 27.086C44.8242 24.8576 40.5091 24.8576 37.2196 27.086L37.7804 27.914ZM26.8862 27.914C30.1758 30.1424 34.4909 30.1424 37.7804 27.914L37.2196 27.086C34.2687 29.085 30.3979 29.085 27.4471 27.086L26.8862 27.914Z" fill="white"/>
<path d="M180 68L183.243 72.7763L185.758 67.5793L180 68ZM273 73L269.757 68.2237L267.242 73.4207L273 73ZM258.311 70.1076L258.093 69.6575L258.311 70.1076ZM247.978 70.8924L247.76 71.3425L247.978 70.8924ZM237.644 70.1076L237.427 69.6575L237.644 70.1076ZM246.356 70.1076L246.138 70.5576L246.356 70.1076ZM227.311 70.8924L227.093 71.3425L227.311 70.8924ZM216.978 70.1076L216.76 69.6575L216.978 70.1076ZM225.689 70.1076L225.471 70.5576L225.689 70.1076ZM206.644 70.8924L206.427 71.3425L206.644 70.8924ZM205.022 70.1076L204.804 70.5576L205.022 70.1076ZM194.689 70.8924L194.471 70.4424L194.689 70.8924ZM183.833 70.4101L185.76 71.3425L186.196 70.4424L184.268 69.5099L183.833 70.4101ZM194.907 71.3425L196.529 70.5576L196.093 69.6575L194.471 70.4424L194.907 71.3425ZM204.804 70.5576L206.427 71.3425L206.862 70.4424L205.24 69.6575L204.804 70.5576ZM215.573 71.3425L217.196 70.5576L216.76 69.6575L215.138 70.4424L215.573 71.3425ZM225.471 70.5576L227.093 71.3425L227.529 70.4424L225.907 69.6575L225.471 70.5576ZM236.24 71.3425L237.862 70.5576L237.427 69.6575L235.804 70.4424L236.24 71.3425ZM246.138 70.5576L247.76 71.3425L248.196 70.4424L246.573 69.6575L246.138 70.5576ZM256.907 71.3425L258.529 70.5576L258.093 69.6575L256.471 70.4424L256.907 71.3425ZM266.804 70.5576L268.732 71.4901L269.167 70.5899L267.24 69.6575L266.804 70.5576ZM258.529 70.5576C261.142 69.293 264.191 69.293 266.804 70.5576L267.24 69.6575C264.351 68.2597 260.982 68.2597 258.093 69.6575L258.529 70.5576ZM247.76 71.3425C250.649 72.7403 254.018 72.7403 256.907 71.3425L256.471 70.4424C253.858 71.707 250.809 71.707 248.196 70.4424L247.76 71.3425ZM237.862 70.5576C240.476 69.293 243.524 69.293 246.138 70.5576L246.573 69.6575C243.685 68.2597 240.315 68.2597 237.427 69.6575L237.862 70.5576ZM227.093 71.3425C229.982 72.7403 233.351 72.7403 236.24 71.3425L235.804 70.4424C233.191 71.707 230.142 71.707 227.529 70.4424L227.093 71.3425ZM217.196 70.5576C219.809 69.293 222.858 69.293 225.471 70.5576L225.907 69.6575C223.018 68.2597 219.649 68.2597 216.76 69.6575L217.196 70.5576ZM206.427 71.3425C209.315 72.7403 212.685 72.7403 215.573 71.3425L215.138 70.4424C212.524 71.707 209.476 71.707 206.862 70.4424L206.427 71.3425ZM196.529 70.5576C199.142 69.293 202.191 69.293 204.804 70.5576L205.24 69.6575C202.351 68.2597 198.982 68.2597 196.093 69.6575L196.529 70.5576ZM185.76 71.3425C188.649 72.7403 192.018 72.7403 194.907 71.3425L194.471 70.4424C191.858 71.707 188.809 71.707 186.196 70.4424L185.76 71.3425Z" fill="white"/>
<path d="M132 131L135.459 135.623L137.733 130.316L132 131ZM136.667 133L136.47 133.46C136.595 133.513 136.738 133.513 136.864 133.46L136.667 133ZM141.333 131L141.53 130.54C141.405 130.487 141.262 130.487 141.136 130.54L141.333 131ZM146 133L145.803 133.46C145.929 133.513 146.071 133.513 146.197 133.46L146 133ZM150.667 131L150.864 130.54C150.738 130.487 150.595 130.487 150.47 130.54L150.667 131ZM155.333 133L155.136 133.46C155.262 133.513 155.405 133.513 155.53 133.46L155.333 133ZM160 131L160.197 130.54C160.071 130.487 159.929 130.487 159.803 130.54L160 131ZM164.667 133L164.47 133.46C164.595 133.513 164.738 133.513 164.864 133.46L164.667 133ZM169.333 131L169.53 130.54C169.405 130.487 169.262 130.487 169.136 130.54L169.333 131ZM174 133L170.541 128.377L168.267 133.684L174 133ZM135.939 133.232L136.47 133.46L136.864 132.54L136.333 132.313L135.939 133.232ZM136.864 133.46L141.53 131.46L141.136 130.54L136.47 132.54L136.864 133.46ZM141.136 131.46L145.803 133.46L146.197 132.54L141.53 130.54L141.136 131.46ZM146.197 133.46L150.864 131.46L150.47 130.54L145.803 132.54L146.197 133.46ZM150.47 131.46L155.136 133.46L155.53 132.54L150.864 130.54L150.47 131.46ZM155.53 133.46L160.197 131.46L159.803 130.54L155.136 132.54L155.53 133.46ZM159.803 131.46L164.47 133.46L164.864 132.54L160.197 130.54L159.803 131.46ZM164.864 133.46L169.53 131.46L169.136 130.54L164.47 132.54L164.864 133.46ZM169.136 131.46L169.667 131.687L170.061 130.768L169.53 130.54L169.136 131.46Z" fill="white"/>
<path d="M229.982 43.8552L232.478 41.8001" stroke="black"/>
<path d="M230.202 41.5793L232.258 44.076" stroke="black"/>
<path d="M229.982 43.8552L232.478 41.8001" stroke="white"/>
<path d="M230.202 41.5793L232.258 44.076" stroke="white"/>
<path d="M140.246 127.932L142.743 125.877" stroke="black"/>
<path d="M140.467 125.656L142.522 128.153" stroke="black"/>
<path d="M173.392 88.3188L175.888 86.2636" stroke="black"/>
<path d="M173.612 86.0429L175.667 88.5395" stroke="black"/>
<path d="M128.12 30.9203L130.616 28.8652" stroke="black"/>
<path d="M128.34 28.6444L130.395 31.1411" stroke="black"/>
<path d="M225.131 117.422L227.628 115.367" stroke="black"/>
<path d="M225.352 115.146L227.407 117.643" stroke="black"/>
<path d="M99.8245 79.4261L102.321 77.3709" stroke="white"/>
<path d="M100.045 77.1502L102.1 79.6468" stroke="white"/>
<path d="M143 115H147.304M148.478 115H153.957M155.522 115H161" stroke="black"/>
<path d="M283 0C283 5.3842 284.073 10.7157 286.159 15.69C288.245 20.6644 291.301 25.1842 295.155 28.9914C299.009 32.7986 303.584 35.8186 308.619 37.8791C313.654 39.9395 319.05 41 324.5 41L324.5 0H283Z" fill="#C4C4C4"/>
<path d="M38 170C38 164.616 36.9266 159.284 34.841 154.31C32.7554 149.336 29.6986 144.816 25.8449 141.009C21.9913 137.201 17.4164 134.181 12.3814 132.121C7.34635 130.06 1.94986 129 -3.5 129L-3.5 170H38Z" fill="#C4C4C4"/>
</g>
<defs>
<filter id="filter0_i" x="136" y="16" width="52" height="31" filterUnits="userSpaceOnUse" color-interpolation-filters="sRGB">
<feFlood flood-opacity="0" result="BackgroundImageFix"/>
<feBlend mode="normal" in="SourceGraphic" in2="BackgroundImageFix" result="shape"/>
<feColorMatrix in="SourceAlpha" type="matrix" values="0 0 0 0 0 0 0 0 0 0 0 0 0 0 0 0 0 0 127 0" result="hardAlpha"/>
<feOffset dx="4" dy="4"/>
<feGaussianBlur stdDeviation="2"/>
<feComposite in2="hardAlpha" operator="arithmetic" k2="-1" k3="1"/>
<feColorMatrix type="matrix" values="0 0 0 0 0 0 0 0 0 0 0 0 0 0 0 0 0 0 0.25 0"/>
<feBlend mode="normal" in2="shape" result="effect1_innerShadow"/>
</filter>
<filter id="filter1_i" x="63" y="18" width="15" height="10" filterUnits="userSpaceOnUse" color-interpolation-filters="sRGB">
<feFlood flood-opacity="0" result="BackgroundImageFix"/>
<feBlend mode="normal" in="SourceGraphic" in2="BackgroundImageFix" result="shape"/>
<feColorMatrix in="SourceAlpha" type="matrix" values="0 0 0 0 0 0 0 0 0 0 0 0 0 0 0 0 0 0 127 0" result="hardAlpha"/>
<feOffset dx="4" dy="4"/>
<feGaussianBlur stdDeviation="2"/>
<feComposite in2="hardAlpha" operator="arithmetic" k2="-1" k3="1"/>
<feColorMatrix type="matrix" values="0 0 0 0 0 0 0 0 0 0 0 0 0 0 0 0 0 0 0.25 0"/>
<feBlend mode="normal" in2="shape" result="effect1_innerShadow"/>
</filter>
<clipPath id="clip0">
<rect width="324" height="171" fill="white"/>
</clipPath>
</defs>
</svg>
