<svg width="372" height="255" viewBox="0 0 372 255" fill="none" xmlns="http://www.w3.org/2000/svg">
<g filter="url(#filter0_d)">
<g clip-path="url(#clip0)">
<rect width="364" height="247" rx="9" fill="white"/>
<rect x="12" y="5" width="346.316" height="246" fill="white"/>
<ellipse cx="29.2253" cy="32.7533" rx="12.7964" ry="13.6999" fill="#3F98BB" stroke="#3F98BB" stroke-width="3"/>
<ellipse cx="67.6135" cy="32.7533" rx="12.7964" ry="13.6999" fill="#FFC850" stroke="#3F98BB" stroke-width="3"/>
<ellipse cx="110.269" cy="32.7533" rx="12.7964" ry="13.6999" fill="#F35E98" fill-opacity="0.4" stroke="#3F98BB" stroke-width="3"/>
<rect x="140.441" y="18.9838" width="202.652" height="27.8866" rx="4" fill="white" stroke="#3F98BB" stroke-width="3"/>
<path d="M67.1821 68.7409H342.093C342.645 68.7409 343.093 69.1886 343.093 69.7409V108.575C343.093 109.127 342.645 109.575 342.093 109.575H67.1821V68.7409Z" fill="white" stroke="#3F98BB" stroke-width="3"/>
<path d="M15 70C15 69.4477 15.4477 69 16 69H66V109.83H16C15.4477 109.83 15 109.382 15 108.83V70Z" stroke="#3F98BB" stroke-width="3"/>
<ellipse cx="42.0209" cy="86.6859" rx="8.53091" ry="9.13324" fill="white" stroke="#3F98BB" stroke-width="3"/>
<line y1="-1.5" x2="15.7214" y2="-1.5" transform="matrix(0.813945 0.580943 -0.528595 0.848875 46.2864 91.2525)" stroke="#3F98BB" stroke-width="3"/>
<rect width="116.565" height="41.0996" transform="matrix(1 0 0 -1 226.528 173.585)" fill="#FFC850" stroke="black" stroke-width="3"/>
<rect width="116.565" height="41.0996" transform="matrix(1 0 0 -1 226.528 232.951)" fill="#3F98BB" fill-opacity="0.7" stroke="black" stroke-width="3"/>
<rect width="196.943" height="104.575" transform="matrix(1 0 0 -1 16.7571 236.02)" fill="white" stroke="#3F98BB" stroke-width="3"/>
<path d="M144.422 215.201L123.457 168.469L172.709 170.76L159.732 182.27L191.664 203.605L179.772 220.932L149.403 199.574L144.422 215.201ZM126.693 170.745L144.61 209.978L148.14 196.465L178.508 217.824L188.348 203.488L156.417 182.151L167.94 172.758L126.693 170.745Z" fill="black" stroke="#3F98BB" stroke-width="3"/>
</g>
<rect x="1.5" y="1.5" width="361" height="244" rx="7.5" stroke="#3F98BB" stroke-width="3"/>
</g>
<defs>
<filter id="filter0_d" x="0" y="0" width="372" height="255" filterUnits="userSpaceOnUse" color-interpolation-filters="sRGB">
<feFlood flood-opacity="0" result="BackgroundImageFix"/>
<feColorMatrix in="SourceAlpha" type="matrix" values="0 0 0 0 0 0 0 0 0 0 0 0 0 0 0 0 0 0 127 0"/>
<feOffset dx="4" dy="4"/>
<feGaussianBlur stdDeviation="2"/>
<feColorMatrix type="matrix" values="0 0 0 0 0 0 0 0 0 0 0 0 0 0 0 0 0 0 0.25 0"/>
<feBlend mode="normal" in2="BackgroundImageFix" result="effect1_dropShadow"/>
<feBlend mode="normal" in="SourceGraphic" in2="effect1_dropShadow" result="shape"/>
</filter>
<clipPath id="clip0">
<rect width="364" height="247" rx="9" fill="white"/>
</clipPath>
</defs>
</svg>
